<?xml version="1.0" encoding="utf-8"?>
<!-- Generator: Adobe Illustrator 26.1.0, SVG Export Plug-In . SVG Version: 6.00 Build 0)  -->
<svg version="1.1" id="r2" xmlns="http://www.w3.org/2000/svg" xmlns:xlink="http://www.w3.org/1999/xlink" x="0px" y="0px"
	 viewBox="0 0 349 99.9" style="enable-background:new 0 0 349 99.9;" xml:space="preserve">
<style type="text/css">
	.st0{fill:none;stroke:#C90D0C;stroke-width:0.288;stroke-linecap:round;stroke-miterlimit:11.3386;}
	.st1{fill:none;stroke:#C90D0C;stroke-width:0.576;stroke-linecap:round;stroke-miterlimit:11.3386;}
	.st2{fill:none;stroke:#0DAB76;stroke-width:0.432;stroke-linecap:round;stroke-miterlimit:11.3386;}
	.st3{fill:#0DAB76;}
	.st4{fill:none;stroke:#C90D0C;stroke-width:0.432;stroke-linecap:round;stroke-miterlimit:11.3386;}
	.st5{fill:none;stroke:#C90D0C;stroke-width:0.72;stroke-linecap:round;stroke-miterlimit:11.3386;}
	.st6{fill:none;stroke:#C90D0C;stroke-width:1.152;stroke-linecap:round;stroke-miterlimit:11.3386;}
	.st7{fill:none;stroke:#C90D0C;stroke-width:1.728;stroke-linecap:round;stroke-miterlimit:11.3386;}
	.st8{fill:none;stroke:#C90D0C;stroke-width:1.44;stroke-miterlimit:11.3386;}
	.st9{fill:#C90D0C;}
	.st10{fill:none;stroke:#C90D0C;stroke-width:0.504;stroke-linecap:round;stroke-miterlimit:11.3386;}
	.st11{fill:none;stroke:#C90D0C;stroke-width:3.6;stroke-miterlimit:11.3386;}
	.st12{fill:none;stroke:#C90D0C;stroke-width:0.36;stroke-miterlimit:11.3386;}
	.st13{fill:none;stroke:#C90D0C;stroke-width:1.152;stroke-miterlimit:11.3386;}
	.st14{fill:none;stroke:#C90D0C;stroke-width:0.36;stroke-linecap:round;stroke-miterlimit:11.3386;}
	.st15{fill:#808080;}
	.st16{font-family:'ArialMT';}
	.st17{font-size:3.96px;}
	.st18{font-size:5.544px;}
	.st19{font-size:4.752px;}
	.st20{font-size:3.168px;}
</style>
<g id="Border">
	<line class="st0" x1="215" y1="467.6" x2="373.4" y2="467.6"/>
	<line class="st0" x1="503" y1="410" x2="373.4" y2="410"/>
	<line class="st0" x1="503" y1="410" x2="503" y2="424.4"/>
	<line class="st0" x1="503" y1="424.4" x2="503" y2="438.8"/>
	<line class="st0" x1="503" y1="438.8" x2="503" y2="453.2"/>
	<line class="st0" x1="373.4" y1="453.2" x2="373.4" y2="467.6"/>
	<line class="st0" x1="373.4" y1="467.6" x2="503" y2="467.6"/>
	<line class="st0" x1="373.4" y1="410" x2="373.4" y2="424.4"/>
	<line class="st0" x1="373.4" y1="424.4" x2="373.4" y2="438.8"/>
	<line class="st0" x1="373.4" y1="438.8" x2="373.4" y2="453.2"/>
	<line class="st0" x1="373.4" y1="453.2" x2="503" y2="453.2"/>
	<line class="st0" x1="503" y1="453.2" x2="503" y2="467.6"/>
	<line class="st0" x1="373.4" y1="438.8" x2="503" y2="438.8"/>
	<line class="st0" x1="373.4" y1="424.4" x2="503" y2="424.4"/>
	<line class="st0" x1="373.4" y1="410" x2="215" y2="410"/>
	<line class="st0" x1="215" y1="410" x2="215" y2="467.6"/>
	<path class="st1" d="M381.7,458.2l-1.1-1.1 M380.6,457.1h-2.2 M378.4,457.1l-1.1,1.1 M377.3,458.2v1.1 M377.3,459.3l1.1,1.1
		 M378.4,460.4h2.2 M380.6,460.4l1.1,1.1 M381.7,461.5v1.1 M381.7,462.6l-1.1,1.1 M380.6,463.7h-2.2 M378.4,463.7l-1.1-1.1
		 M383.9,457.1v6.6 M383.9,460.4l1.1-1.1 M385,459.3h2.2 M387.2,459.3l1.1,1.1 M388.3,460.4v3.3 M393.9,463.7h-2.2 M391.6,463.7
		l-1.1-1.1 M390.5,462.6v-2.2 M390.5,460.4l1.1-1.1 M391.6,459.3h2.2 M393.9,459.3l1.1,1.1 M395,460.4v1.1 M395,461.5h-4.4
		 M400.5,463.7h-2.2 M398.3,463.7l-1.1-1.1 M397.2,462.6v-2.2 M397.2,460.4l1.1-1.1 M398.3,459.3h2.2 M400.5,459.3l1.1,1.1
		 M401.6,460.4v1.1 M401.6,461.5h-4.4 M404.9,458.2v4.4 M404.9,462.6l1.1,1.1 M403.8,459.3h2.2 M408.2,459.3h1.1 M409.3,459.3v1.1
		 M409.3,460.4h-1.1 M408.2,460.4v-1.1 M408.2,462.6h1.1 M409.3,462.6v1.1 M409.3,463.7h-1.1 M408.2,463.7v-1.1"/>
	<path class="st1" d="M380.6,449.3v-6.6 M380.6,442.7l-3.3,3.3 M377.3,446h4.4 M383.9,449.3l4.4-6.6 M390.5,442.7h4.4 M395,442.7
		v1.1 M395,443.8l-4.4,4.4 M390.5,448.2v1.1 M397.2,449.3l4.4-6.6 M408.2,449.3h-4.4 M403.8,449.3l4.4-4.4 M408.2,444.9v-1.1
		 M408.2,443.8l-1.1-1.1 M407.1,442.7h-2.2 M404.9,442.7l-1.1,1.1 M410.4,448.2v-4.4 M410.4,443.8l1.1-1.1 M411.5,442.7h2.2
		 M413.7,442.7l1.1,1.1 M414.9,443.8v4.4 M414.9,448.2l-1.1,1.1 M413.7,449.3h-2.2 M411.5,449.3l-1.1-1.1 M410.4,448.2l4.4-4.4
		 M421.5,449.3h-4.4 M417.1,449.3l4.4-4.4 M421.5,444.9v-1.1 M421.5,443.8l-1.1-1.1 M420.4,442.7h-2.2 M418.2,442.7l-1.1,1.1
		 M428.1,449.3h-4.4 M423.7,449.3l4.4-4.4 M428.1,444.9v-1.1 M428.1,443.8l-1.1-1.1 M427,442.7h-2.2 M424.8,442.7l-1.1,1.1
		 M437,448.2l1.1,1.1 M438.1,449.3h2.2 M440.3,449.3l1.1-1.1 M441.4,448.2v-4.4 M441.4,443.8l-1.1-1.1 M440.3,442.7h-2.2
		 M438.1,442.7l-1.1,1.1 M437,443.8v1.1 M437,444.9l1.1,1.1 M438.1,446h3.3 M443.6,444.9h1.1 M444.7,444.9v1.1 M444.7,446h-1.1
		 M443.6,446v-1.1 M443.6,448.2h1.1 M444.7,448.2v1.1 M444.7,449.3h-1.1 M443.6,449.3v-1.1 M450.2,449.3v-6.6 M450.2,442.7l-3.3,3.3
		 M446.9,446h4.4 M457.9,449.3h-4.4 M453.5,449.3l4.4-4.4 M457.9,444.9v-1.1 M457.9,443.8l-1.1-1.1 M456.8,442.7h-2.2 M454.6,442.7
		l-1.1,1.1 M466.8,449.3v-6.6 M466.8,442.7h3.3 M470.1,442.7l1.1,1.1 M471.2,443.8v2.2 M471.2,446l-1.1,1.1 M470.1,447.1h-3.3
		 M473.4,449.3v-6.6 M473.4,442.7l2.2,2.2 M475.6,444.9l2.2-2.2 M477.8,442.7v6.6"/>
	<path class="st1" d="M416.9,459.3l2.2-2.2 M419.1,457.1v6.6 M416.9,463.7h4.4 M423.5,463.7l4.4-6.6 M430.1,459.3l2.2-2.2
		 M432.4,457.1v6.6 M430.1,463.7h4.4"/>
	<path class="st1" d="M380.6,428.3h-2.2 M378.4,428.3l-1.1,1.1 M377.3,429.4v4.4 M377.3,433.8l1.1,1.1 M378.4,434.9h2.2
		 M380.6,434.9l1.1-1.1 M381.7,433.8v-4.4 M381.7,429.4l-1.1-1.1 M383.9,434.9v-6.6 M383.9,428.3h3.3 M387.2,428.3l1.1,1.1
		 M388.3,429.4v2.2 M388.3,431.6l-1.1,1.1 M387.2,432.7h-3.3 M390.5,434.9v-6.6 M390.5,428.3l4.4,6.6 M395,434.9v-6.6 M397.2,437.2
		v-6.6 M397.2,430.5h3.3 M400.5,430.5l1.1,1.1 M401.6,431.6v2.2 M401.6,433.8l-1.1,1.1 M400.5,434.9h-3.3 M404.9,434.9h2.2
		 M407.1,434.9l1.1-1.1 M408.2,433.8v-2.2 M408.2,431.6l-1.1-1.1 M407.1,430.5h-2.2 M404.9,430.5l-1.1,1.1 M403.8,431.6v2.2
		 M403.8,433.8l1.1,1.1 M411.5,434.9h2.2 M413.7,434.9l1.1-1.1 M414.9,433.8v-2.2 M414.9,431.6l-1.1-1.1 M413.7,430.5h-2.2
		 M411.5,430.5l-1.1,1.1 M410.4,431.6v2.2 M410.4,433.8l1.1,1.1 M417.1,428.3h1.1 M418.2,428.3v6.6 M417.1,434.9h2.2 M428.1,434.9
		v-4.4 M428.1,432.7l2.2-2.2 M430.3,430.5h1.1 M438.1,434.9h-4.4 M433.6,434.9l4.4-4.4 M438.1,430.5v-1.1 M438.1,429.4l-1.1-1.1
		 M437,428.3h-2.2 M434.7,428.3l-1.1,1.1"/>
	<text transform="matrix(1 0 0 1 222.1963 464.0349)" class="st9 st16" style="font-size:7.92px;">https://github.com/cvonk/OPNpool</text>
	<text transform="matrix(1 0 0 1 222.1963 420.8347)" class="st9 st16 st18">OPNpool a Wi-Fi Pool Interface</text>
	<path class="st1" d="M381.7,415l-1.1-1.1 M380.6,413.9h-2.2 M378.4,413.9l-1.1,1.1 M377.3,415v4.4 M377.3,419.4l1.1,1.1
		 M378.4,420.5h2.2 M380.6,420.5l1.1-1.1 M385,420.5h2.2 M387.2,420.5l1.1-1.1 M388.3,419.4v-2.2 M388.3,417.2l-1.1-1.1
		 M387.2,416.1H385 M385,416.1l-1.1,1.1 M383.9,417.2v2.2 M383.9,419.4l1.1,1.1 M393.9,420.5h-2.2 M391.6,420.5l-1.1-1.1
		 M390.5,419.4v-2.2 M390.5,417.2l1.1-1.1 M391.6,416.1h2.2 M393.9,416.1l1.1,1.1 M395,417.2v1.1 M395,418.3h-4.4 M397.2,420.5v-4.4
		 M397.2,418.3l2.2-2.2 M399.4,416.1h1.1 M403.8,415v4.4 M403.8,419.4l1.1,1.1 M402.7,416.1h2.2 M413.7,413.9v4.4 M413.7,418.3
		l2.2,2.2 M416,420.5l2.2-2.2 M418.2,418.3v-4.4 M421.5,420.5h2.2 M423.7,420.5l1.1-1.1 M424.8,419.4v-2.2 M424.8,417.2l-1.1-1.1
		 M423.7,416.1h-2.2 M421.5,416.1l-1.1,1.1 M420.4,417.2v2.2 M420.4,419.4l1.1,1.1 M427,420.5v-4.4 M427,416.1h3.3 M430.3,416.1
		l1.1,1.1 M431.4,417.2v3.3 M433.6,420.5v-6.6 M437,420.5l-3.3-2.2 M433.6,418.3l3.3-2.2"/>
</g>
<g id="Logic">
	<text transform="matrix(6.123234e-17 -1 1 6.123234e-17 -136.3607 216.2531)" style="enable-background:new    ;"><tspan x="0" y="0" class="st15 st16 st18">Up chip degugging </tspan><tspan x="16" y="6.7" class="st15 st16 st18">JTAG</tspan></text>
	<text transform="matrix(6.123234e-17 -1 1 6.123234e-17 378.4355 310.0215)" class="st15 st16 st18">PoolController</text>
	<text transform="matrix(1 0 0 1 88.708 309.9548)" class="st15 st16 st18">Green</text>
	<text transform="matrix(1 0 0 1 123.7881 309.9548)" class="st15 st16 st18">Amber</text>
	<line class="st2" x1="-123.4" y1="158" x2="-123.4" y2="179.6"/>
	<line class="st2" x1="-123.4" y1="179.6" x2="-109" y2="179.6"/>
	<line class="st2" x1="330.2" y1="244.4" x2="330.2" y2="280.4"/>
	<line class="st2" x1="330.2" y1="280.4" x2="333.8" y2="280.4"/>
	<text transform="matrix(1 0 0 1 330.1963 244.4353)" class="st15 st16 st18">15V</text>
	<g>
		<line class="st2" x1="251" y1="287.6" x2="258.2" y2="287.6"/>
		<line class="st2" x1="258.2" y1="287.6" x2="333.8" y2="287.6"/>
		<line class="st2" x1="258.2" y1="258.8" x2="258.2" y2="287.6"/>
		<circle class="st3" cx="258.2" cy="287.6" r="1.4"/>
		<text transform="matrix(1 0 0 1 272.5967 287.6345)" class="st15 st16 st18">A</text>
	</g>
	<g>
		<line class="st2" x1="251" y1="273.2" x2="315.8" y2="273.2"/>
		<line class="st2" x1="315.8" y1="273.2" x2="315.8" y2="294.8"/>
		<line class="st2" x1="315.8" y1="294.8" x2="333.8" y2="294.8"/>
		<line class="st2" x1="315.8" y1="258.8" x2="315.8" y2="273.2"/>
		<circle class="st3" cx="315.8" cy="273.2" r="1.4"/>
		<text transform="matrix(1 0 0 1 272.5967 273.2341)" class="st15 st16 st18">B</text>
	</g>
	<line class="st2" x1="-109" y1="186.8" x2="-123.4" y2="186.8"/>
	<line class="st2" x1="-123.4" y1="186.8" x2="-123.4" y2="194"/>
	<line class="st2" x1="-123.4" y1="194" x2="-123.4" y2="201.2"/>
	<line class="st2" x1="-123.4" y1="201.2" x2="-123.4" y2="208.4"/>
	<line class="st2" x1="-109" y1="194" x2="-123.4" y2="194"/>
	<line class="st2" x1="-109" y1="201.2" x2="-123.4" y2="201.2"/>
	<line class="st2" x1="-109" y1="208.4" x2="-123.4" y2="208.4"/>
	<line class="st2" x1="-123.4" y1="208.4" x2="-123.4" y2="222.8"/>
	<circle class="st3" cx="-123.4" cy="194" r="1.4"/>
	<circle class="st3" cx="-123.4" cy="201.2" r="1.4"/>
	<circle class="st3" cx="-123.4" cy="208.4" r="1.4"/>
	<line class="st2" x1="330.2" y1="316.4" x2="330.2" y2="302"/>
	<line class="st2" x1="330.2" y1="302" x2="333.8" y2="302"/>
	<line class="st2" x1="85.4" y1="244.4" x2="99.8" y2="244.4"/>
	<line class="st2" x1="99.8" y1="244.4" x2="99.8" y2="251.6"/>
	<line class="st2" x1="85.4" y1="237.2" x2="99.8" y2="237.2"/>
	<line class="st2" x1="99.8" y1="237.2" x2="99.8" y2="244.4"/>
	<line class="st2" x1="85.4" y1="230" x2="99.8" y2="230"/>
	<line class="st2" x1="99.8" y1="230" x2="99.8" y2="237.2"/>
	<circle class="st3" cx="99.8" cy="244.4" r="1.4"/>
	<circle class="st3" cx="99.8" cy="237.2" r="1.4"/>
	<line class="st2" x1="150.2" y1="359.6" x2="150.2" y2="366.8"/>
	<line class="st2" x1="114.2" y1="359.6" x2="114.2" y2="366.8"/>
	<line class="st2" x1="135.8" y1="179.6" x2="150.2" y2="179.6"/>
	<line class="st2" x1="150.2" y1="179.6" x2="150.2" y2="186.8"/>
	<line class="st2" x1="150.2" y1="186.8" x2="150.2" y2="194"/>
	<line class="st2" x1="135.8" y1="186.8" x2="150.2" y2="186.8"/>
	<circle class="st3" cx="150.2" cy="186.8" r="1.4"/>
	<g>
		<line class="st2" x1="-73" y1="208.4" x2="-22.6" y2="208.4"/>
		<text transform="matrix(1 0 0 1 -65.8037 208.4353)" class="st15 st16 st18">JTAG_!RST</text>
	</g>
	<g>
		<line class="st2" x1="-73" y1="186.8" x2="-22.6" y2="186.8"/>
		<text transform="matrix(1 0 0 1 -65.8037 186.8337)" class="st15 st16 st18">JTAG_CK</text>
	</g>
	<g>
		<line class="st2" x1="-73" y1="201.2" x2="-22.6" y2="201.2"/>
		<text transform="matrix(1 0 0 1 -65.8037 201.2341)" class="st15 st16 st18">JTAG_DI</text>
	</g>
	<g>
		<line class="st2" x1="-73" y1="194" x2="-22.6" y2="194"/>
		<text transform="matrix(1 0 0 1 -65.8037 194.0349)" class="st15 st16 st18">JTAG_DO</text>
	</g>
	<g>
		<line class="st2" x1="-73" y1="179.6" x2="-22.6" y2="179.6"/>
		<text transform="matrix(1 0 0 1 -65.8037 179.6345)" class="st15 st16 st18">JTAG_MS</text>
	</g>
	<g>
		<line class="st2" x1="85.4" y1="179.6" x2="92.6" y2="179.6"/>
		<line class="st2" x1="92.6" y1="179.6" x2="99.8" y2="179.6"/>
		<line class="st2" x1="92.6" y1="179.6" x2="92.6" y2="186.8"/>
		<line class="st2" x1="92.6" y1="186.8" x2="99.8" y2="186.8"/>
		<circle class="st3" cx="92.6" cy="179.6" r="1.4"/>
	</g>
	<g>
		<line class="st2" x1="85.4" y1="294.8" x2="171.8" y2="294.8"/>
		<line class="st2" x1="171.8" y1="294.8" x2="171.8" y2="287.6"/>
		<line class="st2" x1="171.8" y1="287.6" x2="171.8" y2="273.2"/>
		<line class="st2" x1="171.8" y1="273.2" x2="179" y2="273.2"/>
		<line class="st2" x1="179" y1="287.6" x2="171.8" y2="287.6"/>
		<circle class="st3" cx="171.8" cy="287.6" r="1.4"/>
		<text transform="matrix(1 0 0 1 92.5967 294.8347)" class="st15 st16 st18">RTS</text>
	</g>
	<g>
		<line class="st2" x1="85.4" y1="280.4" x2="114.2" y2="280.4"/>
		<line class="st2" x1="114.2" y1="280.4" x2="114.2" y2="258.8"/>
		<line class="st2" x1="114.2" y1="258.8" x2="179" y2="258.8"/>
		<line class="st2" x1="114.2" y1="280.4" x2="114.2" y2="309.2"/>
		<circle class="st3" cx="114.2" cy="280.4" r="1.4"/>
		<text transform="matrix(1 0 0 1 92.5967 280.4343)" class="st15 st16 st18">RX2</text>
	</g>
	<g>
		<line class="st2" x1="85.4" y1="287.6" x2="150.2" y2="287.6"/>
		<line class="st2" x1="150.2" y1="287.6" x2="150.2" y2="302"/>
		<line class="st2" x1="150.2" y1="302" x2="150.2" y2="309.2"/>
		<line class="st2" x1="179" y1="302" x2="150.2" y2="302"/>
		<circle class="st3" cx="150.2" cy="302" r="1.4"/>
		<text transform="matrix(1 0 0 1 92.5967 287.6345)" class="st15 st16 st18">TX</text>
	</g>
	<g>
		<line class="st4" x1="-123.4" y1="158" x2="-123.4" y2="150.8"/>
		<line class="st5" x1="-119.8" y1="156.2" x2="-123.4" y2="150.8"/>
		<line class="st5" x1="-123.4" y1="150.8" x2="-127" y2="156.2"/>
		<text transform="matrix(1 0 0 1 -123.4033 147.2341)" class="st15 st16 st18">3V3</text>
	</g>
	<g>
		<line class="st4" x1="99.8" y1="251.6" x2="99.8" y2="258.8"/>
		<line class="st5" x1="94.4" y1="258.8" x2="105.2" y2="258.8"/>
		<text transform="matrix(1 0 0 1 99.7969 266.0349)" class="st15 st16 st18">GND</text>
	</g>
	<g>
		<line class="st4" x1="150.2" y1="366.8" x2="150.2" y2="374"/>
		<line class="st5" x1="155.6" y1="374" x2="144.8" y2="374"/>
		<text transform="matrix(1 0 0 1 145.0771 381.2341)" class="st15 st16 st18">GND</text>
	</g>
	<g>
		<line class="st4" x1="114.2" y1="366.8" x2="114.2" y2="374"/>
		<line class="st5" x1="119.6" y1="374" x2="108.8" y2="374"/>
		<text transform="matrix(1 0 0 1 109.0771 381.2341)" class="st15 st16 st18">GND</text>
	</g>
	<g>
		<line class="st4" x1="150.2" y1="194" x2="150.2" y2="201.2"/>
		<line class="st5" x1="155.6" y1="201.2" x2="144.8" y2="201.2"/>
		<text transform="matrix(1 0 0 1 145.0771 208.4353)" class="st15 st16 st18">GND</text>
	</g>
	<g>
		<line class="st4" x1="-123.4" y1="222.8" x2="-123.4" y2="230"/>
		<line class="st5" x1="-128.8" y1="230" x2="-118" y2="230"/>
		<text transform="matrix(1 0 0 1 -123.4033 237.2341)" class="st15 st16 st18">GND</text>
	</g>
	<g>
		<line class="st4" x1="330.2" y1="316.4" x2="330.2" y2="323.6"/>
		<line class="st5" x1="324.8" y1="323.6" x2="335.6" y2="323.6"/>
		<text transform="matrix(1 0 0 1 330.1963 330.8347)" class="st15 st16 st18">GND</text>
	</g>
	<g>
		<line class="st4" x1="333.8" y1="280.4" x2="348.2" y2="280.4"/>
		<text transform="matrix(1 0 0 1 354.8203 282.5945)" class="st15 st16 st19">15V</text>
		<text transform="matrix(1 0 0 1 338.9297 279.4265)" class="st15 st16 st19">1</text>
		<line class="st4" x1="333.8" y1="287.6" x2="348.2" y2="287.6"/>
		<text transform="matrix(1 0 0 1 354.8203 289.7947)" class="st15 st16 st19">A</text>
		<text transform="matrix(1 0 0 1 338.9297 286.6267)" class="st15 st16 st19">2</text>
		<line class="st4" x1="333.8" y1="294.8" x2="348.2" y2="294.8"/>
		<text transform="matrix(1 0 0 1 354.8203 296.9949)" class="st15 st16 st19">B</text>
		<text transform="matrix(1 0 0 1 338.9297 293.8269)" class="st15 st16 st19">3</text>
		<line class="st4" x1="333.8" y1="302" x2="348.2" y2="302"/>
		<text transform="matrix(1 0 0 1 354.8203 304.1941)" class="st15 st16 st19">GND</text>
		<text transform="matrix(1 0 0 1 338.9297 301.0261)" class="st15 st16 st19">4</text>
		<line class="st6" x1="369.8" y1="309.2" x2="344.6" y2="309.2"/>
		<line class="st7" x1="348.2" y1="280.4" x2="351.8" y2="280.4"/>
		<line class="st7" x1="348.2" y1="287.6" x2="351.8" y2="287.6"/>
		<line class="st7" x1="351.8" y1="294.8" x2="348.2" y2="294.8"/>
		<line class="st6" x1="344.6" y1="273.2" x2="344.6" y2="309.2"/>
		<line class="st6" x1="369.8" y1="309.2" x2="369.8" y2="273.2"/>
		<line class="st6" x1="344.6" y1="273.2" x2="369.8" y2="273.2"/>
		<line class="st7" x1="351.8" y1="302" x2="348.2" y2="302"/>
		<text transform="matrix(1 0 0 1 344.5967 316.4343)" class="st15 st16 st18">RS485-TERM</text>
		<text transform="matrix(1 0 0 1 344.5967 271.7947)" class="st15 st16 st18">J2</text>
	</g>
	<g>
		<circle class="st8" cx="-87.4" cy="179.6" r="0.9"/>
		<circle class="st8" cx="-94.6" cy="186.8" r="0.9"/>
		<circle class="st8" cx="-87.4" cy="186.8" r="0.9"/>
		<circle class="st8" cx="-87.4" cy="194" r="0.9"/>
		<circle class="st8" cx="-94.6" cy="194" r="0.9"/>
		<circle class="st8" cx="-94.6" cy="201.2" r="0.9"/>
		<circle class="st8" cx="-87.4" cy="201.2" r="0.9"/>
		<circle class="st8" cx="-87.4" cy="208.4" r="0.9"/>
		<circle class="st8" cx="-94.6" cy="208.4" r="0.9"/>
		<rect x="-96.2" y="178.1" class="st9" width="3.2" height="3.2"/>
		<line class="st4" x1="-109" y1="179.6" x2="-101.8" y2="179.6"/>
		<text transform="matrix(1 0 0 1 -105.4541 178.6267)" class="st15 st16 st19">1</text>
		<line class="st4" x1="-109" y1="186.8" x2="-101.8" y2="186.8"/>
		<text transform="matrix(1 0 0 1 -105.4541 185.8259)" class="st15 st16 st19">3</text>
		<line class="st4" x1="-109" y1="194" x2="-101.8" y2="194"/>
		<text transform="matrix(1 0 0 1 -105.4541 193.0271)" class="st15 st16 st19">5</text>
		<line class="st4" x1="-109" y1="201.2" x2="-101.8" y2="201.2"/>
		<text transform="matrix(1 0 0 1 -105.4541 200.2263)" class="st15 st16 st19">7</text>
		<line class="st4" x1="-109" y1="208.4" x2="-101.8" y2="208.4"/>
		<text transform="matrix(1 0 0 1 -105.4541 207.4255)" class="st15 st16 st19">9</text>
		<line class="st4" x1="-73" y1="208.4" x2="-80.2" y2="208.4"/>
		<text transform="matrix(1 0 0 1 -79.1953 207.4255)" class="st15 st16 st19">10</text>
		<line class="st4" x1="-73" y1="186.8" x2="-80.2" y2="186.8"/>
		<text transform="matrix(1 0 0 1 -79.1953 185.8259)" class="st15 st16 st19">4</text>
		<line class="st4" x1="-73" y1="201.2" x2="-80.2" y2="201.2"/>
		<text transform="matrix(1 0 0 1 -79.1953 200.2263)" class="st15 st16 st19">8</text>
		<line class="st4" x1="-73" y1="194" x2="-80.2" y2="194"/>
		<text transform="matrix(1 0 0 1 -79.1953 193.0271)" class="st15 st16 st19">6</text>
		<line class="st4" x1="-73" y1="179.6" x2="-80.2" y2="179.6"/>
		<text transform="matrix(1 0 0 1 -79.1953 178.6267)" class="st15 st16 st19">2</text>
		<line class="st6" x1="-101.8" y1="165.2" x2="-80.2" y2="165.2"/>
		<line class="st6" x1="-80.2" y1="222.8" x2="-80.2" y2="208.4"/>
		<line class="st6" x1="-80.2" y1="208.4" x2="-80.2" y2="201.2"/>
		<line class="st6" x1="-80.2" y1="201.2" x2="-80.2" y2="194"/>
		<line class="st6" x1="-80.2" y1="194" x2="-80.2" y2="186.8"/>
		<line class="st6" x1="-80.2" y1="186.8" x2="-80.2" y2="179.6"/>
		<line class="st6" x1="-80.2" y1="179.6" x2="-80.2" y2="165.2"/>
		<line class="st6" x1="-80.2" y1="222.8" x2="-101.8" y2="222.8"/>
		<line class="st6" x1="-101.8" y1="165.2" x2="-101.8" y2="179.6"/>
		<line class="st6" x1="-101.8" y1="179.6" x2="-101.8" y2="186.8"/>
		<line class="st6" x1="-101.8" y1="186.8" x2="-101.8" y2="190.4"/>
		<line class="st6" x1="-101.8" y1="197.6" x2="-101.8" y2="201.2"/>
		<line class="st6" x1="-101.8" y1="201.2" x2="-101.8" y2="208.4"/>
		<line class="st6" x1="-101.8" y1="208.4" x2="-101.8" y2="222.8"/>
		<line class="st10" x1="-101.8" y1="179.6" x2="-94.6" y2="179.6"/>
		<line class="st10" x1="-101.8" y1="186.8" x2="-94.6" y2="186.8"/>
		<line class="st10" x1="-101.8" y1="201.2" x2="-94.6" y2="201.2"/>
		<line class="st10" x1="-101.8" y1="208.4" x2="-94.6" y2="208.4"/>
		<line class="st10" x1="-87.4" y1="208.4" x2="-80.2" y2="208.4"/>
		<line class="st10" x1="-87.4" y1="201.2" x2="-80.2" y2="201.2"/>
		<line class="st10" x1="-87.4" y1="194" x2="-80.2" y2="194"/>
		<line class="st10" x1="-87.4" y1="186.8" x2="-80.2" y2="186.8"/>
		<line class="st10" x1="-87.4" y1="179.6" x2="-80.2" y2="179.6"/>
		<line class="st10" x1="-101.8" y1="194" x2="-94.6" y2="194"/>
		<text transform="matrix(1 0 0 1 -101.8037 161.6345)" class="st15 st16 st18">J3</text>
		<text transform="matrix(1 0 0 1 -101.8037 230.0349)" class="st15 st16 st18">ESP-JTAG</text>
	</g>
	<g>
		<polygon class="st9" points="104.5,322.6 105.6,320 107,321.5 		"/>
		<polygon class="st9" points="104.8,325.8 105.9,323.3 107.4,324.7 		"/>
		<line class="st4" x1="114.2" y1="309.2" x2="114.2" y2="316.4"/>
		<line class="st4" x1="114.2" y1="330.8" x2="114.2" y2="323.6"/>
		<line class="st5" x1="117.8" y1="316.4" x2="114.2" y2="323.6"/>
		<line class="st5" x1="114.2" y1="323.6" x2="110.6" y2="316.4"/>
		<line class="st5" x1="117.8" y1="323.6" x2="114.2" y2="323.6"/>
		<line class="st5" x1="114.2" y1="323.6" x2="110.6" y2="323.6"/>
		<line class="st5" x1="117.8" y1="316.4" x2="114.2" y2="316.4"/>
		<line class="st5" x1="114.2" y1="316.4" x2="110.6" y2="316.4"/>
		<line class="st4" x1="108.4" y1="318.6" x2="104.5" y2="322.6"/>
		<line class="st4" x1="108.8" y1="321.8" x2="104.8" y2="325.8"/>
		<text transform="matrix(6.123234e-17 -1 1 6.123234e-17 124.2764 329.3943)" class="st15 st16 st18">LED1</text>
		<text transform="matrix(6.123234e-17 -1 1 6.123234e-17 130.3955 329.3943)" class="st15 st16 st18">RX</text>
	</g>
	<g>
		<polygon class="st9" points="140.5,322.6 141.6,320 143,321.5 		"/>
		<polygon class="st9" points="140.8,325.8 141.9,323.3 143.4,324.7 		"/>
		<line class="st4" x1="150.2" y1="309.2" x2="150.2" y2="316.4"/>
		<line class="st4" x1="150.2" y1="330.8" x2="150.2" y2="323.6"/>
		<line class="st5" x1="153.8" y1="316.4" x2="150.2" y2="323.6"/>
		<line class="st5" x1="150.2" y1="323.6" x2="146.6" y2="316.4"/>
		<line class="st5" x1="153.8" y1="323.6" x2="150.2" y2="323.6"/>
		<line class="st5" x1="150.2" y1="323.6" x2="146.6" y2="323.6"/>
		<line class="st5" x1="153.8" y1="316.4" x2="150.2" y2="316.4"/>
		<line class="st5" x1="150.2" y1="316.4" x2="146.6" y2="316.4"/>
		<line class="st4" x1="144.4" y1="318.6" x2="140.5" y2="322.6"/>
		<line class="st4" x1="144.8" y1="321.8" x2="140.8" y2="325.8"/>
		<text transform="matrix(6.123234e-17 -1 1 6.123234e-17 160.2764 329.3943)" class="st15 st16 st18">LED2</text>
		<text transform="matrix(6.123234e-17 -1 1 6.123234e-17 166.3955 329.3943)" class="st15 st16 st18">TX</text>
	</g>
	<g>
		<line class="st4" x1="-22.6" y1="208.4" x2="-8.2" y2="208.4"/>
		<text transform="matrix(1 0 0 1 -1.5791 210.5935)" class="st15 st16 st19">!RST/!JTAG_!RST</text>
		<text transform="matrix(1 0 0 1 -21.4287 207.4255)" class="st15 st16 st19">RS</text>
		<line class="st4" x1="85.4" y1="230" x2="71" y2="230"/>
		<text transform="matrix(1 0 0 1 57.7666 232.1951)" class="st15 st16 st19">I34</text>
		<text transform="matrix(1 0 0 1 77.6201 229.0271)" class="st15 st16 st19">34</text>
		<line class="st4" x1="85.4" y1="179.6" x2="71" y2="179.6"/>
		<text transform="matrix(1 0 0 1 56.7129 181.7947)" class="st15 st16 st19">IO0</text>
		<text transform="matrix(1 0 0 1 77.6201 178.6267)" class="st15 st16 st19">0</text>
		<line class="st4" x1="85.4" y1="186.8" x2="71" y2="186.8"/>
		<text transform="matrix(1 0 0 1 56.7129 188.9939)" class="st15 st16 st19">IO2</text>
		<text transform="matrix(1 0 0 1 77.6201 185.8259)" class="st15 st16 st19">2</text>
		<line class="st4" x1="85.4" y1="194" x2="71" y2="194"/>
		<text transform="matrix(1 0 0 1 56.7129 196.1951)" class="st15 st16 st19">IO4</text>
		<text transform="matrix(1 0 0 1 77.6201 193.0271)" class="st15 st16 st19">4</text>
		<line class="st4" x1="-22.6" y1="251.6" x2="-8.2" y2="251.6"/>
		<text transform="matrix(1 0 0 1 -1.5791 253.7947)" class="st15 st16 st19">IO5/VSPI_CS/LED</text>
		<text transform="matrix(1 0 0 1 -17.4707 250.6267)" class="st15 st16 st19">5</text>
		<line class="st4" x1="-22.6" y1="201.2" x2="-8.2" y2="201.2"/>
		<text transform="matrix(1 0 0 1 -1.5791 203.3943)" class="st15 st16 st19">IO12/JTAG_DI</text>
		<text transform="matrix(1 0 0 1 -20.1133 200.2263)" class="st15 st16 st19">12</text>
		<line class="st4" x1="-22.6" y1="186.8" x2="-8.2" y2="186.8"/>
		<text transform="matrix(1 0 0 1 -1.5791 188.9939)" class="st15 st16 st19">IO13/JTAG_CK</text>
		<text transform="matrix(1 0 0 1 -20.1133 185.8259)" class="st15 st16 st19">13</text>
		<line class="st4" x1="-22.6" y1="179.6" x2="-8.2" y2="179.6"/>
		<text transform="matrix(1 0 0 1 -1.5791 181.7947)" class="st15 st16 st19">IO14/JTAG_MS</text>
		<text transform="matrix(1 0 0 1 -20.1133 178.6267)" class="st15 st16 st19">14</text>
		<line class="st4" x1="-22.6" y1="194" x2="-8.2" y2="194"/>
		<text transform="matrix(1 0 0 1 -1.5791 196.1951)" class="st15 st16 st19">IO15/JTAG_DO</text>
		<text transform="matrix(1 0 0 1 -20.1133 193.0271)" class="st15 st16 st19">15</text>
		<line class="st4" x1="85.4" y1="201.2" x2="71" y2="201.2"/>
		<text transform="matrix(1 0 0 1 54.0703 203.3943)" class="st15 st16 st19">IO16</text>
		<text transform="matrix(1 0 0 1 77.6201 200.2263)" class="st15 st16 st19">16</text>
		<line class="st4" x1="85.4" y1="208.4" x2="71" y2="208.4"/>
		<text transform="matrix(1 0 0 1 54.0703 210.5935)" class="st15 st16 st19">IO17</text>
		<text transform="matrix(1 0 0 1 77.6201 207.4255)" class="st15 st16 st19">17</text>
		<line class="st4" x1="-22.6" y1="244.4" x2="-8.2" y2="244.4"/>
		<text transform="matrix(1 0 0 1 -1.5791 246.5945)" class="st15 st16 st19">IO18/VSPI_CLK</text>
		<text transform="matrix(1 0 0 1 -20.1133 243.4255)" class="st15 st16 st19">18</text>
		<line class="st4" x1="-22.6" y1="237.2" x2="-8.2" y2="237.2"/>
		<text transform="matrix(1 0 0 1 -1.5791 239.3943)" class="st15 st16 st19">IO19/VSPI_MISO</text>
		<text transform="matrix(1 0 0 1 -20.1133 236.2263)" class="st15 st16 st19">19</text>
		<line class="st4" x1="-22.6" y1="266" x2="-8.2" y2="266"/>
		<text transform="matrix(1 0 0 1 -1.5791 268.1941)" class="st15 st16 st19">IO21/I2C_SDA</text>
		<text transform="matrix(1 0 0 1 -20.1133 265.0261)" class="st15 st16 st19">21</text>
		<line class="st4" x1="-22.6" y1="273.2" x2="-8.2" y2="273.2"/>
		<text transform="matrix(1 0 0 1 -1.5791 275.3943)" class="st15 st16 st19">IO22/I2C_SCL</text>
		<text transform="matrix(1 0 0 1 -20.1133 272.2263)" class="st15 st16 st19">22</text>
		<line class="st4" x1="-22.6" y1="230" x2="-8.2" y2="230"/>
		<text transform="matrix(1 0 0 1 -1.5791 232.1951)" class="st15 st16 st19">IO23/VSPI_MOSI</text>
		<text transform="matrix(1 0 0 1 -20.1133 229.0271)" class="st15 st16 st19">23</text>
		<line class="st4" x1="85.4" y1="215.6" x2="71" y2="215.6"/>
		<text transform="matrix(1 0 0 1 54.0703 217.7947)" class="st15 st16 st19">IO32</text>
		<text transform="matrix(1 0 0 1 77.6201 214.6267)" class="st15 st16 st19">32</text>
		<line class="st4" x1="85.4" y1="222.8" x2="71" y2="222.8"/>
		<text transform="matrix(1 0 0 1 54.0703 224.9939)" class="st15 st16 st19">IO33</text>
		<text transform="matrix(1 0 0 1 77.6201 221.8259)" class="st15 st16 st19">33</text>
		<line class="st4" x1="85.4" y1="294.8" x2="71" y2="294.8"/>
		<text transform="matrix(1 0 0 1 40.6895 296.9949)" class="st15 st16 st19">RTS2/IO27</text>
		<text transform="matrix(1 0 0 1 77.6201 293.8269)" class="st15 st16 st19">27</text>
		<line class="st4" x1="85.4" y1="258.8" x2="71" y2="258.8"/>
		<text transform="matrix(1 0 0 1 46.1484 260.9949)" class="st15 st16 st19">RX0/IO3</text>
		<text transform="matrix(1 0 0 1 77.6201 257.8269)" class="st15 st16 st19">RX</text>
		<line class="st4" x1="85.4" y1="280.4" x2="71" y2="280.4"/>
		<text transform="matrix(1 0 0 1 43.5059 282.5945)" class="st15 st16 st19">RX2/IO25</text>
		<text transform="matrix(1 0 0 1 77.6201 279.4265)" class="st15 st16 st19">25</text>
		<line class="st4" x1="85.4" y1="266" x2="71" y2="266"/>
		<text transform="matrix(1 0 0 1 46.6777 268.1941)" class="st15 st16 st19">TX0/IO1</text>
		<text transform="matrix(1 0 0 1 77.6201 265.0261)" class="st15 st16 st19">TX</text>
		<line class="st4" x1="85.4" y1="287.6" x2="71" y2="287.6"/>
		<text transform="matrix(1 0 0 1 44.0352 289.7947)" class="st15 st16 st19">TX2/IO26</text>
		<text transform="matrix(1 0 0 1 77.6201 286.6267)" class="st15 st16 st19">26</text>
		<line class="st4" x1="85.4" y1="244.4" x2="71" y2="244.4"/>
		<text transform="matrix(1 0 0 1 49.8447 246.5945)" class="st15 st16 st19">VN/I39</text>
		<text transform="matrix(1 0 0 1 77.6201 243.4255)" class="st15 st16 st19">VN</text>
		<line class="st4" x1="85.4" y1="237.2" x2="71" y2="237.2"/>
		<text transform="matrix(1 0 0 1 50.1074 239.3943)" class="st15 st16 st19">VP/I36</text>
		<text transform="matrix(1 0 0 1 77.6201 236.2263)" class="st15 st16 st19">VP</text>
		<line class="st5" x1="13.4" y1="302" x2="71" y2="302"/>
		<line class="st5" x1="71" y1="302" x2="71" y2="172.4"/>
		<line class="st5" x1="71" y1="172.4" x2="-8.2" y2="172.4"/>
		<line class="st5" x1="-8.2" y1="172.4" x2="-8.2" y2="280.4"/>
		<line class="st5" x1="-8.2" y1="280.4" x2="-8.2" y2="302"/>
		<line class="st5" x1="13.4" y1="280.4" x2="-8.2" y2="280.4"/>
		<line class="st5" x1="13.4" y1="302" x2="-8.2" y2="302"/>
		<line class="st5" x1="13.4" y1="280.4" x2="13.4" y2="302"/>
		<line class="st7" x1="9.1" y1="287.6" x2="12.7" y2="287.6"/>
		<line class="st7" x1="9.1" y1="294.8" x2="12.7" y2="294.8"/>
		<line class="st7" x1="9.1" y1="291.2" x2="12.7" y2="291.2"/>
		<line class="st7" x1="9.1" y1="284" x2="12.7" y2="284"/>
		<line class="st7" x1="9.1" y1="298.4" x2="12.7" y2="298.4"/>
		<text transform="matrix(6.123234e-17 -1 1 6.123234e-17 4.0361 298.4333)" class="st9 st16 st18">USB</text>
		<text transform="matrix(1 0 0 1 -8.2031 316.4343)" style="enable-background:new    ;"><tspan x="0" y="0" class="st9 st16 st17">I2C pins don&apos;t have pull-up resistors </tspan><tspan x="0" y="4.8" class="st9 st16 st17">USB Serial uses IO3 for RX0, and IO1 for TX0 </tspan><tspan x="0" y="9.5" class="st9 st16 st17">Read the BAT voltage from IO35 and double it</tspan></text>
		<text transform="matrix(1 0 0 1 -8.2031 168.8337)" class="st15 st16 st18">PCB1</text>
		<text transform="matrix(1 0 0 1 -8.2031 309.2341)" class="st15 st16 st18">LOLIN-D32</text>
	</g>
	<g>
		<line class="st4" x1="114.2" y1="359.6" x2="114.2" y2="352.4"/>
		<line class="st4" x1="114.2" y1="330.8" x2="114.2" y2="338"/>
		<line class="st5" x1="111.7" y1="352.4" x2="111.7" y2="338"/>
		<line class="st5" x1="116.7" y1="338" x2="116.7" y2="352.4"/>
		<line class="st5" x1="111.7" y1="338" x2="116.7" y2="338"/>
		<line class="st5" x1="111.7" y1="352.4" x2="116.7" y2="352.4"/>
		<text transform="matrix(6.123234e-17 -1 1 6.123234e-17 123.4834 356.0349)" class="st15 st16 st18">R1</text>
		<text transform="matrix(6.123234e-17 -1 1 6.123234e-17 131.4756 356.0349)" class="st15 st16 st18">68&amp;</text>
	</g>
	<g>
		<line class="st4" x1="150.2" y1="359.6" x2="150.2" y2="352.4"/>
		<line class="st4" x1="150.2" y1="330.8" x2="150.2" y2="338"/>
		<line class="st5" x1="147.7" y1="352.4" x2="147.7" y2="338"/>
		<line class="st5" x1="152.7" y1="338" x2="152.7" y2="352.4"/>
		<line class="st5" x1="147.7" y1="338" x2="152.7" y2="338"/>
		<line class="st5" x1="147.7" y1="352.4" x2="152.7" y2="352.4"/>
		<text transform="matrix(6.123234e-17 -1 1 6.123234e-17 159.4834 356.0349)" class="st15 st16 st18">R2</text>
		<text transform="matrix(6.123234e-17 -1 1 6.123234e-17 167.4756 356.0349)" class="st15 st16 st18">68&amp;</text>
	</g>
	<g>
		<line class="st4" x1="315.8" y1="258.8" x2="308.6" y2="258.8"/>
		<line class="st4" x1="287" y1="258.8" x2="294.2" y2="258.8"/>
		<line class="st5" x1="308.6" y1="261.4" x2="294.2" y2="261.4"/>
		<line class="st5" x1="294.2" y1="256.3" x2="308.6" y2="256.3"/>
		<line class="st5" x1="294.2" y1="261.4" x2="294.2" y2="256.3"/>
		<line class="st5" x1="308.6" y1="261.4" x2="308.6" y2="256.3"/>
		<text transform="matrix(1 0 0 1 305.1094 254.5867)" class="st15 st16 st18">R3</text>
		<text transform="matrix(1 0 0 1 299.249 268.1941)" class="st15 st16 st18">120&amp;</text>
	</g>
	<g>
		<line class="st4" x1="287" y1="258.8" x2="279.8" y2="258.8"/>
		<text transform="matrix(1 0 0 1 280.8047 257.8269)" class="st15 st16 st19">1</text>
		<line class="st4" x1="258.2" y1="258.8" x2="265.4" y2="258.8"/>
		<text transform="matrix(1 0 0 1 261.7461 257.8269)" class="st15 st16 st19">2</text>
		<path class="st11" d="M271.5,257c-1,0-1.8,0.8-1.8,1.8c0,1,0.8,1.8,1.8,1.8c0,0,0,0,0,0"/>
		<path class="st11" d="M273.7,260.6c1,0,1.8-0.8,1.8-1.8c0-1-0.8-1.8-1.8-1.8c0,0,0,0,0,0"/>
		<line class="st4" x1="265.4" y1="258.8" x2="267.9" y2="258.8"/>
		<line class="st4" x1="279.8" y1="258.8" x2="277.3" y2="258.8"/>
		<text transform="matrix(1 0 0 1 270.2432 251.6345)" class="st15 st16 st18">SJ1</text>
		<text transform="matrix(1 0 0 1 266.2451 245.1541)" class="st15 st16 st18">OPEN</text>
	</g>
	<g>
		<line class="st4" x1="99.8" y1="179.6" x2="107" y2="179.6"/>
		<text transform="matrix(1 0 0 1 103.3457 178.6267)" class="st15 st16 st19">1</text>
		<line class="st4" x1="99.8" y1="186.8" x2="107" y2="186.8"/>
		<text transform="matrix(1 0 0 1 103.3457 185.8259)" class="st15 st16 st19">2</text>
		<line class="st4" x1="135.8" y1="186.8" x2="128.6" y2="186.8"/>
		<text transform="matrix(1 0 0 1 129.6045 185.8259)" class="st15 st16 st19">3</text>
		<line class="st4" x1="135.8" y1="179.6" x2="128.6" y2="179.6"/>
		<text transform="matrix(1 0 0 1 129.6045 178.6267)" class="st15 st16 st19">4</text>
		<line class="st5" x1="107" y1="179.6" x2="107" y2="186.8"/>
		<line class="st5" x1="128.6" y1="179.6" x2="128.6" y2="186.8"/>
		<line class="st5" x1="107" y1="179.6" x2="110.6" y2="179.6"/>
		<line class="st5" x1="125" y1="179.6" x2="128.6" y2="179.6"/>
		<line class="st5" x1="110.6" y1="179.6" x2="125" y2="176"/>
		<text transform="matrix(1 0 0 1 106.9912 194.0232)" class="st15 st16" style="font-size:5.6168px;">SW1</text>
		<text transform="matrix(1 0 0 1 106.9912 172.4451)" class="st15 st16" style="font-size:5.6166px;">Factory (5 sec)</text>
	</g>
	<g>
		<circle class="st12" cx="211.4" cy="267.1" r="1.8"/>
		<circle class="st12" cx="220.4" cy="264.2" r="1.8"/>
		<circle class="st12" cx="216.1" cy="296.6" r="1.8"/>
		<circle class="st13" cx="225.8" cy="273.2" r="0.7"/>
		<circle class="st13" cx="234.8" cy="287.6" r="0.7"/>
		<line class="st4" x1="251" y1="287.6" x2="243.8" y2="287.6"/>
		<text transform="matrix(1 0 0 1 244.8047 286.6267)" class="st15 st16 st19">6</text>
		<line class="st4" x1="251" y1="273.2" x2="243.8" y2="273.2"/>
		<text transform="matrix(1 0 0 1 244.8047 272.2263)" class="st15 st16 st19">7</text>
		<line class="st4" x1="179" y1="287.6" x2="186.2" y2="287.6"/>
		<text transform="matrix(1 0 0 1 192.8203 289.7947)" class="st15 st16 st19">DE</text>
		<text transform="matrix(1 0 0 1 182.5459 286.6267)" class="st15 st16 st19">3</text>
		<line class="st4" x1="179" y1="302" x2="186.2" y2="302"/>
		<text transform="matrix(1 0 0 1 192.8203 304.1941)" class="st15 st16 st19">DI</text>
		<text transform="matrix(1 0 0 1 182.5459 301.0261)" class="st15 st16 st19">4</text>
		<line class="st4" x1="179" y1="273.2" x2="186.2" y2="273.2"/>
		<text transform="matrix(1 0 0 1 192.8203 275.3943)" class="st15 st16 st19">RE/</text>
		<text transform="matrix(1 0 0 1 182.5459 272.2263)" class="st15 st16 st19">2</text>
		<line class="st4" x1="179" y1="258.8" x2="186.2" y2="258.8"/>
		<text transform="matrix(1 0 0 1 192.8203 260.9949)" class="st15 st16 st19">RO</text>
		<text transform="matrix(1 0 0 1 182.5459 257.8269)" class="st15 st16 st19">1</text>
		<line class="st5" x1="186.2" y1="244.4" x2="243.8" y2="244.4"/>
		<line class="st5" x1="243.8" y1="244.4" x2="243.8" y2="273.2"/>
		<line class="st5" x1="243.8" y1="273.2" x2="243.8" y2="287.6"/>
		<line class="st5" x1="243.8" y1="287.6" x2="243.8" y2="316.4"/>
		<line class="st5" x1="243.8" y1="316.4" x2="186.2" y2="316.4"/>
		<line class="st5" x1="186.2" y1="316.4" x2="186.2" y2="302"/>
		<line class="st5" x1="186.2" y1="302" x2="186.2" y2="287.6"/>
		<line class="st5" x1="186.2" y1="287.6" x2="186.2" y2="273.2"/>
		<line class="st5" x1="186.2" y1="273.2" x2="186.2" y2="258.8"/>
		<line class="st5" x1="186.2" y1="258.8" x2="186.2" y2="244.4"/>
		<line class="st14" x1="218.6" y1="248" x2="218.6" y2="253.4"/>
		<line class="st14" x1="218.6" y1="253.4" x2="218.6" y2="269.6"/>
		<line class="st14" x1="218.6" y1="269.6" x2="202.4" y2="258.8"/>
		<line class="st14" x1="202.4" y1="258.8" x2="218.6" y2="248"/>
		<line class="st14" x1="202.4" y1="312.8" x2="202.4" y2="302"/>
		<line class="st14" x1="202.4" y1="302" x2="202.4" y2="291.2"/>
		<line class="st14" x1="202.4" y1="291.2" x2="222.2" y2="302"/>
		<line class="st14" x1="222.2" y1="302" x2="202.4" y2="312.8"/>
		<line class="st14" x1="205.6" y1="273.2" x2="211.4" y2="273.2"/>
		<line class="st14" x1="211.4" y1="273.2" x2="211.4" y2="268.9"/>
		<line class="st14" x1="200.6" y1="287.6" x2="209.6" y2="287.6"/>
		<line class="st14" x1="209.6" y1="287.6" x2="209.6" y2="295.2"/>
		<line class="st14" x1="234.8" y1="306.4" x2="234.8" y2="287.6"/>
		<line class="st14" x1="234.8" y1="287.6" x2="234.8" y2="253.4"/>
		<line class="st14" x1="218.6" y1="253.4" x2="234.8" y2="253.4"/>
		<line class="st14" x1="217.9" y1="296.6" x2="225.8" y2="296.6"/>
		<line class="st14" x1="225.8" y1="296.6" x2="225.8" y2="273.2"/>
		<line class="st14" x1="225.8" y1="273.2" x2="225.8" y2="264.2"/>
		<line class="st14" x1="225.8" y1="264.2" x2="222.2" y2="264.2"/>
		<line class="st14" x1="243.8" y1="273.2" x2="225.8" y2="273.2"/>
		<line class="st14" x1="243.8" y1="287.6" x2="234.8" y2="287.6"/>
		<line class="st14" x1="186.2" y1="258.8" x2="191.2" y2="258.8"/>
		<line class="st14" x1="201" y1="258.8" x2="202.4" y2="258.8"/>
		<line class="st14" x1="186.2" y1="273.2" x2="191.2" y2="273.2"/>
		<line class="st14" x1="186.2" y1="302" x2="190.9" y2="302"/>
		<line class="st14" x1="199.9" y1="302" x2="202.4" y2="302"/>
		<line class="st14" x1="186.2" y1="287.6" x2="190.9" y2="287.6"/>
		<line class="st14" x1="215" y1="306.4" x2="234.8" y2="306.4"/>
		<text transform="matrix(1 0 0 1 236.5967 294.8347)" class="st15 st16 st18">A</text>
		<text transform="matrix(1 0 0 1 236.5967 269.6345)" class="st15 st16 st18">B</text>
		<text transform="matrix(1 0 0 1 186.1963 240.8337)" class="st15 st16 st18">U1</text>
		<text transform="matrix(1 0 0 1 186.1963 323.6345)" class="st15 st16 st18">MAX3485CSA+</text>
	</g>
</g>
<g id="Power">
	<text transform="matrix(1 0 0 1 320.1162 68.7537)" class="st15 st16 st17">bypass</text>
	<line class="st2" x1="251" y1="21.2" x2="251" y2="35.6"/>
	<line class="st2" x1="294.2" y1="21.2" x2="294.2" y2="28.4"/>
	<line class="st2" x1="315.8" y1="28.4" x2="315.8" y2="35.6"/>
	<line class="st2" x1="315.8" y1="28.4" x2="294.2" y2="28.4"/>
	<circle class="st3" cx="294.2" cy="28.4" r="1.4"/>
	<line class="st2" x1="35" y1="35.6" x2="6.2" y2="35.6"/>
	<text transform="matrix(1 0 0 1 6.1963 35.6345)" class="st15 st16 st18">15V</text>
	<line class="st2" x1="99.8" y1="78.8" x2="99.8" y2="71.6"/>
	<line class="st2" x1="56.6" y1="78.8" x2="56.6" y2="71.6"/>
	<line class="st2" x1="135.8" y1="71.6" x2="135.8" y2="78.8"/>
	<line class="st2" x1="251" y1="64.4" x2="251" y2="78.8"/>
	<line class="st2" x1="294.2" y1="78.8" x2="294.2" y2="71.6"/>
	<line class="st2" x1="315.8" y1="71.6" x2="315.8" y2="57.2"/>
	<line class="st2" x1="315.8" y1="71.6" x2="294.2" y2="71.6"/>
	<circle class="st3" cx="294.2" cy="71.6" r="1.4"/>
	<g>
		<line class="st2" x1="49.4" y1="35.6" x2="56.6" y2="35.6"/>
		<line class="st2" x1="56.6" y1="35.6" x2="63.8" y2="35.6"/>
		<line class="st2" x1="56.6" y1="50" x2="56.6" y2="35.6"/>
		<circle class="st3" cx="56.6" cy="35.6" r="1.4"/>
	</g>
	<g>
		<line class="st2" x1="135.8" y1="50" x2="135.8" y2="35.6"/>
		<line class="st2" x1="135.8" y1="35.6" x2="164.6" y2="35.6"/>
		<circle class="st3" cx="135.8" cy="35.6" r="1.4"/>
	</g>
	<g>
		<line class="st4" x1="294.2" y1="21.2" x2="294.2" y2="14"/>
		<line class="st5" x1="297.8" y1="19.4" x2="294.2" y2="14"/>
		<line class="st5" x1="294.2" y1="14" x2="290.6" y2="19.4"/>
		<text transform="matrix(1 0 0 1 294.1963 10.4353)" class="st15 st16 st18">3V3</text>
	</g>
	<line class="st4" x1="251" y1="21.2" x2="251" y2="14"/>
	<line class="st5" x1="254.6" y1="19.4" x2="251" y2="14"/>
	<line class="st5" x1="251" y1="14" x2="247.4" y2="19.4"/>
	<text transform="matrix(1 0 0 1 250.9961 10.4353)" class="st15 st16 st18">3V3</text>
	<g>
		<rect x="50.8" y="61.6" class="st9" width="11.5" height="1.4"/>
		<rect x="50.8" y="58.7" class="st9" width="11.5" height="1.4"/>
		<line class="st4" x1="56.6" y1="50" x2="56.6" y2="57.2"/>
		<line class="st4" x1="56.6" y1="71.6" x2="56.6" y2="64.4"/>
		<line class="st4" x1="56.6" y1="57.2" x2="56.6" y2="58.7"/>
		<line class="st4" x1="56.6" y1="64.4" x2="56.6" y2="63"/>
		<text transform="matrix(1 0 0 1 60.916 56.154)" class="st15 st16 st18">C1</text>
		<text transform="matrix(1 0 0 1 60.916 70.5544)" class="st15 st16 st18">10uF mlcc 25V</text>
	</g>
	<g>
		<rect x="130" y="61.6" class="st9" width="11.5" height="1.4"/>
		<rect x="130" y="58.7" class="st9" width="11.5" height="1.4"/>
		<line class="st4" x1="135.8" y1="50" x2="135.8" y2="57.2"/>
		<line class="st4" x1="135.8" y1="71.6" x2="135.8" y2="64.4"/>
		<line class="st4" x1="135.8" y1="57.2" x2="135.8" y2="58.7"/>
		<line class="st4" x1="135.8" y1="64.4" x2="135.8" y2="63"/>
		<text transform="matrix(1 0 0 1 140.1162 56.154)" class="st15 st16 st18">C2</text>
		<text transform="matrix(1 0 0 1 140.1162 70.5544)" class="st15 st16 st18">10uF mlcc</text>
	</g>
	<g>
		<rect x="310" y="47.2" class="st9" width="11.5" height="1.4"/>
		<rect x="310" y="44.3" class="st9" width="11.5" height="1.4"/>
		<line class="st4" x1="315.8" y1="35.6" x2="315.8" y2="42.8"/>
		<line class="st4" x1="315.8" y1="57.2" x2="315.8" y2="50"/>
		<line class="st4" x1="315.8" y1="42.8" x2="315.8" y2="44.3"/>
		<line class="st4" x1="315.8" y1="50" x2="315.8" y2="48.6"/>
		<text transform="matrix(1 0 0 1 320.1162 41.7537)" class="st15 st16 st18">C3</text>
		<text transform="matrix(1 0 0 1 320.1162 56.154)" class="st15 st16 st18">0.1uF cer.</text>
	</g>
	<line class="st4" x1="35" y1="35.6" x2="42.2" y2="35.6"/>
	<line class="st4" x1="49.4" y1="35.6" x2="42.2" y2="35.6"/>
	<line class="st5" x1="38.6" y1="39.2" x2="45.8" y2="35.6"/>
	<line class="st5" x1="45.8" y1="35.6" x2="38.6" y2="32"/>
	<line class="st5" x1="47.6" y1="32" x2="45.8" y2="32"/>
	<line class="st5" x1="45.8" y1="32" x2="45.8" y2="35.6"/>
	<line class="st5" x1="38.6" y1="32" x2="38.6" y2="39.2"/>
	<line class="st5" x1="45.8" y1="35.6" x2="45.8" y2="39.2"/>
	<line class="st5" x1="47.6" y1="32" x2="47.6" y2="32.8"/>
	<line class="st5" x1="45.8" y1="39.2" x2="44" y2="39.2"/>
	<line class="st5" x1="44" y1="38.5" x2="44" y2="39.2"/>
	<text transform="matrix(1 0 0 1 42.1963 30.2341)" class="st15 st16 st18">D2</text>
	<text transform="matrix(1 0 0 1 42.1963 46.074)" class="st15 st16 st18">1N5818</text>
	<g>
		<line class="st4" x1="99.8" y1="71.6" x2="99.8" y2="50"/>
		<text transform="matrix(6.123234e-17 -1 1 6.123234e-17 98.7881 59.3005)" class="st15 st16 st19">2</text>
		<line class="st4" x1="63.8" y1="35.6" x2="78.2" y2="35.6"/>
		<text transform="matrix(1 0 0 1 84.8203 37.7947)" class="st15 st16 st19">VIN</text>
		<text transform="matrix(1 0 0 1 68.9297 34.6267)" class="st15 st16 st19">1</text>
		<line class="st4" x1="135.8" y1="35.6" x2="121.4" y2="35.6"/>
		<text transform="matrix(1 0 0 1 101.5723 37.7947)" class="st15 st16 st19">VOUT</text>
		<text transform="matrix(1 0 0 1 128.0205 34.6267)" class="st15 st16 st19">3</text>
		<line class="st6" x1="78.2" y1="21.2" x2="121.4" y2="21.2"/>
		<line class="st6" x1="121.4" y1="21.2" x2="121.4" y2="50"/>
		<line class="st6" x1="121.4" y1="50" x2="78.2" y2="50"/>
		<line class="st6" x1="78.2" y1="50" x2="78.2" y2="21.2"/>
		<text transform="matrix(1 0 0 1 99.7969 27.3552)" class="st9 st16 st17">DC/DC</text>
		<text transform="matrix(1 0 0 1 92.5967 46.4353)" class="st15 st16 st19">GND</text>
		<text transform="matrix(1 0 0 1 78.1963 11.8748)" class="st15 st16 st18">DC1</text>
		<text transform="matrix(1 0 0 1 78.1963 18.3552)" class="st15 st16 st18">R-78E5.0-0.5</text>
	</g>
	<g>
		<line class="st4" x1="56.6" y1="78.8" x2="56.6" y2="86"/>
		<line class="st5" x1="62" y1="86" x2="51.2" y2="86"/>
		<text transform="matrix(1 0 0 1 51.4766 93.2341)" class="st15 st16 st18">GND</text>
	</g>
	<g>
		<line class="st4" x1="135.8" y1="78.8" x2="135.8" y2="86"/>
		<line class="st5" x1="141.2" y1="86" x2="130.4" y2="86"/>
		<text transform="matrix(1 0 0 1 130.6768 93.2341)" class="st15 st16 st18">GND</text>
	</g>
	<g>
		<line class="st4" x1="99.8" y1="78.8" x2="99.8" y2="86"/>
		<line class="st5" x1="105.2" y1="86" x2="94.4" y2="86"/>
		<text transform="matrix(1 0 0 1 94.6768 93.2341)" class="st15 st16 st18">GND</text>
	</g>
	<line class="st4" x1="251" y1="78.8" x2="251" y2="86"/>
	<line class="st5" x1="245.6" y1="86" x2="256.4" y2="86"/>
	<text transform="matrix(1 0 0 1 250.9961 93.2341)" class="st15 st16 st18">GND</text>
	<line class="st4" x1="294.2" y1="78.8" x2="294.2" y2="86"/>
	<line class="st5" x1="288.8" y1="86" x2="299.6" y2="86"/>
	<text transform="matrix(1 0 0 1 294.1963 93.2341)" class="st15 st16 st18">GND</text>
	<g>
		<line class="st4" x1="251" y1="35.6" x2="236.6" y2="35.6"/>
		<text transform="matrix(1 0 0 1 221.5176 37.7947)" class="st15 st16 st19">3V3</text>
		<text transform="matrix(1 0 0 1 243.2207 34.6267)" class="st15 st16 st19">3V3</text>
		<line class="st4" x1="164.6" y1="35.6" x2="179" y2="35.6"/>
		<text transform="matrix(1 0 0 1 185.6201 37.7947)" class="st15 st16 st19">BAT</text>
		<text transform="matrix(1 0 0 1 163.4834 34.6267)" class="st15 st16 st19">BAT</text>
		<line class="st4" x1="164.6" y1="42.8" x2="179" y2="42.8"/>
		<text transform="matrix(1 0 0 1 185.6201 44.9939)" class="st15 st16 st19">EN</text>
		<text transform="matrix(1 0 0 1 165.7715 41.8259)" class="st15 st16 st19">EN</text>
		<line class="st4" x1="251" y1="64.4" x2="236.6" y2="64.4"/>
		<text transform="matrix(1 0 0 1 219.4131 66.5935)" class="st15 st16 st19">GND</text>
		<text transform="matrix(1 0 0 1 243.2207 63.4255)" class="st15 st16 st19">GND*3</text>
		<line class="st4" x1="251" y1="50" x2="236.6" y2="50"/>
		<text transform="matrix(1 0 0 1 220.2012 52.1951)" class="st15 st16 st19">USB</text>
		<text transform="matrix(1 0 0 1 243.2207 49.0271)" class="st15 st16 st19">USB_5V</text>
		<line class="st5" x1="179" y1="71.6" x2="200.6" y2="71.6"/>
		<line class="st5" x1="200.6" y1="71.6" x2="236.6" y2="71.6"/>
		<line class="st5" x1="236.6" y1="71.6" x2="236.6" y2="28.4"/>
		<line class="st5" x1="236.6" y1="28.4" x2="179" y2="28.4"/>
		<line class="st5" x1="179" y1="28.4" x2="179" y2="50"/>
		<line class="st5" x1="179" y1="50" x2="179" y2="71.6"/>
		<line class="st5" x1="200.6" y1="50" x2="179" y2="50"/>
		<line class="st7" x1="196.3" y1="64.4" x2="199.9" y2="64.4"/>
		<line class="st7" x1="196.3" y1="57.2" x2="199.9" y2="57.2"/>
		<line class="st5" x1="200.6" y1="50" x2="200.6" y2="71.6"/>
		<text transform="matrix(6.123234e-17 -1 1 6.123234e-17 191.2354 67.3142)" class="st9 st16 st18">BAT</text>
		<text transform="matrix(1 0 0 1 178.9961 24.8337)" class="st15 st16 st18">PCB1</text>
		<text transform="matrix(1 0 0 1 178.9961 78.8337)" class="st15 st16 st18">LOLIN-D32</text>
	</g>
	<g>
		<line class="st4" x1="294.2" y1="71.6" x2="294.2" y2="57.2"/>
		<text transform="matrix(6.123234e-17 -1 1 6.123234e-17 293.1875 66.5017)" class="st15 st16 st19">5</text>
		<line class="st4" x1="294.2" y1="28.4" x2="294.2" y2="42.8"/>
		<text transform="matrix(6.123234e-17 -1 1 6.123234e-17 293.1875 36.2107)" class="st15 st16 st19">8</text>
		<text transform="matrix(6.123234e-17 -1 1 6.123234e-17 298.5156 57.2341)" class="st15 st16 st20">GND</text>
		<text transform="matrix(6.123234e-17 -1 1 6.123234e-17 298.5156 42.8337)" class="st15 st16 st20">3V3</text>
		<text transform="matrix(1 0 0 1 294.1963 52.1951)" class="st15 st16 st18">U1</text>
	</g>
</g>
</svg>
