<?xml version="1.0" encoding="utf-8"?>
<!-- Generator: Adobe Illustrator 26.1.0, SVG Export Plug-In . SVG Version: 6.00 Build 0)  -->
<svg version="1.1" id="r2" xmlns="http://www.w3.org/2000/svg" xmlns:xlink="http://www.w3.org/1999/xlink" x="0px" y="0px"
	 viewBox="0 0 707.9 527.9" style="enable-background:new 0 0 707.9 527.9;" xml:space="preserve">
<style type="text/css">
	.st0{fill:none;stroke:#C90D0C;stroke-width:0.288;stroke-linecap:round;stroke-miterlimit:11.3386;}
	.st1{fill:none;stroke:#C90D0C;stroke-width:0.576;stroke-linecap:round;stroke-miterlimit:11.3386;}
	.st2{fill:#C90D0C;}
	.st3{font-family:'ArialMT';}
	.st4{font-size:7.92px;}
	.st5{font-size:5.544px;}
	.st6{enable-background:new    ;}
	.st7{fill:#808080;}
	.st8{fill:none;stroke:#0DAB76;stroke-width:0.432;stroke-linecap:round;stroke-miterlimit:11.3386;}
	.st9{fill:#0DAB76;}
	.st10{fill:none;stroke:#C90D0C;stroke-width:0.432;stroke-linecap:round;stroke-miterlimit:11.3386;}
	.st11{fill:none;stroke:#C90D0C;stroke-width:0.72;stroke-linecap:round;stroke-miterlimit:11.3386;}
	.st12{font-size:4.752px;}
	.st13{fill:none;stroke:#C90D0C;stroke-width:1.152;stroke-linecap:round;stroke-miterlimit:11.3386;}
	.st14{fill:none;stroke:#C90D0C;stroke-width:1.728;stroke-linecap:round;stroke-miterlimit:11.3386;}
	.st15{fill:none;stroke:#C90D0C;stroke-width:1.44;stroke-miterlimit:11.3386;}
	.st16{fill:none;stroke:#C90D0C;stroke-width:0.504;stroke-linecap:round;stroke-miterlimit:11.3386;}
	.st17{font-size:3.96px;}
	.st18{fill:none;stroke:#C90D0C;stroke-width:3.6;stroke-miterlimit:11.3386;}
	.st19{font-size:5.6168px;}
	.st20{font-size:5.6166px;}
	.st21{fill:none;stroke:#C90D0C;stroke-width:0.36;stroke-miterlimit:11.3386;}
	.st22{fill:none;stroke:#C90D0C;stroke-width:1.152;stroke-miterlimit:11.3386;}
	.st23{fill:none;stroke:#C90D0C;stroke-width:0.36;stroke-linecap:round;stroke-miterlimit:11.3386;}
	.st24{font-size:3.168px;}
</style>
<g id="Border">
	<line class="st0" x1="419" y1="526.5" x2="577.4" y2="526.5"/>
	<line class="st0" x1="707" y1="468.9" x2="577.4" y2="468.9"/>
	<line class="st0" x1="707" y1="468.9" x2="707" y2="483.3"/>
	<line class="st0" x1="707" y1="483.3" x2="707" y2="497.7"/>
	<line class="st0" x1="707" y1="497.7" x2="707" y2="512.1"/>
	<line class="st0" x1="577.4" y1="512.1" x2="577.4" y2="526.5"/>
	<line class="st0" x1="577.4" y1="526.5" x2="707" y2="526.5"/>
	<line class="st0" x1="577.4" y1="468.9" x2="577.4" y2="483.3"/>
	<line class="st0" x1="577.4" y1="483.3" x2="577.4" y2="497.7"/>
	<line class="st0" x1="577.4" y1="497.7" x2="577.4" y2="512.1"/>
	<line class="st0" x1="577.4" y1="512.1" x2="707" y2="512.1"/>
	<line class="st0" x1="707" y1="512.1" x2="707" y2="526.5"/>
	<line class="st0" x1="577.4" y1="497.7" x2="707" y2="497.7"/>
	<line class="st0" x1="577.4" y1="483.3" x2="707" y2="483.3"/>
	<line class="st0" x1="577.4" y1="468.9" x2="419" y2="468.9"/>
	<line class="st0" x1="419" y1="468.9" x2="419" y2="526.5"/>
	<path class="st1" d="M585.7,517l-1.1-1.1 M584.6,515.9h-2.2 M582.4,515.9l-1.1,1.1 M581.3,517v1.1 M581.3,518.1l1.1,1.1
		 M582.4,519.2h2.2 M584.6,519.2l1.1,1.1 M585.7,520.4v1.1 M585.7,521.5l-1.1,1.1 M584.6,522.6h-2.2 M582.4,522.6l-1.1-1.1
		 M588,515.9v6.6 M588,519.2l1.1-1.1 M589.1,518.1h2.2 M591.3,518.1l1.1,1.1 M592.4,519.2v3.3 M597.9,522.6h-2.2 M595.7,522.6
		l-1.1-1.1 M594.6,521.5v-2.2 M594.6,519.2l1.1-1.1 M595.7,518.1h2.2 M597.9,518.1l1.1,1.1 M599,519.2v1.1 M599,520.4h-4.4
		 M604.5,522.6h-2.2 M602.3,522.6l-1.1-1.1 M601.2,521.5v-2.2 M601.2,519.2l1.1-1.1 M602.3,518.1h2.2 M604.5,518.1l1.1,1.1
		 M605.6,519.2v1.1 M605.6,520.4h-4.4 M609,517v4.4 M609,521.5l1.1,1.1 M607.8,518.1h2.2 M612.3,518.1h1.1 M613.4,518.1v1.1
		 M613.4,519.2h-1.1 M612.3,519.2v-1.1 M612.3,521.5h1.1 M613.4,521.5v1.1 M613.4,522.6h-1.1 M612.3,522.6v-1.1"/>
	<path class="st1" d="M584.6,508.2v-6.6 M584.6,501.5l-3.3,3.3 M581.3,504.8h4.4 M588,508.2l4.4-6.6 M594.6,501.5h4.4 M599,501.5
		v1.1 M599,502.6l-4.4,4.4 M594.6,507.1v1.1 M601.2,508.2l4.4-6.6 M612.3,508.2h-4.4 M607.8,508.2l4.4-4.4 M612.3,503.7v-1.1
		 M612.3,502.6l-1.1-1.1 M611.2,501.5H609 M609,501.5l-1.1,1.1 M614.5,507.1v-4.4 M614.5,502.6l1.1-1.1 M615.6,501.5h2.2
		 M617.8,501.5l1.1,1.1 M618.9,502.6v4.4 M618.9,507.1l-1.1,1.1 M617.8,508.2h-2.2 M615.6,508.2l-1.1-1.1 M614.5,507.1l4.4-4.4
		 M625.5,508.2h-4.4 M621.1,508.2l4.4-4.4 M625.5,503.7v-1.1 M625.5,502.6l-1.1-1.1 M624.4,501.5h-2.2 M622.2,501.5l-1.1,1.1
		 M632.2,508.2h-4.4 M627.7,508.2l4.4-4.4 M632.2,503.7v-1.1 M632.2,502.6l-1.1-1.1 M631.1,501.5h-2.2 M628.8,501.5l-1.1,1.1
		 M641,507.1l1.1,1.1 M642.1,508.2h2.2 M644.3,508.2l1.1-1.1 M645.4,507.1v-4.4 M645.4,502.6l-1.1-1.1 M644.3,501.5h-2.2
		 M642.1,501.5l-1.1,1.1 M641,502.6v1.1 M641,503.7l1.1,1.1 M642.1,504.8h3.3 M647.6,503.7h1.1 M648.7,503.7v1.1 M648.7,504.8h-1.1
		 M647.6,504.8v-1.1 M647.6,507.1h1.1 M648.7,507.1v1.1 M648.7,508.2h-1.1 M647.6,508.2v-1.1 M654.3,508.2v-6.6 M654.3,501.5
		l-3.3,3.3 M650.9,504.8h4.4 M662,508.2h-4.4 M657.6,508.2l4.4-4.4 M662,503.7v-1.1 M662,502.6l-1.1-1.1 M660.9,501.5h-2.2
		 M658.7,501.5l-1.1,1.1 M670.8,508.2v-6.6 M670.8,501.5h3.3 M674.1,501.5l1.1,1.1 M675.2,502.6v2.2 M675.2,504.8l-1.1,1.1
		 M674.1,506h-3.3 M677.5,508.2v-6.6 M677.5,501.5l2.2,2.2 M679.7,503.7l2.2-2.2 M681.9,501.5v6.6"/>
	<path class="st1" d="M620.9,518.1l2.2-2.2 M623.1,515.9v6.6 M620.9,522.6h4.4 M627.6,522.6l4.4-6.6 M634.2,518.1l2.2-2.2
		 M636.4,515.9v6.6 M634.2,522.6h4.4"/>
	<path class="st1" d="M584.6,487.1h-2.2 M582.4,487.1l-1.1,1.1 M581.3,488.2v4.4 M581.3,492.7l1.1,1.1 M582.4,493.8h2.2
		 M584.6,493.8l1.1-1.1 M585.7,492.7v-4.4 M585.7,488.2l-1.1-1.1 M588,493.8v-6.6 M588,487.1h3.3 M591.3,487.1l1.1,1.1 M592.4,488.2
		v2.2 M592.4,490.4l-1.1,1.1 M591.3,491.6H588 M594.6,493.8v-6.6 M594.6,487.1l4.4,6.6 M599,493.8v-6.6 M601.2,496v-6.6
		 M601.2,489.3h3.3 M604.5,489.3l1.1,1.1 M605.6,490.4v2.2 M605.6,492.7l-1.1,1.1 M604.5,493.8h-3.3 M609,493.8h2.2 M611.2,493.8
		l1.1-1.1 M612.3,492.7v-2.2 M612.3,490.4l-1.1-1.1 M611.2,489.3H609 M609,489.3l-1.1,1.1 M607.8,490.4v2.2 M607.8,492.7l1.1,1.1
		 M615.6,493.8h2.2 M617.8,493.8l1.1-1.1 M618.9,492.7v-2.2 M618.9,490.4l-1.1-1.1 M617.8,489.3h-2.2 M615.6,489.3l-1.1,1.1
		 M614.5,490.4v2.2 M614.5,492.7l1.1,1.1 M621.1,487.1h1.1 M622.2,487.1v6.6 M621.1,493.8h2.2 M632.2,493.8v-4.4 M632.2,491.6
		l2.2-2.2 M634.4,489.3h1.1 M642.1,493.8h-4.4 M637.7,493.8l4.4-4.4 M642.1,489.3v-1.1 M642.1,488.2l-1.1-1.1 M641,487.1h-2.2
		 M638.8,487.1l-1.1,1.1"/>
	<text transform="matrix(1 0 0 1 426.2404 522.8508)" class="st2 st3 st4">https://github.com/cvonk/OPNpool</text>
	<text transform="matrix(1 0 0 1 426.2404 479.6507)" class="st2 st3 st5">OPNpool a Wi-Fi Pool Interface</text>
	<path class="st1" d="M585.7,473.8l-1.1-1.1 M584.6,472.7h-2.2 M582.4,472.7l-1.1,1.1 M581.3,473.8v4.4 M581.3,478.3l1.1,1.1
		 M582.4,479.4h2.2 M584.6,479.4l1.1-1.1 M589.1,479.4h2.2 M591.3,479.4l1.1-1.1 M592.4,478.3V476 M592.4,476l-1.1-1.1 M591.3,474.9
		h-2.2 M589.1,474.9L588,476 M588,476v2.2 M588,478.3l1.1,1.1 M597.9,479.4h-2.2 M595.7,479.4l-1.1-1.1 M594.6,478.3V476 M594.6,476
		l1.1-1.1 M595.7,474.9h2.2 M597.9,474.9l1.1,1.1 M599,476v1.1 M599,477.2h-4.4 M601.2,479.4v-4.4 M601.2,477.2l2.2-2.2
		 M603.4,474.9h1.1 M607.8,473.8v4.4 M607.8,478.3l1.1,1.1 M606.7,474.9h2.2 M617.8,472.7v4.4 M617.8,477.2l2.2,2.2 M620,479.4
		l2.2-2.2 M622.2,477.2v-4.4 M625.5,479.4h2.2 M627.7,479.4l1.1-1.1 M628.8,478.3V476 M628.8,476l-1.1-1.1 M627.7,474.9h-2.2
		 M625.5,474.9l-1.1,1.1 M624.4,476v2.2 M624.4,478.3l1.1,1.1 M631.1,479.4v-4.4 M631.1,474.9h3.3 M634.4,474.9l1.1,1.1 M635.5,476
		v3.3 M637.7,479.4v-6.6 M641,479.4l-3.3-2.2 M637.7,477.2l3.3-2.2"/>
</g>
<g id="Logic">
	<text transform="matrix(6.123234e-17 -1 1 6.123234e-17 67.6835 275.0691)" class="st6"><tspan x="0" y="0" class="st7 st3 st5">Up chip degugging </tspan><tspan x="16" y="6.7" class="st7 st3 st5">JTAG</tspan></text>
	<text transform="matrix(6.123234e-17 -1 1 6.123234e-17 582.4797 368.8375)" class="st7 st3 st5">PoolController</text>
	<text transform="matrix(1 0 0 1 292.7521 368.7708)" class="st7 st3 st5">Green</text>
	<text transform="matrix(1 0 0 1 327.8322 368.7708)" class="st7 st3 st5">Amber</text>
	<line class="st8" x1="80.6" y1="216.9" x2="80.6" y2="238.5"/>
	<line class="st8" x1="80.6" y1="238.5" x2="95" y2="238.5"/>
	<line class="st8" x1="534.2" y1="303.3" x2="534.2" y2="339.3"/>
	<line class="st8" x1="534.2" y1="339.3" x2="537.8" y2="339.3"/>
	<text transform="matrix(1 0 0 1 534.2404 303.2513)" class="st7 st3 st5">15V</text>
	<g>
		<line class="st8" x1="455" y1="346.5" x2="462.2" y2="346.5"/>
		<line class="st8" x1="462.2" y1="346.5" x2="537.8" y2="346.5"/>
		<line class="st8" x1="462.2" y1="317.7" x2="462.2" y2="346.5"/>
		<circle class="st9" cx="462.2" cy="346.5" r="1.4"/>
		<text transform="matrix(1 0 0 1 476.6408 346.4505)" class="st7 st3 st5">A</text>
	</g>
	<g>
		<line class="st8" x1="455" y1="332.1" x2="519.8" y2="332.1"/>
		<line class="st8" x1="519.8" y1="332.1" x2="519.8" y2="353.7"/>
		<line class="st8" x1="519.8" y1="353.7" x2="537.8" y2="353.7"/>
		<line class="st8" x1="519.8" y1="317.7" x2="519.8" y2="332.1"/>
		<circle class="st9" cx="519.8" cy="332.1" r="1.4"/>
		<text transform="matrix(1 0 0 1 476.6408 332.0501)" class="st7 st3 st5">B</text>
	</g>
	<line class="st8" x1="95" y1="245.7" x2="80.6" y2="245.7"/>
	<line class="st8" x1="80.6" y1="245.7" x2="80.6" y2="252.9"/>
	<line class="st8" x1="80.6" y1="252.9" x2="80.6" y2="260.1"/>
	<line class="st8" x1="80.6" y1="260.1" x2="80.6" y2="267.3"/>
	<line class="st8" x1="95" y1="252.9" x2="80.6" y2="252.9"/>
	<line class="st8" x1="95" y1="260.1" x2="80.6" y2="260.1"/>
	<line class="st8" x1="95" y1="267.3" x2="80.6" y2="267.3"/>
	<line class="st8" x1="80.6" y1="267.3" x2="80.6" y2="281.7"/>
	<circle class="st9" cx="80.6" cy="252.9" r="1.4"/>
	<circle class="st9" cx="80.6" cy="260.1" r="1.4"/>
	<circle class="st9" cx="80.6" cy="267.3" r="1.4"/>
	<line class="st8" x1="534.2" y1="375.3" x2="534.2" y2="360.9"/>
	<line class="st8" x1="534.2" y1="360.9" x2="537.8" y2="360.9"/>
	<line class="st8" x1="289.4" y1="303.3" x2="303.8" y2="303.3"/>
	<line class="st8" x1="303.8" y1="303.3" x2="303.8" y2="310.5"/>
	<line class="st8" x1="289.4" y1="296.1" x2="303.8" y2="296.1"/>
	<line class="st8" x1="303.8" y1="296.1" x2="303.8" y2="303.3"/>
	<line class="st8" x1="289.4" y1="288.9" x2="303.8" y2="288.9"/>
	<line class="st8" x1="303.8" y1="288.9" x2="303.8" y2="296.1"/>
	<circle class="st9" cx="303.8" cy="303.3" r="1.4"/>
	<circle class="st9" cx="303.8" cy="296.1" r="1.4"/>
	<line class="st8" x1="354.2" y1="418.5" x2="354.2" y2="425.7"/>
	<line class="st8" x1="318.2" y1="418.5" x2="318.2" y2="425.7"/>
	<line class="st8" x1="339.8" y1="238.5" x2="354.2" y2="238.5"/>
	<line class="st8" x1="354.2" y1="238.5" x2="354.2" y2="245.7"/>
	<line class="st8" x1="354.2" y1="245.7" x2="354.2" y2="252.9"/>
	<line class="st8" x1="339.8" y1="245.7" x2="354.2" y2="245.7"/>
	<circle class="st9" cx="354.2" cy="245.7" r="1.4"/>
	<g>
		<line class="st8" x1="131" y1="267.3" x2="181.4" y2="267.3"/>
		<text transform="matrix(1 0 0 1 138.2404 267.2513)" class="st7 st3 st5">JTAG_!RST</text>
	</g>
	<g>
		<line class="st8" x1="131" y1="245.7" x2="181.4" y2="245.7"/>
		<text transform="matrix(1 0 0 1 138.2404 245.6497)" class="st7 st3 st5">JTAG_CK</text>
	</g>
	<g>
		<line class="st8" x1="131" y1="260.1" x2="181.4" y2="260.1"/>
		<text transform="matrix(1 0 0 1 138.2404 260.0501)" class="st7 st3 st5">JTAG_DI</text>
	</g>
	<g>
		<line class="st8" x1="131" y1="252.9" x2="181.4" y2="252.9"/>
		<text transform="matrix(1 0 0 1 138.2404 252.8509)" class="st7 st3 st5">JTAG_DO</text>
	</g>
	<g>
		<line class="st8" x1="131" y1="238.5" x2="181.4" y2="238.5"/>
		<text transform="matrix(1 0 0 1 138.2404 238.4505)" class="st7 st3 st5">JTAG_MS</text>
	</g>
	<g>
		<line class="st8" x1="289.4" y1="238.5" x2="296.6" y2="238.5"/>
		<line class="st8" x1="296.6" y1="238.5" x2="303.8" y2="238.5"/>
		<line class="st8" x1="296.6" y1="238.5" x2="296.6" y2="245.7"/>
		<line class="st8" x1="296.6" y1="245.7" x2="303.8" y2="245.7"/>
		<circle class="st9" cx="296.6" cy="238.5" r="1.4"/>
	</g>
	<g>
		<line class="st8" x1="289.4" y1="353.7" x2="375.8" y2="353.7"/>
		<line class="st8" x1="375.8" y1="353.7" x2="375.8" y2="346.5"/>
		<line class="st8" x1="375.8" y1="346.5" x2="375.8" y2="332.1"/>
		<line class="st8" x1="375.8" y1="332.1" x2="383" y2="332.1"/>
		<line class="st8" x1="383" y1="346.5" x2="375.8" y2="346.5"/>
		<circle class="st9" cx="375.8" cy="346.5" r="1.4"/>
		<text transform="matrix(1 0 0 1 296.6408 353.6507)" class="st7 st3 st5">RTS</text>
	</g>
	<g>
		<line class="st8" x1="289.4" y1="339.3" x2="318.2" y2="339.3"/>
		<line class="st8" x1="318.2" y1="339.3" x2="318.2" y2="317.7"/>
		<line class="st8" x1="318.2" y1="317.7" x2="383" y2="317.7"/>
		<line class="st8" x1="318.2" y1="339.3" x2="318.2" y2="368.1"/>
		<circle class="st9" cx="318.2" cy="339.3" r="1.4"/>
		<text transform="matrix(1 0 0 1 296.6408 339.2503)" class="st7 st3 st5">RX2</text>
	</g>
	<g>
		<line class="st8" x1="289.4" y1="346.5" x2="354.2" y2="346.5"/>
		<line class="st8" x1="354.2" y1="346.5" x2="354.2" y2="360.9"/>
		<line class="st8" x1="354.2" y1="360.9" x2="354.2" y2="368.1"/>
		<line class="st8" x1="383" y1="360.9" x2="354.2" y2="360.9"/>
		<circle class="st9" cx="354.2" cy="360.9" r="1.4"/>
		<text transform="matrix(1 0 0 1 296.6408 346.4505)" class="st7 st3 st5">TX</text>
	</g>
	<g>
		<line class="st10" x1="80.6" y1="216.9" x2="80.6" y2="209.7"/>
		<line class="st11" x1="84.2" y1="215.1" x2="80.6" y2="209.7"/>
		<line class="st11" x1="80.6" y1="209.7" x2="77" y2="215.1"/>
		<text transform="matrix(1 0 0 1 80.6408 206.0501)" class="st7 st3 st5">3V3</text>
	</g>
	<g>
		<line class="st10" x1="303.8" y1="310.5" x2="303.8" y2="317.7"/>
		<line class="st11" x1="298.4" y1="317.7" x2="309.2" y2="317.7"/>
		<text transform="matrix(1 0 0 1 303.841 324.8509)" class="st7 st3 st5">GND</text>
	</g>
	<g>
		<line class="st10" x1="354.2" y1="425.7" x2="354.2" y2="432.9"/>
		<line class="st11" x1="359.6" y1="432.9" x2="348.8" y2="432.9"/>
		<text transform="matrix(1 0 0 1 349.1213 440.0501)" class="st7 st3 st5">GND</text>
	</g>
	<g>
		<line class="st10" x1="318.2" y1="425.7" x2="318.2" y2="432.9"/>
		<line class="st11" x1="323.6" y1="432.9" x2="312.8" y2="432.9"/>
		<text transform="matrix(1 0 0 1 313.1213 440.0501)" class="st7 st3 st5">GND</text>
	</g>
	<g>
		<line class="st10" x1="354.2" y1="252.9" x2="354.2" y2="260.1"/>
		<line class="st11" x1="359.6" y1="260.1" x2="348.8" y2="260.1"/>
		<text transform="matrix(1 0 0 1 349.1213 267.2513)" class="st7 st3 st5">GND</text>
	</g>
	<g>
		<line class="st10" x1="80.6" y1="281.7" x2="80.6" y2="288.9"/>
		<line class="st11" x1="75.2" y1="288.9" x2="86" y2="288.9"/>
		<text transform="matrix(1 0 0 1 80.6408 296.0501)" class="st7 st3 st5">GND</text>
	</g>
	<g>
		<line class="st10" x1="534.2" y1="375.3" x2="534.2" y2="382.5"/>
		<line class="st11" x1="528.8" y1="382.5" x2="539.6" y2="382.5"/>
		<text transform="matrix(1 0 0 1 534.2404 389.6507)" class="st7 st3 st5">GND</text>
	</g>
	<g>
		<line class="st10" x1="537.8" y1="339.3" x2="552.2" y2="339.3"/>
		<text transform="matrix(1 0 0 1 558.8644 341.4104)" class="st7 st3 st12">15V</text>
		<text transform="matrix(1 0 0 1 542.9738 338.2425)" class="st7 st3 st12">1</text>
		<line class="st10" x1="537.8" y1="346.5" x2="552.2" y2="346.5"/>
		<text transform="matrix(1 0 0 1 558.8644 348.6106)" class="st7 st3 st12">A</text>
		<text transform="matrix(1 0 0 1 542.9738 345.4427)" class="st7 st3 st12">2</text>
		<line class="st10" x1="537.8" y1="353.7" x2="552.2" y2="353.7"/>
		<text transform="matrix(1 0 0 1 558.8644 355.8108)" class="st7 st3 st12">B</text>
		<text transform="matrix(1 0 0 1 542.9738 352.6429)" class="st7 st3 st12">3</text>
		<line class="st10" x1="537.8" y1="360.9" x2="552.2" y2="360.9"/>
		<text transform="matrix(1 0 0 1 558.8644 363.01)" class="st7 st3 st12">GND</text>
		<text transform="matrix(1 0 0 1 542.9738 359.8421)" class="st7 st3 st12">4</text>
		<line class="st13" x1="573.8" y1="368.1" x2="548.6" y2="368.1"/>
		<line class="st14" x1="552.2" y1="339.3" x2="555.8" y2="339.3"/>
		<line class="st14" x1="552.2" y1="346.5" x2="555.8" y2="346.5"/>
		<line class="st14" x1="555.8" y1="353.7" x2="552.2" y2="353.7"/>
		<line class="st13" x1="548.6" y1="332.1" x2="548.6" y2="368.1"/>
		<line class="st13" x1="573.8" y1="368.1" x2="573.8" y2="332.1"/>
		<line class="st13" x1="548.6" y1="332.1" x2="573.8" y2="332.1"/>
		<line class="st14" x1="555.8" y1="360.9" x2="552.2" y2="360.9"/>
		<text transform="matrix(1 0 0 1 548.6408 375.2503)" class="st7 st3 st5">RS485-TERM</text>
		<text transform="matrix(1 0 0 1 548.6408 330.6106)" class="st7 st3 st5">J2</text>
	</g>
	<g>
		<circle class="st15" cx="116.6" cy="238.5" r="0.9"/>
		<circle class="st15" cx="109.4" cy="245.7" r="0.9"/>
		<circle class="st15" cx="116.6" cy="245.7" r="0.9"/>
		<circle class="st15" cx="116.6" cy="252.9" r="0.9"/>
		<circle class="st15" cx="109.4" cy="252.9" r="0.9"/>
		<circle class="st15" cx="109.4" cy="260.1" r="0.9"/>
		<circle class="st15" cx="116.6" cy="260.1" r="0.9"/>
		<circle class="st15" cx="116.6" cy="267.3" r="0.9"/>
		<circle class="st15" cx="109.4" cy="267.3" r="0.9"/>
		<rect x="107.9" y="236.9" class="st2" width="3.2" height="3.2"/>
		<line class="st10" x1="95" y1="238.5" x2="102.2" y2="238.5"/>
		<text transform="matrix(1 0 0 1 98.59 237.4427)" class="st7 st3 st12">1</text>
		<line class="st10" x1="95" y1="245.7" x2="102.2" y2="245.7"/>
		<text transform="matrix(1 0 0 1 98.59 244.6419)" class="st7 st3 st12">3</text>
		<line class="st10" x1="95" y1="252.9" x2="102.2" y2="252.9"/>
		<text transform="matrix(1 0 0 1 98.59 251.843)" class="st7 st3 st12">5</text>
		<line class="st10" x1="95" y1="260.1" x2="102.2" y2="260.1"/>
		<text transform="matrix(1 0 0 1 98.59 259.0423)" class="st7 st3 st12">7</text>
		<line class="st10" x1="95" y1="267.3" x2="102.2" y2="267.3"/>
		<text transform="matrix(1 0 0 1 98.59 266.2415)" class="st7 st3 st12">9</text>
		<line class="st10" x1="131" y1="267.3" x2="123.8" y2="267.3"/>
		<text transform="matrix(1 0 0 1 124.8488 266.2415)" class="st7 st3 st12">10</text>
		<line class="st10" x1="131" y1="245.7" x2="123.8" y2="245.7"/>
		<text transform="matrix(1 0 0 1 124.8488 244.6419)" class="st7 st3 st12">4</text>
		<line class="st10" x1="131" y1="260.1" x2="123.8" y2="260.1"/>
		<text transform="matrix(1 0 0 1 124.8488 259.0423)" class="st7 st3 st12">8</text>
		<line class="st10" x1="131" y1="252.9" x2="123.8" y2="252.9"/>
		<text transform="matrix(1 0 0 1 124.8488 251.843)" class="st7 st3 st12">6</text>
		<line class="st10" x1="131" y1="238.5" x2="123.8" y2="238.5"/>
		<text transform="matrix(1 0 0 1 124.8488 237.4427)" class="st7 st3 st12">2</text>
		<line class="st13" x1="102.2" y1="224.1" x2="123.8" y2="224.1"/>
		<line class="st13" x1="123.8" y1="281.7" x2="123.8" y2="267.3"/>
		<line class="st13" x1="123.8" y1="267.3" x2="123.8" y2="260.1"/>
		<line class="st13" x1="123.8" y1="260.1" x2="123.8" y2="252.9"/>
		<line class="st13" x1="123.8" y1="252.9" x2="123.8" y2="245.7"/>
		<line class="st13" x1="123.8" y1="245.7" x2="123.8" y2="238.5"/>
		<line class="st13" x1="123.8" y1="238.5" x2="123.8" y2="224.1"/>
		<line class="st13" x1="123.8" y1="281.7" x2="102.2" y2="281.7"/>
		<line class="st13" x1="102.2" y1="224.1" x2="102.2" y2="238.5"/>
		<line class="st13" x1="102.2" y1="238.5" x2="102.2" y2="245.7"/>
		<line class="st13" x1="102.2" y1="245.7" x2="102.2" y2="249.3"/>
		<line class="st13" x1="102.2" y1="256.5" x2="102.2" y2="260.1"/>
		<line class="st13" x1="102.2" y1="260.1" x2="102.2" y2="267.3"/>
		<line class="st13" x1="102.2" y1="267.3" x2="102.2" y2="281.7"/>
		<line class="st16" x1="102.2" y1="238.5" x2="109.4" y2="238.5"/>
		<line class="st16" x1="102.2" y1="245.7" x2="109.4" y2="245.7"/>
		<line class="st16" x1="102.2" y1="260.1" x2="109.4" y2="260.1"/>
		<line class="st16" x1="102.2" y1="267.3" x2="109.4" y2="267.3"/>
		<line class="st16" x1="116.6" y1="267.3" x2="123.8" y2="267.3"/>
		<line class="st16" x1="116.6" y1="260.1" x2="123.8" y2="260.1"/>
		<line class="st16" x1="116.6" y1="252.9" x2="123.8" y2="252.9"/>
		<line class="st16" x1="116.6" y1="245.7" x2="123.8" y2="245.7"/>
		<line class="st16" x1="116.6" y1="238.5" x2="123.8" y2="238.5"/>
		<line class="st16" x1="102.2" y1="252.9" x2="109.4" y2="252.9"/>
		<text transform="matrix(1 0 0 1 102.2404 220.4505)" class="st7 st3 st5">J3</text>
		<text transform="matrix(1 0 0 1 102.2404 288.8509)" class="st7 st3 st5">ESP-JTAG</text>
	</g>
	<g>
		<polygon class="st2" points="308.5,381.4 309.6,378.9 311,380.3 		"/>
		<polygon class="st2" points="308.9,384.6 310,382.1 311.4,383.5 		"/>
		<line class="st10" x1="318.2" y1="368.1" x2="318.2" y2="375.3"/>
		<line class="st10" x1="318.2" y1="389.7" x2="318.2" y2="382.5"/>
		<line class="st11" x1="321.8" y1="375.3" x2="318.2" y2="382.5"/>
		<line class="st11" x1="318.2" y1="382.5" x2="314.6" y2="375.3"/>
		<line class="st11" x1="321.8" y1="382.5" x2="318.2" y2="382.5"/>
		<line class="st11" x1="318.2" y1="382.5" x2="314.6" y2="382.5"/>
		<line class="st11" x1="321.8" y1="375.3" x2="318.2" y2="375.3"/>
		<line class="st11" x1="318.2" y1="375.3" x2="314.6" y2="375.3"/>
		<line class="st10" x1="312.5" y1="377.4" x2="308.5" y2="381.4"/>
		<line class="st10" x1="312.8" y1="380.7" x2="308.9" y2="384.6"/>
		<text transform="matrix(6.123234e-17 -1 1 6.123234e-17 328.3205 388.2102)" class="st7 st3 st5">LED1</text>
		<text transform="matrix(6.123234e-17 -1 1 6.123234e-17 334.4396 388.2102)" class="st7 st3 st5">RX</text>
	</g>
	<g>
		<polygon class="st2" points="344.5,381.4 345.6,378.9 347,380.3 		"/>
		<polygon class="st2" points="344.9,384.6 346,382.1 347.4,383.5 		"/>
		<line class="st10" x1="354.2" y1="368.1" x2="354.2" y2="375.3"/>
		<line class="st10" x1="354.2" y1="389.7" x2="354.2" y2="382.5"/>
		<line class="st11" x1="357.8" y1="375.3" x2="354.2" y2="382.5"/>
		<line class="st11" x1="354.2" y1="382.5" x2="350.6" y2="375.3"/>
		<line class="st11" x1="357.8" y1="382.5" x2="354.2" y2="382.5"/>
		<line class="st11" x1="354.2" y1="382.5" x2="350.6" y2="382.5"/>
		<line class="st11" x1="357.8" y1="375.3" x2="354.2" y2="375.3"/>
		<line class="st11" x1="354.2" y1="375.3" x2="350.6" y2="375.3"/>
		<line class="st10" x1="348.5" y1="377.4" x2="344.5" y2="381.4"/>
		<line class="st10" x1="348.8" y1="380.7" x2="344.9" y2="384.6"/>
		<text transform="matrix(6.123234e-17 -1 1 6.123234e-17 364.3205 388.2102)" class="st7 st3 st5">LED2</text>
		<text transform="matrix(6.123234e-17 -1 1 6.123234e-17 370.4396 388.2102)" class="st7 st3 st5">TX</text>
	</g>
	<g>
		<line class="st10" x1="181.4" y1="267.3" x2="195.8" y2="267.3"/>
		<text transform="matrix(1 0 0 1 202.465 269.4095)" class="st7 st3 st12">!RST/!JTAG_!RST</text>
		<text transform="matrix(1 0 0 1 182.6154 266.2415)" class="st7 st3 st12">RS</text>
		<line class="st10" x1="289.4" y1="288.9" x2="275" y2="288.9"/>
		<text transform="matrix(1 0 0 1 261.8107 291.011)" class="st7 st3 st12">I34</text>
		<text transform="matrix(1 0 0 1 281.6642 287.843)" class="st7 st3 st12">34</text>
		<line class="st10" x1="289.4" y1="238.5" x2="275" y2="238.5"/>
		<text transform="matrix(1 0 0 1 260.757 240.6106)" class="st7 st3 st12">IO0</text>
		<text transform="matrix(1 0 0 1 281.6642 237.4427)" class="st7 st3 st12">0</text>
		<line class="st10" x1="289.4" y1="245.7" x2="275" y2="245.7"/>
		<text transform="matrix(1 0 0 1 260.757 247.8098)" class="st7 st3 st12">IO2</text>
		<text transform="matrix(1 0 0 1 281.6642 244.6419)" class="st7 st3 st12">2</text>
		<line class="st10" x1="289.4" y1="252.9" x2="275" y2="252.9"/>
		<text transform="matrix(1 0 0 1 260.757 255.011)" class="st7 st3 st12">IO4</text>
		<text transform="matrix(1 0 0 1 281.6642 251.843)" class="st7 st3 st12">4</text>
		<line class="st10" x1="181.4" y1="310.5" x2="195.8" y2="310.5"/>
		<text transform="matrix(1 0 0 1 202.465 312.6106)" class="st7 st3 st12">IO5/VSPI_CS/LED</text>
		<text transform="matrix(1 0 0 1 186.5734 309.4427)" class="st7 st3 st12">5</text>
		<line class="st10" x1="181.4" y1="260.1" x2="195.8" y2="260.1"/>
		<text transform="matrix(1 0 0 1 202.465 262.2102)" class="st7 st3 st12">IO12/JTAG_DI</text>
		<text transform="matrix(1 0 0 1 183.9308 259.0423)" class="st7 st3 st12">12</text>
		<line class="st10" x1="181.4" y1="245.7" x2="195.8" y2="245.7"/>
		<text transform="matrix(1 0 0 1 202.465 247.8098)" class="st7 st3 st12">IO13/JTAG_CK</text>
		<text transform="matrix(1 0 0 1 183.9308 244.6419)" class="st7 st3 st12">13</text>
		<line class="st10" x1="181.4" y1="238.5" x2="195.8" y2="238.5"/>
		<text transform="matrix(1 0 0 1 202.465 240.6106)" class="st7 st3 st12">IO14/JTAG_MS</text>
		<text transform="matrix(1 0 0 1 183.9308 237.4427)" class="st7 st3 st12">14</text>
		<line class="st10" x1="181.4" y1="252.9" x2="195.8" y2="252.9"/>
		<text transform="matrix(1 0 0 1 202.465 255.011)" class="st7 st3 st12">IO15/JTAG_DO</text>
		<text transform="matrix(1 0 0 1 183.9308 251.843)" class="st7 st3 st12">15</text>
		<line class="st10" x1="289.4" y1="260.1" x2="275" y2="260.1"/>
		<text transform="matrix(1 0 0 1 258.1144 262.2102)" class="st7 st3 st12">IO16</text>
		<text transform="matrix(1 0 0 1 281.6642 259.0423)" class="st7 st3 st12">16</text>
		<line class="st10" x1="289.4" y1="267.3" x2="275" y2="267.3"/>
		<text transform="matrix(1 0 0 1 258.1144 269.4095)" class="st7 st3 st12">IO17</text>
		<text transform="matrix(1 0 0 1 281.6642 266.2415)" class="st7 st3 st12">17</text>
		<line class="st10" x1="181.4" y1="303.3" x2="195.8" y2="303.3"/>
		<text transform="matrix(1 0 0 1 202.465 305.4104)" class="st7 st3 st12">IO18/VSPI_CLK</text>
		<text transform="matrix(1 0 0 1 183.9308 302.2415)" class="st7 st3 st12">18</text>
		<line class="st10" x1="181.4" y1="296.1" x2="195.8" y2="296.1"/>
		<text transform="matrix(1 0 0 1 202.465 298.2102)" class="st7 st3 st12">IO19/VSPI_MISO</text>
		<text transform="matrix(1 0 0 1 183.9308 295.0423)" class="st7 st3 st12">19</text>
		<line class="st10" x1="181.4" y1="324.9" x2="195.8" y2="324.9"/>
		<text transform="matrix(1 0 0 1 202.465 327.01)" class="st7 st3 st12">IO21/I2C_SDA</text>
		<text transform="matrix(1 0 0 1 183.9308 323.8421)" class="st7 st3 st12">21</text>
		<line class="st10" x1="181.4" y1="332.1" x2="195.8" y2="332.1"/>
		<text transform="matrix(1 0 0 1 202.465 334.2102)" class="st7 st3 st12">IO22/I2C_SCL</text>
		<text transform="matrix(1 0 0 1 183.9308 331.0423)" class="st7 st3 st12">22</text>
		<line class="st10" x1="181.4" y1="288.9" x2="195.8" y2="288.9"/>
		<text transform="matrix(1 0 0 1 202.465 291.011)" class="st7 st3 st12">IO23/VSPI_MOSI</text>
		<text transform="matrix(1 0 0 1 183.9308 287.843)" class="st7 st3 st12">23</text>
		<line class="st10" x1="289.4" y1="274.5" x2="275" y2="274.5"/>
		<text transform="matrix(1 0 0 1 258.1144 276.6106)" class="st7 st3 st12">IO32</text>
		<text transform="matrix(1 0 0 1 281.6642 273.4427)" class="st7 st3 st12">32</text>
		<line class="st10" x1="289.4" y1="281.7" x2="275" y2="281.7"/>
		<text transform="matrix(1 0 0 1 258.1144 283.8098)" class="st7 st3 st12">IO33</text>
		<text transform="matrix(1 0 0 1 281.6642 280.6419)" class="st7 st3 st12">33</text>
		<line class="st10" x1="289.4" y1="353.7" x2="275" y2="353.7"/>
		<text transform="matrix(1 0 0 1 244.7336 355.8108)" class="st7 st3 st12">RTS2/IO27</text>
		<text transform="matrix(1 0 0 1 281.6642 352.6429)" class="st7 st3 st12">27</text>
		<line class="st10" x1="289.4" y1="317.7" x2="275" y2="317.7"/>
		<text transform="matrix(1 0 0 1 250.1926 319.8108)" class="st7 st3 st12">RX0/IO3</text>
		<text transform="matrix(1 0 0 1 281.6642 316.6429)" class="st7 st3 st12">RX</text>
		<line class="st10" x1="289.4" y1="339.3" x2="275" y2="339.3"/>
		<text transform="matrix(1 0 0 1 247.55 341.4104)" class="st7 st3 st12">RX2/IO25</text>
		<text transform="matrix(1 0 0 1 281.6642 338.2425)" class="st7 st3 st12">25</text>
		<line class="st10" x1="289.4" y1="324.9" x2="275" y2="324.9"/>
		<text transform="matrix(1 0 0 1 250.7219 327.01)" class="st7 st3 st12">TX0/IO1</text>
		<text transform="matrix(1 0 0 1 281.6642 323.8421)" class="st7 st3 st12">TX</text>
		<line class="st10" x1="289.4" y1="346.5" x2="275" y2="346.5"/>
		<text transform="matrix(1 0 0 1 248.0793 348.6106)" class="st7 st3 st12">TX2/IO26</text>
		<text transform="matrix(1 0 0 1 281.6642 345.4427)" class="st7 st3 st12">26</text>
		<line class="st10" x1="289.4" y1="303.3" x2="275" y2="303.3"/>
		<text transform="matrix(1 0 0 1 253.8889 305.4104)" class="st7 st3 st12">VN/I39</text>
		<text transform="matrix(1 0 0 1 281.6642 302.2415)" class="st7 st3 st12">VN</text>
		<line class="st10" x1="289.4" y1="296.1" x2="275" y2="296.1"/>
		<text transform="matrix(1 0 0 1 254.1516 298.2102)" class="st7 st3 st12">VP/I36</text>
		<text transform="matrix(1 0 0 1 281.6642 295.0423)" class="st7 st3 st12">VP</text>
		<line class="st11" x1="217.4" y1="360.9" x2="275" y2="360.9"/>
		<line class="st11" x1="275" y1="360.9" x2="275" y2="231.3"/>
		<line class="st11" x1="275" y1="231.3" x2="195.8" y2="231.3"/>
		<line class="st11" x1="195.8" y1="231.3" x2="195.8" y2="339.3"/>
		<line class="st11" x1="195.8" y1="339.3" x2="195.8" y2="360.9"/>
		<line class="st11" x1="217.4" y1="339.3" x2="195.8" y2="339.3"/>
		<line class="st11" x1="217.4" y1="360.9" x2="195.8" y2="360.9"/>
		<line class="st11" x1="217.4" y1="339.3" x2="217.4" y2="360.9"/>
		<line class="st14" x1="213.1" y1="346.5" x2="216.7" y2="346.5"/>
		<line class="st14" x1="213.1" y1="353.7" x2="216.7" y2="353.7"/>
		<line class="st14" x1="213.1" y1="350.1" x2="216.7" y2="350.1"/>
		<line class="st14" x1="213.1" y1="342.9" x2="216.7" y2="342.9"/>
		<line class="st14" x1="213.1" y1="357.3" x2="216.7" y2="357.3"/>
		<text transform="matrix(6.123234e-17 -1 1 6.123234e-17 208.0803 357.2493)" class="st2 st3 st5">USB</text>
		<text transform="matrix(1 0 0 1 195.841 375.2503)" class="st6"><tspan x="0" y="0" class="st2 st3 st17">I2C pins don&apos;t have pull-up resistors </tspan><tspan x="0" y="4.8" class="st2 st3 st17">USB Serial uses IO3 for RX0, and IO1 for TX0 </tspan><tspan x="0" y="9.5" class="st2 st3 st17">Read the BAT voltage from IO35 and double it</tspan></text>
		<text transform="matrix(1 0 0 1 195.841 227.6497)" class="st7 st3 st5">PCB1</text>
		<text transform="matrix(1 0 0 1 195.841 368.0501)" class="st7 st3 st5">LOLIN-D32</text>
	</g>
	<g>
		<line class="st10" x1="318.2" y1="418.5" x2="318.2" y2="411.3"/>
		<line class="st10" x1="318.2" y1="389.7" x2="318.2" y2="396.9"/>
		<line class="st11" x1="315.7" y1="411.3" x2="315.7" y2="396.9"/>
		<line class="st11" x1="320.8" y1="396.9" x2="320.8" y2="411.3"/>
		<line class="st11" x1="315.7" y1="396.9" x2="320.8" y2="396.9"/>
		<line class="st11" x1="315.7" y1="411.3" x2="320.8" y2="411.3"/>
		<text transform="matrix(6.123234e-17 -1 1 6.123234e-17 327.5275 414.8509)" class="st7 st3 st5">R1</text>
		<text transform="matrix(6.123234e-17 -1 1 6.123234e-17 335.5197 414.8509)" class="st7 st3 st5">68&amp;</text>
	</g>
	<g>
		<line class="st10" x1="354.2" y1="418.5" x2="354.2" y2="411.3"/>
		<line class="st10" x1="354.2" y1="389.7" x2="354.2" y2="396.9"/>
		<line class="st11" x1="351.7" y1="411.3" x2="351.7" y2="396.9"/>
		<line class="st11" x1="356.8" y1="396.9" x2="356.8" y2="411.3"/>
		<line class="st11" x1="351.7" y1="396.9" x2="356.8" y2="396.9"/>
		<line class="st11" x1="351.7" y1="411.3" x2="356.8" y2="411.3"/>
		<text transform="matrix(6.123234e-17 -1 1 6.123234e-17 363.5275 414.8509)" class="st7 st3 st5">R2</text>
		<text transform="matrix(6.123234e-17 -1 1 6.123234e-17 371.5197 414.8509)" class="st7 st3 st5">68&amp;</text>
	</g>
	<g>
		<line class="st10" x1="519.8" y1="317.7" x2="512.6" y2="317.7"/>
		<line class="st10" x1="491" y1="317.7" x2="498.2" y2="317.7"/>
		<line class="st11" x1="512.6" y1="320.2" x2="498.2" y2="320.2"/>
		<line class="st11" x1="498.2" y1="315.1" x2="512.6" y2="315.1"/>
		<line class="st11" x1="498.2" y1="320.2" x2="498.2" y2="315.1"/>
		<line class="st11" x1="512.6" y1="320.2" x2="512.6" y2="315.1"/>
		<text transform="matrix(1 0 0 1 509.1535 313.4026)" class="st7 st3 st5">R3</text>
		<text transform="matrix(1 0 0 1 503.2932 327.01)" class="st7 st3 st5">120&amp;</text>
	</g>
	<g>
		<line class="st10" x1="491" y1="317.7" x2="483.8" y2="317.7"/>
		<text transform="matrix(1 0 0 1 484.8488 316.6429)" class="st7 st3 st12">1</text>
		<line class="st10" x1="462.2" y1="317.7" x2="469.4" y2="317.7"/>
		<text transform="matrix(1 0 0 1 465.7902 316.6429)" class="st7 st3 st12">2</text>
		<path class="st18" d="M475.6,315.9c-1,0-1.8,0.8-1.8,1.8c0,1,0.8,1.8,1.8,1.8c0,0,0,0,0,0"/>
		<path class="st18" d="M477.7,319.5c1,0,1.8-0.8,1.8-1.8c0-1-0.8-1.8-1.8-1.8c0,0,0,0,0,0"/>
		<line class="st10" x1="469.4" y1="317.7" x2="472" y2="317.7"/>
		<line class="st10" x1="483.8" y1="317.7" x2="481.3" y2="317.7"/>
		<text transform="matrix(1 0 0 1 474.2873 310.4505)" class="st7 st3 st5">SJ1</text>
		<text transform="matrix(1 0 0 1 470.2892 303.97)" class="st7 st3 st5">OPEN</text>
	</g>
	<g>
		<line class="st10" x1="303.8" y1="238.5" x2="311" y2="238.5"/>
		<text transform="matrix(1 0 0 1 307.3898 237.4427)" class="st7 st3 st12">1</text>
		<line class="st10" x1="303.8" y1="245.7" x2="311" y2="245.7"/>
		<text transform="matrix(1 0 0 1 307.3898 244.6419)" class="st7 st3 st12">2</text>
		<line class="st10" x1="339.8" y1="245.7" x2="332.6" y2="245.7"/>
		<text transform="matrix(1 0 0 1 333.6486 244.6419)" class="st7 st3 st12">3</text>
		<line class="st10" x1="339.8" y1="238.5" x2="332.6" y2="238.5"/>
		<text transform="matrix(1 0 0 1 333.6486 237.4427)" class="st7 st3 st12">4</text>
		<line class="st11" x1="311" y1="238.5" x2="311" y2="245.7"/>
		<line class="st11" x1="332.6" y1="238.5" x2="332.6" y2="245.7"/>
		<line class="st11" x1="311" y1="238.5" x2="314.6" y2="238.5"/>
		<line class="st11" x1="329" y1="238.5" x2="332.6" y2="238.5"/>
		<line class="st11" x1="314.6" y1="238.5" x2="329" y2="234.9"/>
		<text transform="matrix(1 0 0 1 311.0353 252.8391)" class="st7 st3 st19">SW1</text>
		<text transform="matrix(1 0 0 1 311.0353 231.261)" class="st7 st3 st20">Factory (5 sec)</text>
	</g>
	<g>
		<circle class="st21" cx="415.4" cy="325.9" r="1.8"/>
		<circle class="st21" cx="424.4" cy="323.1" r="1.8"/>
		<circle class="st21" cx="420.1" cy="355.5" r="1.8"/>
		<circle class="st22" cx="429.8" cy="332.1" r="0.7"/>
		<circle class="st22" cx="438.8" cy="346.5" r="0.7"/>
		<line class="st10" x1="455" y1="346.5" x2="447.8" y2="346.5"/>
		<text transform="matrix(1 0 0 1 448.8488 345.4427)" class="st7 st3 st12">6</text>
		<line class="st10" x1="455" y1="332.1" x2="447.8" y2="332.1"/>
		<text transform="matrix(1 0 0 1 448.8488 331.0423)" class="st7 st3 st12">7</text>
		<line class="st10" x1="383" y1="346.5" x2="390.2" y2="346.5"/>
		<text transform="matrix(1 0 0 1 396.8644 348.6106)" class="st7 st3 st12">DE</text>
		<text transform="matrix(1 0 0 1 386.59 345.4427)" class="st7 st3 st12">3</text>
		<line class="st10" x1="383" y1="360.9" x2="390.2" y2="360.9"/>
		<text transform="matrix(1 0 0 1 396.8644 363.01)" class="st7 st3 st12">DI</text>
		<text transform="matrix(1 0 0 1 386.59 359.8421)" class="st7 st3 st12">4</text>
		<line class="st10" x1="383" y1="332.1" x2="390.2" y2="332.1"/>
		<text transform="matrix(1 0 0 1 396.8644 334.2102)" class="st7 st3 st12">RE/</text>
		<text transform="matrix(1 0 0 1 386.59 331.0423)" class="st7 st3 st12">2</text>
		<line class="st10" x1="383" y1="317.7" x2="390.2" y2="317.7"/>
		<text transform="matrix(1 0 0 1 396.8644 319.8108)" class="st7 st3 st12">RO</text>
		<text transform="matrix(1 0 0 1 386.59 316.6429)" class="st7 st3 st12">1</text>
		<line class="st11" x1="390.2" y1="303.3" x2="447.8" y2="303.3"/>
		<line class="st11" x1="447.8" y1="303.3" x2="447.8" y2="332.1"/>
		<line class="st11" x1="447.8" y1="332.1" x2="447.8" y2="346.5"/>
		<line class="st11" x1="447.8" y1="346.5" x2="447.8" y2="375.3"/>
		<line class="st11" x1="447.8" y1="375.3" x2="390.2" y2="375.3"/>
		<line class="st11" x1="390.2" y1="375.3" x2="390.2" y2="360.9"/>
		<line class="st11" x1="390.2" y1="360.9" x2="390.2" y2="346.5"/>
		<line class="st11" x1="390.2" y1="346.5" x2="390.2" y2="332.1"/>
		<line class="st11" x1="390.2" y1="332.1" x2="390.2" y2="317.7"/>
		<line class="st11" x1="390.2" y1="317.7" x2="390.2" y2="303.3"/>
		<line class="st23" x1="422.6" y1="306.9" x2="422.6" y2="312.3"/>
		<line class="st23" x1="422.6" y1="312.3" x2="422.6" y2="328.5"/>
		<line class="st23" x1="422.6" y1="328.5" x2="406.4" y2="317.7"/>
		<line class="st23" x1="406.4" y1="317.7" x2="422.6" y2="306.9"/>
		<line class="st23" x1="406.4" y1="371.7" x2="406.4" y2="360.9"/>
		<line class="st23" x1="406.4" y1="360.9" x2="406.4" y2="350.1"/>
		<line class="st23" x1="406.4" y1="350.1" x2="426.2" y2="360.9"/>
		<line class="st23" x1="426.2" y1="360.9" x2="406.4" y2="371.7"/>
		<line class="st23" x1="409.7" y1="332.1" x2="415.4" y2="332.1"/>
		<line class="st23" x1="415.4" y1="332.1" x2="415.4" y2="327.7"/>
		<line class="st23" x1="404.6" y1="346.5" x2="413.6" y2="346.5"/>
		<line class="st23" x1="413.6" y1="346.5" x2="413.6" y2="354"/>
		<line class="st23" x1="438.8" y1="365.2" x2="438.8" y2="346.5"/>
		<line class="st23" x1="438.8" y1="346.5" x2="438.8" y2="312.3"/>
		<line class="st23" x1="422.6" y1="312.3" x2="438.8" y2="312.3"/>
		<line class="st23" x1="421.9" y1="355.5" x2="429.8" y2="355.5"/>
		<line class="st23" x1="429.8" y1="355.5" x2="429.8" y2="332.1"/>
		<line class="st23" x1="429.8" y1="332.1" x2="429.8" y2="323.1"/>
		<line class="st23" x1="429.8" y1="323.1" x2="426.2" y2="323.1"/>
		<line class="st23" x1="447.8" y1="332.1" x2="429.8" y2="332.1"/>
		<line class="st23" x1="447.8" y1="346.5" x2="438.8" y2="346.5"/>
		<line class="st23" x1="390.2" y1="317.7" x2="395.3" y2="317.7"/>
		<line class="st23" x1="405" y1="317.7" x2="406.4" y2="317.7"/>
		<line class="st23" x1="390.2" y1="332.1" x2="395.3" y2="332.1"/>
		<line class="st23" x1="390.2" y1="360.9" x2="394.9" y2="360.9"/>
		<line class="st23" x1="403.9" y1="360.9" x2="406.4" y2="360.9"/>
		<line class="st23" x1="390.2" y1="346.5" x2="394.9" y2="346.5"/>
		<line class="st23" x1="419" y1="365.2" x2="438.8" y2="365.2"/>
		<text transform="matrix(1 0 0 1 440.6408 353.6507)" class="st7 st3 st5">A</text>
		<text transform="matrix(1 0 0 1 440.6408 328.4505)" class="st7 st3 st5">B</text>
		<text transform="matrix(1 0 0 1 390.2404 299.6497)" class="st7 st3 st5">U1</text>
		<text transform="matrix(1 0 0 1 390.2404 382.4505)" class="st7 st3 st5">MAX3485CSA+</text>
	</g>
</g>
<g id="Power">
	<text transform="matrix(1 0 0 1 524.1603 127.5696)" class="st7 st3 st17">bypass</text>
	<line class="st8" x1="455" y1="80.1" x2="455" y2="94.5"/>
	<line class="st8" x1="498.2" y1="80.1" x2="498.2" y2="87.3"/>
	<line class="st8" x1="519.8" y1="87.3" x2="519.8" y2="94.5"/>
	<line class="st8" x1="519.8" y1="87.3" x2="498.2" y2="87.3"/>
	<circle class="st9" cx="498.2" cy="87.3" r="1.4"/>
	<line class="st8" x1="239" y1="94.5" x2="210.2" y2="94.5"/>
	<text transform="matrix(1 0 0 1 210.2404 94.4505)" class="st7 st3 st5">15V</text>
	<line class="st8" x1="303.8" y1="137.7" x2="303.8" y2="130.5"/>
	<line class="st8" x1="260.6" y1="137.7" x2="260.6" y2="130.5"/>
	<line class="st8" x1="339.8" y1="130.5" x2="339.8" y2="137.7"/>
	<line class="st8" x1="455" y1="123.3" x2="455" y2="137.7"/>
	<line class="st8" x1="498.2" y1="137.7" x2="498.2" y2="130.5"/>
	<line class="st8" x1="519.8" y1="130.5" x2="519.8" y2="116.1"/>
	<line class="st8" x1="519.8" y1="130.5" x2="498.2" y2="130.5"/>
	<circle class="st9" cx="498.2" cy="130.5" r="1.4"/>
	<g>
		<line class="st8" x1="253.4" y1="94.5" x2="260.6" y2="94.5"/>
		<line class="st8" x1="260.6" y1="94.5" x2="267.8" y2="94.5"/>
		<line class="st8" x1="260.6" y1="108.9" x2="260.6" y2="94.5"/>
		<circle class="st9" cx="260.6" cy="94.5" r="1.4"/>
	</g>
	<g>
		<line class="st8" x1="339.8" y1="108.9" x2="339.8" y2="94.5"/>
		<line class="st8" x1="339.8" y1="94.5" x2="368.6" y2="94.5"/>
		<circle class="st9" cx="339.8" cy="94.5" r="1.4"/>
	</g>
	<g>
		<line class="st10" x1="498.2" y1="80.1" x2="498.2" y2="72.9"/>
		<line class="st11" x1="501.8" y1="78.3" x2="498.2" y2="72.9"/>
		<line class="st11" x1="498.2" y1="72.9" x2="494.6" y2="78.3"/>
		<text transform="matrix(1 0 0 1 498.2404 69.2513)" class="st7 st3 st5">3V3</text>
	</g>
	<line class="st10" x1="455" y1="80.1" x2="455" y2="72.9"/>
	<line class="st11" x1="458.6" y1="78.3" x2="455" y2="72.9"/>
	<line class="st11" x1="455" y1="72.9" x2="451.4" y2="78.3"/>
	<text transform="matrix(1 0 0 1 455.0402 69.2513)" class="st7 st3 st5">3V3</text>
	<g>
		<rect x="254.9" y="120.4" class="st2" width="11.5" height="1.4"/>
		<rect x="254.9" y="117.5" class="st2" width="11.5" height="1.4"/>
		<line class="st10" x1="260.6" y1="108.9" x2="260.6" y2="116.1"/>
		<line class="st10" x1="260.6" y1="130.5" x2="260.6" y2="123.3"/>
		<line class="st10" x1="260.6" y1="116.1" x2="260.6" y2="117.5"/>
		<line class="st10" x1="260.6" y1="123.3" x2="260.6" y2="121.8"/>
		<text transform="matrix(1 0 0 1 264.9601 114.97)" class="st7 st3 st5">C1</text>
		<text transform="matrix(1 0 0 1 264.9601 129.3704)" class="st7 st3 st5">10uF mlcc 25V</text>
	</g>
	<g>
		<rect x="334.1" y="120.4" class="st2" width="11.5" height="1.4"/>
		<rect x="334.1" y="117.5" class="st2" width="11.5" height="1.4"/>
		<line class="st10" x1="339.8" y1="108.9" x2="339.8" y2="116.1"/>
		<line class="st10" x1="339.8" y1="130.5" x2="339.8" y2="123.3"/>
		<line class="st10" x1="339.8" y1="116.1" x2="339.8" y2="117.5"/>
		<line class="st10" x1="339.8" y1="123.3" x2="339.8" y2="121.8"/>
		<text transform="matrix(1 0 0 1 344.1603 114.97)" class="st7 st3 st5">C2</text>
		<text transform="matrix(1 0 0 1 344.1603 129.3704)" class="st7 st3 st5">10uF mlcc</text>
	</g>
	<g>
		<rect x="514.1" y="106" class="st2" width="11.5" height="1.4"/>
		<rect x="514.1" y="103.1" class="st2" width="11.5" height="1.4"/>
		<line class="st10" x1="519.8" y1="94.5" x2="519.8" y2="101.7"/>
		<line class="st10" x1="519.8" y1="116.1" x2="519.8" y2="108.9"/>
		<line class="st10" x1="519.8" y1="101.7" x2="519.8" y2="103.1"/>
		<line class="st10" x1="519.8" y1="108.9" x2="519.8" y2="107.4"/>
		<text transform="matrix(1 0 0 1 524.1603 100.5696)" class="st7 st3 st5">C3</text>
		<text transform="matrix(1 0 0 1 524.1603 114.97)" class="st7 st3 st5">0.1uF cer.</text>
	</g>
	<line class="st10" x1="239" y1="94.5" x2="246.2" y2="94.5"/>
	<line class="st10" x1="253.4" y1="94.5" x2="246.2" y2="94.5"/>
	<line class="st11" x1="242.6" y1="98.1" x2="249.8" y2="94.5"/>
	<line class="st11" x1="249.8" y1="94.5" x2="242.6" y2="90.9"/>
	<line class="st11" x1="251.6" y1="90.9" x2="249.8" y2="90.9"/>
	<line class="st11" x1="249.8" y1="90.9" x2="249.8" y2="94.5"/>
	<line class="st11" x1="242.6" y1="90.9" x2="242.6" y2="98.1"/>
	<line class="st11" x1="249.8" y1="94.5" x2="249.8" y2="98.1"/>
	<line class="st11" x1="251.6" y1="90.9" x2="251.6" y2="91.6"/>
	<line class="st11" x1="249.8" y1="98.1" x2="248" y2="98.1"/>
	<line class="st11" x1="248" y1="97.3" x2="248" y2="98.1"/>
	<text transform="matrix(1 0 0 1 246.2404 89.0501)" class="st7 st3 st5">D2</text>
	<text transform="matrix(1 0 0 1 246.2404 104.8899)" class="st7 st3 st5">1N5818</text>
	<g>
		<line class="st10" x1="303.8" y1="130.5" x2="303.8" y2="108.9"/>
		<text transform="matrix(6.123234e-17 -1 1 6.123234e-17 302.8322 118.1165)" class="st7 st3 st12">2</text>
		<line class="st10" x1="267.8" y1="94.5" x2="282.2" y2="94.5"/>
		<text transform="matrix(1 0 0 1 288.8644 96.6106)" class="st7 st3 st12">VIN</text>
		<text transform="matrix(1 0 0 1 272.9738 93.4427)" class="st7 st3 st12">1</text>
		<line class="st10" x1="339.8" y1="94.5" x2="325.4" y2="94.5"/>
		<text transform="matrix(1 0 0 1 305.6164 96.6106)" class="st7 st3 st12">VOUT</text>
		<text transform="matrix(1 0 0 1 332.0646 93.4427)" class="st7 st3 st12">3</text>
		<line class="st13" x1="282.2" y1="80.1" x2="325.4" y2="80.1"/>
		<line class="st13" x1="325.4" y1="80.1" x2="325.4" y2="108.9"/>
		<line class="st13" x1="325.4" y1="108.9" x2="282.2" y2="108.9"/>
		<line class="st13" x1="282.2" y1="108.9" x2="282.2" y2="80.1"/>
		<text transform="matrix(1 0 0 1 303.841 86.1712)" class="st2 st3 st17">DC/DC</text>
		<text transform="matrix(1 0 0 1 296.6408 105.2513)" class="st7 st3 st12">GND</text>
		<text transform="matrix(1 0 0 1 282.2404 70.6907)" class="st7 st3 st5">DC1</text>
		<text transform="matrix(1 0 0 1 282.2404 77.1712)" class="st7 st3 st5">R-78E5.0-0.5</text>
	</g>
	<g>
		<line class="st10" x1="260.6" y1="137.7" x2="260.6" y2="144.9"/>
		<line class="st11" x1="266" y1="144.9" x2="255.2" y2="144.9"/>
		<text transform="matrix(1 0 0 1 255.5207 152.0501)" class="st7 st3 st5">GND</text>
	</g>
	<g>
		<line class="st10" x1="339.8" y1="137.7" x2="339.8" y2="144.9"/>
		<line class="st11" x1="345.2" y1="144.9" x2="334.4" y2="144.9"/>
		<text transform="matrix(1 0 0 1 334.7209 152.0501)" class="st7 st3 st5">GND</text>
	</g>
	<g>
		<line class="st10" x1="303.8" y1="137.7" x2="303.8" y2="144.9"/>
		<line class="st11" x1="309.2" y1="144.9" x2="298.4" y2="144.9"/>
		<text transform="matrix(1 0 0 1 298.7209 152.0501)" class="st7 st3 st5">GND</text>
	</g>
	<line class="st10" x1="455" y1="137.7" x2="455" y2="144.9"/>
	<line class="st11" x1="449.6" y1="144.9" x2="460.4" y2="144.9"/>
	<text transform="matrix(1 0 0 1 455.0402 152.0501)" class="st7 st3 st5">GND</text>
	<line class="st10" x1="498.2" y1="137.7" x2="498.2" y2="144.9"/>
	<line class="st11" x1="492.8" y1="144.9" x2="503.6" y2="144.9"/>
	<text transform="matrix(1 0 0 1 498.2404 152.0501)" class="st7 st3 st5">GND</text>
	<g>
		<line class="st10" x1="455" y1="94.5" x2="440.6" y2="94.5"/>
		<text transform="matrix(1 0 0 1 425.5617 96.6106)" class="st7 st3 st12">3V3</text>
		<text transform="matrix(1 0 0 1 447.2648 93.4427)" class="st7 st3 st12">3V3</text>
		<line class="st10" x1="368.6" y1="94.5" x2="383" y2="94.5"/>
		<text transform="matrix(1 0 0 1 389.6642 96.6106)" class="st7 st3 st12">BAT</text>
		<text transform="matrix(1 0 0 1 367.5275 93.4427)" class="st7 st3 st12">BAT</text>
		<line class="st10" x1="368.6" y1="101.7" x2="383" y2="101.7"/>
		<text transform="matrix(1 0 0 1 389.6642 103.8098)" class="st7 st3 st12">EN</text>
		<text transform="matrix(1 0 0 1 369.8156 100.6419)" class="st7 st3 st12">EN</text>
		<line class="st10" x1="455" y1="123.3" x2="440.6" y2="123.3"/>
		<text transform="matrix(1 0 0 1 423.4572 125.4095)" class="st7 st3 st12">GND</text>
		<text transform="matrix(1 0 0 1 447.2648 122.2415)" class="st7 st3 st12">GND*3</text>
		<line class="st10" x1="455" y1="108.9" x2="440.6" y2="108.9"/>
		<text transform="matrix(1 0 0 1 424.2453 111.011)" class="st7 st3 st12">USB</text>
		<text transform="matrix(1 0 0 1 447.2648 107.843)" class="st7 st3 st12">USB_5V</text>
		<line class="st11" x1="383" y1="130.5" x2="404.6" y2="130.5"/>
		<line class="st11" x1="404.6" y1="130.5" x2="440.6" y2="130.5"/>
		<line class="st11" x1="440.6" y1="130.5" x2="440.6" y2="87.3"/>
		<line class="st11" x1="440.6" y1="87.3" x2="383" y2="87.3"/>
		<line class="st11" x1="383" y1="87.3" x2="383" y2="108.9"/>
		<line class="st11" x1="383" y1="108.9" x2="383" y2="130.5"/>
		<line class="st11" x1="404.6" y1="108.9" x2="383" y2="108.9"/>
		<line class="st14" x1="400.3" y1="123.3" x2="403.9" y2="123.3"/>
		<line class="st14" x1="400.3" y1="116.1" x2="403.9" y2="116.1"/>
		<line class="st11" x1="404.6" y1="108.9" x2="404.6" y2="130.5"/>
		<text transform="matrix(6.123234e-17 -1 1 6.123234e-17 395.2795 126.1302)" class="st2 st3 st5">BAT</text>
		<text transform="matrix(1 0 0 1 383.0402 83.6497)" class="st7 st3 st5">PCB1</text>
		<text transform="matrix(1 0 0 1 383.0402 137.6497)" class="st7 st3 st5">LOLIN-D32</text>
	</g>
	<g>
		<line class="st10" x1="498.2" y1="130.5" x2="498.2" y2="116.1"/>
		<text transform="matrix(6.123234e-17 -1 1 6.123234e-17 497.2316 125.3177)" class="st7 st3 st12">5</text>
		<line class="st10" x1="498.2" y1="87.3" x2="498.2" y2="101.7"/>
		<text transform="matrix(6.123234e-17 -1 1 6.123234e-17 497.2316 95.0266)" class="st7 st3 st12">8</text>
		<text transform="matrix(6.123234e-17 -1 1 6.123234e-17 502.5598 116.0501)" class="st7 st3 st24">GND</text>
		<text transform="matrix(6.123234e-17 -1 1 6.123234e-17 502.5598 101.6497)" class="st7 st3 st24">3V3</text>
		<text transform="matrix(1 0 0 1 498.2404 111.011)" class="st7 st3 st5">U1</text>
	</g>
</g>
</svg>
