<?xml version="1.0" encoding="utf-8"?>
<!-- Generator: Adobe Illustrator 15.0.0, SVG Export Plug-In . SVG Version: 6.00 Build 0)  -->
<!DOCTYPE svg PUBLIC "-//W3C//DTD SVG 1.1//EN" "http://www.w3.org/Graphics/SVG/1.1/DTD/svg11.dtd">
<svg version="1.1" id="Layer_1" xmlns="http://www.w3.org/2000/svg" xmlns:xlink="http://www.w3.org/1999/xlink" x="0px" y="0px"
	 width="217.958px" height="61.268px" viewBox="0 0 217.958 61.268" enable-background="new 0 0 217.958 61.268"
	 xml:space="preserve">
<g>
	<g>
		<path d="M54.55,13.205c3.146-4.572,0.847-7.796-4.454-8.793C44.91,3.436,39.57,4.919,34.856,7.078
			C24.488,11.824,14.918,19.342,8.122,28.525c-2.972,4.015-5.41,8.762-5.078,13.869c0.361,5.556,6.113,8.746,10.897,9.854
			c10.626,2.461,23.885-1.388,33.712-5.408c1.412-0.577,0.482-1.111-0.591-0.865c-8.898,2.046-17.429,5.355-26.724,5.021
			C9.894,50.618,4.274,42.906,8.603,33.313c3.352-7.428,10.057-13.46,16.428-18.301c3.95-3,8.22-5.617,12.788-7.561
			c2.874-1.223,5.896-1.91,9.022-1.654c4.295,0.351,8.192,3.087,5.25,7.506C51.504,14.184,54.148,13.789,54.55,13.205L54.55,13.205z
			"/>
	</g>
</g>
<g>
	<g>
		<path d="M55.936,37.188c-4.398,0.969-3.453,4.776-1.688,7.891c2.619,4.619,7.271,5.868,12.268,5.078
			c5.861-0.928,11.018-4.781,15.297-8.658c3.566-3.23,8.923-8.843,8.677-14.093c-0.445-9.505-16.786-6.141-22.146-4.286
			c-3.912,1.353-8.854,3.847-10.15,8.117c-1.448,4.769,7.364,5.051,9.806,4.74c0.62-0.079,2.188-1.225,0.847-1.538
			c-2.339-0.548-8.341-0.758-6.458-4.51c1.526-3.04,6.216-4.516,9.218-5.35c3.931-1.093,13.083-2.754,14.963,2.389
			c2.144,5.866-7.87,13.966-11.7,16.815c-3.627,2.699-8.198,4.938-12.795,3.837c-1.444-0.347-7.978-7.785-5.591-8.392
			C58.56,38.702,57.992,36.735,55.936,37.188L55.936,37.188z"/>
	</g>
</g>
<g>
	<g>
		<path d="M90.207,34.324c6.678,6.307,33.945-1.649,25.575-10.781c-3.797-4.143-12.84,2.247-15.854,4.438
			c-5.556,4.037-11.489,10.599-8.751,18.022c2.852,7.732,14.845,6.933,21.1,5.457c8.268-1.951,17.946-6.151,22.336-13.912
			c2.125-3.757,3.017-7.345,1-11.288c-1.256-2.455-3.658-3.928-6.357-2.857c-8.573,3.401,4.324,8.949,7.166,10.479
			c7.528,4.052,6.607,11.322,5.11,18.62c-0.058,0.278,0.086,0.486,0.359,0.571c7.504,2.331,14.789-2.8,20.29-7.366
			c0.971-0.806-1.161-0.663-1.595-0.39c-3.376,2.13-6.709,4.383-10.414,5.906c-6.429,2.645-4.14-2.479-3.737-4.882
			c0.303-1.811,0.293-3.586,0.084-5.401c-0.675-5.872-6.113-8.277-10.649-10.681c-1.033-0.548-6.046-2.653-5.78-4.47
			c0.179-1.227,1.871,1.791,2.18,2.396c0.948,1.856,0.834,3.668,0.395,5.654c-1.835,8.288-11.043,13.189-18.442,15.419
			c-6.728,2.027-17.799,2.519-19.879-6.087c-1.507-6.231,4.101-11.463,8.458-14.791c2.072-1.583,5.988-4.702,8.821-3.974
			c3.353,0.86,1.727,5.449,0.135,6.961c-3.997,3.797-14.094,5.603-18.559,1.77C92.457,32.502,89.466,33.623,90.207,34.324
			L90.207,34.324z"/>
	</g>
</g>
<g>
	<g>
		<path d="M178.179,5.205c-7.95-0.933-10.929,12.91-12.427,18.178c-2.835,9.971-5.008,20.525-5.894,30.871
			c-0.026,0.314,0.083,0.585,0.398,0.714c7.184,2.928,11.779-5.352,14.145-10.79c0.389-0.893-1.938-0.299-2.263,0.104
			c-2.011,2.498-3.627,5.263-5.795,7.635c-2.842,3.109-2.559,0.688-2.263-1.623c0.643-5.002,1.528-9.976,2.509-14.921
			c1.154-5.82,2.526-11.611,4.334-17.266c0.583-1.822,3.256-11.175,5.925-10.887C178.21,7.367,180.509,5.479,178.179,5.205
			L178.179,5.205z"/>
	</g>
</g>
<g>
	<g>
		<path d="M168.3,30.408c-6.916,0.482-14.525,0.591-20.301,4.938c-0.705,0.531-1.024,1.277,0.032,1.598
			c10.358,3.133,21.376,0.244,31.836-0.805c11.026-1.105,23.736-0.592,34.059-5.07c0.917-0.397,0.706-1.198-0.29-1.081
			c-10.524,1.239-20.978,2.712-31.541,3.772c-10.481,1.053-21.44,4.007-31.845,1.143c0.12,0.45,0.24,0.899,0.361,1.35
			c4.705-3.712,11.555-3.493,17.249-3.907C169.549,32.223,170.629,30.246,168.3,30.408L168.3,30.408z"/>
	</g>
</g>
</svg>
