<?xml version="1.0" encoding="utf-8"?>
<!-- Generator: Adobe Illustrator 26.1.0, SVG Export Plug-In . SVG Version: 6.00 Build 0)  -->
<svg version="1.1" id="Layer_1" xmlns="http://www.w3.org/2000/svg" xmlns:xlink="http://www.w3.org/1999/xlink" x="0px" y="0px"
	 viewBox="0 0 730.5 730.5" style="enable-background:new 0 0 730.5 730.5;" xml:space="preserve">
<style type="text/css">
	.st0{fill:#E5E5E5;}
</style>
<path id="Shape_2_" class="st0" d="M355.7,552.4V396.7h-29.8v155.8c-28.4,7.5-46.8,34.9-43,64c3.8,29.1,28.6,50.9,57.9,50.9
	c29.3,0,54.1-21.8,57.9-50.9C402.5,587.3,384.1,559.9,355.7,552.4z M340.8,637.5c-15.8,0-28.6-12.8-28.6-28.6
	c0-15.8,12.8-28.6,28.6-28.6c15.8,0,28.6,12.8,28.6,28.6C369.4,624.7,356.6,637.5,340.8,637.5z"/>
<path id="Shape_3_" class="st0" d="M505.2,479.5v-82.6h-29.8v82.6c-28.4,7.5-46.8,34.9-43,64c3.8,29.1,28.6,50.9,57.9,50.9
	c29.3,0,54.1-21.8,57.9-50.9C551.9,514.4,533.5,487,505.2,479.5z M490.2,564.6c-15.8,0-28.6-12.8-28.6-28.6
	c0-15.8,12.8-28.6,28.6-28.6c15.8,0,28.6,12.8,28.6,28.6C518.8,551.8,506,564.5,490.2,564.6z"/>
<path id="Shape_4_" class="st0" d="M206.7,480.4v-83.7h-29.8v82.7c-29.3,7.7-47.8,36.6-42.6,66.5c5.2,29.9,32.4,50.8,62.6,48.2
	c30.2-2.6,53.4-27.9,53.4-58.2C250.4,509.6,232.4,486.6,206.7,480.4z M191.8,564.6c-15.8,0-28.6-12.8-28.6-28.6
	c0-15.8,12.8-28.6,28.6-28.6s28.6,12.8,28.6,28.6C220.4,551.8,207.6,564.5,191.8,564.6L191.8,564.6z"/>
<path id="Shape_5_" class="st0" d="M512.2,180.2c-11.7,0-23.4,1.9-34.5,5.6c-24.6-52-77.1-85-134.6-84.6
	c-57.5,0.4-109.5,34.1-133.4,86.4c-40.5-15.9-86.7-6-117.1,25.2c-30.4,31.2-39.2,77.5-22.3,117.7c16.9,40.1,56.2,66.3,99.8,66.2h2.5
	l0,0h4.4v-80.2c-13.2-6.9-20-21.9-16.5-36.3c3.5-14.5,16.5-24.6,31.4-24.6c14.9,0,27.8,10.2,31.4,24.6c3.5,14.5-3.3,29.5-16.5,36.3
	v80.1h268.6v-80.1c-13.2-6.9-20-21.9-16.5-36.3c3.5-14.5,16.5-24.6,31.4-24.6c14.9,0,27.8,10.2,31.4,24.6
	c3.5,14.5-3.3,29.5-16.5,36.3v79.9c2.3,0.1,4.7,0.3,7.1,0.3c59.8,0,108.3-48.5,108.3-108.3C620.5,228.7,572,180.2,512.2,180.2
	L512.2,180.2z M355.7,271.4v125.3h-29.8V271.4c-13.2-6.9-20-21.9-16.5-36.3c3.5-14.5,16.5-24.6,31.4-24.6
	c14.9,0,27.8,10.2,31.4,24.6C375.7,249.6,368.9,264.6,355.7,271.4L355.7,271.4z"/>
</svg>
