<?xml version="1.0" encoding="utf-8"?>
<!-- Generator: Adobe Illustrator 26.1.0, SVG Export Plug-In . SVG Version: 6.00 Build 0)  -->
<svg version="1.1" id="Layer_1" xmlns="http://www.w3.org/2000/svg" xmlns:xlink="http://www.w3.org/1999/xlink" x="0px" y="0px"
	 viewBox="0 0 719 645" style="enable-background:new 0 0 719 645;" xml:space="preserve">
<style type="text/css">
	.st0{stroke:#E04329;stroke-linecap:round;stroke-linejoin:round;}
	.st1{fill:none;stroke:#E5E5E5;stroke-width:9;stroke-linecap:round;stroke-linejoin:round;}
	.st2{stroke:#E5E5E5;stroke-width:9;stroke-linecap:round;stroke-linejoin:round;}
	.st3{fill:none;stroke:#E5E5E5;stroke-width:7.3664;stroke-linecap:round;stroke-linejoin:round;}
	.st4{fill:#E5E5E5;}
</style>
<path class="st0" d="M604.6,339.4"/>
<path class="st1" d="M653.5,506.2c17.8-54.1-9.4-112.7-62.3-133.9"/>
<path class="st1" d="M624,493.4c10.9-36.9-7-76.1-42-92.2"/>
<path class="st2" d="M627.1,486.3c0-0.1,0-0.2,0-0.3"/>
<path class="st3" d="M593.3,481.7c6.7-20.2-4.3-42.1-24.6-48.7l0,0"/>
<path id="Shape_2_" class="st4" d="M367.7,514.4V358.7h-29.8v155.8c-28.4,7.5-46.8,34.9-43,64c3.8,29.1,28.6,50.9,57.9,50.9
	c29.3,0,54.1-21.8,57.9-50.9C414.5,549.3,396.1,521.9,367.7,514.4z M352.8,599.5c-15.8,0-28.6-12.8-28.6-28.6
	c0-15.8,12.8-28.6,28.6-28.6c15.8,0,28.6,12.8,28.6,28.6C381.4,586.7,368.6,599.5,352.8,599.5z"/>
<path id="Shape_3_" class="st4" d="M517.2,441.5v-82.6h-29.8v82.6c-28.4,7.5-46.8,34.9-43,64c3.8,29.1,28.6,50.9,57.9,50.9
	c29.3,0,54.1-21.8,57.9-50.9C563.9,476.4,545.5,449,517.2,441.5z M502.2,526.6c-15.8,0-28.6-12.8-28.6-28.6
	c0-15.8,12.8-28.6,28.6-28.6c15.8,0,28.6,12.8,28.6,28.6C530.8,513.8,518,526.5,502.2,526.6z"/>
<path id="Shape_4_" class="st4" d="M218.7,442.4v-83.7h-29.8v82.7c-29.3,7.7-47.8,36.6-42.6,66.5c5.2,29.9,32.4,50.8,62.6,48.2
	c30.2-2.6,53.4-27.9,53.4-58.2C262.4,471.6,244.4,448.6,218.7,442.4z M203.8,526.6c-15.8,0-28.6-12.8-28.6-28.6
	c0-15.8,12.8-28.6,28.6-28.6s28.6,12.8,28.6,28.6C232.4,513.8,219.6,526.5,203.8,526.6L203.8,526.6z"/>
<path id="Shape_5_" class="st4" d="M524.2,142.2c-11.7,0-23.4,1.9-34.5,5.6c-24.6-52-77.1-85-134.6-84.6
	c-57.5,0.4-109.5,34.1-133.4,86.4c-40.5-15.9-86.7-6-117.1,25.2c-30.4,31.2-39.2,77.5-22.3,117.7c16.9,40.1,56.2,66.3,99.8,66.2h2.5
	l0,0h4.4v-80.2c-13.2-6.9-20-21.9-16.5-36.3c3.5-14.5,16.5-24.6,31.4-24.6c14.9,0,27.8,10.2,31.4,24.6c3.5,14.5-3.3,29.5-16.5,36.3
	v80.1h268.6v-80.1c-13.2-6.9-20-21.9-16.5-36.3c3.5-14.5,16.5-24.6,31.4-24.6c14.9,0,27.8,10.2,31.4,24.6
	c3.5,14.5-3.3,29.5-16.5,36.3v79.9c2.3,0.1,4.7,0.3,7.1,0.3c59.8,0,108.3-48.5,108.3-108.3C632.5,190.7,584,142.2,524.2,142.2
	L524.2,142.2z M367.7,233.4v125.3h-29.8V233.4c-13.2-6.9-20-21.9-16.5-36.3c3.5-14.5,16.5-24.6,31.4-24.6
	c14.9,0,27.8,10.2,31.4,24.6C387.7,211.6,380.9,226.6,367.7,233.4L367.7,233.4z"/>
</svg>
