<?xml version="1.0" encoding="utf-8"?>
<!-- Generator: Adobe Illustrator 26.2.1, SVG Export Plug-In . SVG Version: 6.00 Build 0)  -->
<svg version="1.1" id="r2" xmlns="http://www.w3.org/2000/svg" xmlns:xlink="http://www.w3.org/1999/xlink" x="0px" y="0px"
	 viewBox="0 0 349 99.9" style="enable-background:new 0 0 349 99.9;" xml:space="preserve">
<style type="text/css">
	.st0{fill:#808080;}
	.st1{font-family:'ArialMT';}
	.st2{font-size:3.96px;}
	.st3{fill:none;stroke:#0DAB76;stroke-width:0.432;stroke-linecap:round;stroke-miterlimit:11.3386;}
	.st4{fill:#0DAB76;}
	.st5{font-size:5.544px;}
	.st6{fill:none;stroke:#C90D0C;stroke-width:0.432;stroke-linecap:round;stroke-miterlimit:11.3386;}
	.st7{fill:none;stroke:#C90D0C;stroke-width:0.72;stroke-linecap:round;stroke-miterlimit:11.3386;}
	.st8{fill:#C90D0C;}
	.st9{font-size:4.752px;}
	.st10{fill:none;stroke:#C90D0C;stroke-width:1.152;stroke-linecap:round;stroke-miterlimit:11.3386;}
	.st11{fill:none;stroke:#C90D0C;stroke-width:1.728;stroke-linecap:round;stroke-miterlimit:11.3386;}
	.st12{font-size:3.168px;}
</style>
<g id="Power">
	<text transform="matrix(1 0 0 1 320.1162 68.7537)" class="st0 st1 st2">bypass</text>
	<line class="st3" x1="251" y1="21.2" x2="251" y2="35.6"/>
	<line class="st3" x1="294.2" y1="21.2" x2="294.2" y2="28.4"/>
	<line class="st3" x1="315.8" y1="28.4" x2="315.8" y2="35.6"/>
	<line class="st3" x1="315.8" y1="28.4" x2="294.2" y2="28.4"/>
	<circle class="st4" cx="294.2" cy="28.4" r="1.4"/>
	<line class="st3" x1="35" y1="35.6" x2="6.2" y2="35.6"/>
	<text transform="matrix(1 0 0 1 6.1963 35.6345)" class="st0 st1 st5">15V</text>
	<line class="st3" x1="99.8" y1="78.8" x2="99.8" y2="71.6"/>
	<line class="st3" x1="56.6" y1="78.8" x2="56.6" y2="71.6"/>
	<line class="st3" x1="135.8" y1="71.6" x2="135.8" y2="78.8"/>
	<line class="st3" x1="251" y1="64.4" x2="251" y2="78.8"/>
	<line class="st3" x1="294.2" y1="78.8" x2="294.2" y2="71.6"/>
	<line class="st3" x1="315.8" y1="71.6" x2="315.8" y2="57.2"/>
	<line class="st3" x1="315.8" y1="71.6" x2="294.2" y2="71.6"/>
	<circle class="st4" cx="294.2" cy="71.6" r="1.4"/>
	<g>
		<line class="st3" x1="49.4" y1="35.6" x2="56.6" y2="35.6"/>
		<line class="st3" x1="56.6" y1="35.6" x2="63.8" y2="35.6"/>
		<line class="st3" x1="56.6" y1="50" x2="56.6" y2="35.6"/>
		<circle class="st4" cx="56.6" cy="35.6" r="1.4"/>
	</g>
	<g>
		<line class="st3" x1="135.8" y1="50" x2="135.8" y2="35.6"/>
		<line class="st3" x1="135.8" y1="35.6" x2="164.6" y2="35.6"/>
		<circle class="st4" cx="135.8" cy="35.6" r="1.4"/>
	</g>
	<g>
		<line class="st6" x1="294.2" y1="21.2" x2="294.2" y2="14"/>
		<line class="st7" x1="297.8" y1="19.4" x2="294.2" y2="14"/>
		<line class="st7" x1="294.2" y1="14" x2="290.6" y2="19.4"/>
		<text transform="matrix(1 0 0 1 294.1963 10.4353)" class="st0 st1 st5">3V3</text>
	</g>
	<line class="st6" x1="251" y1="21.2" x2="251" y2="14"/>
	<line class="st7" x1="254.6" y1="19.4" x2="251" y2="14"/>
	<line class="st7" x1="251" y1="14" x2="247.4" y2="19.4"/>
	<text transform="matrix(1 0 0 1 250.9961 10.4353)" class="st0 st1 st5">3V3</text>
	<g>
		<rect x="50.8" y="61.6" class="st8" width="11.5" height="1.4"/>
		<rect x="50.8" y="58.7" class="st8" width="11.5" height="1.4"/>
		<line class="st6" x1="56.6" y1="50" x2="56.6" y2="57.2"/>
		<line class="st6" x1="56.6" y1="71.6" x2="56.6" y2="64.4"/>
		<line class="st6" x1="56.6" y1="57.2" x2="56.6" y2="58.7"/>
		<line class="st6" x1="56.6" y1="64.4" x2="56.6" y2="63"/>
		<text transform="matrix(1 0 0 1 60.916 56.154)" class="st0 st1 st5">C1</text>
		<text transform="matrix(1 0 0 1 60.916 70.5544)" class="st0 st1 st5">10uF mlcc 25V</text>
	</g>
	<g>
		<rect x="130" y="61.6" class="st8" width="11.5" height="1.4"/>
		<rect x="130" y="58.7" class="st8" width="11.5" height="1.4"/>
		<line class="st6" x1="135.8" y1="50" x2="135.8" y2="57.2"/>
		<line class="st6" x1="135.8" y1="71.6" x2="135.8" y2="64.4"/>
		<line class="st6" x1="135.8" y1="57.2" x2="135.8" y2="58.7"/>
		<line class="st6" x1="135.8" y1="64.4" x2="135.8" y2="63"/>
		<text transform="matrix(1 0 0 1 140.1162 56.154)" class="st0 st1 st5">C2</text>
		<text transform="matrix(1 0 0 1 140.1162 70.5544)" class="st0 st1 st5">10uF mlcc</text>
	</g>
	<g>
		<rect x="310" y="47.2" class="st8" width="11.5" height="1.4"/>
		<rect x="310" y="44.3" class="st8" width="11.5" height="1.4"/>
		<line class="st6" x1="315.8" y1="35.6" x2="315.8" y2="42.8"/>
		<line class="st6" x1="315.8" y1="57.2" x2="315.8" y2="50"/>
		<line class="st6" x1="315.8" y1="42.8" x2="315.8" y2="44.3"/>
		<line class="st6" x1="315.8" y1="50" x2="315.8" y2="48.6"/>
		<text transform="matrix(1 0 0 1 320.1162 41.7537)" class="st0 st1 st5">C3</text>
		<text transform="matrix(1 0 0 1 320.1162 56.154)" class="st0 st1 st5">0.1uF cer.</text>
	</g>
	<line class="st6" x1="35" y1="35.6" x2="42.2" y2="35.6"/>
	<line class="st6" x1="49.4" y1="35.6" x2="42.2" y2="35.6"/>
	<line class="st7" x1="38.6" y1="39.2" x2="45.8" y2="35.6"/>
	<line class="st7" x1="45.8" y1="35.6" x2="38.6" y2="32"/>
	<line class="st7" x1="47.6" y1="32" x2="45.8" y2="32"/>
	<line class="st7" x1="45.8" y1="32" x2="45.8" y2="35.6"/>
	<line class="st7" x1="38.6" y1="32" x2="38.6" y2="39.2"/>
	<line class="st7" x1="45.8" y1="35.6" x2="45.8" y2="39.2"/>
	<line class="st7" x1="47.6" y1="32" x2="47.6" y2="32.8"/>
	<line class="st7" x1="45.8" y1="39.2" x2="44" y2="39.2"/>
	<line class="st7" x1="44" y1="38.5" x2="44" y2="39.2"/>
	<text transform="matrix(1 0 0 1 42.1963 30.2341)" class="st0 st1 st5">D2</text>
	<text transform="matrix(1 0 0 1 42.1963 46.074)" class="st0 st1 st5">1N5818</text>
	<g>
		<line class="st6" x1="99.8" y1="71.6" x2="99.8" y2="50"/>
		<text transform="matrix(6.123234e-17 -1 1 6.123234e-17 98.7881 59.3008)" class="st0 st1 st9">2</text>
		<line class="st6" x1="63.8" y1="35.6" x2="78.2" y2="35.6"/>
		<text transform="matrix(1 0 0 1 84.8203 37.7947)" class="st0 st1 st9">VIN</text>
		<text transform="matrix(1 0 0 1 68.9297 34.6267)" class="st0 st1 st9">1</text>
		<line class="st6" x1="135.8" y1="35.6" x2="121.4" y2="35.6"/>
		<text transform="matrix(1 0 0 1 101.5723 37.7947)" class="st0 st1 st9">VOUT</text>
		<text transform="matrix(1 0 0 1 128.0205 34.6267)" class="st0 st1 st9">3</text>
		<line class="st10" x1="78.2" y1="21.2" x2="121.4" y2="21.2"/>
		<line class="st10" x1="121.4" y1="21.2" x2="121.4" y2="50"/>
		<line class="st10" x1="121.4" y1="50" x2="78.2" y2="50"/>
		<line class="st10" x1="78.2" y1="50" x2="78.2" y2="21.2"/>
		<text transform="matrix(1 0 0 1 99.7969 27.3552)" class="st8 st1 st2">DC/DC</text>
		<text transform="matrix(1 0 0 1 92.5967 46.4353)" class="st0 st1 st9">GND</text>
		<text transform="matrix(1 0 0 1 78.1963 11.8748)" class="st0 st1 st5">DC1</text>
		<text transform="matrix(1 0 0 1 78.1963 18.3552)" class="st0 st1 st5">R-78E5.0-0.5</text>
	</g>
	<g>
		<line class="st6" x1="56.6" y1="78.8" x2="56.6" y2="86"/>
		<line class="st7" x1="62" y1="86" x2="51.2" y2="86"/>
		<text transform="matrix(1 0 0 1 51.4766 93.2341)" class="st0 st1 st5">GND</text>
	</g>
	<g>
		<line class="st6" x1="135.8" y1="78.8" x2="135.8" y2="86"/>
		<line class="st7" x1="141.2" y1="86" x2="130.4" y2="86"/>
		<text transform="matrix(1 0 0 1 130.6768 93.2341)" class="st0 st1 st5">GND</text>
	</g>
	<g>
		<line class="st6" x1="99.8" y1="78.8" x2="99.8" y2="86"/>
		<line class="st7" x1="105.2" y1="86" x2="94.4" y2="86"/>
		<text transform="matrix(1 0 0 1 94.6768 93.2341)" class="st0 st1 st5">GND</text>
	</g>
	<line class="st6" x1="251" y1="78.8" x2="251" y2="86"/>
	<line class="st7" x1="245.6" y1="86" x2="256.4" y2="86"/>
	<text transform="matrix(1 0 0 1 250.9961 93.2341)" class="st0 st1 st5">GND</text>
	<line class="st6" x1="294.2" y1="78.8" x2="294.2" y2="86"/>
	<line class="st7" x1="288.8" y1="86" x2="299.6" y2="86"/>
	<text transform="matrix(1 0 0 1 294.1963 93.2341)" class="st0 st1 st5">GND</text>
	<g>
		<line class="st6" x1="251" y1="35.6" x2="236.6" y2="35.6"/>
		<text transform="matrix(1 0 0 1 221.5176 37.7947)" class="st0 st1 st9">3V3</text>
		<text transform="matrix(1 0 0 1 243.2207 34.6267)" class="st0 st1 st9">3V3</text>
		<line class="st6" x1="164.6" y1="35.6" x2="179" y2="35.6"/>
		<text transform="matrix(1 0 0 1 185.6201 37.7947)" class="st0 st1 st9">BAT</text>
		<text transform="matrix(1 0 0 1 163.4834 34.6267)" class="st0 st1 st9">BAT</text>
		<line class="st6" x1="164.6" y1="42.8" x2="179" y2="42.8"/>
		<text transform="matrix(1 0 0 1 185.6201 44.9939)" class="st0 st1 st9">EN</text>
		<text transform="matrix(1 0 0 1 165.7715 41.8259)" class="st0 st1 st9">EN</text>
		<line class="st6" x1="251" y1="64.4" x2="236.6" y2="64.4"/>
		<text transform="matrix(1 0 0 1 219.4131 66.5935)" class="st0 st1 st9">GND</text>
		<text transform="matrix(1 0 0 1 243.2207 63.4255)" class="st0 st1 st9">GND*3</text>
		<line class="st6" x1="251" y1="50" x2="236.6" y2="50"/>
		<text transform="matrix(1 0 0 1 220.2012 52.1951)" class="st0 st1 st9">USB</text>
		<text transform="matrix(1 0 0 1 243.2207 49.0271)" class="st0 st1 st9">USB_5V</text>
		<line class="st7" x1="179" y1="71.6" x2="200.6" y2="71.6"/>
		<line class="st7" x1="200.6" y1="71.6" x2="236.6" y2="71.6"/>
		<line class="st7" x1="236.6" y1="71.6" x2="236.6" y2="28.4"/>
		<line class="st7" x1="236.6" y1="28.4" x2="179" y2="28.4"/>
		<line class="st7" x1="179" y1="28.4" x2="179" y2="50"/>
		<line class="st7" x1="179" y1="50" x2="179" y2="71.6"/>
		<line class="st7" x1="200.6" y1="50" x2="179" y2="50"/>
		<line class="st11" x1="196.3" y1="64.4" x2="199.9" y2="64.4"/>
		<line class="st11" x1="196.3" y1="57.2" x2="199.9" y2="57.2"/>
		<line class="st7" x1="200.6" y1="50" x2="200.6" y2="71.6"/>
		<text transform="matrix(6.123234e-17 -1 1 6.123234e-17 191.2354 67.3145)" class="st8 st1 st5">BAT</text>
		<text transform="matrix(1 0 0 1 178.9961 24.8337)" class="st0 st1 st5">PCB1</text>
		<text transform="matrix(1 0 0 1 178.9961 78.8337)" class="st0 st1 st5">LOLIN-D32</text>
	</g>
	<g>
		<line class="st6" x1="294.2" y1="71.6" x2="294.2" y2="57.2"/>
		<text transform="matrix(6.123234e-17 -1 1 6.123234e-17 293.1875 66.502)" class="st0 st1 st9">5</text>
		<line class="st6" x1="294.2" y1="28.4" x2="294.2" y2="42.8"/>
		<text transform="matrix(6.123234e-17 -1 1 6.123234e-17 293.1875 36.2109)" class="st0 st1 st9">8</text>
		<text transform="matrix(6.123234e-17 -1 1 6.123234e-17 298.5156 57.2344)" class="st0 st1 st12">GND</text>
		<text transform="matrix(6.123234e-17 -1 1 6.123234e-17 298.5156 42.834)" class="st0 st1 st12">3V3</text>
		<text transform="matrix(1 0 0 1 294.1963 52.1951)" class="st0 st1 st5">U1</text>
	</g>
</g>
</svg>
