<?xml version="1.0" encoding="utf-8"?>
<!-- Generator: Adobe Illustrator 26.2.1, SVG Export Plug-In . SVG Version: 6.00 Build 0)  -->
<svg version="1.1" id="r2" xmlns="http://www.w3.org/2000/svg" xmlns:xlink="http://www.w3.org/1999/xlink" x="0px" y="0px"
	 viewBox="0 0 531 248.2" style="enable-background:new 0 0 531 248.2;" xml:space="preserve">
<style type="text/css">
	.st0{fill:#808080;}
	.st1{font-family:'ArialMT';}
	.st2{font-size:5.544px;}
	.st3{fill:none;stroke:#0DAB76;stroke-width:0.432;stroke-linecap:round;stroke-miterlimit:11.3386;}
	.st4{fill:#0DAB76;}
	.st5{fill:none;stroke:#C90D0C;stroke-width:0.432;stroke-linecap:round;stroke-miterlimit:11.3386;}
	.st6{fill:none;stroke:#C90D0C;stroke-width:0.72;stroke-linecap:round;stroke-miterlimit:11.3386;}
	.st7{font-size:4.752px;}
	.st8{fill:none;stroke:#C90D0C;stroke-width:1.152;stroke-linecap:round;stroke-miterlimit:11.3386;}
	.st9{fill:none;stroke:#C90D0C;stroke-width:1.728;stroke-linecap:round;stroke-miterlimit:11.3386;}
	.st10{fill:none;stroke:#C90D0C;stroke-width:1.44;stroke-miterlimit:11.3386;}
	.st11{fill:#C90D0C;}
	.st12{fill:none;stroke:#C90D0C;stroke-width:0.504;stroke-linecap:round;stroke-miterlimit:11.3386;}
	.st13{font-size:3.96px;}
	.st14{fill:none;stroke:#C90D0C;stroke-width:3.6;stroke-miterlimit:11.3386;}
	.st15{font-size:5.6168px;}
	.st16{font-size:5.6166px;}
	.st17{fill:none;stroke:#C90D0C;stroke-width:0.36;stroke-miterlimit:11.3386;}
	.st18{fill:none;stroke:#C90D0C;stroke-width:1.152;stroke-miterlimit:11.3386;}
	.st19{fill:none;stroke:#C90D0C;stroke-width:0.36;stroke-linecap:round;stroke-miterlimit:11.3386;}
</style>
<g id="Logic">
	<text transform="matrix(6.123234e-17 -1 1 6.123234e-17 8.5363 77.9951)" class="st0 st1 st2">Up chip degugging </text>
	<text transform="matrix(6.123234e-17 -1 1 6.123234e-17 15.2362 61.9951)" class="st0 st1 st2">JTAG</text>
	<text transform="matrix(6.123234e-17 -1 1 6.123234e-17 523.3325 171.7637)" class="st0 st1 st2">PoolController</text>
	<text transform="matrix(1 0 0 1 233.6049 171.6972)" class="st0 st1 st2">Green</text>
	<text transform="matrix(1 0 0 1 268.685 171.6972)" class="st0 st1 st2">Amber</text>
	<line class="st3" x1="21.5" y1="19.8" x2="21.5" y2="41.4"/>
	<line class="st3" x1="21.5" y1="41.4" x2="35.9" y2="41.4"/>
	<line class="st3" x1="475.1" y1="106.2" x2="475.1" y2="142.2"/>
	<line class="st3" x1="475.1" y1="142.2" x2="478.7" y2="142.2"/>
	<text transform="matrix(1 0 0 1 475.0932 106.1776)" class="st0 st1 st2">15V</text>
	<g>
		<line class="st3" x1="395.9" y1="149.4" x2="403.1" y2="149.4"/>
		<line class="st3" x1="403.1" y1="149.4" x2="478.7" y2="149.4"/>
		<line class="st3" x1="403.1" y1="120.6" x2="403.1" y2="149.4"/>
		<circle class="st4" cx="403.1" cy="149.4" r="1.4"/>
		<text transform="matrix(1 0 0 1 417.4936 149.3768)" class="st0 st1 st2">A</text>
	</g>
	<g>
		<line class="st3" x1="395.9" y1="135" x2="460.7" y2="135"/>
		<line class="st3" x1="460.7" y1="135" x2="460.7" y2="156.6"/>
		<line class="st3" x1="460.7" y1="156.6" x2="478.7" y2="156.6"/>
		<line class="st3" x1="460.7" y1="120.6" x2="460.7" y2="135"/>
		<circle class="st4" cx="460.7" cy="135" r="1.4"/>
		<text transform="matrix(1 0 0 1 417.4936 134.9765)" class="st0 st1 st2">B</text>
	</g>
	<line class="st3" x1="35.9" y1="48.6" x2="21.5" y2="48.6"/>
	<line class="st3" x1="21.5" y1="48.6" x2="21.5" y2="55.8"/>
	<line class="st3" x1="21.5" y1="55.8" x2="21.5" y2="63"/>
	<line class="st3" x1="21.5" y1="63" x2="21.5" y2="70.2"/>
	<line class="st3" x1="35.9" y1="55.8" x2="21.5" y2="55.8"/>
	<line class="st3" x1="35.9" y1="63" x2="21.5" y2="63"/>
	<line class="st3" x1="35.9" y1="70.2" x2="21.5" y2="70.2"/>
	<line class="st3" x1="21.5" y1="70.2" x2="21.5" y2="84.6"/>
	<circle class="st4" cx="21.5" cy="55.8" r="1.4"/>
	<circle class="st4" cx="21.5" cy="63" r="1.4"/>
	<circle class="st4" cx="21.5" cy="70.2" r="1.4"/>
	<line class="st3" x1="475.1" y1="178.2" x2="475.1" y2="163.8"/>
	<line class="st3" x1="475.1" y1="163.8" x2="478.7" y2="163.8"/>
	<line class="st3" x1="230.3" y1="106.2" x2="244.7" y2="106.2"/>
	<line class="st3" x1="244.7" y1="106.2" x2="244.7" y2="113.4"/>
	<line class="st3" x1="230.3" y1="99" x2="244.7" y2="99"/>
	<line class="st3" x1="244.7" y1="99" x2="244.7" y2="106.2"/>
	<line class="st3" x1="230.3" y1="91.8" x2="244.7" y2="91.8"/>
	<line class="st3" x1="244.7" y1="91.8" x2="244.7" y2="99"/>
	<circle class="st4" cx="244.7" cy="106.2" r="1.4"/>
	<circle class="st4" cx="244.7" cy="99" r="1.4"/>
	<line class="st3" x1="295.1" y1="221.4" x2="295.1" y2="228.6"/>
	<line class="st3" x1="259.1" y1="221.4" x2="259.1" y2="228.6"/>
	<line class="st3" x1="280.7" y1="41.4" x2="295.1" y2="41.4"/>
	<line class="st3" x1="295.1" y1="41.4" x2="295.1" y2="48.6"/>
	<line class="st3" x1="295.1" y1="48.6" x2="295.1" y2="55.8"/>
	<line class="st3" x1="280.7" y1="48.6" x2="295.1" y2="48.6"/>
	<circle class="st4" cx="295.1" cy="48.6" r="1.4"/>
	<g>
		<line class="st3" x1="71.9" y1="70.2" x2="122.3" y2="70.2"/>
		<text transform="matrix(1 0 0 1 79.0932 70.1776)" class="st0 st1 st2">JTAG_!RST</text>
	</g>
	<g>
		<line class="st3" x1="71.9" y1="48.6" x2="122.3" y2="48.6"/>
		<text transform="matrix(1 0 0 1 79.0932 48.5761)" class="st0 st1 st2">JTAG_CK</text>
	</g>
	<g>
		<line class="st3" x1="71.9" y1="63" x2="122.3" y2="63"/>
		<text transform="matrix(1 0 0 1 79.0932 62.9765)" class="st0 st1 st2">JTAG_DI</text>
	</g>
	<g>
		<line class="st3" x1="71.9" y1="55.8" x2="122.3" y2="55.8"/>
		<text transform="matrix(1 0 0 1 79.0932 55.7772)" class="st0 st1 st2">JTAG_DO</text>
	</g>
	<g>
		<line class="st3" x1="71.9" y1="41.4" x2="122.3" y2="41.4"/>
		<text transform="matrix(1 0 0 1 79.0932 41.3769)" class="st0 st1 st2">JTAG_MS</text>
	</g>
	<g>
		<line class="st3" x1="230.3" y1="41.4" x2="237.5" y2="41.4"/>
		<line class="st3" x1="237.5" y1="41.4" x2="244.7" y2="41.4"/>
		<line class="st3" x1="237.5" y1="41.4" x2="237.5" y2="48.6"/>
		<line class="st3" x1="237.5" y1="48.6" x2="244.7" y2="48.6"/>
		<circle class="st4" cx="237.5" cy="41.4" r="1.4"/>
	</g>
	<g>
		<line class="st3" x1="230.3" y1="156.6" x2="316.7" y2="156.6"/>
		<line class="st3" x1="316.7" y1="156.6" x2="316.7" y2="149.4"/>
		<line class="st3" x1="316.7" y1="149.4" x2="316.7" y2="135"/>
		<line class="st3" x1="316.7" y1="135" x2="323.9" y2="135"/>
		<line class="st3" x1="323.9" y1="149.4" x2="316.7" y2="149.4"/>
		<circle class="st4" cx="316.7" cy="149.4" r="1.4"/>
		<text transform="matrix(1 0 0 1 237.4936 156.577)" class="st0 st1 st2">RTS</text>
	</g>
	<g>
		<line class="st3" x1="230.3" y1="142.2" x2="259.1" y2="142.2"/>
		<line class="st3" x1="259.1" y1="142.2" x2="259.1" y2="120.6"/>
		<line class="st3" x1="259.1" y1="120.6" x2="323.9" y2="120.6"/>
		<line class="st3" x1="259.1" y1="142.2" x2="259.1" y2="171"/>
		<circle class="st4" cx="259.1" cy="142.2" r="1.4"/>
		<text transform="matrix(1 0 0 1 237.4936 142.1767)" class="st0 st1 st2">RX2</text>
	</g>
	<g>
		<line class="st3" x1="230.3" y1="149.4" x2="295.1" y2="149.4"/>
		<line class="st3" x1="295.1" y1="149.4" x2="295.1" y2="163.8"/>
		<line class="st3" x1="295.1" y1="163.8" x2="295.1" y2="171"/>
		<line class="st3" x1="323.9" y1="163.8" x2="295.1" y2="163.8"/>
		<circle class="st4" cx="295.1" cy="163.8" r="1.4"/>
		<text transform="matrix(1 0 0 1 237.4936 149.3768)" class="st0 st1 st2">TX</text>
	</g>
	<g>
		<line class="st5" x1="21.5" y1="19.8" x2="21.5" y2="12.6"/>
		<line class="st6" x1="25.1" y1="18" x2="21.5" y2="12.6"/>
		<line class="st6" x1="21.5" y1="12.6" x2="17.9" y2="18"/>
		<text transform="matrix(1 0 0 1 21.4936 8.9765)" class="st0 st1 st2">3V3</text>
	</g>
	<g>
		<line class="st5" x1="244.7" y1="113.4" x2="244.7" y2="120.6"/>
		<line class="st6" x1="239.3" y1="120.6" x2="250.1" y2="120.6"/>
		<text transform="matrix(1 0 0 1 244.6938 127.7772)" class="st0 st1 st2">GND</text>
	</g>
	<g>
		<line class="st5" x1="295.1" y1="228.6" x2="295.1" y2="235.8"/>
		<line class="st6" x1="300.5" y1="235.8" x2="289.7" y2="235.8"/>
		<text transform="matrix(1 0 0 1 289.974 242.9765)" class="st0 st1 st2">GND</text>
	</g>
	<g>
		<line class="st5" x1="259.1" y1="228.6" x2="259.1" y2="235.8"/>
		<line class="st6" x1="264.5" y1="235.8" x2="253.7" y2="235.8"/>
		<text transform="matrix(1 0 0 1 253.974 242.9765)" class="st0 st1 st2">GND</text>
	</g>
	<g>
		<line class="st5" x1="295.1" y1="55.8" x2="295.1" y2="63"/>
		<line class="st6" x1="300.5" y1="63" x2="289.7" y2="63"/>
		<text transform="matrix(1 0 0 1 289.974 70.1776)" class="st0 st1 st2">GND</text>
	</g>
	<g>
		<line class="st5" x1="21.5" y1="84.6" x2="21.5" y2="91.8"/>
		<line class="st6" x1="16.1" y1="91.8" x2="26.9" y2="91.8"/>
		<text transform="matrix(1 0 0 1 21.4936 98.9765)" class="st0 st1 st2">GND</text>
	</g>
	<g>
		<line class="st5" x1="475.1" y1="178.2" x2="475.1" y2="185.4"/>
		<line class="st6" x1="469.7" y1="185.4" x2="480.5" y2="185.4"/>
		<text transform="matrix(1 0 0 1 475.0932 192.577)" class="st0 st1 st2">GND</text>
	</g>
	<g>
		<line class="st5" x1="478.7" y1="142.2" x2="493.1" y2="142.2"/>
		<text transform="matrix(1 0 0 1 499.7172 144.3368)" class="st0 st1 st7">15V</text>
		<text transform="matrix(1 0 0 1 483.8266 141.1688)" class="st0 st1 st7">1</text>
		<line class="st5" x1="478.7" y1="149.4" x2="493.1" y2="149.4"/>
		<text transform="matrix(1 0 0 1 499.7172 151.537)" class="st0 st1 st7">A</text>
		<text transform="matrix(1 0 0 1 483.8266 148.369)" class="st0 st1 st7">2</text>
		<line class="st5" x1="478.7" y1="156.6" x2="493.1" y2="156.6"/>
		<text transform="matrix(1 0 0 1 499.7172 158.7372)" class="st0 st1 st7">B</text>
		<text transform="matrix(1 0 0 1 483.8266 155.5692)" class="st0 st1 st7">3</text>
		<line class="st5" x1="478.7" y1="163.8" x2="493.1" y2="163.8"/>
		<text transform="matrix(1 0 0 1 499.7172 165.9364)" class="st0 st1 st7">GND</text>
		<text transform="matrix(1 0 0 1 483.8266 162.7684)" class="st0 st1 st7">4</text>
		<line class="st8" x1="514.7" y1="171" x2="489.5" y2="171"/>
		<line class="st9" x1="493.1" y1="142.2" x2="496.7" y2="142.2"/>
		<line class="st9" x1="493.1" y1="149.4" x2="496.7" y2="149.4"/>
		<line class="st9" x1="496.7" y1="156.6" x2="493.1" y2="156.6"/>
		<line class="st8" x1="489.5" y1="135" x2="489.5" y2="171"/>
		<line class="st8" x1="514.7" y1="171" x2="514.7" y2="135"/>
		<line class="st8" x1="489.5" y1="135" x2="514.7" y2="135"/>
		<line class="st9" x1="496.7" y1="163.8" x2="493.1" y2="163.8"/>
		<text transform="matrix(1 0 0 1 489.4936 178.1767)" class="st0 st1 st2">RS485-TERM</text>
		<text transform="matrix(1 0 0 1 489.4936 133.537)" class="st0 st1 st2">J2</text>
	</g>
	<g>
		<circle class="st10" cx="57.5" cy="41.4" r="0.9"/>
		<circle class="st10" cx="50.3" cy="48.6" r="0.9"/>
		<circle class="st10" cx="57.5" cy="48.6" r="0.9"/>
		<circle class="st10" cx="57.5" cy="55.8" r="0.9"/>
		<circle class="st10" cx="50.3" cy="55.8" r="0.9"/>
		<circle class="st10" cx="50.3" cy="63" r="0.9"/>
		<circle class="st10" cx="57.5" cy="63" r="0.9"/>
		<circle class="st10" cx="57.5" cy="70.2" r="0.9"/>
		<circle class="st10" cx="50.3" cy="70.2" r="0.9"/>
		<rect x="48.7" y="39.8" class="st11" width="3.2" height="3.2"/>
		<line class="st5" x1="35.9" y1="41.4" x2="43.1" y2="41.4"/>
		<text transform="matrix(1 0 0 1 39.4428 40.369)" class="st0 st1 st7">1</text>
		<line class="st5" x1="35.9" y1="48.6" x2="43.1" y2="48.6"/>
		<text transform="matrix(1 0 0 1 39.4428 47.5683)" class="st0 st1 st7">3</text>
		<line class="st5" x1="35.9" y1="55.8" x2="43.1" y2="55.8"/>
		<text transform="matrix(1 0 0 1 39.4428 54.7694)" class="st0 st1 st7">5</text>
		<line class="st5" x1="35.9" y1="63" x2="43.1" y2="63"/>
		<text transform="matrix(1 0 0 1 39.4428 61.9686)" class="st0 st1 st7">7</text>
		<line class="st5" x1="35.9" y1="70.2" x2="43.1" y2="70.2"/>
		<text transform="matrix(1 0 0 1 39.4428 69.1679)" class="st0 st1 st7">9</text>
		<line class="st5" x1="71.9" y1="70.2" x2="64.7" y2="70.2"/>
		<text transform="matrix(1 0 0 1 65.7016 69.1679)" class="st0 st1 st7">10</text>
		<line class="st5" x1="71.9" y1="48.6" x2="64.7" y2="48.6"/>
		<text transform="matrix(1 0 0 1 65.7016 47.5683)" class="st0 st1 st7">4</text>
		<line class="st5" x1="71.9" y1="63" x2="64.7" y2="63"/>
		<text transform="matrix(1 0 0 1 65.7016 61.9686)" class="st0 st1 st7">8</text>
		<line class="st5" x1="71.9" y1="55.8" x2="64.7" y2="55.8"/>
		<text transform="matrix(1 0 0 1 65.7016 54.7694)" class="st0 st1 st7">6</text>
		<line class="st5" x1="71.9" y1="41.4" x2="64.7" y2="41.4"/>
		<text transform="matrix(1 0 0 1 65.7016 40.369)" class="st0 st1 st7">2</text>
		<line class="st8" x1="43.1" y1="27" x2="64.7" y2="27"/>
		<line class="st8" x1="64.7" y1="84.6" x2="64.7" y2="70.2"/>
		<line class="st8" x1="64.7" y1="70.2" x2="64.7" y2="63"/>
		<line class="st8" x1="64.7" y1="63" x2="64.7" y2="55.8"/>
		<line class="st8" x1="64.7" y1="55.8" x2="64.7" y2="48.6"/>
		<line class="st8" x1="64.7" y1="48.6" x2="64.7" y2="41.4"/>
		<line class="st8" x1="64.7" y1="41.4" x2="64.7" y2="27"/>
		<line class="st8" x1="64.7" y1="84.6" x2="43.1" y2="84.6"/>
		<line class="st8" x1="43.1" y1="27" x2="43.1" y2="41.4"/>
		<line class="st8" x1="43.1" y1="41.4" x2="43.1" y2="48.6"/>
		<line class="st8" x1="43.1" y1="48.6" x2="43.1" y2="52.2"/>
		<line class="st8" x1="43.1" y1="59.4" x2="43.1" y2="63"/>
		<line class="st8" x1="43.1" y1="63" x2="43.1" y2="70.2"/>
		<line class="st8" x1="43.1" y1="70.2" x2="43.1" y2="84.6"/>
		<line class="st12" x1="43.1" y1="41.4" x2="50.3" y2="41.4"/>
		<line class="st12" x1="43.1" y1="48.6" x2="50.3" y2="48.6"/>
		<line class="st12" x1="43.1" y1="63" x2="50.3" y2="63"/>
		<line class="st12" x1="43.1" y1="70.2" x2="50.3" y2="70.2"/>
		<line class="st12" x1="57.5" y1="70.2" x2="64.7" y2="70.2"/>
		<line class="st12" x1="57.5" y1="63" x2="64.7" y2="63"/>
		<line class="st12" x1="57.5" y1="55.8" x2="64.7" y2="55.8"/>
		<line class="st12" x1="57.5" y1="48.6" x2="64.7" y2="48.6"/>
		<line class="st12" x1="57.5" y1="41.4" x2="64.7" y2="41.4"/>
		<line class="st12" x1="43.1" y1="55.8" x2="50.3" y2="55.8"/>
		<text transform="matrix(1 0 0 1 43.0932 23.3769)" class="st0 st1 st2">J3</text>
		<text transform="matrix(1 0 0 1 43.0932 91.7772)" class="st0 st1 st2">ESP-JTAG</text>
	</g>
	<g>
		<polygon class="st11" points="249.4,184.3 250.5,181.8 251.9,183.2 		"/>
		<polygon class="st11" points="249.7,187.5 250.8,185 252.3,186.5 		"/>
		<line class="st5" x1="259.1" y1="171" x2="259.1" y2="178.2"/>
		<line class="st5" x1="259.1" y1="192.6" x2="259.1" y2="185.4"/>
		<line class="st6" x1="262.7" y1="178.2" x2="259.1" y2="185.4"/>
		<line class="st6" x1="259.1" y1="185.4" x2="255.5" y2="178.2"/>
		<line class="st6" x1="262.7" y1="185.4" x2="259.1" y2="185.4"/>
		<line class="st6" x1="259.1" y1="185.4" x2="255.5" y2="185.4"/>
		<line class="st6" x1="262.7" y1="178.2" x2="259.1" y2="178.2"/>
		<line class="st6" x1="259.1" y1="178.2" x2="255.5" y2="178.2"/>
		<line class="st5" x1="253.3" y1="180.3" x2="249.4" y2="184.3"/>
		<line class="st5" x1="253.7" y1="183.6" x2="249.7" y2="187.5"/>
		<text transform="matrix(6.123234e-17 -1 1 6.123234e-17 269.1732 191.1367)" class="st0 st1 st2">LED1</text>
		<text transform="matrix(6.123234e-17 -1 1 6.123234e-17 275.2924 191.1367)" class="st0 st1 st2">RX</text>
	</g>
	<g>
		<polygon class="st11" points="285.4,184.3 286.5,181.8 287.9,183.2 		"/>
		<polygon class="st11" points="285.7,187.5 286.8,185 288.3,186.5 		"/>
		<line class="st5" x1="295.1" y1="171" x2="295.1" y2="178.2"/>
		<line class="st5" x1="295.1" y1="192.6" x2="295.1" y2="185.4"/>
		<line class="st6" x1="298.7" y1="178.2" x2="295.1" y2="185.4"/>
		<line class="st6" x1="295.1" y1="185.4" x2="291.5" y2="178.2"/>
		<line class="st6" x1="298.7" y1="185.4" x2="295.1" y2="185.4"/>
		<line class="st6" x1="295.1" y1="185.4" x2="291.5" y2="185.4"/>
		<line class="st6" x1="298.7" y1="178.2" x2="295.1" y2="178.2"/>
		<line class="st6" x1="295.1" y1="178.2" x2="291.5" y2="178.2"/>
		<line class="st5" x1="289.3" y1="180.3" x2="285.4" y2="184.3"/>
		<line class="st5" x1="289.7" y1="183.6" x2="285.7" y2="187.5"/>
		<text transform="matrix(6.123234e-17 -1 1 6.123234e-17 305.1732 191.1367)" class="st0 st1 st2">LED2</text>
		<text transform="matrix(6.123234e-17 -1 1 6.123234e-17 311.2924 191.1367)" class="st0 st1 st2">TX</text>
	</g>
	<g>
		<line class="st5" x1="122.3" y1="70.2" x2="136.7" y2="70.2"/>
		<text transform="matrix(1 0 0 1 143.3178 72.3358)" class="st0 st1 st7">!RST/!JTAG_!RST</text>
		<text transform="matrix(1 0 0 1 123.4682 69.1679)" class="st0 st1 st7">RS</text>
		<line class="st5" x1="230.3" y1="91.8" x2="215.9" y2="91.8"/>
		<text transform="matrix(1 0 0 1 202.6635 93.9374)" class="st0 st1 st7">I34</text>
		<text transform="matrix(1 0 0 1 222.517 90.7694)" class="st0 st1 st7">34</text>
		<line class="st5" x1="230.3" y1="41.4" x2="215.9" y2="41.4"/>
		<text transform="matrix(1 0 0 1 201.6098 43.537)" class="st0 st1 st7">IO0</text>
		<text transform="matrix(1 0 0 1 222.517 40.369)" class="st0 st1 st7">0</text>
		<line class="st5" x1="230.3" y1="48.6" x2="215.9" y2="48.6"/>
		<text transform="matrix(1 0 0 1 201.6098 50.7362)" class="st0 st1 st7">IO2</text>
		<text transform="matrix(1 0 0 1 222.517 47.5683)" class="st0 st1 st7">2</text>
		<line class="st5" x1="230.3" y1="55.8" x2="215.9" y2="55.8"/>
		<text transform="matrix(1 0 0 1 201.6098 57.9374)" class="st0 st1 st7">IO4</text>
		<text transform="matrix(1 0 0 1 222.517 54.7694)" class="st0 st1 st7">4</text>
		<line class="st5" x1="122.3" y1="113.4" x2="136.7" y2="113.4"/>
		<text transform="matrix(1 0 0 1 143.3178 115.537)" class="st0 st1 st7">IO5/VSPI_CS/LED</text>
		<text transform="matrix(1 0 0 1 127.4262 112.369)" class="st0 st1 st7">5</text>
		<line class="st5" x1="122.3" y1="63" x2="136.7" y2="63"/>
		<text transform="matrix(1 0 0 1 143.3178 65.1366)" class="st0 st1 st7">IO12/JTAG_DI</text>
		<text transform="matrix(1 0 0 1 124.7836 61.9686)" class="st0 st1 st7">12</text>
		<line class="st5" x1="122.3" y1="48.6" x2="136.7" y2="48.6"/>
		<text transform="matrix(1 0 0 1 143.3178 50.7362)" class="st0 st1 st7">IO13/JTAG_CK</text>
		<text transform="matrix(1 0 0 1 124.7836 47.5683)" class="st0 st1 st7">13</text>
		<line class="st5" x1="122.3" y1="41.4" x2="136.7" y2="41.4"/>
		<text transform="matrix(1 0 0 1 143.3178 43.537)" class="st0 st1 st7">IO14/JTAG_MS</text>
		<text transform="matrix(1 0 0 1 124.7836 40.369)" class="st0 st1 st7">14</text>
		<line class="st5" x1="122.3" y1="55.8" x2="136.7" y2="55.8"/>
		<text transform="matrix(1 0 0 1 143.3178 57.9374)" class="st0 st1 st7">IO15/JTAG_DO</text>
		<text transform="matrix(1 0 0 1 124.7836 54.7694)" class="st0 st1 st7">15</text>
		<line class="st5" x1="230.3" y1="63" x2="215.9" y2="63"/>
		<text transform="matrix(1 0 0 1 198.9672 65.1366)" class="st0 st1 st7">IO16</text>
		<text transform="matrix(1 0 0 1 222.517 61.9686)" class="st0 st1 st7">16</text>
		<line class="st5" x1="230.3" y1="70.2" x2="215.9" y2="70.2"/>
		<text transform="matrix(1 0 0 1 198.9672 72.3358)" class="st0 st1 st7">IO17</text>
		<text transform="matrix(1 0 0 1 222.517 69.1679)" class="st0 st1 st7">17</text>
		<line class="st5" x1="122.3" y1="106.2" x2="136.7" y2="106.2"/>
		<text transform="matrix(1 0 0 1 143.3178 108.3368)" class="st0 st1 st7">IO18/VSPI_CLK</text>
		<text transform="matrix(1 0 0 1 124.7836 105.1679)" class="st0 st1 st7">18</text>
		<line class="st5" x1="122.3" y1="99" x2="136.7" y2="99"/>
		<text transform="matrix(1 0 0 1 143.3178 101.1366)" class="st0 st1 st7">IO19/VSPI_MISO</text>
		<text transform="matrix(1 0 0 1 124.7836 97.9687)" class="st0 st1 st7">19</text>
		<line class="st5" x1="122.3" y1="127.8" x2="136.7" y2="127.8"/>
		<text transform="matrix(1 0 0 1 143.3178 129.9364)" class="st0 st1 st7">IO21/I2C_SDA</text>
		<text transform="matrix(1 0 0 1 124.7836 126.7685)" class="st0 st1 st7">21</text>
		<line class="st5" x1="122.3" y1="135" x2="136.7" y2="135"/>
		<text transform="matrix(1 0 0 1 143.3178 137.1366)" class="st0 st1 st7">IO22/I2C_SCL</text>
		<text transform="matrix(1 0 0 1 124.7836 133.9686)" class="st0 st1 st7">22</text>
		<line class="st5" x1="122.3" y1="91.8" x2="136.7" y2="91.8"/>
		<text transform="matrix(1 0 0 1 143.3178 93.9374)" class="st0 st1 st7">IO23/VSPI_MOSI</text>
		<text transform="matrix(1 0 0 1 124.7836 90.7694)" class="st0 st1 st7">23</text>
		<line class="st5" x1="230.3" y1="77.4" x2="215.9" y2="77.4"/>
		<text transform="matrix(1 0 0 1 198.9672 79.537)" class="st0 st1 st7">IO32</text>
		<text transform="matrix(1 0 0 1 222.517 76.369)" class="st0 st1 st7">32</text>
		<line class="st5" x1="230.3" y1="84.6" x2="215.9" y2="84.6"/>
		<text transform="matrix(1 0 0 1 198.9672 86.7362)" class="st0 st1 st7">IO33</text>
		<text transform="matrix(1 0 0 1 222.517 83.5683)" class="st0 st1 st7">33</text>
		<line class="st5" x1="230.3" y1="156.6" x2="215.9" y2="156.6"/>
		<text transform="matrix(1 0 0 1 185.5863 158.7372)" class="st0 st1 st7">RTS2/IO27</text>
		<text transform="matrix(1 0 0 1 222.517 155.5692)" class="st0 st1 st7">27</text>
		<line class="st5" x1="230.3" y1="120.6" x2="215.9" y2="120.6"/>
		<text transform="matrix(1 0 0 1 191.0453 122.7372)" class="st0 st1 st7">RX0/IO3</text>
		<text transform="matrix(1 0 0 1 222.517 119.5692)" class="st0 st1 st7">RX</text>
		<line class="st5" x1="230.3" y1="142.2" x2="215.9" y2="142.2"/>
		<text transform="matrix(1 0 0 1 188.4028 144.3368)" class="st0 st1 st7">RX2/IO25</text>
		<text transform="matrix(1 0 0 1 222.517 141.1688)" class="st0 st1 st7">25</text>
		<line class="st5" x1="230.3" y1="127.8" x2="215.9" y2="127.8"/>
		<text transform="matrix(1 0 0 1 191.5746 129.9364)" class="st0 st1 st7">TX0/IO1</text>
		<text transform="matrix(1 0 0 1 222.517 126.7685)" class="st0 st1 st7">TX</text>
		<line class="st5" x1="230.3" y1="149.4" x2="215.9" y2="149.4"/>
		<text transform="matrix(1 0 0 1 188.9321 151.537)" class="st0 st1 st7">TX2/IO26</text>
		<text transform="matrix(1 0 0 1 222.517 148.369)" class="st0 st1 st7">26</text>
		<line class="st5" x1="230.3" y1="106.2" x2="215.9" y2="106.2"/>
		<text transform="matrix(1 0 0 1 194.7416 108.3368)" class="st0 st1 st7">VN/I39</text>
		<text transform="matrix(1 0 0 1 222.517 105.1679)" class="st0 st1 st7">VN</text>
		<line class="st5" x1="230.3" y1="99" x2="215.9" y2="99"/>
		<text transform="matrix(1 0 0 1 195.0043 101.1366)" class="st0 st1 st7">VP/I36</text>
		<text transform="matrix(1 0 0 1 222.517 97.9687)" class="st0 st1 st7">VP</text>
		<line class="st6" x1="158.3" y1="163.8" x2="215.9" y2="163.8"/>
		<line class="st6" x1="215.9" y1="163.8" x2="215.9" y2="34.2"/>
		<line class="st6" x1="215.9" y1="34.2" x2="136.7" y2="34.2"/>
		<line class="st6" x1="136.7" y1="34.2" x2="136.7" y2="142.2"/>
		<line class="st6" x1="136.7" y1="142.2" x2="136.7" y2="163.8"/>
		<line class="st6" x1="158.3" y1="142.2" x2="136.7" y2="142.2"/>
		<line class="st6" x1="158.3" y1="163.8" x2="136.7" y2="163.8"/>
		<line class="st6" x1="158.3" y1="142.2" x2="158.3" y2="163.8"/>
		<line class="st9" x1="154" y1="149.4" x2="157.6" y2="149.4"/>
		<line class="st9" x1="154" y1="156.6" x2="157.6" y2="156.6"/>
		<line class="st9" x1="154" y1="153" x2="157.6" y2="153"/>
		<line class="st9" x1="154" y1="145.8" x2="157.6" y2="145.8"/>
		<line class="st9" x1="154" y1="160.2" x2="157.6" y2="160.2"/>
		<text transform="matrix(6.123234e-17 -1 1 6.123234e-17 148.933 160.1758)" class="st11 st1 st2">USB</text>
		<text transform="matrix(1 0 0 1 136.6938 178.1767)" class="st11 st1 st13">I2C pins don&apos;t have pull-up resistors </text>
		<text transform="matrix(1 0 0 1 136.6938 182.9767)" class="st11 st1 st13">USB Serial uses IO3 for RX0, and IO1 for TX0 </text>
		<text transform="matrix(1 0 0 1 136.6938 187.6767)" class="st11 st1 st13">Read the BAT voltage from IO35 and double it</text>
		<text transform="matrix(1 0 0 1 136.6938 30.5761)" class="st0 st1 st2">PCB1</text>
		<text transform="matrix(1 0 0 1 136.6938 170.9765)" class="st0 st1 st2">LOLIN-D32</text>
	</g>
	<g>
		<line class="st5" x1="259.1" y1="221.4" x2="259.1" y2="214.2"/>
		<line class="st5" x1="259.1" y1="192.6" x2="259.1" y2="199.8"/>
		<line class="st6" x1="256.6" y1="214.2" x2="256.6" y2="199.8"/>
		<line class="st6" x1="261.6" y1="199.8" x2="261.6" y2="214.2"/>
		<line class="st6" x1="256.6" y1="199.8" x2="261.6" y2="199.8"/>
		<line class="st6" x1="256.6" y1="214.2" x2="261.6" y2="214.2"/>
		<text transform="matrix(6.123234e-17 -1 1 6.123234e-17 268.3803 217.7773)" class="st0 st1 st2">R1</text>
		<text transform="matrix(6.123234e-17 -1 1 6.123234e-17 276.3725 217.7773)" class="st0 st1 st2">68&amp;</text>
	</g>
	<g>
		<line class="st5" x1="295.1" y1="221.4" x2="295.1" y2="214.2"/>
		<line class="st5" x1="295.1" y1="192.6" x2="295.1" y2="199.8"/>
		<line class="st6" x1="292.6" y1="214.2" x2="292.6" y2="199.8"/>
		<line class="st6" x1="297.6" y1="199.8" x2="297.6" y2="214.2"/>
		<line class="st6" x1="292.6" y1="199.8" x2="297.6" y2="199.8"/>
		<line class="st6" x1="292.6" y1="214.2" x2="297.6" y2="214.2"/>
		<text transform="matrix(6.123234e-17 -1 1 6.123234e-17 304.3803 217.7773)" class="st0 st1 st2">R2</text>
		<text transform="matrix(6.123234e-17 -1 1 6.123234e-17 312.3725 217.7773)" class="st0 st1 st2">68&amp;</text>
	</g>
	<g>
		<line class="st5" x1="460.7" y1="120.6" x2="453.5" y2="120.6"/>
		<line class="st5" x1="431.9" y1="120.6" x2="439.1" y2="120.6"/>
		<line class="st6" x1="453.5" y1="123.1" x2="439.1" y2="123.1"/>
		<line class="st6" x1="439.1" y1="118.1" x2="453.5" y2="118.1"/>
		<line class="st6" x1="439.1" y1="123.1" x2="439.1" y2="118.1"/>
		<line class="st6" x1="453.5" y1="123.1" x2="453.5" y2="118.1"/>
		<text transform="matrix(1 0 0 1 450.0063 116.329)" class="st0 st1 st2">R3</text>
		<text transform="matrix(1 0 0 1 444.1459 129.9364)" class="st0 st1 st2">120&amp;</text>
	</g>
	<g>
		<line class="st5" x1="431.9" y1="120.6" x2="424.7" y2="120.6"/>
		<text transform="matrix(1 0 0 1 425.7016 119.5692)" class="st0 st1 st7">1</text>
		<line class="st5" x1="403.1" y1="120.6" x2="410.3" y2="120.6"/>
		<text transform="matrix(1 0 0 1 406.643 119.5692)" class="st0 st1 st7">2</text>
		<path class="st14" d="M416.4,118.8c-1,0-1.8,0.8-1.8,1.8s0.8,1.8,1.8,1.8l0,0"/>
		<path class="st14" d="M418.6,122.4c1,0,1.8-0.8,1.8-1.8s-0.8-1.8-1.8-1.8l0,0"/>
		<line class="st5" x1="410.3" y1="120.6" x2="412.8" y2="120.6"/>
		<line class="st5" x1="424.7" y1="120.6" x2="422.2" y2="120.6"/>
		<text transform="matrix(1 0 0 1 415.14 113.3769)" class="st0 st1 st2">SJ1</text>
		<text transform="matrix(1 0 0 1 411.142 106.8964)" class="st0 st1 st2">OPEN</text>
	</g>
	<g>
		<line class="st5" x1="244.7" y1="41.4" x2="251.9" y2="41.4"/>
		<text transform="matrix(1 0 0 1 248.2426 40.369)" class="st0 st1 st7">1</text>
		<line class="st5" x1="244.7" y1="48.6" x2="251.9" y2="48.6"/>
		<text transform="matrix(1 0 0 1 248.2426 47.5683)" class="st0 st1 st7">2</text>
		<line class="st5" x1="280.7" y1="48.6" x2="273.5" y2="48.6"/>
		<text transform="matrix(1 0 0 1 274.5014 47.5683)" class="st0 st1 st7">3</text>
		<line class="st5" x1="280.7" y1="41.4" x2="273.5" y2="41.4"/>
		<text transform="matrix(1 0 0 1 274.5014 40.369)" class="st0 st1 st7">4</text>
		<line class="st6" x1="251.9" y1="41.4" x2="251.9" y2="48.6"/>
		<line class="st6" x1="273.5" y1="41.4" x2="273.5" y2="48.6"/>
		<line class="st6" x1="251.9" y1="41.4" x2="255.5" y2="41.4"/>
		<line class="st6" x1="269.9" y1="41.4" x2="273.5" y2="41.4"/>
		<line class="st6" x1="255.5" y1="41.4" x2="269.9" y2="37.8"/>
		<text transform="matrix(1 0 0 1 251.8881 55.7655)" class="st0 st1 st15">SW1</text>
		<text transform="matrix(1 0 0 1 251.8881 34.1874)" class="st0 st1 st16">Factory (5 sec)</text>
	</g>
	<g>
		<circle class="st17" cx="356.3" cy="128.9" r="1.8"/>
		<circle class="st17" cx="365.3" cy="126" r="1.8"/>
		<circle class="st17" cx="361" cy="158.4" r="1.8"/>
		<circle class="st18" cx="370.7" cy="135" r="0.7"/>
		<circle class="st18" cx="379.7" cy="149.4" r="0.7"/>
		<line class="st5" x1="395.9" y1="149.4" x2="388.7" y2="149.4"/>
		<text transform="matrix(1 0 0 1 389.7016 148.369)" class="st0 st1 st7">6</text>
		<line class="st5" x1="395.9" y1="135" x2="388.7" y2="135"/>
		<text transform="matrix(1 0 0 1 389.7016 133.9686)" class="st0 st1 st7">7</text>
		<line class="st5" x1="323.9" y1="149.4" x2="331.1" y2="149.4"/>
		<text transform="matrix(1 0 0 1 337.7172 151.537)" class="st0 st1 st7">DE</text>
		<text transform="matrix(1 0 0 1 327.4428 148.369)" class="st0 st1 st7">3</text>
		<line class="st5" x1="323.9" y1="163.8" x2="331.1" y2="163.8"/>
		<text transform="matrix(1 0 0 1 337.7172 165.9364)" class="st0 st1 st7">DI</text>
		<text transform="matrix(1 0 0 1 327.4428 162.7684)" class="st0 st1 st7">4</text>
		<line class="st5" x1="323.9" y1="135" x2="331.1" y2="135"/>
		<text transform="matrix(1 0 0 1 337.7172 137.1366)" class="st0 st1 st7">RE/</text>
		<text transform="matrix(1 0 0 1 327.4428 133.9686)" class="st0 st1 st7">2</text>
		<line class="st5" x1="323.9" y1="120.6" x2="331.1" y2="120.6"/>
		<text transform="matrix(1 0 0 1 337.7172 122.7372)" class="st0 st1 st7">RO</text>
		<text transform="matrix(1 0 0 1 327.4428 119.5692)" class="st0 st1 st7">1</text>
		<line class="st6" x1="331.1" y1="106.2" x2="388.7" y2="106.2"/>
		<line class="st6" x1="388.7" y1="106.2" x2="388.7" y2="135"/>
		<line class="st6" x1="388.7" y1="135" x2="388.7" y2="149.4"/>
		<line class="st6" x1="388.7" y1="149.4" x2="388.7" y2="178.2"/>
		<line class="st6" x1="388.7" y1="178.2" x2="331.1" y2="178.2"/>
		<line class="st6" x1="331.1" y1="178.2" x2="331.1" y2="163.8"/>
		<line class="st6" x1="331.1" y1="163.8" x2="331.1" y2="149.4"/>
		<line class="st6" x1="331.1" y1="149.4" x2="331.1" y2="135"/>
		<line class="st6" x1="331.1" y1="135" x2="331.1" y2="120.6"/>
		<line class="st6" x1="331.1" y1="120.6" x2="331.1" y2="106.2"/>
		<line class="st19" x1="363.5" y1="109.8" x2="363.5" y2="115.2"/>
		<line class="st19" x1="363.5" y1="115.2" x2="363.5" y2="131.4"/>
		<line class="st19" x1="363.5" y1="131.4" x2="347.3" y2="120.6"/>
		<line class="st19" x1="347.3" y1="120.6" x2="363.5" y2="109.8"/>
		<line class="st19" x1="347.3" y1="174.6" x2="347.3" y2="163.8"/>
		<line class="st19" x1="347.3" y1="163.8" x2="347.3" y2="153"/>
		<line class="st19" x1="347.3" y1="153" x2="367.1" y2="163.8"/>
		<line class="st19" x1="367.1" y1="163.8" x2="347.3" y2="174.6"/>
		<line class="st19" x1="350.5" y1="135" x2="356.3" y2="135"/>
		<line class="st19" x1="356.3" y1="135" x2="356.3" y2="130.7"/>
		<line class="st19" x1="345.5" y1="149.4" x2="354.5" y2="149.4"/>
		<line class="st19" x1="354.5" y1="149.4" x2="354.5" y2="156.9"/>
		<line class="st19" x1="379.7" y1="168.1" x2="379.7" y2="149.4"/>
		<line class="st19" x1="379.7" y1="149.4" x2="379.7" y2="115.2"/>
		<line class="st19" x1="363.5" y1="115.2" x2="379.7" y2="115.2"/>
		<line class="st19" x1="362.8" y1="158.4" x2="370.7" y2="158.4"/>
		<line class="st19" x1="370.7" y1="158.4" x2="370.7" y2="135"/>
		<line class="st19" x1="370.7" y1="135" x2="370.7" y2="126"/>
		<line class="st19" x1="370.7" y1="126" x2="367.1" y2="126"/>
		<line class="st19" x1="388.7" y1="135" x2="370.7" y2="135"/>
		<line class="st19" x1="388.7" y1="149.4" x2="379.7" y2="149.4"/>
		<line class="st19" x1="331.1" y1="120.6" x2="336.1" y2="120.6"/>
		<line class="st19" x1="345.9" y1="120.6" x2="347.3" y2="120.6"/>
		<line class="st19" x1="331.1" y1="135" x2="336.1" y2="135"/>
		<line class="st19" x1="331.1" y1="163.8" x2="335.8" y2="163.8"/>
		<line class="st19" x1="344.8" y1="163.8" x2="347.3" y2="163.8"/>
		<line class="st19" x1="331.1" y1="149.4" x2="335.8" y2="149.4"/>
		<line class="st19" x1="359.9" y1="168.1" x2="379.7" y2="168.1"/>
		<text transform="matrix(1 0 0 1 381.4936 156.577)" class="st0 st1 st2">A</text>
		<text transform="matrix(1 0 0 1 381.4936 131.3768)" class="st0 st1 st2">B</text>
		<text transform="matrix(1 0 0 1 331.0932 102.5761)" class="st0 st1 st2">U1</text>
		<text transform="matrix(1 0 0 1 331.0932 185.3768)" class="st0 st1 st2">MAX3485CSA+</text>
	</g>
</g>
</svg>
