<?xml version="1.0" encoding="utf-8"?>
<!-- Generator: Adobe Illustrator 26.1.0, SVG Export Plug-In . SVG Version: 6.00 Build 0)  -->
<svg version="1.1" id="drawing" xmlns="http://www.w3.org/2000/svg" xmlns:xlink="http://www.w3.org/1999/xlink" x="0px" y="0px"
	 viewBox="0 0 785.197 694.488" enable-background="new 0 0 785.197 694.488" xml:space="preserve">
<path opacity="0.05" fill="#0197B1" stroke="#000000" stroke-linecap="round" stroke-miterlimit="10" d="M461.77,600.945H326.846
	c-6.229,0-11.325-5.096-11.325-11.325v-76.563c0-6.229,5.096-11.325,11.325-11.325H461.77c6.229,0,11.325,5.096,11.325,11.325
	v76.563C473.094,595.849,467.998,600.945,461.77,600.945z"/>
<g>
	<path d="M343.492,544.863c0.56-0.912,1.227-1.598,2.002-2.061s1.488-0.693,2.139-0.693c0.912,0,1.732,0.394,2.461,1.182
		s1.094,1.982,1.094,3.584c0,1.263-0.243,2.391-0.728,3.384s-1.131,1.777-1.938,2.354s-1.807,0.864-2.998,0.864
		c-0.338,0-0.859-0.036-1.562-0.107c-0.104-0.013-0.26-0.029-0.469-0.049v4.238h-1.816v-15.146h1.816V544.863z M343.492,547.021
		v4.678c0.658,0.169,1.263,0.254,1.816,0.254c1.1,0,2.026-0.431,2.778-1.294s1.128-2.042,1.128-3.54
		c0-1.087-0.205-1.904-0.615-2.451s-0.875-0.82-1.396-0.82c-0.566,0-1.19,0.287-1.87,0.859S344.039,546.051,343.492,547.021z"/>
	<path d="M358.307,553.623c-1.562,0-2.812-0.545-3.75-1.636s-1.406-2.466-1.406-4.126s0.469-3.034,1.406-4.121
		s2.188-1.631,3.75-1.631c1.556,0,2.803,0.543,3.74,1.631s1.406,2.461,1.406,4.121s-0.469,3.036-1.406,4.126
		S359.863,553.623,358.307,553.623z M358.307,552.109c0.97,0,1.742-0.377,2.314-1.133s0.859-1.793,0.859-3.115
		c0-1.315-0.287-2.35-0.859-3.105s-1.344-1.133-2.314-1.133c-0.977,0-1.751,0.377-2.324,1.133s-0.859,1.791-0.859,3.105
		c0,1.322,0.287,2.36,0.859,3.115S357.33,552.109,358.307,552.109z"/>
	<path d="M370.309,553.623c-1.562,0-2.812-0.545-3.75-1.636s-1.406-2.466-1.406-4.126s0.469-3.034,1.406-4.121
		s2.188-1.631,3.75-1.631c1.556,0,2.803,0.543,3.74,1.631s1.406,2.461,1.406,4.121s-0.469,3.036-1.406,4.126
		S371.865,553.623,370.309,553.623z M370.309,552.109c0.97,0,1.742-0.377,2.314-1.133s0.859-1.793,0.859-3.115
		c0-1.315-0.287-2.35-0.859-3.105s-1.344-1.133-2.314-1.133c-0.977,0-1.751,0.377-2.324,1.133s-0.859,1.791-0.859,3.105
		c0,1.322,0.287,2.36,0.859,3.115S369.332,552.109,370.309,552.109z"/>
	<path d="M380.748,553.32v-14.238h-3.262v-1.523h5.078v14.248h3.408v1.514H380.748z"/>
	<path d="M410.944,552.881c-0.853,0.358-1.471,0.571-1.855,0.64s-0.755,0.103-1.113,0.103c-0.762,0-1.458-0.146-2.09-0.439
		s-1.108-0.726-1.431-1.299s-0.483-1.458-0.483-2.656v-4.395h-2.725v-1.514h2.725v-4.395h1.816v4.395h4.854v1.514h-4.854v4.365
		c0,0.879,0.104,1.499,0.312,1.86s0.487,0.626,0.835,0.796s0.76,0.254,1.235,0.254c0.879,0,1.803-0.277,2.773-0.83V552.881z"/>
	<path d="M420.992,550.869c-0.553,0.912-1.219,1.598-1.997,2.061s-1.493,0.693-2.144,0.693c-0.912,0-1.73-0.394-2.456-1.182
		s-1.089-1.982-1.089-3.584c0-1.263,0.241-2.391,0.723-3.384s1.126-1.777,1.934-2.354s1.807-0.864,2.998-0.864
		c0.345,0,0.866,0.036,1.562,0.107c0.104,0.013,0.26,0.029,0.469,0.049h1.826v7.705c0,1.315,0.137,2.383,0.41,3.203h-1.895
		C421.191,552.721,421.077,551.904,420.992,550.869z M420.992,548.711v-4.678c-0.645-0.169-1.244-0.254-1.797-0.254
		c-1.12,0-2.052,0.433-2.798,1.299s-1.118,2.044-1.118,3.535c0,1.081,0.204,1.896,0.61,2.446s0.871,0.825,1.392,0.825
		c0.566,0,1.191-0.287,1.875-0.859S420.452,549.681,420.992,548.711z"/>
	<path d="M425.953,552.744v-1.924c0.729,0.475,1.5,0.809,2.314,1.001s1.504,0.288,2.07,0.288c0.918,0,1.579-0.148,1.982-0.444
		s0.605-0.666,0.605-1.108c0-0.293-0.094-0.543-0.283-0.752s-0.658-0.465-1.406-0.771l-0.625-0.254l-1.26-0.498
		c-1.354-0.527-2.208-1.014-2.563-1.46s-0.532-0.988-0.532-1.626c0-0.898,0.347-1.637,1.04-2.217s1.818-0.869,3.374-0.869
		c1.166,0,2.269,0.169,3.311,0.508v1.65c-1.198-0.43-2.324-0.645-3.379-0.645c-0.768,0-1.369,0.135-1.802,0.405
		s-0.649,0.607-0.649,1.011c0,0.391,0.187,0.703,0.562,0.938s0.981,0.504,1.821,0.811l1.23,0.449
		c1.126,0.41,1.917,0.856,2.373,1.338s0.684,1.084,0.684,1.807c0,0.944-0.363,1.72-1.089,2.329s-1.886,0.913-3.481,0.913
		C428.857,553.623,427.424,553.33,425.953,552.744z"/>
	<path d="M438.317,553.32v-15.762h1.816v9.902l5.244-5.049h2.422l-5.234,5.049l5.371,5.859h-2.5l-5.303-5.859v5.859H438.317z"/>
</g>
<path fill="none" stroke="#000000" stroke-linecap="round" stroke-miterlimit="10" d="M462.061,116.22H327.138
	c-6.229,0-11.325-5.096-11.325-11.325V28.333c0-6.229,5.096-11.325,11.325-11.325h134.924c6.229,0,11.325,5.096,11.325,11.325
	v76.563C473.386,111.124,468.29,116.22,462.061,116.22z"/>
<g>
	<path d="M341.284,69.161V58.252h1.592v2.5c0.501-1.061,0.968-1.793,1.401-2.197s0.871-0.605,1.313-0.605
		c0.527,0,0.952,0.207,1.274,0.62s0.483,1.001,0.483,1.763v0.586c0.215-0.664,0.474-1.203,0.776-1.616s0.617-0.742,0.942-0.986
		s0.7-0.366,1.123-0.366c0.469,0,0.869,0.199,1.201,0.596s0.498,1.188,0.498,2.373v8.242h-1.592v-7.451
		c0-0.612-0.02-1.03-0.059-1.255s-0.117-0.396-0.234-0.513s-0.244-0.176-0.381-0.176c-0.338,0-0.702,0.259-1.089,0.776
		s-0.783,1.375-1.187,2.573v6.045h-1.523v-7.441c0-0.963-0.094-1.53-0.283-1.699s-0.358-0.254-0.508-0.254
		c-0.332,0-0.688,0.29-1.069,0.869s-0.744,1.322-1.089,2.227v6.299H341.284z"/>
	<path d="M361.391,66.709c-0.553,0.912-1.219,1.598-1.997,2.061s-1.493,0.693-2.144,0.693c-0.912,0-1.73-0.394-2.456-1.182
		s-1.089-1.982-1.089-3.584c0-1.263,0.241-2.391,0.723-3.384s1.126-1.777,1.934-2.354s1.807-0.864,2.998-0.864
		c0.345,0,0.866,0.036,1.562,0.107c0.104,0.013,0.26,0.029,0.469,0.049h1.826v15.146h-1.826V66.709z M361.391,64.551v-4.678
		c-0.645-0.169-1.244-0.254-1.797-0.254c-1.12,0-2.052,0.433-2.798,1.299s-1.118,2.044-1.118,3.535c0,1.081,0.204,1.896,0.61,2.446
		s0.871,0.825,1.392,0.825c0.566,0,1.191-0.287,1.875-0.859S360.851,65.521,361.391,64.551z"/>
	<path d="M375.229,68.721c-0.853,0.358-1.471,0.571-1.855,0.64s-0.755,0.103-1.113,0.103c-0.762,0-1.458-0.146-2.09-0.439
		s-1.108-0.726-1.431-1.299s-0.483-1.458-0.483-2.656v-4.395h-2.725v-1.514h2.725v-4.395h1.816v4.395h4.854v1.514h-4.854v4.365
		c0,0.879,0.104,1.499,0.312,1.86s0.487,0.626,0.835,0.796s0.76,0.254,1.235,0.254c0.879,0,1.803-0.277,2.773-0.83V68.721z"/>
	<path d="M387.231,68.721c-0.853,0.358-1.471,0.571-1.855,0.64s-0.755,0.103-1.113,0.103c-0.762,0-1.458-0.146-2.09-0.439
		s-1.108-0.726-1.431-1.299s-0.483-1.458-0.483-2.656v-4.395h-2.725v-1.514h2.725v-4.395h1.816v4.395h4.854v1.514h-4.854v4.365
		c0,0.879,0.104,1.499,0.312,1.86s0.487,0.626,0.835,0.796s0.76,0.254,1.235,0.254c0.879,0,1.803-0.277,2.773-0.83V68.721z"/>
	<path d="M411.235,68.721c-0.853,0.358-1.471,0.571-1.855,0.64s-0.755,0.103-1.113,0.103c-0.762,0-1.458-0.146-2.09-0.439
		s-1.108-0.726-1.431-1.299s-0.483-1.458-0.483-2.656v-4.395h-2.725v-1.514h2.725v-4.395h1.816v4.395h4.854v1.514h-4.854v4.365
		c0,0.879,0.104,1.499,0.312,1.86s0.487,0.626,0.835,0.796s0.76,0.254,1.235,0.254c0.879,0,1.803-0.277,2.773-0.83V68.721z"/>
	<path d="M421.284,66.709c-0.553,0.912-1.219,1.598-1.997,2.061s-1.493,0.693-2.144,0.693c-0.912,0-1.73-0.394-2.456-1.182
		s-1.089-1.982-1.089-3.584c0-1.263,0.241-2.391,0.723-3.384s1.126-1.777,1.934-2.354s1.807-0.864,2.998-0.864
		c0.345,0,0.866,0.036,1.562,0.107c0.104,0.013,0.26,0.029,0.469,0.049h1.826v7.705c0,1.315,0.137,2.383,0.41,3.203h-1.895
		C421.483,68.562,421.368,67.745,421.284,66.709z M421.284,64.551v-4.678c-0.645-0.169-1.244-0.254-1.797-0.254
		c-1.12,0-2.052,0.433-2.798,1.299s-1.118,2.044-1.118,3.535c0,1.081,0.204,1.896,0.61,2.446s0.871,0.825,1.392,0.825
		c0.566,0,1.191-0.287,1.875-0.859S420.743,65.521,421.284,64.551z"/>
	<path d="M426.245,68.584v-1.924c0.729,0.475,1.5,0.809,2.314,1.001s1.504,0.288,2.07,0.288c0.918,0,1.579-0.148,1.982-0.444
		s0.605-0.666,0.605-1.108c0-0.293-0.094-0.543-0.283-0.752s-0.658-0.465-1.406-0.771l-0.625-0.254l-1.26-0.498
		c-1.354-0.527-2.208-1.014-2.563-1.46s-0.532-0.988-0.532-1.626c0-0.898,0.347-1.637,1.04-2.217s1.818-0.869,3.374-0.869
		c1.166,0,2.269,0.169,3.311,0.508v1.65c-1.198-0.43-2.324-0.645-3.379-0.645c-0.768,0-1.369,0.135-1.802,0.405
		s-0.649,0.607-0.649,1.011c0,0.391,0.187,0.703,0.562,0.938s0.981,0.504,1.821,0.811l1.23,0.449
		c1.126,0.41,1.917,0.856,2.373,1.338c0.456,0.482,0.684,1.084,0.684,1.807c0,0.944-0.363,1.72-1.089,2.329
		s-1.886,0.913-3.481,0.913C429.149,69.463,427.716,69.17,426.245,68.584z"/>
	<path d="M438.608,69.161V53.399h1.816v9.902l5.244-5.049h2.422l-5.234,5.049l5.371,5.859h-2.5l-5.303-5.859v5.859H438.608z"/>
</g>
<g>
	<g>
		
			<line fill="none" stroke="#000000" stroke-width="0.956" stroke-linecap="round" stroke-miterlimit="10" x1="394.016" y1="501.732" x2="394.016" y2="363.871"/>
		<g>
			<polygon points="397.926,367.039 397.225,367.691 394.017,364.238 390.807,367.691 390.107,367.039 394.017,362.835 			"/>
		</g>
	</g>
</g>
<g id="spring">
	<g id="Spring_00000005229118823727297100000003198126588693979273_">
		<path fill="none" stroke="#B2B2B2" stroke-width="0.9557" stroke-linecap="round" stroke-miterlimit="10" d="M457.119,179.318
			c0.823,1.674,26.214-10.813,27.037-9.139"/>
		<path fill="none" stroke="#B2B2B2" stroke-width="0.9557" stroke-linecap="round" stroke-miterlimit="10" d="M453.811,172.628
			c0.822,1.672,26.213-10.815,27.035-9.143"/>
		<path fill="none" stroke="#B2B2B2" stroke-width="0.9557" stroke-linecap="round" stroke-miterlimit="10" d="M450.524,165.944
			c0.822,1.671,26.213-10.815,27.035-9.144"/>
		<path fill="none" stroke="#B2B2B2" stroke-width="0.9557" stroke-linecap="round" stroke-miterlimit="10" d="M447.238,159.262
			c0.822,1.671,26.213-10.815,27.035-9.144"/>
		<path fill="none" stroke="#B2B2B2" stroke-width="0.9557" stroke-linecap="round" stroke-miterlimit="10" d="M443.955,152.587
			c0.82,1.668,26.211-10.819,27.032-9.15"/>
		<path fill="none" stroke="#B2B2B2" stroke-width="0.9557" stroke-linecap="round" stroke-miterlimit="10" d="M440.67,145.907
			c0.821,1.67,26.212-10.817,27.033-9.147"/>
		<path fill="none" stroke="#B2B2B2" stroke-width="0.9557" stroke-linecap="round" stroke-miterlimit="10" d="M437.391,139.239
			c0.82,1.667,26.21-10.82,27.03-9.154"/>
		<path fill="none" stroke="#B2B2B2" stroke-width="0.9557" stroke-linecap="round" stroke-miterlimit="10" d="M447.625,127.991
			c6.553-2.704,13.106-5.408,13.517-4.573"/>
		<g id="back_00000007396661073407332110000015821269606074713007_">
			<path fill="none" stroke="#4C4C4C" stroke-width="0.9557" stroke-linecap="round" stroke-miterlimit="10" d="M480.846,163.485
				c0.822,1.671-24.569,14.158-23.747,15.829"/>
			<path fill="none" stroke="#4C4C4C" stroke-width="0.9557" stroke-linecap="round" stroke-miterlimit="10" d="M477.559,156.8
				c0.822,1.67-24.569,14.157-23.748,15.828"/>
			<path fill="none" stroke="#4C4C4C" stroke-width="0.9557" stroke-linecap="round" stroke-miterlimit="10" d="M474.273,150.118
				c0.821,1.669-24.57,14.156-23.749,15.826"/>
			<path fill="none" stroke="#4C4C4C" stroke-width="0.9557" stroke-linecap="round" stroke-miterlimit="10" d="M470.987,143.436
				c0.821,1.669-24.57,14.156-23.749,15.826"/>
			<path fill="none" stroke="#4C4C4C" stroke-width="0.9557" stroke-linecap="round" stroke-miterlimit="10" d="M467.704,136.76
				c0.821,1.67-24.57,14.157-23.749,15.826"/>
			<path fill="none" stroke="#4C4C4C" stroke-width="0.9557" stroke-linecap="round" stroke-miterlimit="10" d="M464.421,130.086
				c0.82,1.667-24.571,14.154-23.751,15.822"/>
			<path fill="none" stroke="#4C4C4C" stroke-width="0.9557" stroke-linecap="round" stroke-miterlimit="10" d="M461.142,123.417
				c0.82,1.668-24.571,14.154-23.751,15.822"/>
			<path fill="none" stroke="#4C4C4C" stroke-width="0.9557" stroke-linecap="round" stroke-miterlimit="10" d="M484.152,170.17
				c0.412,0.838-5.723,4.376-11.862,7.915"/>
		</g>
	</g>
	<g>
		<g>
			<path fill="none" stroke="#000000" stroke-linecap="round" stroke-linejoin="round" d="M439.171,117.031
				c2.924,3.334,5.765,6.985,8.515,10.935"/>
			<g>
				<polygon points="438.142,122.218 439.141,122.271 439.395,117.347 444.288,117.96 444.411,116.966 438.452,116.221 				"/>
			</g>
		</g>
	</g>
	<path fill="none" stroke="#000000" stroke-linecap="round" stroke-linejoin="round" stroke-miterlimit="10" d="M472.337,177.997
		c12.609,36.313,20.097,81.68,20.097,130.891c0,84.268-21.958,157.261-53.982,192.831"/>
</g>
<g id="spring_00000154421293602628224990000014720210608571645865_">
	<g id="Spring_00000050659205344330201300000010238521409251520640_">
		<path fill="none" stroke="#B2B2B2" stroke-width="0.9557" stroke-linecap="round" stroke-miterlimit="10" d="M331.336,438.622
			c-0.823-1.674-26.214,10.813-27.037,9.139"/>
		<path fill="none" stroke="#B2B2B2" stroke-width="0.9557" stroke-linecap="round" stroke-miterlimit="10" d="M334.644,445.312
			c-0.822-1.672-26.213,10.815-27.035,9.143"/>
		<path fill="none" stroke="#B2B2B2" stroke-width="0.9557" stroke-linecap="round" stroke-miterlimit="10" d="M337.931,451.996
			c-0.822-1.671-26.213,10.815-27.035,9.144"/>
		<path fill="none" stroke="#B2B2B2" stroke-width="0.9557" stroke-linecap="round" stroke-miterlimit="10" d="M341.217,458.678
			c-0.822-1.671-26.213,10.815-27.035,9.144"/>
		<path fill="none" stroke="#B2B2B2" stroke-width="0.9557" stroke-linecap="round" stroke-miterlimit="10" d="M344.5,465.353
			c-0.82-1.668-26.211,10.819-27.032,9.15"/>
		<path fill="none" stroke="#B2B2B2" stroke-width="0.9557" stroke-linecap="round" stroke-miterlimit="10" d="M347.785,472.033
			c-0.821-1.67-26.212,10.817-27.034,9.147"/>
		<path fill="none" stroke="#B2B2B2" stroke-width="0.9557" stroke-linecap="round" stroke-miterlimit="10" d="M351.064,478.701
			c-0.82-1.667-26.21,10.82-27.03,9.154"/>
		<path fill="none" stroke="#B2B2B2" stroke-width="0.9557" stroke-linecap="round" stroke-miterlimit="10" d="M340.83,489.949
			c-6.553,2.704-13.106,5.408-13.517,4.573"/>
		<g id="back_00000112620010917181713440000011014840417164460945_">
			<path fill="none" stroke="#4C4C4C" stroke-width="0.9557" stroke-linecap="round" stroke-miterlimit="10" d="M307.609,454.455
				c-0.822-1.671,24.569-14.158,23.747-15.829"/>
			<path fill="none" stroke="#4C4C4C" stroke-width="0.9557" stroke-linecap="round" stroke-miterlimit="10" d="M310.897,461.14
				c-0.822-1.67,24.569-14.157,23.748-15.828"/>
			<path fill="none" stroke="#4C4C4C" stroke-width="0.9557" stroke-linecap="round" stroke-miterlimit="10" d="M314.182,467.822
				c-0.821-1.669,24.57-14.156,23.749-15.826"/>
			<path fill="none" stroke="#4C4C4C" stroke-width="0.9557" stroke-linecap="round" stroke-miterlimit="10" d="M317.468,474.503
				c-0.821-1.669,24.57-14.156,23.749-15.826"/>
			<path fill="none" stroke="#4C4C4C" stroke-width="0.9557" stroke-linecap="round" stroke-miterlimit="10" d="M320.751,481.179
				c-0.821-1.67,24.57-14.157,23.749-15.826"/>
			<path fill="none" stroke="#4C4C4C" stroke-width="0.9557" stroke-linecap="round" stroke-miterlimit="10" d="M324.034,487.854
				c-0.82-1.667,24.571-14.154,23.751-15.822"/>
			<path fill="none" stroke="#4C4C4C" stroke-width="0.9557" stroke-linecap="round" stroke-miterlimit="10" d="M327.313,494.522
				c-0.82-1.668,24.571-14.154,23.751-15.822"/>
			<path fill="none" stroke="#4C4C4C" stroke-width="0.9557" stroke-linecap="round" stroke-miterlimit="10" d="M304.303,447.77
				c-0.412-0.838,5.723-4.376,11.862-7.915"/>
		</g>
	</g>
	<g>
		<g>
			<path fill="none" stroke="#000000" stroke-linecap="round" stroke-linejoin="round" d="M349.284,500.909
				c-2.924-3.334-5.765-6.985-8.515-10.935"/>
			<g>
				<polygon points="350.314,495.722 349.314,495.669 349.06,500.593 344.167,499.98 344.044,500.973 350.003,501.719 				"/>
			</g>
		</g>
	</g>
	<path fill="none" stroke="#000000" stroke-linecap="round" stroke-linejoin="round" stroke-miterlimit="10" d="M316.118,439.943
		c-12.609-36.313-20.097-81.68-20.097-130.891c0-84.268,21.958-157.261,53.982-192.831"/>
</g>
<path fill="none" stroke="#000000" stroke-linecap="round" stroke-miterlimit="10" d="M761.489,359.911H626.566
	c-6.229,0-11.325-5.096-11.325-11.325v-76.563c0-6.229,5.096-11.325,11.325-11.325h134.924c6.229,0,11.325,5.096,11.325,11.325
	v76.563C772.814,354.814,767.718,359.911,761.489,359.911z"/>
<g>
	<path d="M641.532,312.851v-15.762h1.816v7.236c0.521-0.84,1.149-1.498,1.885-1.973c0.736-0.475,1.472-0.713,2.207-0.713
		c0.619,0,1.184,0.158,1.694,0.474c0.512,0.316,0.868,0.698,1.069,1.147c0.163,0.345,0.273,0.711,0.332,1.099
		s0.088,1.187,0.088,2.397v6.094h-1.816v-6.318c0-1.048-0.05-1.74-0.151-2.075c-0.101-0.335-0.286-0.61-0.557-0.825
		c-0.27-0.215-0.564-0.322-0.884-0.322c-0.638,0-1.323,0.303-2.056,0.908s-1.336,1.364-1.812,2.275v6.357H641.532z"/>
	<path d="M660.702,310.399c-0.553,0.912-1.219,1.598-1.997,2.061c-0.777,0.462-1.492,0.693-2.144,0.693
		c-0.911,0-1.729-0.394-2.456-1.182c-0.726-0.788-1.089-1.982-1.089-3.584c0-1.263,0.241-2.391,0.723-3.384
		c0.482-0.993,1.127-1.777,1.934-2.354c0.808-0.576,1.807-0.864,2.998-0.864c0.346,0,0.866,0.036,1.562,0.107
		c0.104,0.013,0.261,0.029,0.469,0.049h1.826v7.705c0,1.315,0.137,2.383,0.41,3.203h-1.895
		C660.902,312.251,660.787,311.435,660.702,310.399z M660.702,308.241v-4.678c-0.645-0.169-1.243-0.254-1.797-0.254
		c-1.119,0-2.052,0.433-2.798,1.299c-0.745,0.866-1.118,2.044-1.118,3.535c0,1.081,0.204,1.896,0.61,2.446
		c0.407,0.55,0.871,0.825,1.392,0.825c0.566,0,1.191-0.287,1.875-0.859S660.162,309.211,660.702,308.241z"/>
	<path d="M665.663,312.274v-1.924c0.729,0.475,1.501,0.809,2.314,1.001c0.814,0.192,1.504,0.288,2.07,0.288
		c0.918,0,1.579-0.148,1.982-0.444c0.404-0.296,0.605-0.666,0.605-1.108c0-0.293-0.094-0.543-0.283-0.752
		c-0.188-0.208-0.657-0.465-1.406-0.771l-0.625-0.254l-1.26-0.498c-1.354-0.527-2.208-1.014-2.563-1.46
		c-0.354-0.446-0.532-0.988-0.532-1.626c0-0.898,0.347-1.637,1.04-2.217s1.818-0.869,3.374-0.869c1.166,0,2.27,0.169,3.311,0.508
		v1.65c-1.197-0.43-2.324-0.645-3.379-0.645c-0.768,0-1.368,0.135-1.802,0.405c-0.433,0.27-0.649,0.607-0.649,1.011
		c0,0.391,0.188,0.703,0.562,0.938c0.375,0.234,0.981,0.504,1.821,0.811l1.23,0.449c1.127,0.41,1.918,0.856,2.373,1.338
		c0.456,0.482,0.684,1.084,0.684,1.807c0,0.944-0.362,1.72-1.089,2.329c-0.726,0.609-1.886,0.913-3.481,0.913
		C668.568,313.153,667.135,312.86,665.663,312.274z"/>
	<path d="M677.665,312.274v-1.924c0.729,0.475,1.501,0.809,2.314,1.001c0.814,0.192,1.504,0.288,2.07,0.288
		c0.918,0,1.579-0.148,1.982-0.444c0.404-0.296,0.605-0.666,0.605-1.108c0-0.293-0.094-0.543-0.283-0.752
		c-0.188-0.208-0.657-0.465-1.406-0.771l-0.625-0.254l-1.26-0.498c-1.354-0.527-2.208-1.014-2.563-1.46
		c-0.354-0.446-0.532-0.988-0.532-1.626c0-0.898,0.347-1.637,1.04-2.217s1.818-0.869,3.374-0.869c1.166,0,2.27,0.169,3.311,0.508
		v1.65c-1.197-0.43-2.324-0.645-3.379-0.645c-0.768,0-1.368,0.135-1.802,0.405c-0.433,0.27-0.649,0.607-0.649,1.011
		c0,0.391,0.188,0.703,0.562,0.938c0.375,0.234,0.981,0.504,1.821,0.811l1.23,0.449c1.127,0.41,1.918,0.856,2.373,1.338
		c0.456,0.482,0.684,1.084,0.684,1.807c0,0.944-0.362,1.72-1.089,2.329c-0.726,0.609-1.886,0.913-3.481,0.913
		C680.57,313.153,679.137,312.86,677.665,312.274z"/>
	<path d="M710.663,312.411c-0.853,0.358-1.471,0.571-1.855,0.64c-0.384,0.068-0.755,0.103-1.113,0.103
		c-0.762,0-1.458-0.146-2.09-0.439c-0.631-0.293-1.108-0.726-1.431-1.299s-0.483-1.458-0.483-2.656v-4.395h-2.725v-1.514h2.725
		v-4.395h1.816v4.395h4.854v1.514h-4.854v4.365c0,0.879,0.104,1.499,0.312,1.86c0.209,0.361,0.487,0.626,0.835,0.796
		c0.349,0.169,0.761,0.254,1.235,0.254c0.879,0,1.804-0.277,2.773-0.83V312.411z"/>
	<path d="M720.712,310.399c-0.553,0.912-1.219,1.598-1.997,2.061c-0.777,0.462-1.492,0.693-2.144,0.693
		c-0.911,0-1.729-0.394-2.456-1.182c-0.726-0.788-1.089-1.982-1.089-3.584c0-1.263,0.241-2.391,0.723-3.384
		c0.482-0.993,1.127-1.777,1.934-2.354c0.808-0.576,1.807-0.864,2.998-0.864c0.346,0,0.866,0.036,1.562,0.107
		c0.104,0.013,0.261,0.029,0.469,0.049h1.826v7.705c0,1.315,0.137,2.383,0.41,3.203h-1.895
		C720.911,312.251,720.797,311.435,720.712,310.399z M720.712,308.241v-4.678c-0.645-0.169-1.243-0.254-1.797-0.254
		c-1.119,0-2.052,0.433-2.798,1.299c-0.745,0.866-1.118,2.044-1.118,3.535c0,1.081,0.204,1.896,0.61,2.446
		c0.407,0.55,0.871,0.825,1.392,0.825c0.566,0,1.191-0.287,1.875-0.859S720.172,309.211,720.712,308.241z"/>
	<path d="M725.673,312.274v-1.924c0.729,0.475,1.501,0.809,2.314,1.001c0.814,0.192,1.504,0.288,2.07,0.288
		c0.918,0,1.579-0.148,1.982-0.444c0.404-0.296,0.605-0.666,0.605-1.108c0-0.293-0.094-0.543-0.283-0.752
		c-0.188-0.208-0.657-0.465-1.406-0.771l-0.625-0.254l-1.26-0.498c-1.354-0.527-2.208-1.014-2.563-1.46
		c-0.354-0.446-0.532-0.988-0.532-1.626c0-0.898,0.347-1.637,1.04-2.217s1.818-0.869,3.374-0.869c1.166,0,2.27,0.169,3.311,0.508
		v1.65c-1.197-0.43-2.324-0.645-3.379-0.645c-0.768,0-1.368,0.135-1.802,0.405c-0.433,0.27-0.649,0.607-0.649,1.011
		c0,0.391,0.188,0.703,0.562,0.938c0.375,0.234,0.981,0.504,1.821,0.811l1.23,0.449c1.127,0.41,1.918,0.856,2.373,1.338
		c0.456,0.482,0.684,1.084,0.684,1.807c0,0.944-0.362,1.72-1.089,2.329c-0.726,0.609-1.886,0.913-3.481,0.913
		C728.577,313.153,727.145,312.86,725.673,312.274z"/>
	<path d="M738.036,312.851v-15.762h1.816v9.902l5.244-5.049h2.422l-5.234,5.049l5.371,5.859h-2.5l-5.303-5.859v5.859H738.036z"/>
</g>
<path fill="none" stroke="#000000" stroke-linecap="round" stroke-miterlimit="10" d="M162.049,359.911H27.126
	c-6.229,0-11.325-5.096-11.325-11.325v-76.563c0-6.229,5.096-11.325,11.325-11.325h134.924c6.229,0,11.325,5.096,11.325,11.325
	v76.563C173.374,354.814,168.278,359.911,162.049,359.911z"/>
<g>
	<path d="M66.096,312.851v-15.762h1.816v7.236c0.521-0.84,1.149-1.498,1.885-1.973s1.471-0.713,2.207-0.713
		c0.619,0,1.183,0.158,1.694,0.474s0.868,0.698,1.069,1.147c0.163,0.345,0.273,0.711,0.332,1.099s0.088,1.187,0.088,2.397v6.094
		h-1.816v-6.318c0-1.048-0.05-1.74-0.151-2.075s-0.287-0.61-0.557-0.825s-0.565-0.322-0.884-0.322c-0.638,0-1.323,0.303-2.056,0.908
		s-1.336,1.364-1.812,2.275v6.357H66.096z"/>
	<path d="M87.219,312.411c-0.853,0.358-1.471,0.571-1.855,0.64s-0.755,0.103-1.113,0.103c-0.762,0-1.458-0.146-2.09-0.439
		s-1.108-0.726-1.431-1.299s-0.483-1.458-0.483-2.656v-4.395h-2.725v-1.514h2.725v-4.395h1.816v4.395h4.854v1.514h-4.854v4.365
		c0,0.879,0.104,1.499,0.312,1.86s0.487,0.626,0.835,0.796s0.76,0.254,1.235,0.254c0.879,0,1.803-0.277,2.773-0.83V312.411z"/>
	<path d="M99.221,312.411c-0.853,0.358-1.471,0.571-1.855,0.64s-0.755,0.103-1.113,0.103c-0.762,0-1.458-0.146-2.09-0.439
		s-1.108-0.726-1.431-1.299s-0.483-1.458-0.483-2.656v-4.395h-2.725v-1.514h2.725v-4.395h1.816v4.395h4.854v1.514h-4.854v4.365
		c0,0.879,0.104,1.499,0.312,1.86s0.487,0.626,0.835,0.796s0.76,0.254,1.235,0.254c0.879,0,1.803-0.277,2.773-0.83V312.411z"/>
	<path d="M103.782,304.394c0.56-0.912,1.227-1.598,2.002-2.061s1.488-0.693,2.139-0.693c0.912,0,1.732,0.394,2.461,1.182
		s1.094,1.982,1.094,3.584c0,1.263-0.243,2.391-0.728,3.384s-1.131,1.777-1.938,2.354s-1.807,0.864-2.998,0.864
		c-0.338,0-0.859-0.036-1.562-0.107c-0.104-0.013-0.26-0.029-0.469-0.049v4.238h-1.816v-15.146h1.816V304.394z M103.782,306.552
		v4.678c0.658,0.169,1.263,0.254,1.816,0.254c1.1,0,2.026-0.431,2.778-1.294s1.128-2.042,1.128-3.54
		c0-1.087-0.205-1.904-0.615-2.451s-0.875-0.82-1.396-0.82c-0.566,0-1.19,0.287-1.87,0.859S104.329,305.582,103.782,306.552z"/>
	<path d="M121.389,310.399c-0.553,0.912-1.219,1.598-1.997,2.061s-1.493,0.693-2.144,0.693c-0.912,0-1.73-0.394-2.456-1.182
		s-1.089-1.982-1.089-3.584c0-1.263,0.241-2.391,0.723-3.384s1.126-1.777,1.934-2.354s1.807-0.864,2.998-0.864
		c0.345,0,0.866,0.036,1.562,0.107c0.104,0.013,0.26,0.029,0.469,0.049v-4.854h1.826v15.762h-1.826V310.399z M121.389,308.241
		v-4.678c-0.645-0.169-1.244-0.254-1.797-0.254c-1.12,0-2.052,0.433-2.798,1.299s-1.118,2.044-1.118,3.535
		c0,1.081,0.204,1.896,0.61,2.446s0.871,0.825,1.392,0.825c0.566,0,1.191-0.287,1.875-0.859S120.849,309.211,121.389,308.241z"/>
</g>
<path fill="none" stroke="#000000" stroke-miterlimit="10" d="M615.241,286.849c-67.413,0-126.284-46.185-142.715-108.825"/>
<g>
	<g>
		<path fill="none" stroke="#000000" stroke-width="0.9756" stroke-miterlimit="10" d="M614.184,331.117
			c-53.451-0.053-123.653-4.097-173.181-13.636"/>
		<g>
			<polygon points="611.024,327.05 610.346,327.752 613.809,331.09 610.226,334.301 610.879,335.027 615.241,331.116 			"/>
		</g>
	</g>
</g>
<path fill="none" stroke="#000000" stroke-miterlimit="10" d="M173.374,331.117c67.413,0,126.284,46.185,142.715,108.825"/>
<g>
	<g>
		<path fill="none" stroke="#000000" stroke-width="0.9936" stroke-miterlimit="10" d="M174.451,286.849
			c53.827,0.056,124.634,4.31,174.21,14.355"/>
		<g>
			<polygon points="177.666,290.995 178.357,290.28 174.833,286.877 178.484,283.61 177.821,282.87 173.374,286.85 			"/>
		</g>
	</g>
</g>
<line fill="none" stroke="#000000" stroke-width="1.0321" stroke-linecap="round" stroke-miterlimit="10" x1="388.346" y1="617.953" x2="388.346" y2="600.945"/>
<line fill="none" stroke="#000000" stroke-width="1.0321" stroke-linecap="round" stroke-miterlimit="10" x1="399.685" y1="617.953" x2="399.685" y2="600.945"/>
<path fill="none" stroke="#B2B2B2" stroke-linecap="round" stroke-miterlimit="10" d="M399.685,629.291
	c0-5.669-11.339-5.669-11.339-11.339"/>
<path fill="none" stroke="#000000" stroke-linecap="round" stroke-miterlimit="10" d="M399.685,617.953
	c0,5.669-11.339,5.669-11.339,11.339"/>
<path fill="none" stroke="#000000" stroke-linecap="round" stroke-miterlimit="10" d="M399.685,640.63
	c0-5.669-11.339-5.669-11.339-11.339"/>
<path fill="none" stroke="#B2B2B2" stroke-linecap="round" stroke-miterlimit="10" d="M399.685,629.291
	c0,5.669-11.339,5.669-11.339,11.339"/>
<path fill="none" stroke="#000000" stroke-linecap="round" stroke-miterlimit="10" d="M399.685,651.969
	c0-5.669-11.339-5.669-11.339-11.339"/>
<path fill="none" stroke="#B2B2B2" stroke-linecap="round" stroke-miterlimit="10" d="M399.685,640.63
	c0,5.669-11.339,5.669-11.339,11.339"/>
<path fill="none" stroke="#B2B2B2" stroke-linecap="round" stroke-miterlimit="10" d="M399.685,663.307
	c0-5.669-11.339-5.669-11.339-11.339"/>
<path fill="none" stroke="#000000" stroke-linecap="round" stroke-miterlimit="10" d="M399.685,651.969
	c0,5.669-11.339,5.669-11.339,11.339"/>
<g>
	<path d="M374.469,679.288v3.861h-1.184v-9.094h2.432c0.793,0,1.377,0.081,1.752,0.243s0.665,0.407,0.87,0.735
		s0.308,0.682,0.308,1.061c0,0.352-0.068,0.705-0.205,1.061s-0.325,0.673-0.565,0.952s-0.587,0.544-1.04,0.794l2.631,4.248h-1.406
		l-2.408-3.861H374.469z M374.469,678.374h1.658c0.371-0.203,0.647-0.41,0.829-0.621s0.319-0.436,0.413-0.674
		s0.141-0.477,0.141-0.715c0-0.426-0.155-0.765-0.466-1.017s-0.874-0.378-1.69-0.378h-0.885V678.374z"/>
	<path d="M380.533,682.956v-1.113c0.938,0.445,1.789,0.668,2.555,0.668c0.32,0,0.627-0.062,0.92-0.185s0.515-0.3,0.665-0.53
		s0.226-0.48,0.226-0.75c0-0.316-0.104-0.612-0.311-0.888s-0.596-0.579-1.166-0.911l-0.598-0.346l-0.604-0.346
		c-1.062-0.629-1.594-1.41-1.594-2.344c0-0.684,0.237-1.259,0.712-1.726s1.216-0.7,2.224-0.7c0.648,0,1.275,0.094,1.881,0.281v1.014
		c-0.668-0.258-1.318-0.387-1.951-0.387c-0.504,0-0.911,0.133-1.222,0.398s-0.466,0.586-0.466,0.961c0,0.371,0.119,0.68,0.357,0.926
		s0.543,0.473,0.914,0.68l0.457,0.275l0.568,0.346l0.48,0.281c0.996,0.609,1.494,1.375,1.494,2.297c0,0.703-0.256,1.307-0.768,1.811
		s-1.332,0.756-2.461,0.756c-0.359,0-0.702-0.03-1.028-0.091S381.065,683.147,380.533,682.956z"/>
	<path d="M388.145,679.921v-0.908h4.547v0.908H388.145z"/>
	<path d="M398.158,683.149v-2.543h-3.861v-0.914l3.861-5.637h1.096v5.637h1.682v0.914h-1.682v2.543H398.158z M398.158,679.692
		v-3.984l-2.701,3.984H398.158z"/>
	<path d="M403.906,678.245l-0.199-0.146c-0.277-0.195-0.549-0.483-0.815-0.864s-0.398-0.8-0.398-1.257
		c0-0.605,0.238-1.122,0.715-1.55s1.082-0.642,1.816-0.642c0.449,0,0.854,0.081,1.213,0.243s0.637,0.401,0.832,0.718
		s0.293,0.662,0.293,1.037c0,0.258-0.045,0.507-0.134,0.747s-0.223,0.479-0.4,0.715s-0.528,0.569-1.054,0.999l0.492,0.393
		c0.572,0.469,0.957,0.873,1.155,1.213c0.199,0.34,0.298,0.721,0.298,1.143c0,0.656-0.238,1.226-0.715,1.708
		s-1.191,0.724-2.145,0.724c-0.957,0-1.674-0.226-2.15-0.677s-0.715-1.011-0.715-1.679
		C401.996,680.073,402.633,679.132,403.906,678.245z M404.729,678.825c-1.033,0.793-1.549,1.535-1.549,2.227
		c0,0.41,0.17,0.756,0.51,1.037s0.742,0.422,1.207,0.422c0.426,0,0.807-0.135,1.143-0.404s0.504-0.605,0.504-1.008
		c0-0.395-0.204-0.795-0.611-1.201c-0.408-0.406-0.691-0.672-0.852-0.797L404.729,678.825z M405.026,677.688
		c0.551-0.418,0.896-0.768,1.034-1.049s0.208-0.543,0.208-0.785c0-0.293-0.129-0.56-0.387-0.8s-0.59-0.36-0.996-0.36
		c-0.438,0-0.771,0.131-0.999,0.393s-0.343,0.533-0.343,0.814c0,0.273,0.096,0.531,0.287,0.773s0.498,0.514,0.92,0.814
		L405.026,677.688z"/>
	<path d="M409.52,678.421v-4.365h5.092v1.049h-4.002v2.227h0.188c1.309,0,2.316,0.273,3.023,0.82s1.061,1.283,1.061,2.209
		c0,0.586-0.143,1.111-0.428,1.576s-0.688,0.829-1.207,1.093s-1.072,0.396-1.658,0.396s-1.336-0.143-2.25-0.428v-1.189
		c0.332,0.18,0.703,0.327,1.113,0.442s0.789,0.173,1.137,0.173s0.688-0.084,1.02-0.252s0.59-0.413,0.773-0.735
		s0.275-0.651,0.275-0.987c0-0.566-0.251-1.046-0.753-1.438s-1.394-0.589-2.675-0.589H409.52z"/>
</g>
<path fill="none" stroke="#000000" stroke-linecap="round" stroke-miterlimit="10" d="M461.77,600.945H326.846
	c-6.229,0-11.325-5.096-11.325-11.325v-76.563c0-6.229,5.096-11.325,11.325-11.325H461.77c6.229,0,11.325,5.096,11.325,11.325
	v76.563C473.094,595.849,467.998,600.945,461.77,600.945z"/>
<path opacity="0.05" fill="#0197B1" stroke="#000000" stroke-linecap="round" stroke-miterlimit="10" d="M161.589,600.945H26.665
	c-6.229,0-11.325-5.096-11.325-11.325v-76.563c0-6.229,5.096-11.325,11.325-11.325h134.924c6.229,0,11.325,5.096,11.325,11.325
	v76.563C172.913,595.849,167.817,600.945,161.589,600.945z"/>
<g>
	<path d="M40.123,547.39c-1.562,0-2.812-0.545-3.75-1.636s-1.406-2.466-1.406-4.126s0.469-3.034,1.406-4.121s2.188-1.631,3.75-1.631
		c1.556,0,2.803,0.543,3.74,1.631s1.406,2.461,1.406,4.121s-0.469,3.036-1.406,4.126S41.679,547.39,40.123,547.39z M40.123,545.876
		c0.97,0,1.742-0.377,2.314-1.133s0.859-1.793,0.859-3.115c0-1.315-0.287-2.35-0.859-3.105s-1.344-1.133-2.314-1.133
		c-0.977,0-1.751,0.377-2.324,1.133s-0.859,1.791-0.859,3.105c0,1.322,0.287,2.36,0.859,3.115S39.146,545.876,40.123,545.876z"/>
	<path d="M56.754,546.647c-0.853,0.358-1.471,0.571-1.855,0.64s-0.755,0.103-1.113,0.103c-0.762,0-1.458-0.146-2.09-0.439
		s-1.108-0.726-1.431-1.299s-0.483-1.458-0.483-2.656v-4.395h-2.725v-1.514h2.725v-4.395h1.816v4.395h4.854v1.514h-4.854v4.365
		c0,0.879,0.104,1.499,0.312,1.86s0.487,0.626,0.835,0.796s0.76,0.254,1.235,0.254c0.879,0,1.803-0.277,2.773-0.83V546.647z"/>
	<path d="M66.802,544.636c-0.553,0.912-1.219,1.598-1.997,2.061s-1.493,0.693-2.144,0.693c-0.912,0-1.73-0.394-2.456-1.182
		s-1.089-1.982-1.089-3.584c0-1.263,0.241-2.391,0.723-3.384s1.126-1.777,1.934-2.354s1.807-0.864,2.998-0.864
		c0.345,0,0.866,0.036,1.562,0.107c0.104,0.013,0.26,0.029,0.469,0.049h1.826v7.705c0,1.315,0.137,2.383,0.41,3.203h-1.895
		C67.001,546.488,66.887,545.671,66.802,544.636z M66.802,542.478V537.8c-0.645-0.169-1.244-0.254-1.797-0.254
		c-1.12,0-2.052,0.433-2.798,1.299s-1.118,2.044-1.118,3.535c0,1.081,0.204,1.896,0.61,2.446s0.871,0.825,1.392,0.825
		c0.566,0,1.191-0.287,1.875-0.859S66.262,543.448,66.802,542.478z"/>
	<path d="M92.613,536.179v10.908h-1.816v-2.393c-0.586,0.898-1.237,1.572-1.953,2.021s-1.432,0.674-2.148,0.674
		c-0.638,0-1.222-0.171-1.753-0.513s-0.9-0.791-1.108-1.348s-0.312-1.642-0.312-3.257v-6.094h1.816v6.318
		c0,1.048,0.05,1.74,0.151,2.075s0.287,0.61,0.557,0.825s0.562,0.322,0.874,0.322c0.638,0,1.323-0.301,2.056-0.903
		s1.339-1.362,1.821-2.28v-6.357H92.613z"/>
	<path d="M97.32,538.63c0.56-0.912,1.227-1.598,2.002-2.061s1.488-0.693,2.139-0.693c0.912,0,1.732,0.394,2.461,1.182
		s1.094,1.982,1.094,3.584c0,1.263-0.243,2.391-0.728,3.384s-1.131,1.777-1.938,2.354s-1.807,0.864-2.998,0.864
		c-0.338,0-0.859-0.036-1.562-0.107c-0.104-0.013-0.26-0.029-0.469-0.049v4.238h-1.816v-15.146h1.816V538.63z M97.32,540.788v4.678
		c0.658,0.169,1.263,0.254,1.816,0.254c1.1,0,2.026-0.431,2.778-1.294s1.128-2.042,1.128-3.54c0-1.087-0.205-1.904-0.615-2.451
		s-0.875-0.82-1.396-0.82c-0.566,0-1.19,0.287-1.87,0.859S97.867,539.818,97.32,540.788z"/>
	<path d="M114.927,544.636c-0.553,0.912-1.219,1.598-1.997,2.061s-1.493,0.693-2.144,0.693c-0.912,0-1.73-0.394-2.456-1.182
		s-1.089-1.982-1.089-3.584c0-1.263,0.241-2.391,0.723-3.384s1.126-1.777,1.934-2.354s1.807-0.864,2.998-0.864
		c0.345,0,0.866,0.036,1.562,0.107c0.104,0.013,0.26,0.029,0.469,0.049v-4.854h1.826v15.762h-1.826V544.636z M114.927,542.478V537.8
		c-0.645-0.169-1.244-0.254-1.797-0.254c-1.12,0-2.052,0.433-2.798,1.299s-1.118,2.044-1.118,3.535c0,1.081,0.204,1.896,0.61,2.446
		s0.871,0.825,1.392,0.825c0.566,0,1.191-0.287,1.875-0.859S114.387,543.448,114.927,542.478z"/>
	<path d="M126.812,544.636c-0.553,0.912-1.219,1.598-1.997,2.061s-1.493,0.693-2.144,0.693c-0.912,0-1.73-0.394-2.456-1.182
		s-1.089-1.982-1.089-3.584c0-1.263,0.241-2.391,0.723-3.384s1.126-1.777,1.934-2.354s1.807-0.864,2.998-0.864
		c0.345,0,0.866,0.036,1.562,0.107c0.104,0.013,0.26,0.029,0.469,0.049h1.826v7.705c0,1.315,0.137,2.383,0.41,3.203h-1.895
		C127.011,546.488,126.897,545.671,126.812,544.636z M126.812,542.478V537.8c-0.645-0.169-1.244-0.254-1.797-0.254
		c-1.12,0-2.052,0.433-2.798,1.299s-1.118,2.044-1.118,3.535c0,1.081,0.204,1.896,0.61,2.446s0.871,0.825,1.392,0.825
		c0.566,0,1.191-0.287,1.875-0.859S126.272,543.448,126.812,542.478z"/>
	<path d="M140.767,546.647c-0.853,0.358-1.471,0.571-1.855,0.64s-0.755,0.103-1.113,0.103c-0.762,0-1.458-0.146-2.09-0.439
		s-1.108-0.726-1.431-1.299s-0.483-1.458-0.483-2.656v-4.395h-2.725v-1.514h2.725v-4.395h1.816v4.395h4.854v1.514h-4.854v4.365
		c0,0.879,0.104,1.499,0.312,1.86s0.487,0.626,0.835,0.796s0.76,0.254,1.235,0.254c0.879,0,1.803-0.277,2.773-0.83V546.647z"/>
	<path d="M152.72,546.364c-1.452,0.69-2.826,1.035-4.121,1.035c-0.983,0-1.862-0.244-2.637-0.732s-1.395-1.187-1.86-2.095
		s-0.698-1.88-0.698-2.915c0-0.996,0.221-1.953,0.664-2.871s1.061-1.632,1.855-2.144s1.68-0.767,2.656-0.767
		c1.295,0,2.335,0.462,3.12,1.387s1.177,2.35,1.177,4.277v0.391h-7.52c0,0.755,0.158,1.445,0.474,2.07s0.731,1.094,1.245,1.406
		s1.1,0.469,1.758,0.469c1.172,0,2.467-0.391,3.887-1.172V546.364z M145.465,540.573h5.439v-0.264c0-0.892-0.218-1.602-0.654-2.129
		s-1.019-0.791-1.748-0.791c-0.736,0-1.372,0.269-1.909,0.806S145.679,539.525,145.465,540.573z"/>
	<path d="M80.757,570.647c-0.853,0.358-1.471,0.571-1.855,0.64s-0.755,0.103-1.113,0.103c-0.762,0-1.458-0.146-2.09-0.439
		s-1.108-0.726-1.431-1.299s-0.483-1.458-0.483-2.656v-4.395H71.06v-1.514h2.725v-4.395h1.816v4.395h4.854v1.514h-4.854v4.365
		c0,0.879,0.104,1.499,0.312,1.86s0.487,0.626,0.835,0.796s0.76,0.254,1.235,0.254c0.879,0,1.803-0.277,2.773-0.83V570.647z"/>
	<path d="M90.806,568.636c-0.553,0.912-1.219,1.598-1.997,2.061s-1.493,0.693-2.144,0.693c-0.912,0-1.73-0.394-2.456-1.182
		s-1.089-1.982-1.089-3.584c0-1.263,0.241-2.391,0.723-3.384s1.126-1.777,1.934-2.354s1.807-0.864,2.998-0.864
		c0.345,0,0.866,0.036,1.562,0.107c0.104,0.013,0.26,0.029,0.469,0.049h1.826v7.705c0,1.315,0.137,2.383,0.41,3.203h-1.895
		C91.005,570.488,90.891,569.671,90.806,568.636z M90.806,566.478V561.8c-0.645-0.169-1.244-0.254-1.797-0.254
		c-1.12,0-2.052,0.433-2.798,1.299s-1.118,2.044-1.118,3.535c0,1.081,0.204,1.896,0.61,2.446s0.871,0.825,1.392,0.825
		c0.566,0,1.191-0.287,1.875-0.859S90.266,567.448,90.806,566.478z"/>
	<path d="M95.767,570.511v-1.924c0.729,0.475,1.5,0.809,2.314,1.001s1.504,0.288,2.07,0.288c0.918,0,1.579-0.148,1.982-0.444
		s0.605-0.666,0.605-1.108c0-0.293-0.094-0.543-0.283-0.752s-0.658-0.465-1.406-0.771l-0.625-0.254l-1.26-0.498
		c-1.354-0.527-2.208-1.014-2.563-1.46s-0.532-0.988-0.532-1.626c0-0.898,0.347-1.637,1.04-2.217s1.818-0.869,3.374-0.869
		c1.166,0,2.269,0.169,3.311,0.508v1.65c-1.198-0.43-2.324-0.645-3.379-0.645c-0.768,0-1.369,0.135-1.802,0.405
		s-0.649,0.607-0.649,1.011c0,0.391,0.187,0.703,0.562,0.938s0.981,0.504,1.821,0.811l1.23,0.449
		c1.126,0.41,1.917,0.856,2.373,1.338s0.684,1.084,0.684,1.807c0,0.944-0.363,1.72-1.089,2.329s-1.886,0.913-3.481,0.913
		C98.671,571.39,97.238,571.097,95.767,570.511z"/>
	<path d="M108.131,571.087v-15.762h1.816v9.902l5.244-5.049h2.422l-5.234,5.049l5.371,5.859h-2.5l-5.303-5.859v5.859H108.131z"/>
</g>
<path fill="none" stroke="#000000" stroke-linecap="round" stroke-miterlimit="10" d="M161.589,600.945H26.665
	c-6.229,0-11.325-5.096-11.325-11.325v-76.563c0-6.229,5.096-11.325,11.325-11.325h134.924c6.229,0,11.325,5.096,11.325,11.325
	v76.563C172.913,595.849,167.817,600.945,161.589,600.945z"/>
<path opacity="0.05" fill="#0197B1" stroke="#000000" stroke-linecap="round" stroke-miterlimit="10" d="M761.366,600.945H626.443
	c-6.229,0-11.325-5.096-11.325-11.325v-76.563c0-6.229,5.096-11.325,11.325-11.325h134.924c6.229,0,11.325,5.096,11.325,11.325
	v76.563C772.691,595.849,767.595,600.945,761.366,600.945z"/>
<g>
	<path d="M655.95,549.921v-8.486h-2.422v-1.514h2.422v-0.508c0-1.439,0.163-2.503,0.488-3.193c0.326-0.69,0.829-1.256,1.509-1.699
		c0.681-0.443,1.581-0.664,2.7-0.664c0.847,0,1.706,0.088,2.578,0.264v1.729c-0.943-0.312-1.78-0.469-2.51-0.469
		c-0.579,0-1.09,0.107-1.533,0.322c-0.442,0.215-0.789,0.565-1.04,1.05c-0.25,0.485-0.376,1.307-0.376,2.466v0.703h4.326v1.514
		h-4.326v8.486H655.95z"/>
	<path d="M672.581,547.47c-0.553,0.912-1.219,1.598-1.997,2.061c-0.777,0.462-1.492,0.693-2.144,0.693
		c-0.911,0-1.729-0.394-2.456-1.182c-0.726-0.788-1.089-1.982-1.089-3.584c0-1.263,0.241-2.391,0.723-3.384
		c0.482-0.993,1.127-1.777,1.934-2.354c0.808-0.576,1.807-0.864,2.998-0.864c0.346,0,0.866,0.036,1.562,0.107
		c0.104,0.013,0.261,0.029,0.469,0.049h1.826v7.705c0,1.315,0.137,2.383,0.41,3.203h-1.895
		C672.78,549.322,672.666,548.505,672.581,547.47z M672.581,545.312v-4.678c-0.645-0.169-1.243-0.254-1.797-0.254
		c-1.119,0-2.052,0.433-2.798,1.299c-0.745,0.866-1.118,2.044-1.118,3.535c0,1.081,0.204,1.896,0.61,2.446
		c0.407,0.55,0.871,0.825,1.392,0.825c0.566,0,1.191-0.287,1.875-0.859S672.041,546.282,672.581,545.312z"/>
	<path d="M686.595,549.609c-1.217,0.41-2.376,0.615-3.477,0.615c-1.094,0-2.065-0.252-2.915-0.757s-1.512-1.188-1.987-2.051
		c-0.475-0.863-0.713-1.844-0.713-2.944c0-1.654,0.539-3.027,1.616-4.121c1.078-1.094,2.378-1.641,3.901-1.641
		c1.127,0,2.318,0.211,3.574,0.635v1.748c-1.27-0.58-2.405-0.869-3.408-0.869c-0.664,0-1.289,0.165-1.875,0.493
		s-1.038,0.841-1.357,1.538c-0.318,0.697-0.479,1.413-0.479,2.148c0,0.983,0.308,1.92,0.923,2.812s1.581,1.338,2.896,1.338
		c0.397,0,0.788-0.028,1.172-0.083c0.385-0.055,1.094-0.259,2.129-0.61V549.609z"/>
	<path d="M698.538,549.482c-0.853,0.358-1.471,0.571-1.855,0.64c-0.384,0.068-0.755,0.103-1.113,0.103
		c-0.762,0-1.458-0.146-2.09-0.439c-0.631-0.293-1.108-0.726-1.431-1.299s-0.483-1.458-0.483-2.656v-4.395h-2.725v-1.514h2.725
		v-4.395h1.816v4.395h4.854v1.514h-4.854v4.365c0,0.879,0.104,1.499,0.312,1.86c0.209,0.361,0.487,0.626,0.835,0.796
		c0.349,0.169,0.761,0.254,1.235,0.254c0.879,0,1.804-0.277,2.773-0.83V549.482z"/>
	<path d="M705.911,550.224c-1.562,0-2.812-0.545-3.75-1.636s-1.406-2.466-1.406-4.126s0.469-3.034,1.406-4.121
		s2.188-1.631,3.75-1.631c1.557,0,2.803,0.543,3.74,1.631s1.406,2.461,1.406,4.121s-0.469,3.036-1.406,4.126
		S707.468,550.224,705.911,550.224z M705.911,548.71c0.971,0,1.742-0.377,2.314-1.133c0.573-0.755,0.859-1.793,0.859-3.115
		c0-1.315-0.286-2.35-0.859-3.105c-0.572-0.755-1.344-1.133-2.314-1.133c-0.977,0-1.751,0.377-2.324,1.133
		c-0.572,0.755-0.859,1.791-0.859,3.105c0,1.322,0.287,2.36,0.859,3.115C704.16,548.333,704.935,548.71,705.911,548.71z"/>
	<path d="M714.349,549.921v-10.908h1.816v2.383c0.566-0.898,1.216-1.571,1.948-2.017s1.548-0.669,2.446-0.669
		c0.658,0,1.315,0.101,1.973,0.303v3.936h-1.748v-2.49c-0.306-0.052-0.547-0.078-0.723-0.078c-0.677,0-1.341,0.267-1.992,0.801
		c-0.65,0.534-1.285,1.334-1.904,2.402v6.338H714.349z"/>
	<path d="M729.437,549.482l-5.039-10.469h2.002l4.014,8.184l3.359-8.184h1.826l-4.229,10.137c-0.892,2.142-1.739,3.564-2.544,4.268
		c-0.804,0.703-1.844,1.055-3.12,1.055c-0.553,0-1.048-0.049-1.484-0.146v-1.602c0.502,0.156,0.98,0.234,1.436,0.234
		c0.586,0,1.107-0.114,1.562-0.342c0.456-0.228,0.873-0.631,1.25-1.211c0.378-0.58,0.645-1.081,0.801-1.504L729.437,549.482z"/>
	<path d="M636.336,573.921v-10.908h1.816v2.383c0.566-0.898,1.216-1.571,1.948-2.017s1.548-0.669,2.446-0.669
		c0.658,0,1.315,0.101,1.973,0.303v3.936h-1.748v-2.49c-0.306-0.052-0.547-0.078-0.723-0.078c-0.677,0-1.341,0.267-1.992,0.801
		c-0.65,0.534-1.285,1.334-1.904,2.402v6.338H636.336z"/>
	<path d="M656.483,573.199c-1.451,0.69-2.825,1.035-4.121,1.035c-0.982,0-1.861-0.244-2.637-0.732
		c-0.774-0.488-1.395-1.187-1.86-2.095c-0.465-0.908-0.698-1.88-0.698-2.915c0-0.996,0.222-1.953,0.664-2.871
		c0.443-0.918,1.062-1.632,1.855-2.144c0.795-0.511,1.68-0.767,2.656-0.767c1.296,0,2.336,0.462,3.12,1.387
		c0.785,0.924,1.177,2.35,1.177,4.277v0.391h-7.52c0,0.755,0.158,1.445,0.474,2.07c0.316,0.625,0.731,1.094,1.245,1.406
		c0.515,0.312,1.101,0.469,1.758,0.469c1.172,0,2.468-0.391,3.887-1.172V573.199z M649.227,567.408h5.439v-0.264
		c0-0.892-0.218-1.602-0.654-2.129c-0.436-0.527-1.019-0.791-1.748-0.791c-0.735,0-1.372,0.269-1.909,0.806
		S649.442,566.359,649.227,567.408z"/>
	<path d="M659.539,573.345v-1.924c0.729,0.475,1.501,0.809,2.314,1.001c0.814,0.192,1.504,0.288,2.07,0.288
		c0.918,0,1.579-0.148,1.982-0.444c0.404-0.296,0.605-0.666,0.605-1.108c0-0.293-0.094-0.543-0.283-0.752
		c-0.188-0.208-0.657-0.465-1.406-0.771l-0.625-0.254l-1.26-0.498c-1.354-0.527-2.208-1.014-2.563-1.46
		c-0.354-0.446-0.532-0.988-0.532-1.626c0-0.898,0.347-1.637,1.04-2.217s1.818-0.869,3.374-0.869c1.166,0,2.27,0.169,3.311,0.508
		v1.65c-1.197-0.43-2.324-0.645-3.379-0.645c-0.768,0-1.368,0.135-1.802,0.405c-0.433,0.27-0.649,0.607-0.649,1.011
		c0,0.391,0.188,0.703,0.562,0.938c0.375,0.234,0.981,0.504,1.821,0.811l1.23,0.449c1.127,0.41,1.918,0.856,2.373,1.338
		c0.456,0.482,0.684,1.084,0.684,1.807c0,0.944-0.362,1.72-1.089,2.329c-0.726,0.609-1.886,0.913-3.481,0.913
		C662.444,574.224,661.011,573.931,659.539,573.345z"/>
	<path d="M680.487,573.199c-1.451,0.69-2.825,1.035-4.121,1.035c-0.982,0-1.861-0.244-2.637-0.732
		c-0.774-0.488-1.395-1.187-1.86-2.095c-0.465-0.908-0.698-1.88-0.698-2.915c0-0.996,0.222-1.953,0.664-2.871
		c0.443-0.918,1.062-1.632,1.855-2.144c0.795-0.511,1.68-0.767,2.656-0.767c1.296,0,2.336,0.462,3.12,1.387
		c0.785,0.924,1.177,2.35,1.177,4.277v0.391h-7.52c0,0.755,0.158,1.445,0.474,2.07c0.316,0.625,0.731,1.094,1.245,1.406
		c0.515,0.312,1.101,0.469,1.758,0.469c1.172,0,2.468-0.391,3.887-1.172V573.199z M673.231,567.408h5.439v-0.264
		c0-0.892-0.218-1.602-0.654-2.129c-0.436-0.527-1.019-0.791-1.748-0.791c-0.735,0-1.372,0.269-1.909,0.806
		S673.445,566.359,673.231,567.408z"/>
	<path d="M692.537,573.482c-0.853,0.358-1.471,0.571-1.855,0.64c-0.384,0.068-0.755,0.103-1.113,0.103
		c-0.762,0-1.458-0.146-2.09-0.439c-0.631-0.293-1.108-0.726-1.431-1.299s-0.483-1.458-0.483-2.656v-4.395h-2.725v-1.514h2.725
		v-4.395h1.816v4.395h4.854v1.514h-4.854v4.365c0,0.879,0.104,1.499,0.312,1.86c0.209,0.361,0.487,0.626,0.835,0.796
		c0.349,0.169,0.761,0.254,1.235,0.254c0.879,0,1.804-0.277,2.773-0.83V573.482z"/>
	<path d="M716.541,573.482c-0.853,0.358-1.471,0.571-1.855,0.64c-0.384,0.068-0.755,0.103-1.113,0.103
		c-0.762,0-1.458-0.146-2.09-0.439c-0.631-0.293-1.108-0.726-1.431-1.299s-0.483-1.458-0.483-2.656v-4.395h-2.725v-1.514h2.725
		v-4.395h1.816v4.395h4.854v1.514h-4.854v4.365c0,0.879,0.104,1.499,0.312,1.86c0.209,0.361,0.487,0.626,0.835,0.796
		c0.349,0.169,0.761,0.254,1.235,0.254c0.879,0,1.804-0.277,2.773-0.83V573.482z"/>
	<path d="M726.59,571.47c-0.553,0.912-1.219,1.598-1.997,2.061c-0.777,0.462-1.492,0.693-2.144,0.693
		c-0.911,0-1.729-0.394-2.456-1.182c-0.726-0.788-1.089-1.982-1.089-3.584c0-1.263,0.241-2.391,0.723-3.384
		c0.482-0.993,1.127-1.777,1.934-2.354c0.808-0.576,1.807-0.864,2.998-0.864c0.346,0,0.866,0.036,1.562,0.107
		c0.104,0.013,0.261,0.029,0.469,0.049h1.826v7.705c0,1.315,0.137,2.383,0.41,3.203h-1.895
		C726.789,573.322,726.675,572.505,726.59,571.47z M726.59,569.312v-4.678c-0.645-0.169-1.243-0.254-1.797-0.254
		c-1.119,0-2.052,0.433-2.798,1.299c-0.745,0.866-1.118,2.044-1.118,3.535c0,1.081,0.204,1.896,0.61,2.446
		c0.407,0.55,0.871,0.825,1.392,0.825c0.566,0,1.191-0.287,1.875-0.859S726.05,570.282,726.59,569.312z"/>
	<path d="M731.551,573.345v-1.924c0.729,0.475,1.501,0.809,2.314,1.001c0.814,0.192,1.504,0.288,2.07,0.288
		c0.918,0,1.579-0.148,1.982-0.444c0.404-0.296,0.605-0.666,0.605-1.108c0-0.293-0.094-0.543-0.283-0.752
		c-0.188-0.208-0.657-0.465-1.406-0.771l-0.625-0.254l-1.26-0.498c-1.354-0.527-2.208-1.014-2.563-1.46
		c-0.354-0.446-0.532-0.988-0.532-1.626c0-0.898,0.347-1.637,1.04-2.217s1.818-0.869,3.374-0.869c1.166,0,2.27,0.169,3.311,0.508
		v1.65c-1.197-0.43-2.324-0.645-3.379-0.645c-0.768,0-1.368,0.135-1.802,0.405c-0.433,0.27-0.649,0.607-0.649,1.011
		c0,0.391,0.188,0.703,0.562,0.938c0.375,0.234,0.981,0.504,1.821,0.811l1.23,0.449c1.127,0.41,1.918,0.856,2.373,1.338
		c0.456,0.482,0.684,1.084,0.684,1.807c0,0.944-0.362,1.72-1.089,2.329c-0.726,0.609-1.886,0.913-3.481,0.913
		C734.455,574.224,733.023,573.931,731.551,573.345z"/>
	<path d="M743.914,573.921V558.16h1.816v9.902l5.244-5.049h2.422l-5.234,5.049l5.371,5.859h-2.5l-5.303-5.859v5.859H743.914z"/>
</g>
<path fill="none" stroke="#000000" stroke-linecap="round" stroke-miterlimit="10" d="M761.366,600.945H626.443
	c-6.229,0-11.325-5.096-11.325-11.325v-76.563c0-6.229,5.096-11.325,11.325-11.325h134.924c6.229,0,11.325,5.096,11.325,11.325
	v76.563C772.691,595.849,767.595,600.945,761.366,600.945z"/>
<path opacity="0.05" fill="#0197B1" stroke="#000000" stroke-linecap="round" stroke-miterlimit="10" d="M761.366,360H626.443
	c-6.229,0-11.325-5.096-11.325-11.325v-76.563c0-6.229,5.096-11.325,11.325-11.325h134.924c6.229,0,11.325,5.096,11.325,11.325
	v76.563C772.691,354.904,767.595,360,761.366,360z"/>
<path opacity="0.05" fill="#0197B1" stroke="#000000" stroke-linecap="round" stroke-miterlimit="10" d="M161.589,360H26.665
	c-6.229,0-11.325-5.096-11.325-11.325v-76.563c0-6.229,5.096-11.325,11.325-11.325h134.924c6.229,0,11.325,5.096,11.325,11.325
	v76.563C172.913,354.904,167.817,360,161.589,360z"/>
<path opacity="0.05" fill="#0197B1" stroke="#000000" stroke-linecap="round" stroke-miterlimit="10" d="M462.061,116.22H327.138
	c-6.229,0-11.325-5.096-11.325-11.325V28.333c0-6.229,5.096-11.325,11.325-11.325h134.924c6.229,0,11.325,5.096,11.325,11.325
	v76.563C473.386,111.124,468.29,116.22,462.061,116.22z"/>
<g id="dbase_00000110471819977850815020000007827887427531889307_" opacity="0.05">
	<path fill="#0197B1" stroke="#000000" stroke-width="2.1054" stroke-miterlimit="10" d="M348.144,348.248v-78.543
		c0-8.056,20.668-14.587,46.164-14.587c25.496,0,46.164,6.531,46.164,14.587v78.543c0,8.056-20.668,14.587-46.164,14.587
		C368.812,362.835,348.144,356.304,348.144,348.248z"/>
</g>
<g id="dbase">
	
		<ellipse fill="none" stroke="#000000" stroke-width="2.1054" stroke-miterlimit="10" cx="394.307" cy="269.705" rx="46.164" ry="14.587"/>
	<path fill="none" stroke="#000000" stroke-width="2.1054" stroke-miterlimit="10" d="M440.471,348.248
		c0,8.056-20.668,14.587-46.164,14.587s-46.164-6.531-46.164-14.587"/>
	
		<line fill="none" stroke="#000000" stroke-width="2.1054" stroke-miterlimit="10" x1="348.143" y1="348.248" x2="348.143" y2="269.705"/>
	
		<line fill="none" stroke="#000000" stroke-width="2.1054" stroke-miterlimit="10" x1="440.471" y1="348.248" x2="440.471" y2="269.705"/>
</g>
<g>
	<path d="M373.205,303.354c0.56-0.912,1.227-1.598,2.002-2.061s1.488-0.693,2.139-0.693c0.912,0,1.732,0.394,2.461,1.182
		s1.094,1.982,1.094,3.584c0,1.263-0.243,2.391-0.728,3.384s-1.131,1.777-1.938,2.354s-1.807,0.864-2.998,0.864
		c-0.338,0-0.859-0.036-1.562-0.107c-0.104-0.013-0.26-0.029-0.469-0.049v4.238h-1.816v-15.146h1.816V303.354z M373.205,305.512
		v4.678c0.658,0.169,1.263,0.254,1.816,0.254c1.1,0,2.026-0.431,2.778-1.294s1.128-2.042,1.128-3.54
		c0-1.087-0.205-1.904-0.615-2.451s-0.875-0.82-1.396-0.82c-0.566,0-1.19,0.287-1.87,0.859S373.752,304.542,373.205,305.512z"/>
	<path d="M388.02,312.114c-1.562,0-2.812-0.545-3.75-1.636s-1.406-2.466-1.406-4.126s0.469-3.034,1.406-4.121
		s2.188-1.631,3.75-1.631c1.556,0,2.803,0.543,3.74,1.631s1.406,2.461,1.406,4.121s-0.469,3.036-1.406,4.126
		S389.576,312.114,388.02,312.114z M388.02,310.6c0.97,0,1.742-0.377,2.314-1.133s0.859-1.793,0.859-3.115
		c0-1.315-0.287-2.35-0.859-3.105s-1.344-1.133-2.314-1.133c-0.977,0-1.751,0.377-2.324,1.133s-0.859,1.791-0.859,3.105
		c0,1.322,0.287,2.36,0.859,3.115S387.043,310.6,388.02,310.6z"/>
	<path d="M400.022,312.114c-1.562,0-2.812-0.545-3.75-1.636s-1.406-2.466-1.406-4.126s0.469-3.034,1.406-4.121
		s2.188-1.631,3.75-1.631c1.556,0,2.803,0.543,3.74,1.631s1.406,2.461,1.406,4.121s-0.469,3.036-1.406,4.126
		S401.578,312.114,400.022,312.114z M400.022,310.6c0.97,0,1.742-0.377,2.314-1.133s0.859-1.793,0.859-3.115
		c0-1.315-0.287-2.35-0.859-3.105s-1.344-1.133-2.314-1.133c-0.977,0-1.751,0.377-2.324,1.133s-0.859,1.791-0.859,3.105
		c0,1.322,0.287,2.36,0.859,3.115S399.045,310.6,400.022,310.6z"/>
	<path d="M410.461,311.811v-14.238h-3.262v-1.523h5.078v14.248h3.408v1.514H410.461z"/>
	<path d="M365.652,335.235v-1.924c0.729,0.475,1.5,0.809,2.314,1.001s1.504,0.288,2.07,0.288c0.918,0,1.579-0.148,1.982-0.444
		s0.605-0.666,0.605-1.108c0-0.293-0.094-0.543-0.283-0.752s-0.658-0.465-1.406-0.771l-0.625-0.254l-1.26-0.498
		c-1.354-0.527-2.208-1.014-2.563-1.46s-0.532-0.988-0.532-1.626c0-0.898,0.347-1.637,1.04-2.217s1.818-0.869,3.374-0.869
		c1.166,0,2.269,0.169,3.311,0.508v1.65c-1.198-0.43-2.324-0.645-3.379-0.645c-0.768,0-1.369,0.135-1.802,0.405
		s-0.649,0.607-0.649,1.011c0,0.391,0.187,0.703,0.562,0.938s0.981,0.504,1.821,0.811l1.23,0.449
		c1.126,0.41,1.917,0.856,2.373,1.338s0.684,1.084,0.684,1.807c0,0.944-0.363,1.72-1.089,2.329s-1.886,0.913-3.481,0.913
		C368.555,336.114,367.123,335.821,365.652,335.235z"/>
	<path d="M386.648,335.372c-0.853,0.358-1.471,0.571-1.855,0.64s-0.755,0.103-1.113,0.103c-0.762,0-1.458-0.146-2.09-0.439
		s-1.108-0.726-1.431-1.299s-0.483-1.458-0.483-2.656v-4.395h-2.725v-1.514h2.725v-4.395h1.816v4.395h4.854v1.514h-4.854v4.365
		c0,0.879,0.104,1.499,0.312,1.86s0.487,0.626,0.835,0.796s0.76,0.254,1.235,0.254c0.879,0,1.803-0.277,2.773-0.83V335.372z"/>
	<path d="M396.696,333.36c-0.553,0.912-1.219,1.598-1.997,2.061s-1.493,0.693-2.144,0.693c-0.912,0-1.73-0.394-2.456-1.182
		s-1.089-1.982-1.089-3.584c0-1.263,0.241-2.391,0.723-3.384s1.126-1.777,1.934-2.354s1.807-0.864,2.998-0.864
		c0.345,0,0.866,0.036,1.562,0.107c0.104,0.013,0.26,0.029,0.469,0.049h1.826v7.705c0,1.315,0.137,2.383,0.41,3.203h-1.895
		C396.895,335.212,396.781,334.395,396.696,333.36z M396.696,331.202v-4.678c-0.645-0.169-1.244-0.254-1.797-0.254
		c-1.12,0-2.052,0.433-2.798,1.299s-1.118,2.044-1.118,3.535c0,1.081,0.204,1.896,0.61,2.446s0.871,0.825,1.392,0.825
		c0.566,0,1.191-0.287,1.875-0.859S396.156,332.172,396.696,331.202z"/>
	<path d="M410.652,335.372c-0.853,0.358-1.471,0.571-1.855,0.64s-0.755,0.103-1.113,0.103c-0.762,0-1.458-0.146-2.09-0.439
		s-1.108-0.726-1.431-1.299s-0.483-1.458-0.483-2.656v-4.395h-2.725v-1.514h2.725v-4.395h1.816v4.395h4.854v1.514h-4.854v4.365
		c0,0.879,0.104,1.499,0.312,1.86s0.487,0.626,0.835,0.796s0.76,0.254,1.235,0.254c0.879,0,1.803-0.277,2.773-0.83V335.372z"/>
	<path d="M422.605,335.088c-1.452,0.69-2.826,1.035-4.121,1.035c-0.983,0-1.862-0.244-2.637-0.732s-1.395-1.187-1.86-2.095
		s-0.698-1.88-0.698-2.915c0-0.996,0.221-1.953,0.664-2.871s1.061-1.632,1.855-2.144s1.68-0.767,2.656-0.767
		c1.295,0,2.335,0.462,3.12,1.387s1.177,2.35,1.177,4.277v0.391h-7.52c0,0.755,0.158,1.445,0.474,2.07s0.731,1.094,1.245,1.406
		s1.1,0.469,1.758,0.469c1.172,0,2.467-0.391,3.887-1.172V335.088z M415.349,329.297h5.439v-0.264c0-0.892-0.218-1.602-0.654-2.129
		s-1.019-0.791-1.748-0.791c-0.736,0-1.372,0.269-1.909,0.806S415.564,328.249,415.349,329.297z"/>
</g>
<g>
	<path d="M515.286,223.455v3.316h-1.184v-9.094h2.262c0.93,0,1.607,0.104,2.033,0.313s0.752,0.515,0.979,0.917
		s0.34,0.852,0.34,1.348c0,0.582-0.152,1.125-0.457,1.629s-0.729,0.892-1.274,1.163s-1.284,0.407-2.218,0.407H515.286z
		 M515.286,222.547h0.51c0.73,0,1.273-0.095,1.629-0.284s0.629-0.462,0.82-0.817s0.287-0.74,0.287-1.154
		c0-0.523-0.171-0.938-0.513-1.242s-1.017-0.457-2.024-0.457h-0.709V222.547z"/>
	<path d="M521.01,217.678h1.184v5.971c0,0.785,0.065,1.321,0.196,1.608s0.332,0.506,0.604,0.656s0.573,0.226,0.905,0.226
		c0.352,0,0.665-0.081,0.94-0.243s0.479-0.416,0.609-0.762s0.196-0.995,0.196-1.948v-5.508h1.09v5.936
		c0,0.848-0.126,1.511-0.378,1.989s-0.581,0.839-0.987,1.081s-0.918,0.363-1.535,0.363c-0.57,0-1.072-0.105-1.506-0.316
		s-0.762-0.527-0.984-0.949s-0.334-1.184-0.334-2.285V217.678z"/>
	<path d="M528.481,226.771v-9.094h1.775c1.066,0,1.78,0.081,2.142,0.243s0.632,0.401,0.812,0.718s0.27,0.678,0.27,1.084
		c0,0.32-0.053,0.624-0.158,0.911s-0.262,0.549-0.469,0.785s-0.508,0.46-0.902,0.671c0.723,0.289,1.212,0.645,1.468,1.066
		s0.384,0.844,0.384,1.266c0,0.402-0.108,0.793-0.325,1.172s-0.521,0.67-0.911,0.873s-1.016,0.305-1.875,0.305H528.481z
		 M529.665,221.773h1.242c0.402-0.168,0.696-0.345,0.882-0.53s0.324-0.393,0.416-0.621s0.138-0.479,0.138-0.753
		c0-0.43-0.126-0.75-0.378-0.961s-0.743-0.316-1.474-0.316h-0.826V221.773z M529.665,225.863h1.119c0.625,0,1.087-0.147,1.386-0.442
		s0.448-0.649,0.448-1.063c0-0.305-0.082-0.585-0.246-0.841s-0.418-0.459-0.762-0.609s-0.883-0.226-1.617-0.226h-0.328V225.863z"/>
	<path d="M540.868,225.77v1.002h-4.91v-9.094h1.184v8.092H540.868z"/>
	<path d="M542.883,226.771v-0.908h1.998v-7.271h-1.998v-0.914h5.18v0.914h-1.998v7.271h1.998v0.908H542.883z"/>
	<path d="M549.997,226.578v-1.113c0.938,0.445,1.789,0.668,2.555,0.668c0.32,0,0.627-0.062,0.92-0.185s0.515-0.3,0.665-0.53
		s0.226-0.48,0.226-0.75c0-0.316-0.104-0.612-0.311-0.888s-0.596-0.579-1.166-0.911l-0.598-0.346l-0.604-0.346
		c-1.062-0.629-1.594-1.41-1.594-2.344c0-0.684,0.237-1.259,0.712-1.726s1.216-0.7,2.224-0.7c0.648,0,1.275,0.094,1.881,0.281v1.014
		c-0.668-0.258-1.318-0.387-1.951-0.387c-0.504,0-0.911,0.133-1.222,0.398s-0.466,0.586-0.466,0.961c0,0.371,0.119,0.68,0.357,0.926
		s0.543,0.473,0.914,0.68l0.457,0.275l0.568,0.346l0.48,0.281c0.996,0.609,1.494,1.375,1.494,2.297c0,0.703-0.256,1.307-0.768,1.811
		s-1.332,0.756-2.461,0.756c-0.359,0-0.702-0.03-1.028-0.091S550.529,226.77,549.997,226.578z"/>
	<path d="M557.017,226.771v-9.094h1.184v3.914h3.363v-3.914h1.178v9.094h-1.178V222.5H558.2v4.271H557.017z"/>
	<path d="M577.097,226.584c-0.73,0.246-1.426,0.369-2.086,0.369c-0.656,0-1.239-0.151-1.749-0.454s-0.907-0.713-1.192-1.23
		s-0.428-1.106-0.428-1.767c0-0.992,0.323-1.816,0.97-2.473s1.427-0.984,2.341-0.984c0.676,0,1.391,0.127,2.145,0.381v1.049
		c-0.762-0.348-1.443-0.521-2.045-0.521c-0.398,0-0.773,0.099-1.125,0.296s-0.623,0.505-0.814,0.923s-0.287,0.848-0.287,1.289
		c0,0.59,0.185,1.152,0.554,1.688s0.948,0.803,1.737,0.803c0.238,0,0.473-0.017,0.703-0.05s0.656-0.155,1.277-0.366V226.584z"/>
	<path d="M581.486,226.953c-0.938,0-1.688-0.327-2.25-0.981s-0.844-1.479-0.844-2.476s0.281-1.82,0.844-2.473
		s1.312-0.979,2.25-0.979c0.934,0,1.682,0.326,2.244,0.979s0.844,1.477,0.844,2.473s-0.281,1.821-0.844,2.476
		S582.419,226.953,581.486,226.953z M581.486,226.045c0.582,0,1.045-0.227,1.389-0.68s0.516-1.076,0.516-1.869
		c0-0.789-0.172-1.41-0.516-1.863s-0.807-0.68-1.389-0.68c-0.586,0-1.051,0.227-1.395,0.68s-0.516,1.074-0.516,1.863
		c0,0.793,0.172,1.416,0.516,1.869S580.9,226.045,581.486,226.045z"/>
	<path d="M585.991,226.771v-6.545h1.09v1.43c0.312-0.504,0.689-0.898,1.131-1.184s0.883-0.428,1.324-0.428
		c0.387,0,0.738,0.103,1.055,0.308s0.538,0.474,0.665,0.806s0.19,0.984,0.19,1.957v3.656h-1.09v-3.791
		c0-0.629-0.03-1.044-0.091-1.245s-0.172-0.366-0.334-0.495s-0.339-0.193-0.53-0.193c-0.383,0-0.794,0.182-1.233,0.545
		s-0.802,0.818-1.087,1.365v3.814H585.991z"/>
	<path d="M594.716,226.771v-5.092h-1.453v-0.908h1.453v-0.305c0-0.863,0.098-1.502,0.293-1.916s0.497-0.754,0.905-1.02
		s0.948-0.398,1.62-0.398c0.508,0,1.023,0.053,1.547,0.158v1.037c-0.566-0.188-1.068-0.281-1.506-0.281
		c-0.348,0-0.654,0.064-0.92,0.193s-0.474,0.339-0.624,0.63s-0.226,0.784-0.226,1.479v0.422h2.596v0.908h-2.596v5.092H594.716z"/>
	<path d="M602.228,226.771v-5.637h-1.816v-0.908h2.906v5.637h1.822v0.908H602.228z M602.046,217.865c0-0.246,0.084-0.43,0.252-0.551
		s0.326-0.182,0.475-0.182c0.152,0,0.312,0.061,0.48,0.182s0.252,0.305,0.252,0.551c0,0.242-0.084,0.424-0.252,0.545
		s-0.328,0.182-0.48,0.182c-0.148,0-0.307-0.061-0.475-0.182S602.046,218.107,602.046,217.865z"/>
	<path d="M611.966,225.301c-0.332,0.547-0.731,0.959-1.198,1.236s-0.896,0.416-1.286,0.416c-0.547,0-1.038-0.236-1.474-0.709
		s-0.653-1.189-0.653-2.15c0-0.758,0.145-1.435,0.434-2.03s0.676-1.066,1.16-1.412s1.084-0.519,1.799-0.519
		c0.207,0,0.52,0.021,0.938,0.064c0.062,0.008,0.156,0.018,0.281,0.029h1.096v4.629c0,1.102-0.015,1.774-0.044,2.019
		s-0.077,0.491-0.144,0.741c-0.156,0.582-0.513,1.041-1.069,1.377s-1.229,0.504-2.019,0.504c-0.793,0-1.596-0.203-2.408-0.609
		v-1.102c0.309,0.211,0.688,0.397,1.14,0.56s0.888,0.243,1.31,0.243c0.332,0,0.646-0.053,0.943-0.158s0.537-0.258,0.721-0.457
		s0.309-0.431,0.375-0.694s0.1-0.614,0.1-1.052V225.301z M611.966,224.006v-2.807c-0.387-0.102-0.746-0.152-1.078-0.152
		c-0.672,0-1.231,0.26-1.679,0.779s-0.671,1.227-0.671,2.121c0,0.648,0.122,1.138,0.366,1.468s0.522,0.495,0.835,0.495
		c0.34,0,0.715-0.172,1.125-0.516S611.642,224.588,611.966,224.006z"/>
	<path d="M513.991,240.978v-1.113c0.938,0.445,1.789,0.668,2.555,0.668c0.32,0,0.627-0.062,0.92-0.185s0.515-0.3,0.665-0.53
		s0.226-0.48,0.226-0.75c0-0.316-0.104-0.612-0.311-0.888s-0.596-0.579-1.166-0.911l-0.598-0.346l-0.604-0.346
		c-1.062-0.629-1.594-1.41-1.594-2.344c0-0.684,0.237-1.259,0.712-1.726s1.216-0.7,2.224-0.7c0.648,0,1.275,0.094,1.881,0.281v1.014
		c-0.668-0.258-1.318-0.387-1.951-0.387c-0.504,0-0.911,0.133-1.222,0.398s-0.466,0.586-0.466,0.961c0,0.371,0.119,0.68,0.357,0.926
		s0.543,0.473,0.914,0.68l0.457,0.275l0.568,0.346l0.48,0.281c0.996,0.609,1.494,1.375,1.494,2.297c0,0.703-0.256,1.307-0.768,1.811
		s-1.332,0.756-2.461,0.756c-0.359,0-0.702-0.03-1.028-0.091S514.522,241.169,513.991,240.978z"/>
	<path d="M521.01,232.078h1.184v5.971c0,0.785,0.065,1.321,0.196,1.608s0.332,0.506,0.604,0.656s0.573,0.226,0.905,0.226
		c0.352,0,0.665-0.081,0.94-0.243s0.479-0.416,0.609-0.762s0.196-0.995,0.196-1.948v-5.508h1.09v5.936
		c0,0.848-0.126,1.511-0.378,1.989s-0.581,0.839-0.987,1.081s-0.918,0.363-1.535,0.363c-0.57,0-1.072-0.105-1.506-0.316
		s-0.762-0.527-0.984-0.949s-0.334-1.184-0.334-2.285V232.078z"/>
	<path d="M528.481,241.171v-9.094h1.775c1.066,0,1.78,0.081,2.142,0.243s0.632,0.401,0.812,0.718s0.27,0.678,0.27,1.084
		c0,0.32-0.053,0.624-0.158,0.911s-0.262,0.549-0.469,0.785s-0.508,0.46-0.902,0.671c0.723,0.289,1.212,0.645,1.468,1.066
		s0.384,0.844,0.384,1.266c0,0.402-0.108,0.793-0.325,1.172s-0.521,0.67-0.911,0.873s-1.016,0.305-1.875,0.305H528.481z
		 M529.665,236.173h1.242c0.402-0.168,0.696-0.345,0.882-0.53s0.324-0.393,0.416-0.621s0.138-0.479,0.138-0.753
		c0-0.43-0.126-0.75-0.378-0.961s-0.743-0.316-1.474-0.316h-0.826V236.173z M529.665,240.263h1.119c0.625,0,1.087-0.147,1.386-0.442
		s0.448-0.649,0.448-1.063c0-0.305-0.082-0.585-0.246-0.841s-0.418-0.459-0.762-0.609s-0.883-0.226-1.617-0.226h-0.328V240.263z"/>
	<path d="M535.594,240.978v-1.113c0.938,0.445,1.789,0.668,2.555,0.668c0.32,0,0.627-0.062,0.92-0.185s0.515-0.3,0.665-0.53
		s0.226-0.48,0.226-0.75c0-0.316-0.104-0.612-0.311-0.888s-0.596-0.579-1.166-0.911l-0.598-0.346l-0.604-0.346
		c-1.062-0.629-1.594-1.41-1.594-2.344c0-0.684,0.237-1.259,0.712-1.726s1.216-0.7,2.224-0.7c0.648,0,1.275,0.094,1.881,0.281v1.014
		c-0.668-0.258-1.318-0.387-1.951-0.387c-0.504,0-0.911,0.133-1.222,0.398s-0.466,0.586-0.466,0.961c0,0.371,0.119,0.68,0.357,0.926
		s0.543,0.473,0.914,0.68l0.457,0.275l0.568,0.346l0.48,0.281c0.996,0.609,1.494,1.375,1.494,2.297c0,0.703-0.256,1.307-0.768,1.811
		s-1.332,0.756-2.461,0.756c-0.359,0-0.702-0.03-1.028-0.091S536.126,241.169,535.594,240.978z"/>
	<path d="M548.251,241.066c-0.68,0.254-1.289,0.381-1.828,0.381c-0.711,0-1.365-0.19-1.963-0.571s-1.062-0.947-1.395-1.699
		s-0.498-1.603-0.498-2.552c0-0.941,0.164-1.787,0.492-2.537s0.791-1.318,1.389-1.705s1.256-0.58,1.975-0.58
		c0.539,0,1.148,0.127,1.828,0.381v1.078c-0.629-0.363-1.254-0.545-1.875-0.545c-0.469,0-0.897,0.16-1.286,0.48
		s-0.702,0.79-0.94,1.409s-0.357,1.292-0.357,2.019c0,0.738,0.123,1.42,0.369,2.045s0.561,1.093,0.943,1.403
		s0.807,0.466,1.271,0.466c0.617,0,1.242-0.182,1.875-0.545V241.066z"/>
	<path d="M551.134,237.31v3.861h-1.184v-9.094h2.432c0.793,0,1.377,0.081,1.752,0.243s0.665,0.407,0.87,0.735
		s0.308,0.682,0.308,1.061c0,0.352-0.068,0.705-0.205,1.061s-0.325,0.673-0.565,0.952s-0.587,0.544-1.04,0.794l2.631,4.248h-1.406
		l-2.408-3.861H551.134z M551.134,236.396h1.658c0.371-0.203,0.647-0.41,0.829-0.621s0.319-0.436,0.413-0.674
		s0.141-0.477,0.141-0.715c0-0.426-0.155-0.765-0.466-1.017s-0.874-0.378-1.69-0.378h-0.885V236.396z"/>
	<path d="M557.286,241.171v-0.908h1.998v-7.271h-1.998v-0.914h5.18v0.914h-1.998v7.271h1.998v0.908H557.286z"/>
	<path d="M564.487,241.171v-9.094h1.775c1.066,0,1.78,0.081,2.142,0.243s0.632,0.401,0.812,0.718s0.27,0.678,0.27,1.084
		c0,0.32-0.053,0.624-0.158,0.911s-0.262,0.549-0.469,0.785s-0.508,0.46-0.902,0.671c0.723,0.289,1.212,0.645,1.468,1.066
		s0.384,0.844,0.384,1.266c0,0.402-0.108,0.793-0.325,1.172s-0.521,0.67-0.911,0.873s-1.016,0.305-1.875,0.305H564.487z
		 M565.671,236.173h1.242c0.402-0.168,0.696-0.345,0.882-0.53s0.324-0.393,0.416-0.621s0.138-0.479,0.138-0.753
		c0-0.43-0.126-0.75-0.378-0.961s-0.743-0.316-1.474-0.316h-0.826V236.173z M565.671,240.263h1.119c0.625,0,1.087-0.147,1.386-0.442
		s0.448-0.649,0.448-1.063c0-0.305-0.082-0.585-0.246-0.841s-0.418-0.459-0.762-0.609s-0.883-0.226-1.617-0.226h-0.328V240.263z"/>
	<path d="M576.78,240.169v1.002h-4.91v-9.094h4.816v0.914h-3.633v3.088h3.27v0.908h-3.27v3.182H576.78z"/>
	<path d="M586.068,240.826v-1.154c0.438,0.285,0.9,0.485,1.389,0.601s0.902,0.173,1.242,0.173c0.551,0,0.947-0.089,1.189-0.267
		s0.363-0.399,0.363-0.665c0-0.176-0.057-0.326-0.17-0.451s-0.395-0.279-0.844-0.463l-0.375-0.152l-0.756-0.299
		c-0.812-0.316-1.325-0.608-1.538-0.876s-0.319-0.593-0.319-0.976c0-0.539,0.208-0.982,0.624-1.33s1.091-0.521,2.024-0.521
		c0.699,0,1.361,0.102,1.986,0.305v0.99c-0.719-0.258-1.395-0.387-2.027-0.387c-0.461,0-0.821,0.081-1.081,0.243
		s-0.39,0.364-0.39,0.606c0,0.234,0.112,0.422,0.337,0.562s0.589,0.303,1.093,0.486l0.738,0.27c0.676,0.246,1.15,0.514,1.424,0.803
		s0.41,0.65,0.41,1.084c0,0.566-0.218,1.032-0.653,1.397s-1.132,0.548-2.089,0.548C587.81,241.353,586.95,241.177,586.068,240.826z"
		/>
	<path d="M598.636,240.738c-0.871,0.414-1.695,0.621-2.473,0.621c-0.59,0-1.117-0.146-1.582-0.439s-0.837-0.712-1.116-1.257
		s-0.419-1.128-0.419-1.749c0-0.598,0.133-1.172,0.398-1.723s0.637-0.979,1.113-1.286s1.008-0.46,1.594-0.46
		c0.777,0,1.401,0.277,1.872,0.832s0.706,1.41,0.706,2.566v0.234h-4.512c0,0.453,0.095,0.867,0.284,1.242s0.438,0.656,0.747,0.844
		s0.66,0.281,1.055,0.281c0.703,0,1.48-0.234,2.332-0.703V240.738z M594.282,237.263h3.264v-0.158c0-0.535-0.131-0.961-0.393-1.277
		s-0.611-0.475-1.049-0.475c-0.441,0-0.823,0.161-1.146,0.483S594.411,236.634,594.282,237.263z"/>
	<path d="M605.866,240.908c-0.512,0.215-0.883,0.343-1.113,0.384s-0.453,0.062-0.668,0.062c-0.457,0-0.875-0.088-1.254-0.264
		s-0.665-0.436-0.858-0.779s-0.29-0.875-0.29-1.594v-2.637h-1.635v-0.908h1.635v-2.637h1.09v2.637h2.912v0.908h-2.912v2.619
		c0,0.527,0.062,0.899,0.188,1.116s0.292,0.376,0.501,0.478s0.456,0.152,0.741,0.152c0.527,0,1.082-0.166,1.664-0.498V240.908z"/>
</g>
<g>
	<path d="M484.105,441.723v3.316h-1.184v-9.094h2.262c0.93,0,1.607,0.104,2.033,0.313s0.752,0.515,0.979,0.917
		s0.34,0.852,0.34,1.348c0,0.582-0.152,1.125-0.457,1.629s-0.729,0.892-1.274,1.163s-1.284,0.407-2.218,0.407H484.105z
		 M484.105,440.815h0.51c0.73,0,1.273-0.095,1.629-0.284s0.629-0.462,0.82-0.817s0.287-0.74,0.287-1.154
		c0-0.523-0.171-0.938-0.513-1.242s-1.017-0.457-2.024-0.457h-0.709V440.815z"/>
	<path d="M489.829,435.946h1.184v5.971c0,0.785,0.065,1.321,0.196,1.608s0.332,0.506,0.604,0.656s0.573,0.226,0.905,0.226
		c0.352,0,0.665-0.081,0.94-0.243s0.479-0.416,0.609-0.762s0.196-0.995,0.196-1.948v-5.508h1.09v5.936
		c0,0.848-0.126,1.511-0.378,1.989s-0.581,0.839-0.987,1.081s-0.918,0.363-1.535,0.363c-0.57,0-1.072-0.105-1.506-0.316
		s-0.762-0.527-0.984-0.949s-0.334-1.184-0.334-2.285V435.946z"/>
	<path d="M497.3,445.04v-9.094h1.775c1.066,0,1.78,0.081,2.142,0.243s0.632,0.401,0.812,0.718s0.27,0.678,0.27,1.084
		c0,0.32-0.053,0.624-0.158,0.911s-0.262,0.549-0.469,0.785s-0.508,0.46-0.902,0.671c0.723,0.289,1.212,0.645,1.468,1.066
		s0.384,0.844,0.384,1.266c0,0.402-0.108,0.793-0.325,1.172s-0.521,0.67-0.911,0.873s-1.016,0.305-1.875,0.305H497.3z
		 M498.484,440.042h1.242c0.402-0.168,0.696-0.345,0.882-0.53s0.324-0.393,0.416-0.621s0.138-0.479,0.138-0.753
		c0-0.43-0.126-0.75-0.378-0.961s-0.743-0.316-1.474-0.316h-0.826V440.042z M498.484,444.131h1.119c0.625,0,1.087-0.147,1.386-0.442
		s0.448-0.649,0.448-1.063c0-0.305-0.082-0.585-0.246-0.841s-0.418-0.459-0.762-0.609s-0.883-0.226-1.617-0.226h-0.328V444.131z"/>
	<path d="M509.687,444.038v1.002h-4.91v-9.094h1.184v8.092H509.687z"/>
	<path d="M511.702,445.04v-0.908h1.998v-7.271h-1.998v-0.914h5.18v0.914h-1.998v7.271h1.998v0.908H511.702z"/>
	<path d="M518.816,444.846v-1.113c0.938,0.445,1.789,0.668,2.555,0.668c0.32,0,0.627-0.062,0.92-0.185s0.515-0.3,0.665-0.53
		s0.226-0.48,0.226-0.75c0-0.316-0.104-0.612-0.311-0.888s-0.596-0.579-1.166-0.911l-0.598-0.346l-0.604-0.346
		c-1.062-0.629-1.594-1.41-1.594-2.344c0-0.684,0.237-1.259,0.712-1.726s1.216-0.7,2.224-0.7c0.648,0,1.275,0.094,1.881,0.281v1.014
		c-0.668-0.258-1.318-0.387-1.951-0.387c-0.504,0-0.911,0.133-1.222,0.398s-0.466,0.586-0.466,0.961c0,0.371,0.119,0.68,0.357,0.926
		s0.543,0.473,0.914,0.68l0.457,0.275l0.568,0.346l0.48,0.281c0.996,0.609,1.494,1.375,1.494,2.297c0,0.703-0.256,1.307-0.768,1.811
		s-1.332,0.756-2.461,0.756c-0.359,0-0.702-0.03-1.028-0.091S519.347,445.038,518.816,444.846z"/>
	<path d="M525.835,445.04v-9.094h1.184v3.914h3.363v-3.914h1.178v9.094h-1.178v-4.271h-3.363v4.271H525.835z"/>
	<path d="M540.484,444.694v-1.154c0.438,0.285,0.9,0.485,1.389,0.601s0.902,0.173,1.242,0.173c0.551,0,0.947-0.089,1.189-0.267
		s0.363-0.399,0.363-0.665c0-0.176-0.057-0.326-0.17-0.451s-0.395-0.279-0.844-0.463l-0.375-0.152l-0.756-0.299
		c-0.812-0.316-1.325-0.608-1.538-0.876s-0.319-0.593-0.319-0.976c0-0.539,0.208-0.982,0.624-1.33s1.091-0.521,2.024-0.521
		c0.699,0,1.361,0.102,1.986,0.305v0.99c-0.719-0.258-1.395-0.387-2.027-0.387c-0.461,0-0.821,0.081-1.081,0.243
		s-0.39,0.364-0.39,0.606c0,0.234,0.112,0.422,0.337,0.562s0.589,0.303,1.093,0.486l0.738,0.27c0.676,0.246,1.15,0.514,1.424,0.803
		s0.41,0.65,0.41,1.084c0,0.566-0.218,1.032-0.653,1.397s-1.132,0.548-2.089,0.548C542.226,445.221,541.366,445.045,540.484,444.694
		z"/>
	<path d="M553.081,444.776c-0.512,0.215-0.883,0.343-1.113,0.384s-0.453,0.062-0.668,0.062c-0.457,0-0.875-0.088-1.254-0.264
		s-0.665-0.436-0.858-0.779s-0.29-0.875-0.29-1.594v-2.637h-1.635v-0.908h1.635v-2.637h1.09v2.637h2.912v0.908h-2.912v2.619
		c0,0.527,0.062,0.899,0.188,1.116s0.292,0.376,0.501,0.478s0.456,0.152,0.741,0.152c0.527,0,1.082-0.166,1.664-0.498V444.776z"/>
	<path d="M559.111,443.569c-0.332,0.547-0.731,0.959-1.198,1.236s-0.896,0.416-1.286,0.416c-0.547,0-1.038-0.236-1.474-0.709
		s-0.653-1.189-0.653-2.15c0-0.758,0.145-1.435,0.434-2.03s0.676-1.066,1.16-1.412s1.084-0.519,1.799-0.519
		c0.207,0,0.52,0.021,0.938,0.064c0.062,0.008,0.156,0.018,0.281,0.029h1.096v4.623c0,0.789,0.082,1.43,0.246,1.922h-1.137
		C559.23,444.68,559.161,444.19,559.111,443.569z M559.111,442.274v-2.807c-0.387-0.102-0.746-0.152-1.078-0.152
		c-0.672,0-1.231,0.26-1.679,0.779s-0.671,1.227-0.671,2.121c0,0.648,0.122,1.138,0.366,1.468s0.522,0.495,0.835,0.495
		c0.34,0,0.715-0.172,1.125-0.516S558.786,442.856,559.111,442.274z"/>
	<path d="M567.484,444.776c-0.512,0.215-0.883,0.343-1.113,0.384s-0.453,0.062-0.668,0.062c-0.457,0-0.875-0.088-1.254-0.264
		s-0.665-0.436-0.858-0.779s-0.29-0.875-0.29-1.594v-2.637h-1.635v-0.908h1.635v-2.637h1.09v2.637h2.912v0.908h-2.912v2.619
		c0,0.527,0.062,0.899,0.188,1.116s0.292,0.376,0.501,0.478s0.456,0.152,0.741,0.152c0.527,0,1.082-0.166,1.664-0.498V444.776z"/>
	<path d="M574.655,444.606c-0.871,0.414-1.695,0.621-2.473,0.621c-0.59,0-1.117-0.146-1.582-0.439s-0.837-0.712-1.116-1.257
		s-0.419-1.128-0.419-1.749c0-0.598,0.133-1.172,0.398-1.723s0.637-0.979,1.113-1.286s1.008-0.46,1.594-0.46
		c0.777,0,1.401,0.277,1.872,0.832s0.706,1.41,0.706,2.566v0.234h-4.512c0,0.453,0.095,0.867,0.284,1.242s0.438,0.656,0.747,0.844
		s0.66,0.281,1.055,0.281c0.703,0,1.48-0.234,2.332-0.703V444.606z M570.302,441.131h3.264v-0.158c0-0.535-0.131-0.961-0.393-1.277
		s-0.611-0.475-1.049-0.475c-0.441,0-0.823,0.161-1.146,0.483S570.431,440.502,570.302,441.131z"/>
</g>
<g>
	<path d="M284.384,192.563v-1.113c0.938,0.445,1.789,0.668,2.555,0.668c0.32,0,0.627-0.062,0.92-0.185s0.515-0.3,0.665-0.53
		s0.226-0.48,0.226-0.75c0-0.316-0.104-0.612-0.311-0.888s-0.596-0.579-1.166-0.911l-0.598-0.346l-0.604-0.346
		c-1.062-0.629-1.594-1.41-1.594-2.344c0-0.684,0.237-1.259,0.712-1.726s1.216-0.7,2.224-0.7c0.648,0,1.275,0.094,1.881,0.281v1.014
		c-0.668-0.258-1.318-0.387-1.951-0.387c-0.504,0-0.911,0.133-1.222,0.398s-0.466,0.586-0.466,0.961c0,0.371,0.119,0.68,0.357,0.926
		s0.543,0.473,0.914,0.68l0.457,0.275l0.568,0.346l0.48,0.281c0.996,0.609,1.494,1.375,1.494,2.297c0,0.703-0.256,1.307-0.768,1.811
		s-1.332,0.756-2.461,0.756c-0.359,0-0.702-0.03-1.028-0.091S284.916,192.754,284.384,192.563z"/>
	<path d="M296.765,191.754v1.002h-4.91v-9.094h4.816v0.914h-3.633v3.088h3.27v0.908h-3.27v3.182H296.765z"/>
	<path d="M300.873,192.756v-8.092h-2.725v-1.002h6.639v1.002h-2.73v8.092H300.873z"/>
</g>
<g>
	<path d="M233.361,371.146v-1.113c0.938,0.445,1.789,0.668,2.555,0.668c0.32,0,0.627-0.062,0.92-0.185s0.515-0.3,0.665-0.53
		s0.226-0.48,0.226-0.75c0-0.316-0.104-0.612-0.311-0.888s-0.596-0.579-1.166-0.911l-0.598-0.346l-0.604-0.346
		c-1.062-0.629-1.594-1.41-1.594-2.344c0-0.684,0.237-1.259,0.712-1.726s1.216-0.7,2.224-0.7c0.648,0,1.275,0.094,1.881,0.281v1.014
		c-0.668-0.258-1.318-0.387-1.951-0.387c-0.504,0-0.911,0.133-1.222,0.398s-0.466,0.586-0.466,0.961c0,0.371,0.119,0.68,0.357,0.926
		s0.543,0.473,0.914,0.68l0.457,0.275l0.568,0.346l0.48,0.281c0.996,0.609,1.494,1.375,1.494,2.297c0,0.703-0.256,1.307-0.768,1.811
		s-1.332,0.756-2.461,0.756c-0.359,0-0.702-0.03-1.028-0.091S233.892,371.337,233.361,371.146z"/>
	<path d="M245.742,370.337v1.002h-4.91v-9.094h4.816v0.914h-3.633v3.088h3.27v0.908h-3.27v3.182H245.742z"/>
	<path d="M249.849,371.339v-8.092h-2.725v-1.002h6.639v1.002h-2.73v8.092H249.849z"/>
</g>
<g>
</g>
</svg>
