<?xml version="1.0" encoding="utf-8"?>
<!-- Generator: Adobe Illustrator 26.1.0, SVG Export Plug-In . SVG Version: 6.00 Build 0)  -->
<svg version="1.1" id="drawing" xmlns="http://www.w3.org/2000/svg" xmlns:xlink="http://www.w3.org/1999/xlink" x="0px" y="0px"
	 viewBox="0 0 425.197 422.362" enable-background="new 0 0 425.197 422.362" xml:space="preserve">
<path opacity="0.05" fill="#0197B1" stroke="#000000" stroke-width="2.6479" stroke-linecap="round" stroke-miterlimit="10" d="
	M378.202,337.323H47.579c-16.493,0-29.987-13.494-29.987-29.987V86.68c0-16.493,13.494-29.987,29.987-29.987h330.623
	c16.493,0,29.987,13.494,29.987,29.987v220.656C408.189,323.829,394.695,337.323,378.202,337.323z"/>
<path fill="none" stroke="#000000" stroke-width="2.6479" stroke-linecap="round" stroke-miterlimit="10" d="M378.202,337.323
	H47.579c-16.493,0-29.987-13.494-29.987-29.987V86.68c0-16.493,13.494-29.987,29.987-29.987h330.623
	c16.493,0,29.987,13.494,29.987,29.987v220.656C408.189,323.829,394.695,337.323,378.202,337.323z"/>
<g>
	<path d="M44.595,24.462c1.008-1.641,2.209-2.877,3.604-3.709s2.678-1.248,3.85-1.248c1.641,0,3.117,0.709,4.43,2.127
		s1.969,3.568,1.969,6.451c0,2.273-0.437,4.304-1.31,6.091s-2.036,3.199-3.489,4.236s-3.252,1.556-5.396,1.556
		c-0.609,0-1.547-0.064-2.812-0.193c-0.188-0.023-0.469-0.053-0.844-0.088v7.629h-3.27V20.05h3.27V24.462z M44.595,28.347v8.42
		c1.184,0.305,2.273,0.457,3.27,0.457c1.98,0,3.647-0.776,5.001-2.329s2.03-3.677,2.03-6.372c0-1.957-0.369-3.428-1.107-4.412
		s-1.576-1.477-2.514-1.477c-1.02,0-2.142,0.516-3.366,1.547S45.579,26.601,44.595,28.347z"/>
	<path d="M71.261,40.23c-2.812,0-5.062-0.981-6.75-2.944c-1.688-1.963-2.531-4.438-2.531-7.427s0.844-5.461,2.531-7.418
		c1.688-1.957,3.938-2.936,6.75-2.936c2.801,0,5.045,0.979,6.732,2.936s2.531,4.43,2.531,7.418s-0.844,5.464-2.531,7.427
		S74.062,40.23,71.261,40.23z M71.261,37.505c1.746,0,3.135-0.68,4.166-2.039s1.547-3.229,1.547-5.607
		c0-2.367-0.516-4.23-1.547-5.59s-2.42-2.039-4.166-2.039c-1.758,0-3.152,0.68-4.184,2.039s-1.547,3.223-1.547,5.59
		c0,2.379,0.516,4.248,1.547,5.607S69.503,37.505,71.261,37.505z"/>
	<path d="M92.865,40.23c-2.812,0-5.062-0.981-6.75-2.944s-2.531-4.438-2.531-7.427s0.844-5.461,2.531-7.418s3.938-2.936,6.75-2.936
		c2.801,0,5.045,0.979,6.732,2.936s2.531,4.43,2.531,7.418s-0.844,5.464-2.531,7.427S95.665,40.23,92.865,40.23z M92.865,37.505
		c1.746,0,3.135-0.68,4.166-2.039s1.547-3.229,1.547-5.607c0-2.367-0.516-4.23-1.547-5.59s-2.42-2.039-4.166-2.039
		c-1.758,0-3.152,0.68-4.184,2.039s-1.547,3.223-1.547,5.59c0,2.379,0.516,4.248,1.547,5.607S91.107,37.505,92.865,37.505z"/>
	<path d="M111.656,39.685V14.056h-5.871v-2.742h9.141V36.96h6.135v2.725H111.656z"/>
	<path d="M166.007,38.894c-1.535,0.645-2.648,1.028-3.34,1.151s-1.359,0.185-2.004,0.185c-1.371,0-2.625-0.264-3.762-0.791
		s-1.995-1.307-2.575-2.338s-0.87-2.625-0.87-4.781v-7.91h-4.904v-2.725h4.904v-7.91h3.27v7.91h8.736v2.725h-8.736v7.857
		c0,1.582,0.188,2.698,0.562,3.349s0.876,1.128,1.503,1.433s1.368,0.457,2.224,0.457c1.582,0,3.246-0.498,4.992-1.494V38.894z"/>
	<path d="M184.095,35.273c-0.996,1.641-2.194,2.877-3.595,3.709s-2.687,1.248-3.858,1.248c-1.641,0-3.114-0.709-4.421-2.127
		s-1.96-3.568-1.96-6.451c0-2.273,0.434-4.304,1.301-6.091s2.027-3.199,3.48-4.236s3.252-1.556,5.396-1.556
		c0.621,0,1.559,0.064,2.812,0.193c0.188,0.023,0.469,0.053,0.844,0.088h3.287v13.869c0,2.367,0.246,4.289,0.738,5.766h-3.41
		C184.452,38.607,184.247,37.136,184.095,35.273z M184.095,31.388v-8.42c-1.16-0.305-2.238-0.457-3.234-0.457
		c-2.016,0-3.694,0.779-5.036,2.338s-2.013,3.68-2.013,6.363c0,1.945,0.366,3.413,1.099,4.403s1.567,1.485,2.505,1.485
		c1.02,0,2.145-0.516,3.375-1.547S183.122,33.134,184.095,31.388z"/>
	<path d="M193.025,38.648v-3.463c1.312,0.855,2.701,1.456,4.166,1.802s2.707,0.519,3.727,0.519c1.652,0,2.842-0.267,3.568-0.8
		s1.09-1.198,1.09-1.995c0-0.527-0.17-0.979-0.51-1.354s-1.184-0.838-2.531-1.389l-1.125-0.457l-2.268-0.896
		c-2.438-0.949-3.976-1.825-4.614-2.628s-0.958-1.778-0.958-2.927c0-1.617,0.624-2.947,1.872-3.99s3.272-1.564,6.073-1.564
		c2.098,0,4.084,0.305,5.959,0.914v2.971c-2.156-0.773-4.184-1.16-6.082-1.16c-1.383,0-2.464,0.243-3.243,0.729
		s-1.169,1.093-1.169,1.819c0,0.703,0.337,1.266,1.011,1.688s1.767,0.908,3.278,1.459l2.215,0.809
		c2.027,0.738,3.451,1.541,4.271,2.408s1.23,1.951,1.23,3.252c0,1.699-0.653,3.097-1.96,4.192s-3.396,1.644-6.267,1.644
		C198.251,40.23,195.673,39.703,193.025,38.648z"/>
	<path d="M215.279,39.685V11.314h3.27v17.824l9.439-9.088h4.359l-9.422,9.088l9.668,10.547h-4.5l-9.545-10.547v10.547H215.279z"/>
</g>
<line fill="none" stroke="#000000" stroke-linecap="round" stroke-miterlimit="10" x1="206.929" y1="354.331" x2="206.929" y2="308.976"/>
<line fill="none" stroke="#000000" stroke-linecap="round" stroke-miterlimit="10" x1="218.268" y1="354.331" x2="218.268" y2="308.976"/>
<path fill="none" stroke="#B2B2B2" stroke-linecap="round" stroke-miterlimit="10" d="M218.268,365.669
	c0-5.669-11.339-5.669-11.339-11.339"/>
<path fill="none" stroke="#000000" stroke-linecap="round" stroke-miterlimit="10" d="M218.268,354.331
	c0,5.669-11.339,5.669-11.339,11.339"/>
<path fill="none" stroke="#000000" stroke-linecap="round" stroke-miterlimit="10" d="M218.268,377.008
	c0-5.669-11.339-5.669-11.339-11.339"/>
<path fill="none" stroke="#B2B2B2" stroke-linecap="round" stroke-miterlimit="10" d="M218.268,365.669
	c0,5.669-11.339,5.669-11.339,11.339"/>
<path fill="none" stroke="#000000" stroke-linecap="round" stroke-miterlimit="10" d="M218.268,388.346
	c0-5.669-11.339-5.669-11.339-11.339"/>
<path fill="none" stroke="#B2B2B2" stroke-linecap="round" stroke-miterlimit="10" d="M218.268,377.008
	c0,5.669-11.339,5.669-11.339,11.339"/>
<path fill="none" stroke="#B2B2B2" stroke-linecap="round" stroke-miterlimit="10" d="M218.268,399.685
	c0-5.669-11.339-5.669-11.339-11.339"/>
<path fill="none" stroke="#000000" stroke-linecap="round" stroke-miterlimit="10" d="M218.268,388.346
	c0,5.669-11.339,5.669-11.339,11.339"/>
<g>
	<path d="M195.886,412.832v3.861h-1.184v-9.094h2.432c0.793,0,1.377,0.081,1.752,0.243s0.665,0.407,0.87,0.735
		s0.308,0.682,0.308,1.061c0,0.352-0.068,0.705-0.205,1.061s-0.325,0.673-0.565,0.952s-0.587,0.544-1.04,0.794l2.631,4.248h-1.406
		l-2.408-3.861H195.886z M195.886,411.918h1.658c0.371-0.203,0.647-0.41,0.829-0.621s0.319-0.436,0.413-0.674
		s0.141-0.477,0.141-0.715c0-0.426-0.155-0.765-0.466-1.017s-0.874-0.378-1.69-0.378h-0.885V411.918z"/>
	<path d="M201.951,416.5v-1.113c0.938,0.445,1.789,0.668,2.555,0.668c0.32,0,0.627-0.062,0.92-0.185s0.515-0.3,0.665-0.53
		s0.226-0.48,0.226-0.75c0-0.316-0.104-0.612-0.311-0.888s-0.596-0.579-1.166-0.911l-0.598-0.346l-0.604-0.346
		c-1.062-0.629-1.594-1.41-1.594-2.344c0-0.684,0.237-1.259,0.712-1.726s1.216-0.7,2.224-0.7c0.648,0,1.275,0.094,1.881,0.281v1.014
		c-0.668-0.258-1.318-0.387-1.951-0.387c-0.504,0-0.911,0.133-1.222,0.398s-0.466,0.586-0.466,0.961c0,0.371,0.119,0.68,0.357,0.926
		s0.543,0.473,0.914,0.68l0.457,0.275l0.568,0.346l0.48,0.281c0.996,0.609,1.494,1.375,1.494,2.297c0,0.703-0.256,1.307-0.768,1.811
		s-1.332,0.756-2.461,0.756c-0.359,0-0.702-0.03-1.028-0.091S202.482,416.691,201.951,416.5z"/>
	<path d="M209.562,413.464v-0.908h4.547v0.908H209.562z"/>
	<path d="M219.576,416.693v-2.543h-3.861v-0.914l3.861-5.637h1.096v5.637h1.682v0.914h-1.682v2.543H219.576z M219.576,413.236
		v-3.984l-2.701,3.984H219.576z"/>
	<path d="M225.324,411.789l-0.199-0.146c-0.277-0.195-0.549-0.483-0.815-0.864s-0.398-0.8-0.398-1.257
		c0-0.605,0.238-1.122,0.715-1.55s1.082-0.642,1.816-0.642c0.449,0,0.854,0.081,1.213,0.243s0.637,0.401,0.832,0.718
		s0.293,0.662,0.293,1.037c0,0.258-0.045,0.507-0.134,0.747s-0.223,0.479-0.4,0.715s-0.528,0.569-1.054,0.999l0.492,0.393
		c0.572,0.469,0.957,0.873,1.155,1.213c0.199,0.34,0.298,0.721,0.298,1.143c0,0.656-0.238,1.226-0.715,1.708
		s-1.191,0.724-2.145,0.724c-0.957,0-1.674-0.226-2.15-0.677s-0.715-1.011-0.715-1.679
		C223.413,413.617,224.05,412.675,225.324,411.789z M226.146,412.369c-1.033,0.793-1.549,1.535-1.549,2.227
		c0,0.41,0.17,0.756,0.51,1.037s0.742,0.422,1.207,0.422c0.426,0,0.807-0.135,1.143-0.404s0.504-0.605,0.504-1.008
		c0-0.395-0.204-0.795-0.611-1.201c-0.408-0.406-0.691-0.672-0.852-0.797L226.146,412.369z M226.443,411.232
		c0.551-0.418,0.896-0.768,1.034-1.049s0.208-0.543,0.208-0.785c0-0.293-0.129-0.56-0.387-0.8s-0.59-0.36-0.996-0.36
		c-0.438,0-0.771,0.131-0.999,0.393s-0.343,0.533-0.343,0.814c0,0.273,0.096,0.531,0.287,0.773s0.498,0.514,0.92,0.814
		L226.443,411.232z"/>
	<path d="M230.937,411.964v-4.365h5.092v1.049h-4.002v2.227h0.188c1.309,0,2.316,0.273,3.023,0.82s1.061,1.283,1.061,2.209
		c0,0.586-0.143,1.111-0.428,1.576s-0.688,0.829-1.207,1.093s-1.072,0.396-1.658,0.396s-1.336-0.143-2.25-0.428v-1.189
		c0.332,0.18,0.703,0.327,1.113,0.442s0.789,0.173,1.137,0.173s0.688-0.084,1.02-0.252s0.59-0.413,0.773-0.735
		s0.275-0.651,0.275-0.987c0-0.566-0.251-1.046-0.753-1.438s-1.394-0.589-2.675-0.589H230.937z"/>
</g>
<g>
	<path d="M284.372,127.559v-6.545h1.09v1.43c0.312-0.504,0.689-0.898,1.131-1.184s0.883-0.428,1.324-0.428
		c0.387,0,0.738,0.103,1.055,0.308s0.538,0.474,0.665,0.806s0.19,0.984,0.19,1.957v3.656h-1.09v-3.791
		c0-0.629-0.03-1.044-0.091-1.245s-0.172-0.366-0.334-0.495s-0.339-0.193-0.53-0.193c-0.383,0-0.794,0.182-1.233,0.545
		s-0.802,0.818-1.087,1.365v3.814H284.372z"/>
	<path d="M297.017,127.126c-0.871,0.414-1.695,0.621-2.473,0.621c-0.59,0-1.117-0.146-1.582-0.439s-0.837-0.712-1.116-1.257
		s-0.419-1.128-0.419-1.749c0-0.598,0.133-1.172,0.398-1.723s0.637-0.979,1.113-1.286s1.008-0.46,1.594-0.46
		c0.777,0,1.401,0.277,1.872,0.832s0.706,1.41,0.706,2.566v0.234h-4.512c0,0.453,0.095,0.867,0.284,1.242s0.438,0.656,0.747,0.844
		s0.66,0.281,1.055,0.281c0.703,0,1.48-0.234,2.332-0.703V127.126z M292.663,123.651h3.264v-0.158c0-0.535-0.131-0.961-0.393-1.277
		s-0.611-0.475-1.049-0.475c-0.441,0-0.823,0.161-1.146,0.483S292.792,123.022,292.663,123.651z"/>
	<path d="M304.247,127.295c-0.512,0.215-0.883,0.343-1.113,0.384s-0.453,0.062-0.668,0.062c-0.457,0-0.875-0.088-1.254-0.264
		s-0.665-0.436-0.858-0.779s-0.29-0.875-0.29-1.594v-2.637h-1.635v-0.908h1.635v-2.637h1.09v2.637h2.912v0.908h-2.912v2.619
		c0,0.527,0.062,0.899,0.188,1.116s0.292,0.376,0.501,0.478s0.456,0.152,0.741,0.152c0.527,0,1.082-0.166,1.664-0.498V127.295z"/>
	<path d="M306.251,127.559l-1.066-6.545h1.014l0.621,3.984l0.164,0.926l0.158-0.926l1.043-3.984h0.979l1.178,3.984l0.205,0.926
		l0.135-0.926l0.627-3.984h0.838l-1.061,6.545h-1.02l-1.254-4.213l-0.199-0.926h-0.029l-0.182,0.92l-1.09,4.219H306.251z"/>
	<path d="M315.872,127.741c-0.938,0-1.688-0.327-2.25-0.981s-0.844-1.479-0.844-2.476s0.281-1.82,0.844-2.473
		s1.312-0.979,2.25-0.979c0.934,0,1.682,0.326,2.244,0.979s0.844,1.477,0.844,2.473s-0.281,1.821-0.844,2.476
		S316.806,127.741,315.872,127.741z M315.872,126.833c0.582,0,1.045-0.227,1.389-0.68s0.516-1.076,0.516-1.869
		c0-0.789-0.172-1.41-0.516-1.863s-0.807-0.68-1.389-0.68c-0.586,0-1.051,0.227-1.395,0.68s-0.516,1.074-0.516,1.863
		c0,0.793,0.172,1.416,0.516,1.869S315.286,126.833,315.872,126.833z"/>
	<path d="M320.935,127.559v-6.545h1.09v1.43c0.34-0.539,0.729-0.942,1.169-1.21s0.929-0.401,1.468-0.401
		c0.395,0,0.789,0.061,1.184,0.182v2.361h-1.049v-1.494c-0.184-0.031-0.328-0.047-0.434-0.047c-0.406,0-0.805,0.16-1.195,0.48
		s-0.771,0.801-1.143,1.441v3.803H320.935z"/>
	<path d="M327.872,127.559v-9.457h1.09v5.941l3.146-3.029h1.453l-3.141,3.029l3.223,3.516h-1.5l-3.182-3.516v3.516H327.872z"/>
	<path d="M334.288,128.467v-0.908h6.363v0.908H334.288z"/>
	<path d="M341.49,127.559v-6.545h0.955v1.5c0.301-0.637,0.581-1.076,0.841-1.318s0.522-0.363,0.788-0.363
		c0.316,0,0.571,0.124,0.765,0.372s0.29,0.601,0.29,1.058v0.352c0.129-0.398,0.284-0.722,0.466-0.97s0.37-0.445,0.565-0.592
		s0.42-0.22,0.674-0.22c0.281,0,0.521,0.119,0.721,0.357s0.299,0.713,0.299,1.424v4.945h-0.955v-4.471
		c0-0.367-0.012-0.618-0.035-0.753s-0.07-0.237-0.141-0.308s-0.146-0.105-0.229-0.105c-0.203,0-0.421,0.155-0.653,0.466
		s-0.47,0.825-0.712,1.544v3.627h-0.914v-4.465c0-0.578-0.057-0.918-0.17-1.02s-0.215-0.152-0.305-0.152
		c-0.199,0-0.413,0.174-0.642,0.521s-0.446,0.793-0.653,1.336v3.779H341.49z"/>
	<path d="M349.259,127.213v-1.154c0.438,0.285,0.9,0.485,1.389,0.601s0.902,0.173,1.242,0.173c0.551,0,0.947-0.089,1.189-0.267
		s0.363-0.399,0.363-0.665c0-0.176-0.057-0.326-0.17-0.451s-0.395-0.279-0.844-0.463l-0.375-0.152l-0.756-0.299
		c-0.812-0.316-1.325-0.608-1.538-0.876s-0.319-0.593-0.319-0.976c0-0.539,0.208-0.982,0.624-1.33s1.091-0.521,2.024-0.521
		c0.699,0,1.361,0.102,1.986,0.305v0.99c-0.719-0.258-1.395-0.387-2.027-0.387c-0.461,0-0.821,0.081-1.081,0.243
		s-0.39,0.364-0.39,0.606c0,0.234,0.112,0.422,0.337,0.562s0.589,0.303,1.093,0.486l0.738,0.27c0.676,0.246,1.15,0.514,1.424,0.803
		s0.41,0.65,0.41,1.084c0,0.566-0.218,1.032-0.653,1.397s-1.132,0.548-2.089,0.548C351.001,127.741,350.142,127.565,349.259,127.213
		z"/>
	<path d="M360.755,126.088c-0.332,0.547-0.731,0.959-1.198,1.236s-0.896,0.416-1.286,0.416c-0.547,0-1.038-0.236-1.474-0.709
		s-0.653-1.189-0.653-2.15c0-0.758,0.145-1.435,0.434-2.03s0.676-1.066,1.16-1.412s1.084-0.519,1.799-0.519
		c0.207,0,0.52,0.021,0.938,0.064c0.062,0.008,0.156,0.018,0.281,0.029h1.096v4.629c0,1.102-0.015,1.774-0.044,2.019
		s-0.077,0.491-0.144,0.741c-0.156,0.582-0.513,1.041-1.069,1.377s-1.229,0.504-2.019,0.504c-0.793,0-1.596-0.203-2.408-0.609
		v-1.102c0.309,0.211,0.688,0.397,1.14,0.56s0.888,0.243,1.31,0.243c0.332,0,0.646-0.053,0.943-0.158s0.537-0.258,0.721-0.457
		s0.309-0.431,0.375-0.694s0.1-0.614,0.1-1.052V126.088z M360.755,124.793v-2.807c-0.387-0.102-0.746-0.152-1.078-0.152
		c-0.672,0-1.231,0.26-1.679,0.779s-0.671,1.227-0.671,2.121c0,0.648,0.122,1.138,0.366,1.468s0.522,0.495,0.835,0.495
		c0.34,0,0.715-0.172,1.125-0.516S360.431,125.376,360.755,124.793z"/>
	<path d="M363.093,128.467v-0.908h6.364v0.908H363.093z"/>
	<path d="M376.26,127.295c-0.512,0.215-0.883,0.343-1.113,0.384s-0.453,0.062-0.668,0.062c-0.457,0-0.875-0.088-1.254-0.264
		s-0.665-0.436-0.858-0.779s-0.29-0.875-0.29-1.594v-2.637h-1.635v-0.908h1.635v-2.637h1.09v2.637h2.912v0.908h-2.912v2.619
		c0,0.527,0.062,0.899,0.188,1.116s0.292,0.376,0.501,0.478s0.456,0.152,0.741,0.152c0.527,0,1.082-0.166,1.664-0.498V127.295z"/>
</g>
<rect x="147.402" y="272.126" fill="#FFFFFF" stroke="#000000" stroke-width="0.9344" stroke-linecap="round" stroke-miterlimit="10" width="127.559" height="36.85"/>
<g>
	<path d="M169.896,300.472h-1.592v-15.156h1.982l3.496,9.98l3.496-9.98h1.934v15.156h-1.816v-9.658l0.049-1.328h-0.049l-0.43,1.328
		l-2.344,6.631h-1.973l-2.373-6.631l-0.381-1.328h-0.049l0.049,1.328V300.472z"/>
	<path d="M181.976,300.472h-1.895l4.668-15.156h2.002l4.697,15.156h-2.08l-1.035-3.33h-5.332L181.976,300.472z M183.47,295.628
		h4.424l-1.826-5.752l-0.43-1.523l-0.381,1.523L183.47,295.628z"/>
	<path d="M194.281,300.472h-2.051l4.434-7.92l-4.004-7.236h2.236l2.9,5.225l2.969-5.225h2.061l-4.004,7.09l4.473,8.066h-2.275
		l-3.33-6.045L194.281,300.472z"/>
	<path d="M205.179,300.199v-1.914c1.491,0.755,2.783,1.133,3.877,1.133c1.002,0,1.831-0.304,2.485-0.913s0.981-1.392,0.981-2.349
		c0-0.963-0.36-1.748-1.079-2.354s-1.942-0.908-3.667-0.908h-1.006v-1.514h1.396c1.27,0,2.188-0.285,2.754-0.854
		s0.85-1.203,0.85-1.899c0-0.631-0.231-1.164-0.693-1.597s-1.172-0.649-2.129-0.649c-1.074,0-2.23,0.303-3.467,0.908v-1.729
		c1.237-0.462,2.37-0.693,3.398-0.693c1.842,0,3.114,0.363,3.813,1.089s1.05,1.554,1.05,2.485c0,0.69-0.186,1.338-0.557,1.943
		s-1.055,1.146-2.051,1.621c0.879,0.26,1.543,0.58,1.992,0.957s0.79,0.824,1.021,1.338s0.347,1.09,0.347,1.729
		c0,1.419-0.526,2.591-1.577,3.516s-2.411,1.387-4.077,1.387c-0.482,0-1.007-0.036-1.577-0.107S205.999,300.544,205.179,300.199z"/>
	<path d="M222.669,300.472v-4.238h-6.436v-1.523l6.436-9.395h1.826v9.395h2.803v1.523h-2.803v4.238H222.669z M222.669,294.71v-6.641
		l-4.502,6.641H222.669z"/>
	<path d="M232.249,292.298l-0.332-0.244c-0.462-0.326-0.915-0.806-1.358-1.44s-0.664-1.333-0.664-2.095
		c0-1.009,0.397-1.87,1.191-2.583s1.803-1.069,3.027-1.069c0.749,0,1.422,0.135,2.021,0.405s1.061,0.669,1.387,1.196
		s0.488,1.104,0.488,1.729c0,0.43-0.075,0.845-0.224,1.245c-0.149,0.4-0.372,0.797-0.667,1.191
		c-0.295,0.394-0.881,0.949-1.756,1.665l0.82,0.654c0.953,0.781,1.595,1.455,1.926,2.021s0.496,1.201,0.496,1.904
		c0,1.094-0.397,2.042-1.191,2.847s-1.986,1.206-3.574,1.206c-1.595,0-2.79-0.376-3.584-1.128s-1.191-1.685-1.191-2.798
		C229.066,295.345,230.127,293.776,232.249,292.298z M233.621,293.265c-1.722,1.322-2.583,2.559-2.583,3.711
		c0,0.684,0.283,1.26,0.85,1.729s1.237,0.703,2.012,0.703c0.709,0,1.344-0.225,1.904-0.674s0.84-1.009,0.84-1.68
		c0-0.658-0.34-1.325-1.019-2.002s-1.152-1.12-1.419-1.328L233.621,293.265z M234.115,291.371c0.918-0.697,1.493-1.279,1.724-1.748
		s0.347-0.905,0.347-1.309c0-0.488-0.215-0.933-0.645-1.333s-0.983-0.601-1.66-0.601c-0.729,0-1.284,0.218-1.665,0.654
		s-0.571,0.889-0.571,1.357c0,0.456,0.16,0.885,0.479,1.289s0.83,0.856,1.533,1.357L234.115,291.371z"/>
	<path d="M241.605,292.591v-7.275h8.486v1.748h-6.67v3.711h0.312c2.181,0,3.861,0.456,5.039,1.367s1.768,2.139,1.768,3.682
		c0,0.977-0.238,1.852-0.713,2.627s-1.146,1.382-2.012,1.821s-1.787,0.659-2.764,0.659s-2.227-0.238-3.75-0.713v-1.982
		c0.553,0.299,1.172,0.545,1.855,0.737s1.315,0.288,1.895,0.288s1.146-0.14,1.699-0.42s0.983-0.688,1.289-1.226
		s0.459-1.085,0.459-1.646c0-0.944-0.418-1.743-1.255-2.397s-2.323-0.981-4.458-0.981H241.605z"/>
</g>
<rect x="147.402" y="235.276" fill="#FFFFFF" stroke="#000000" stroke-width="0.9344" stroke-linecap="round" stroke-miterlimit="10" width="127.559" height="36.85"/>
<g>
	<path d="M186.991,248.466h1.973v9.951c0,1.309,0.109,2.202,0.327,2.681s0.553,0.843,1.006,1.094s0.956,0.376,1.509,0.376
		c0.586,0,1.108-0.135,1.567-0.405s0.797-0.693,1.016-1.27s0.327-1.659,0.327-3.247v-9.18h1.816v9.893
		c0,1.413-0.21,2.518-0.63,3.315s-0.968,1.398-1.646,1.802s-1.53,0.605-2.559,0.605c-0.951,0-1.787-0.176-2.51-0.527
		s-1.27-0.879-1.641-1.582s-0.557-1.973-0.557-3.809V248.466z"/>
	<path d="M199.979,263.622h-1.895l4.668-15.156h2.002l4.697,15.156h-2.08l-1.035-3.33h-5.332L199.979,263.622z M201.473,258.778
		h4.424l-1.826-5.752l-0.43-1.523l-0.381,1.523L201.473,258.778z"/>
	<path d="M213.192,257.187v6.436h-1.973v-15.156h4.053c1.322,0,2.295,0.135,2.92,0.405s1.108,0.679,1.45,1.226
		s0.513,1.136,0.513,1.768c0,0.586-0.114,1.175-0.342,1.768s-0.542,1.122-0.942,1.587s-0.978,0.907-1.733,1.323l4.385,7.08h-2.344
		l-4.014-6.436H213.192z M213.192,255.663h2.764c0.619-0.338,1.079-0.684,1.382-1.035s0.532-0.726,0.688-1.123
		s0.234-0.794,0.234-1.191c0-0.709-0.259-1.274-0.776-1.694s-1.457-0.63-2.817-0.63h-1.475V255.663z"/>
	<path d="M226.776,263.622v-13.486h-4.541v-1.67h11.064v1.67h-4.551v13.486H226.776z"/>
</g>
<rect x="147.402" y="198.425" fill="#FFFFFF" stroke="#000000" stroke-width="0.9344" stroke-linecap="round" stroke-miterlimit="10" width="127.559" height="36.85"/>
<g>
	<path d="M182.201,223.937v-10.908h1.816v2.383c0.566-0.898,1.216-1.571,1.948-2.017s1.548-0.669,2.446-0.669
		c0.658,0,1.315,0.101,1.973,0.303v3.936h-1.748v-2.49c-0.306-0.052-0.547-0.078-0.723-0.078c-0.677,0-1.341,0.267-1.992,0.801
		s-1.286,1.334-1.904,2.402v6.338H182.201z"/>
	<path d="M193.402,223.361v-1.924c0.729,0.475,1.5,0.809,2.314,1.001s1.504,0.288,2.07,0.288c0.918,0,1.579-0.148,1.982-0.444
		s0.605-0.666,0.605-1.108c0-0.293-0.094-0.543-0.283-0.752s-0.658-0.465-1.406-0.771l-0.625-0.254l-1.26-0.498
		c-1.354-0.527-2.208-1.014-2.563-1.46s-0.532-0.988-0.532-1.626c0-0.898,0.347-1.637,1.04-2.217s1.818-0.869,3.374-0.869
		c1.166,0,2.269,0.169,3.311,0.508v1.65c-1.198-0.43-2.324-0.645-3.379-0.645c-0.768,0-1.369,0.135-1.802,0.405
		s-0.649,0.607-0.649,1.011c0,0.391,0.187,0.703,0.562,0.938s0.981,0.504,1.821,0.811l1.23,0.449
		c1.126,0.41,1.917,0.856,2.373,1.338s0.684,1.084,0.684,1.807c0,0.944-0.363,1.72-1.089,2.329s-1.886,0.913-3.481,0.913
		C196.305,224.24,194.873,223.947,193.402,223.361z"/>
	<path d="M210.667,223.937v-4.238h-6.436v-1.523l6.436-9.395h1.826v9.395h2.803v1.523h-2.803v4.238H210.667z M210.667,218.175
		v-6.641l-4.502,6.641H210.667z"/>
	<path d="M220.247,215.763l-0.332-0.244c-0.462-0.326-0.915-0.806-1.358-1.44s-0.664-1.333-0.664-2.095
		c0-1.009,0.397-1.87,1.191-2.583s1.803-1.069,3.027-1.069c0.749,0,1.422,0.135,2.021,0.405s1.061,0.669,1.387,1.196
		s0.488,1.104,0.488,1.729c0,0.43-0.075,0.845-0.224,1.245c-0.149,0.4-0.372,0.797-0.667,1.191
		c-0.295,0.394-0.881,0.949-1.756,1.665l0.82,0.654c0.953,0.781,1.595,1.455,1.926,2.021s0.496,1.201,0.496,1.904
		c0,1.094-0.397,2.042-1.191,2.847s-1.986,1.206-3.574,1.206c-1.595,0-2.79-0.376-3.584-1.128s-1.191-1.685-1.191-2.798
		C217.064,218.81,218.125,217.241,220.247,215.763z M221.619,216.73c-1.722,1.322-2.583,2.559-2.583,3.711
		c0,0.684,0.283,1.26,0.85,1.729s1.237,0.703,2.012,0.703c0.709,0,1.344-0.225,1.904-0.674s0.84-1.009,0.84-1.68
		c0-0.658-0.34-1.325-1.019-2.002s-1.152-1.12-1.419-1.328L221.619,216.73z M222.113,214.835c0.918-0.697,1.493-1.279,1.724-1.748
		s0.347-0.905,0.347-1.309c0-0.488-0.215-0.933-0.645-1.333s-0.983-0.601-1.66-0.601c-0.729,0-1.284,0.218-1.665,0.654
		s-0.571,0.889-0.571,1.357c0,0.456,0.16,0.885,0.479,1.289s0.83,0.856,1.533,1.357L222.113,214.835z"/>
	<path d="M229.603,216.056v-7.275h8.486v1.748h-6.67v3.711h0.312c2.181,0,3.861,0.456,5.039,1.367s1.768,2.139,1.768,3.682
		c0,0.977-0.238,1.852-0.713,2.627s-1.146,1.382-2.012,1.821s-1.787,0.659-2.764,0.659s-2.227-0.238-3.75-0.713v-1.982
		c0.553,0.299,1.172,0.545,1.855,0.737s1.315,0.288,1.895,0.288s1.146-0.14,1.699-0.42s0.983-0.688,1.289-1.226
		s0.459-1.085,0.459-1.646c0-0.944-0.418-1.743-1.255-2.397s-2.323-0.981-4.458-0.981H229.603z"/>
</g>
<rect x="147.402" y="161.575" fill="#FFFFFF" stroke="#000000" stroke-width="0.9344" stroke-linecap="round" stroke-miterlimit="10" width="127.559" height="36.85"/>
<rect x="147.402" y="124.724" fill="#FFFFFF" stroke="#000000" stroke-width="0.9344" stroke-linecap="round" stroke-miterlimit="10" width="127.559" height="36.85"/>
<g>
	<path d="M169.271,187.086v-10.908h1.816v2.383c0.521-0.84,1.149-1.498,1.885-1.973s1.471-0.713,2.207-0.713
		c0.645,0,1.23,0.171,1.758,0.513s0.897,0.79,1.108,1.343s0.317,1.641,0.317,3.262v6.094h-1.816v-6.318
		c0-1.048-0.05-1.74-0.151-2.075s-0.287-0.61-0.557-0.825s-0.565-0.322-0.884-0.322c-0.638,0-1.323,0.303-2.056,0.908
		s-1.336,1.364-1.812,2.275v6.357H169.271z"/>
	<path d="M190.345,186.364c-1.452,0.69-2.826,1.035-4.121,1.035c-0.983,0-1.862-0.244-2.637-0.732s-1.395-1.187-1.86-2.095
		s-0.698-1.88-0.698-2.915c0-0.996,0.221-1.953,0.664-2.871s1.061-1.632,1.855-2.144s1.68-0.767,2.656-0.767
		c1.295,0,2.335,0.462,3.12,1.387s1.177,2.35,1.177,4.277v0.391h-7.52c0,0.755,0.158,1.445,0.474,2.07s0.731,1.094,1.245,1.406
		s1.1,0.469,1.758,0.469c1.172,0,2.467-0.391,3.887-1.172V186.364z M183.089,180.573h5.439v-0.264c0-0.892-0.218-1.602-0.654-2.129
		s-1.019-0.791-1.748-0.791c-0.736,0-1.372,0.269-1.909,0.806S183.304,179.524,183.089,180.573z"/>
	<path d="M202.396,186.647c-0.853,0.358-1.471,0.571-1.855,0.64s-0.755,0.103-1.113,0.103c-0.762,0-1.458-0.146-2.09-0.439
		s-1.108-0.726-1.431-1.299s-0.483-1.458-0.483-2.656V178.6h-2.725v-1.514h2.725v-4.395h1.816v4.395h4.854v1.514h-4.854v4.365
		c0,0.879,0.104,1.499,0.312,1.86s0.487,0.626,0.835,0.796s0.76,0.254,1.235,0.254c0.879,0,1.803-0.277,2.773-0.83V186.647z"/>
	<path d="M205.736,187.086l-1.777-10.908h1.689l1.035,6.641l0.273,1.543l0.264-1.543l1.738-6.641h1.631l1.963,6.641l0.342,1.543
		l0.225-1.543l1.045-6.641h1.396l-1.768,10.908h-1.699l-2.09-7.021l-0.332-1.543h-0.049l-0.303,1.533l-1.816,7.031H205.736z"/>
	<path d="M221.771,187.389c-1.562,0-2.812-0.545-3.75-1.636s-1.406-2.466-1.406-4.126s0.469-3.034,1.406-4.121
		s2.188-1.631,3.75-1.631c1.556,0,2.803,0.543,3.74,1.631s1.406,2.461,1.406,4.121s-0.469,3.036-1.406,4.126
		S223.327,187.389,221.771,187.389z M221.771,185.876c0.97,0,1.742-0.377,2.314-1.133s0.859-1.793,0.859-3.115
		c0-1.315-0.287-2.35-0.859-3.105s-1.344-1.133-2.314-1.133c-0.977,0-1.751,0.377-2.324,1.133s-0.859,1.791-0.859,3.105
		c0,1.322,0.287,2.36,0.859,3.115S220.794,185.876,221.771,185.876z"/>
	<path d="M230.208,187.086v-10.908h1.816v2.383c0.566-0.898,1.216-1.571,1.948-2.017s1.548-0.669,2.446-0.669
		c0.658,0,1.315,0.101,1.973,0.303v3.936h-1.748v-2.49c-0.306-0.052-0.547-0.078-0.723-0.078c-0.677,0-1.341,0.267-1.992,0.801
		s-1.286,1.334-1.904,2.402v6.338H230.208z"/>
	<path d="M241.771,187.086v-15.762h1.816v9.902l5.244-5.049h2.422l-5.234,5.049l5.371,5.859h-2.5l-5.303-5.859v5.859H241.771z"/>
</g>
<rect x="147.402" y="161.575" fill="#FFFFFF" stroke="#000000" stroke-width="0.9344" stroke-linecap="round" stroke-miterlimit="10" width="127.559" height="36.85"/>
<g>
	<path d="M170.555,184.635c-0.553,0.912-1.219,1.598-1.997,2.061s-1.493,0.693-2.144,0.693c-0.912,0-1.73-0.394-2.456-1.182
		s-1.089-1.982-1.089-3.584c0-1.263,0.241-2.391,0.723-3.384s1.126-1.777,1.934-2.354s1.807-0.864,2.998-0.864
		c0.345,0,0.866,0.036,1.562,0.107c0.104,0.013,0.26,0.029,0.469,0.049v-4.854h1.826v15.762h-1.826V184.635z M170.555,182.477
		v-4.678c-0.645-0.169-1.244-0.254-1.797-0.254c-1.12,0-2.052,0.433-2.798,1.299s-1.118,2.044-1.118,3.535
		c0,1.081,0.204,1.896,0.61,2.446s0.871,0.825,1.392,0.825c0.566,0,1.191-0.287,1.875-0.859S170.014,183.447,170.555,182.477z"/>
	<path d="M182.44,184.635c-0.553,0.912-1.219,1.598-1.997,2.061s-1.493,0.693-2.144,0.693c-0.912,0-1.73-0.394-2.456-1.182
		s-1.089-1.982-1.089-3.584c0-1.263,0.241-2.391,0.723-3.384s1.126-1.777,1.934-2.354s1.807-0.864,2.998-0.864
		c0.345,0,0.866,0.036,1.562,0.107c0.104,0.013,0.26,0.029,0.469,0.049h1.826v7.705c0,1.315,0.137,2.383,0.41,3.203h-1.895
		C182.639,186.487,182.524,185.67,182.44,184.635z M182.44,182.477v-4.678c-0.645-0.169-1.244-0.254-1.797-0.254
		c-1.12,0-2.052,0.433-2.798,1.299s-1.118,2.044-1.118,3.535c0,1.081,0.204,1.896,0.61,2.446s0.871,0.825,1.392,0.825
		c0.566,0,1.191-0.287,1.875-0.859S181.899,183.447,182.44,182.477z"/>
	<path d="M196.395,186.647c-0.853,0.358-1.471,0.571-1.855,0.64s-0.755,0.103-1.113,0.103c-0.762,0-1.458-0.146-2.09-0.439
		s-1.108-0.726-1.431-1.299s-0.483-1.458-0.483-2.656V178.6h-2.725v-1.514h2.725v-4.395h1.816v4.395h4.854v1.514h-4.854v4.365
		c0,0.879,0.104,1.499,0.312,1.86s0.487,0.626,0.835,0.796s0.76,0.254,1.235,0.254c0.879,0,1.803-0.277,2.773-0.83V186.647z"/>
	<path d="M206.444,184.635c-0.553,0.912-1.219,1.598-1.997,2.061s-1.493,0.693-2.144,0.693c-0.912,0-1.73-0.394-2.456-1.182
		s-1.089-1.982-1.089-3.584c0-1.263,0.241-2.391,0.723-3.384s1.126-1.777,1.934-2.354s1.807-0.864,2.998-0.864
		c0.345,0,0.866,0.036,1.562,0.107c0.104,0.013,0.26,0.029,0.469,0.049h1.826v7.705c0,1.315,0.137,2.383,0.41,3.203h-1.895
		C206.642,186.487,206.528,185.67,206.444,184.635z M206.444,182.477v-4.678c-0.645-0.169-1.244-0.254-1.797-0.254
		c-1.12,0-2.052,0.433-2.798,1.299s-1.118,2.044-1.118,3.535c0,1.081,0.204,1.896,0.61,2.446s0.871,0.825,1.392,0.825
		c0.566,0,1.191-0.287,1.875-0.859S205.903,183.447,206.444,182.477z"/>
	<path d="M214.207,187.086v-14.238h-3.262v-1.523h5.078v14.248h3.408v1.514H214.207z"/>
	<path d="M226.336,187.086v-9.395h-3.027v-1.514h4.844v9.395h3.037v1.514H226.336z M226.034,172.243c0-0.41,0.14-0.716,0.42-0.918
		s0.543-0.303,0.791-0.303c0.254,0,0.521,0.101,0.801,0.303s0.42,0.508,0.42,0.918c0,0.404-0.14,0.707-0.42,0.908
		s-0.547,0.303-0.801,0.303c-0.248,0-0.511-0.101-0.791-0.303S226.034,172.647,226.034,172.243z"/>
	<path d="M235.282,187.086v-10.908h1.816v2.383c0.521-0.84,1.149-1.498,1.885-1.973s1.471-0.713,2.207-0.713
		c0.645,0,1.23,0.171,1.758,0.513s0.897,0.79,1.108,1.343s0.317,1.641,0.317,3.262v6.094h-1.816v-6.318
		c0-1.048-0.05-1.74-0.151-2.075s-0.287-0.61-0.557-0.825s-0.565-0.322-0.884-0.322c-0.638,0-1.323,0.303-2.056,0.908
		s-1.336,1.364-1.812,2.275v6.357H235.282z"/>
	<path d="M247.772,187.086v-15.762h1.816v9.902l5.244-5.049h2.422l-5.234,5.049l5.371,5.859h-2.5l-5.303-5.859v5.859H247.772z"/>
</g>
<rect x="147.402" y="87.874" fill="#FFFFFF" stroke="#000000" stroke-width="0.9344" stroke-linecap="round" stroke-miterlimit="10" width="127.559" height="36.85"/>
<g>
	<path d="M158.948,104.929c0.56-0.912,1.227-1.598,2.002-2.061s1.488-0.693,2.139-0.693c0.912,0,1.732,0.394,2.461,1.182
		s1.094,1.982,1.094,3.584c0,1.263-0.243,2.391-0.728,3.384s-1.131,1.777-1.938,2.354s-1.807,0.864-2.998,0.864
		c-0.338,0-0.859-0.036-1.562-0.107c-0.104-0.013-0.26-0.029-0.469-0.049v4.238h-1.816v-15.146h1.816V104.929z M158.948,107.087
		v4.678c0.658,0.169,1.263,0.254,1.816,0.254c1.1,0,2.026-0.431,2.778-1.294s1.128-2.042,1.128-3.54
		c0-1.087-0.205-1.904-0.615-2.451s-0.875-0.82-1.396-0.82c-0.566,0-1.19,0.287-1.87,0.859S159.495,106.117,158.948,107.087z"/>
	<path d="M173.763,113.689c-1.562,0-2.812-0.545-3.75-1.636s-1.406-2.466-1.406-4.126s0.469-3.034,1.406-4.121
		s2.188-1.631,3.75-1.631c1.556,0,2.803,0.543,3.74,1.631s1.406,2.461,1.406,4.121s-0.469,3.036-1.406,4.126
		S175.319,113.689,173.763,113.689z M173.763,112.175c0.97,0,1.742-0.377,2.314-1.133s0.859-1.793,0.859-3.115
		c0-1.315-0.287-2.35-0.859-3.105s-1.344-1.133-2.314-1.133c-0.977,0-1.751,0.377-2.324,1.133s-0.859,1.791-0.859,3.105
		c0,1.322,0.287,2.36,0.859,3.115S172.786,112.175,173.763,112.175z"/>
	<path d="M185.764,113.689c-1.562,0-2.812-0.545-3.75-1.636s-1.406-2.466-1.406-4.126s0.469-3.034,1.406-4.121
		s2.188-1.631,3.75-1.631c1.556,0,2.803,0.543,3.74,1.631s1.406,2.461,1.406,4.121s-0.469,3.036-1.406,4.126
		S187.321,113.689,185.764,113.689z M185.764,112.175c0.97,0,1.742-0.377,2.314-1.133s0.859-1.793,0.859-3.115
		c0-1.315-0.287-2.35-0.859-3.105s-1.344-1.133-2.314-1.133c-0.977,0-1.751,0.377-2.324,1.133s-0.859,1.791-0.859,3.105
		c0,1.322,0.287,2.36,0.859,3.115S184.788,112.175,185.764,112.175z"/>
	<path d="M196.204,113.386V99.147h-3.262v-1.523h5.078v14.248h3.408v1.514H196.204z"/>
	<path d="M205.403,112.81v-1.924c0.729,0.475,1.5,0.809,2.314,1.001s1.504,0.288,2.07,0.288c0.918,0,1.579-0.148,1.982-0.444
		s0.605-0.666,0.605-1.108c0-0.293-0.094-0.543-0.283-0.752s-0.658-0.465-1.406-0.771l-0.625-0.254l-1.26-0.498
		c-1.354-0.527-2.208-1.014-2.563-1.46s-0.532-0.988-0.532-1.626c0-0.898,0.347-1.637,1.04-2.217s1.818-0.869,3.374-0.869
		c1.166,0,2.269,0.169,3.311,0.508v1.65c-1.198-0.43-2.324-0.645-3.379-0.645c-0.768,0-1.369,0.135-1.802,0.405
		s-0.649,0.607-0.649,1.011c0,0.391,0.187,0.703,0.562,0.938s0.981,0.504,1.821,0.811l1.23,0.449
		c1.126,0.41,1.917,0.856,2.373,1.338s0.684,1.084,0.684,1.807c0,0.944-0.363,1.72-1.089,2.329s-1.886,0.913-3.481,0.913
		C208.307,113.689,206.874,113.396,205.403,112.81z"/>
	<path d="M226.399,112.946c-0.853,0.358-1.471,0.571-1.855,0.64s-0.755,0.103-1.113,0.103c-0.762,0-1.458-0.146-2.09-0.439
		s-1.108-0.726-1.431-1.299s-0.483-1.458-0.483-2.656v-4.395h-2.725v-1.514h2.725v-4.395h1.816v4.395h4.854v1.514h-4.854v4.365
		c0,0.879,0.104,1.499,0.312,1.86s0.487,0.626,0.835,0.796s0.76,0.254,1.235,0.254c0.879,0,1.803-0.277,2.773-0.83V112.946z"/>
	<path d="M236.448,110.935c-0.553,0.912-1.219,1.598-1.997,2.061s-1.493,0.693-2.144,0.693c-0.912,0-1.73-0.394-2.456-1.182
		s-1.089-1.982-1.089-3.584c0-1.263,0.241-2.391,0.723-3.384s1.126-1.777,1.934-2.354s1.807-0.864,2.998-0.864
		c0.345,0,0.866,0.036,1.562,0.107c0.104,0.013,0.26,0.029,0.469,0.049h1.826v7.705c0,1.315,0.137,2.383,0.41,3.203h-1.895
		C236.647,112.787,236.533,111.97,236.448,110.935z M236.448,108.776v-4.678c-0.645-0.169-1.244-0.254-1.797-0.254
		c-1.12,0-2.052,0.433-2.798,1.299s-1.118,2.044-1.118,3.535c0,1.081,0.204,1.896,0.61,2.446s0.871,0.825,1.392,0.825
		c0.566,0,1.191-0.287,1.875-0.859S235.908,109.747,236.448,108.776z"/>
	<path d="M250.403,112.946c-0.853,0.358-1.471,0.571-1.855,0.64s-0.755,0.103-1.113,0.103c-0.762,0-1.458-0.146-2.09-0.439
		s-1.108-0.726-1.431-1.299s-0.483-1.458-0.483-2.656v-4.395h-2.725v-1.514h2.725v-4.395h1.816v4.395h4.854v1.514h-4.854v4.365
		c0,0.879,0.104,1.499,0.312,1.86s0.487,0.626,0.835,0.796s0.76,0.254,1.235,0.254c0.879,0,1.803-0.277,2.773-0.83V112.946z"/>
	<path d="M262.356,112.663c-1.452,0.69-2.826,1.035-4.121,1.035c-0.983,0-1.862-0.244-2.637-0.732
		c-0.775-0.488-1.395-1.187-1.86-2.095s-0.698-1.88-0.698-2.915c0-0.996,0.221-1.953,0.664-2.871s1.061-1.632,1.855-2.144
		c0.794-0.511,1.68-0.767,2.656-0.767c1.295,0,2.335,0.462,3.12,1.387s1.177,2.35,1.177,4.277v0.391h-7.52
		c0,0.755,0.158,1.445,0.474,2.07s0.731,1.094,1.245,1.406s1.1,0.469,1.758,0.469c1.172,0,2.467-0.391,3.887-1.172V112.663z
		 M255.1,106.872h5.439v-0.264c0-0.892-0.218-1.602-0.654-2.129s-1.019-0.791-1.748-0.791c-0.736,0-1.372,0.269-1.909,0.806
		C255.691,105.031,255.315,105.824,255.1,106.872z"/>
</g>
<g>
	<path d="M169.27,150.236v-10.908h1.816v2.383c0.521-0.84,1.149-1.498,1.885-1.973s1.471-0.713,2.207-0.713
		c0.645,0,1.23,0.171,1.758,0.513s0.897,0.79,1.108,1.343s0.317,1.641,0.317,3.262v6.094h-1.816v-6.318
		c0-1.048-0.05-1.74-0.151-2.075s-0.287-0.61-0.557-0.825s-0.565-0.322-0.884-0.322c-0.638,0-1.323,0.303-2.056,0.908
		s-1.336,1.364-1.812,2.275v6.357H169.27z"/>
	<path d="M190.345,149.514c-1.452,0.69-2.826,1.035-4.121,1.035c-0.983,0-1.862-0.244-2.637-0.732s-1.395-1.187-1.86-2.095
		s-0.698-1.88-0.698-2.915c0-0.996,0.221-1.953,0.664-2.871s1.061-1.632,1.855-2.144s1.68-0.767,2.656-0.767
		c1.295,0,2.335,0.462,3.12,1.387s1.177,2.35,1.177,4.277v0.391h-7.52c0,0.755,0.158,1.445,0.474,2.07s0.731,1.094,1.245,1.406
		s1.1,0.469,1.758,0.469c1.172,0,2.467-0.391,3.887-1.172V149.514z M183.089,143.723h5.439v-0.264c0-0.892-0.218-1.602-0.654-2.129
		s-1.019-0.791-1.748-0.791c-0.736,0-1.372,0.269-1.909,0.806S183.304,142.674,183.089,143.723z"/>
	<path d="M202.395,149.797c-0.853,0.358-1.471,0.571-1.855,0.64s-0.755,0.103-1.113,0.103c-0.762,0-1.458-0.146-2.09-0.439
		s-1.108-0.726-1.431-1.299s-0.483-1.458-0.483-2.656v-4.395h-2.725v-1.514h2.725v-4.395h1.816v4.395h4.854v1.514h-4.854v4.365
		c0,0.879,0.104,1.499,0.312,1.86s0.487,0.626,0.835,0.796s0.76,0.254,1.235,0.254c0.879,0,1.803-0.277,2.773-0.83V149.797z"/>
	<path d="M205.735,150.236l-1.777-10.908h1.689l1.035,6.641l0.273,1.543l0.264-1.543l1.738-6.641h1.631l1.963,6.641l0.342,1.543
		l0.225-1.543l1.045-6.641h1.396l-1.768,10.908h-1.699l-2.09-7.021l-0.332-1.543h-0.049l-0.303,1.533l-1.816,7.031H205.735z"/>
	<path d="M221.77,150.539c-1.562,0-2.812-0.545-3.75-1.636s-1.406-2.466-1.406-4.126s0.469-3.034,1.406-4.121
		s2.188-1.631,3.75-1.631c1.556,0,2.803,0.543,3.74,1.631s1.406,2.461,1.406,4.121s-0.469,3.036-1.406,4.126
		S223.326,150.539,221.77,150.539z M221.77,149.025c0.97,0,1.742-0.377,2.314-1.133s0.859-1.793,0.859-3.115
		c0-1.315-0.287-2.35-0.859-3.105s-1.344-1.133-2.314-1.133c-0.977,0-1.751,0.377-2.324,1.133s-0.859,1.791-0.859,3.105
		c0,1.322,0.287,2.36,0.859,3.115S220.794,149.025,221.77,149.025z"/>
	<path d="M230.208,150.236v-10.908h1.816v2.383c0.566-0.898,1.216-1.571,1.948-2.017s1.548-0.669,2.446-0.669
		c0.658,0,1.315,0.101,1.973,0.303v3.936h-1.748v-2.49c-0.306-0.052-0.547-0.078-0.723-0.078c-0.677,0-1.341,0.267-1.992,0.801
		s-1.286,1.334-1.904,2.402v6.338H230.208z"/>
	<path d="M241.77,150.236v-15.762h1.816v9.902l5.244-5.049h2.422l-5.234,5.049l5.371,5.859h-2.5l-5.303-5.859v5.859H241.77z"/>
</g>
<g>
	<path d="M288.743,162.939c-0.332,0.547-0.731,0.959-1.198,1.236s-0.896,0.416-1.286,0.416c-0.547,0-1.038-0.236-1.474-0.709
		s-0.653-1.189-0.653-2.15c0-0.758,0.145-1.435,0.434-2.03s0.676-1.066,1.16-1.412s1.084-0.519,1.799-0.519
		c0.207,0,0.52,0.021,0.938,0.064c0.062,0.008,0.156,0.018,0.281,0.029v-2.912h1.096v9.457h-1.096V162.939z M288.743,161.644v-2.807
		c-0.387-0.102-0.746-0.152-1.078-0.152c-0.672,0-1.231,0.26-1.679,0.779s-0.671,1.227-0.671,2.121c0,0.648,0.122,1.138,0.366,1.468
		s0.522,0.495,0.835,0.495c0.34,0,0.715-0.172,1.125-0.516S288.419,162.226,288.743,161.644z"/>
	<path d="M295.874,162.939c-0.332,0.547-0.731,0.959-1.198,1.236s-0.896,0.416-1.286,0.416c-0.547,0-1.038-0.236-1.474-0.709
		s-0.653-1.189-0.653-2.15c0-0.758,0.145-1.435,0.434-2.03s0.676-1.066,1.16-1.412s1.084-0.519,1.799-0.519
		c0.207,0,0.52,0.021,0.938,0.064c0.062,0.008,0.156,0.018,0.281,0.029h1.096v4.623c0,0.789,0.082,1.43,0.246,1.922h-1.137
		C295.993,164.05,295.925,163.56,295.874,162.939z M295.874,161.644v-2.807c-0.387-0.102-0.746-0.152-1.078-0.152
		c-0.672,0-1.231,0.26-1.679,0.779s-0.671,1.227-0.671,2.121c0,0.648,0.122,1.138,0.366,1.468s0.522,0.495,0.835,0.495
		c0.34,0,0.715-0.172,1.125-0.516S295.55,162.226,295.874,161.644z"/>
	<path d="M304.247,164.146c-0.512,0.215-0.883,0.343-1.113,0.384s-0.453,0.062-0.668,0.062c-0.457,0-0.875-0.088-1.254-0.264
		s-0.665-0.436-0.858-0.779s-0.29-0.875-0.29-1.594v-2.637h-1.635v-0.908h1.635v-2.637h1.09v2.637h2.912v0.908h-2.912v2.619
		c0,0.527,0.062,0.899,0.188,1.116s0.292,0.376,0.501,0.478s0.456,0.152,0.741,0.152c0.527,0,1.082-0.166,1.664-0.498V164.146z"/>
	<path d="M310.277,162.939c-0.332,0.547-0.731,0.959-1.198,1.236s-0.896,0.416-1.286,0.416c-0.547,0-1.038-0.236-1.474-0.709
		s-0.653-1.189-0.653-2.15c0-0.758,0.145-1.435,0.434-2.03s0.676-1.066,1.16-1.412s1.084-0.519,1.799-0.519
		c0.207,0,0.52,0.021,0.938,0.064c0.062,0.008,0.156,0.018,0.281,0.029h1.096v4.623c0,0.789,0.082,1.43,0.246,1.922h-1.137
		C310.396,164.05,310.327,163.56,310.277,162.939z M310.277,161.644v-2.807c-0.387-0.102-0.746-0.152-1.078-0.152
		c-0.672,0-1.231,0.26-1.679,0.779s-0.671,1.227-0.671,2.121c0,0.648,0.122,1.138,0.366,1.468s0.522,0.495,0.835,0.495
		c0.34,0,0.715-0.172,1.125-0.516S309.952,162.226,310.277,161.644z"/>
	<path d="M314.935,164.409v-8.543h-1.957v-0.914h3.047v8.549h2.045v0.908H314.935z"/>
	<path d="M322.212,164.409v-5.637h-1.816v-0.908h2.906v5.637h1.822v0.908H322.212z M322.031,155.503c0-0.246,0.084-0.43,0.252-0.551
		s0.326-0.182,0.475-0.182c0.152,0,0.312,0.061,0.48,0.182s0.252,0.305,0.252,0.551c0,0.242-0.084,0.424-0.252,0.545
		s-0.328,0.182-0.48,0.182c-0.148,0-0.307-0.061-0.475-0.182S322.031,155.745,322.031,155.503z"/>
	<path d="M327.579,164.409v-6.545h1.09v1.43c0.312-0.504,0.689-0.898,1.131-1.184s0.883-0.428,1.324-0.428
		c0.387,0,0.738,0.103,1.055,0.308s0.538,0.474,0.665,0.806s0.19,0.984,0.19,1.957v3.656h-1.09v-3.791
		c0-0.629-0.03-1.044-0.091-1.245s-0.172-0.366-0.334-0.495s-0.339-0.193-0.53-0.193c-0.383,0-0.794,0.182-1.233,0.545
		s-0.802,0.818-1.087,1.365v3.814H327.579z"/>
	<path d="M335.074,164.409v-9.457h1.09v5.941l3.146-3.029h1.453l-3.141,3.029l3.223,3.516h-1.5l-3.182-3.516v3.516H335.074z"/>
	<path d="M341.49,165.317v-0.908h6.363v0.908H341.49z"/>
	<path d="M350.191,159.335c0.336-0.547,0.736-0.959,1.201-1.236s0.893-0.416,1.283-0.416c0.547,0,1.039,0.236,1.477,0.709
		s0.656,1.189,0.656,2.15c0,0.758-0.146,1.435-0.437,2.03s-0.679,1.066-1.163,1.412s-1.084,0.519-1.799,0.519
		c-0.203,0-0.516-0.021-0.938-0.064c-0.062-0.008-0.156-0.018-0.281-0.029v2.543h-1.09v-9.088h1.09V159.335z M350.191,160.63v2.807
		c0.395,0.102,0.758,0.152,1.09,0.152c0.66,0,1.216-0.259,1.667-0.776s0.677-1.226,0.677-2.124c0-0.652-0.123-1.143-0.369-1.471
		s-0.525-0.492-0.838-0.492c-0.34,0-0.714,0.172-1.122,0.516S350.519,160.048,350.191,160.63z"/>
	<path d="M356.677,164.409v-9.457h1.09v5.941l3.146-3.029h1.453l-3.141,3.029l3.223,3.516h-1.5l-3.182-3.516v3.516H356.677z"/>
	<path d="M369.058,164.146c-0.512,0.215-0.883,0.343-1.113,0.384s-0.453,0.062-0.668,0.062c-0.458,0-0.875-0.088-1.254-0.264
		s-0.665-0.436-0.858-0.779s-0.29-0.875-0.29-1.594v-2.637h-1.635v-0.908h1.635v-2.637h1.09v2.637h2.913v0.908h-2.913v2.619
		c0,0.527,0.062,0.899,0.188,1.116s0.292,0.376,0.501,0.478s0.457,0.152,0.742,0.152c0.527,0,1.082-0.166,1.664-0.498V164.146z"/>
	<path d="M370.295,165.317v-0.908h6.363v0.908H370.295z"/>
	<path d="M383.461,164.146c-0.512,0.215-0.883,0.343-1.113,0.384s-0.453,0.062-0.668,0.062c-0.457,0-0.875-0.088-1.254-0.264
		s-0.665-0.436-0.858-0.779s-0.29-0.875-0.29-1.594v-2.637h-1.635v-0.908h1.635v-2.637h1.09v2.637h2.912v0.908h-2.912v2.619
		c0,0.527,0.062,0.899,0.188,1.116s0.292,0.376,0.501,0.478s0.456,0.152,0.741,0.152c0.527,0,1.082-0.166,1.664-0.498V164.146z"/>
</g>
<g>
	<path d="M284.929,201.26v-6.545h1.09v1.43c0.34-0.539,0.729-0.942,1.169-1.21s0.929-0.401,1.468-0.401
		c0.395,0,0.789,0.061,1.184,0.182v2.361h-1.049v-1.494c-0.184-0.031-0.328-0.047-0.434-0.047c-0.406,0-0.805,0.16-1.195,0.48
		s-0.771,0.801-1.143,1.441v3.803H284.929z"/>
	<path d="M291.65,200.914v-1.154c0.438,0.285,0.9,0.485,1.389,0.601s0.902,0.173,1.242,0.173c0.551,0,0.947-0.089,1.189-0.267
		s0.363-0.399,0.363-0.665c0-0.176-0.057-0.326-0.17-0.451s-0.395-0.279-0.844-0.463l-0.375-0.152l-0.756-0.299
		c-0.812-0.316-1.325-0.608-1.538-0.876s-0.319-0.593-0.319-0.976c0-0.539,0.208-0.982,0.624-1.33s1.091-0.521,2.024-0.521
		c0.699,0,1.361,0.102,1.986,0.305v0.99c-0.719-0.258-1.395-0.387-2.027-0.387c-0.461,0-0.821,0.081-1.081,0.243
		s-0.39,0.364-0.39,0.606c0,0.234,0.112,0.422,0.337,0.562s0.589,0.303,1.093,0.486l0.738,0.27c0.676,0.246,1.15,0.514,1.424,0.803
		s0.41,0.65,0.41,1.084c0,0.566-0.218,1.032-0.653,1.397s-1.132,0.548-2.089,0.548C293.392,201.441,292.533,201.266,291.65,200.914z
		"/>
	<path d="M302.009,201.26v-2.543h-3.861v-0.914l3.861-5.637h1.096v5.637h1.682v0.914h-1.682v2.543H302.009z M302.009,197.803v-3.984
		l-2.701,3.984H302.009z"/>
	<path d="M307.757,196.355l-0.199-0.146c-0.277-0.195-0.549-0.483-0.815-0.864s-0.398-0.8-0.398-1.257
		c0-0.605,0.238-1.122,0.715-1.55s1.082-0.642,1.816-0.642c0.449,0,0.854,0.081,1.213,0.243s0.637,0.401,0.832,0.718
		s0.293,0.662,0.293,1.037c0,0.258-0.045,0.507-0.134,0.747s-0.223,0.479-0.4,0.715s-0.528,0.569-1.054,0.999l0.492,0.393
		c0.572,0.469,0.957,0.873,1.155,1.213c0.199,0.34,0.298,0.721,0.298,1.143c0,0.656-0.238,1.226-0.715,1.708
		s-1.191,0.724-2.145,0.724c-0.957,0-1.674-0.226-2.15-0.677s-0.715-1.011-0.715-1.679
		C305.847,198.184,306.484,197.242,307.757,196.355z M308.58,196.936c-1.033,0.793-1.549,1.535-1.549,2.227
		c0,0.41,0.17,0.756,0.51,1.037s0.742,0.422,1.207,0.422c0.426,0,0.807-0.135,1.143-0.404s0.504-0.605,0.504-1.008
		c0-0.395-0.204-0.795-0.611-1.201c-0.408-0.406-0.691-0.672-0.852-0.797L308.58,196.936z M308.876,195.799
		c0.551-0.418,0.896-0.768,1.034-1.049s0.208-0.543,0.208-0.785c0-0.293-0.129-0.56-0.387-0.8s-0.59-0.36-0.996-0.36
		c-0.438,0-0.771,0.131-0.999,0.393s-0.343,0.533-0.343,0.814c0,0.273,0.096,0.531,0.287,0.773s0.498,0.514,0.92,0.814
		L308.876,195.799z"/>
	<path d="M313.37,196.531v-4.365h5.092v1.049h-4.002v2.227h0.188c1.309,0,2.316,0.273,3.023,0.82s1.061,1.283,1.061,2.209
		c0,0.586-0.143,1.111-0.428,1.576s-0.688,0.829-1.207,1.093s-1.072,0.396-1.658,0.396s-1.336-0.143-2.25-0.428v-1.189
		c0.332,0.18,0.703,0.327,1.113,0.442s0.789,0.173,1.137,0.173s0.688-0.084,1.02-0.252s0.59-0.413,0.773-0.735
		s0.275-0.651,0.275-0.987c0-0.566-0.251-1.046-0.753-1.438s-1.394-0.589-2.675-0.589H313.37z"/>
	<path d="M319.886,202.168v-0.908h6.363v0.908H319.886z"/>
	<path d="M329.413,201.26v-5.637h-1.816v-0.908h2.906v5.637h1.822v0.908H329.413z M329.232,192.354c0-0.246,0.084-0.43,0.252-0.551
		s0.326-0.182,0.475-0.182c0.152,0,0.312,0.061,0.48,0.182s0.252,0.305,0.252,0.551c0,0.242-0.084,0.424-0.252,0.545
		s-0.328,0.182-0.48,0.182c-0.148,0-0.307-0.061-0.475-0.182S329.232,192.596,329.232,192.354z"/>
	<path d="M334.781,201.26v-6.545h1.09v1.43c0.312-0.504,0.689-0.898,1.131-1.184s0.883-0.428,1.324-0.428
		c0.387,0,0.738,0.103,1.055,0.308s0.538,0.474,0.665,0.806s0.19,0.984,0.19,1.957v3.656h-1.09v-3.791
		c0-0.629-0.03-1.044-0.091-1.245s-0.172-0.366-0.334-0.495s-0.339-0.193-0.53-0.193c-0.383,0-0.794,0.182-1.233,0.545
		s-0.802,0.818-1.087,1.365v3.814H334.781z"/>
	<path d="M342.058,200.914v-1.154c0.438,0.285,0.9,0.485,1.389,0.601s0.902,0.173,1.242,0.173c0.551,0,0.947-0.089,1.189-0.267
		s0.363-0.399,0.363-0.665c0-0.176-0.057-0.326-0.17-0.451s-0.395-0.279-0.844-0.463l-0.375-0.152l-0.756-0.299
		c-0.812-0.316-1.325-0.608-1.538-0.876s-0.319-0.593-0.319-0.976c0-0.539,0.208-0.982,0.624-1.33s1.091-0.521,2.024-0.521
		c0.699,0,1.361,0.102,1.986,0.305v0.99c-0.719-0.258-1.395-0.387-2.027-0.387c-0.461,0-0.821,0.081-1.081,0.243
		s-0.39,0.364-0.39,0.606c0,0.234,0.112,0.422,0.337,0.562s0.589,0.303,1.093,0.486l0.738,0.27c0.676,0.246,1.15,0.514,1.424,0.803
		s0.41,0.65,0.41,1.084c0,0.566-0.218,1.032-0.653,1.397s-1.132,0.548-2.089,0.548C343.8,201.441,342.941,201.266,342.058,200.914z"
		/>
	<path d="M354.656,200.996c-0.512,0.215-0.883,0.343-1.113,0.384s-0.453,0.062-0.668,0.062c-0.457,0-0.875-0.088-1.254-0.264
		s-0.665-0.436-0.858-0.779s-0.29-0.875-0.29-1.594v-2.637h-1.635v-0.908h1.635v-2.637h1.09v2.637h2.912v0.908h-2.912v2.619
		c0,0.527,0.062,0.899,0.188,1.116s0.292,0.376,0.501,0.478s0.456,0.152,0.741,0.152c0.527,0,1.082-0.166,1.664-0.498V200.996z"/>
	<path d="M360.685,199.789c-0.332,0.547-0.731,0.959-1.198,1.236s-0.896,0.416-1.286,0.416c-0.547,0-1.038-0.236-1.474-0.709
		s-0.653-1.189-0.653-2.15c0-0.758,0.145-1.435,0.434-2.03s0.676-1.066,1.16-1.412s1.084-0.519,1.799-0.519
		c0.207,0,0.52,0.021,0.938,0.064c0.062,0.008,0.156,0.018,0.281,0.029h1.096v4.623c0,0.789,0.082,1.43,0.246,1.922h-1.137
		C360.804,200.9,360.736,200.41,360.685,199.789z M360.685,198.494v-2.807c-0.387-0.102-0.746-0.152-1.078-0.152
		c-0.672,0-1.231,0.26-1.679,0.779s-0.671,1.227-0.671,2.121c0,0.648,0.122,1.138,0.366,1.468s0.522,0.495,0.835,0.495
		c0.34,0,0.715-0.172,1.125-0.516S360.361,199.076,360.685,198.494z"/>
	<path d="M363.585,201.26v-6.545h1.09v1.43c0.312-0.504,0.689-0.898,1.131-1.184s0.883-0.428,1.325-0.428
		c0.387,0,0.738,0.103,1.055,0.308s0.538,0.474,0.665,0.806s0.19,0.984,0.19,1.957v3.656h-1.09v-3.791
		c0-0.629-0.03-1.044-0.091-1.245s-0.172-0.366-0.334-0.495s-0.339-0.193-0.531-0.193c-0.383,0-0.794,0.182-1.233,0.545
		s-0.802,0.818-1.087,1.365v3.814H363.585z"/>
	<path d="M376.295,201.072c-0.73,0.246-1.426,0.369-2.086,0.369c-0.656,0-1.239-0.151-1.749-0.454s-0.907-0.713-1.192-1.23
		s-0.428-1.106-0.428-1.767c0-0.992,0.323-1.816,0.97-2.473s1.427-0.984,2.341-0.984c0.676,0,1.391,0.127,2.145,0.381v1.049
		c-0.762-0.348-1.443-0.521-2.045-0.521c-0.398,0-0.773,0.099-1.125,0.296s-0.623,0.505-0.814,0.923s-0.287,0.848-0.287,1.289
		c0,0.59,0.185,1.152,0.554,1.688s0.948,0.803,1.737,0.803c0.238,0,0.473-0.017,0.703-0.05s0.656-0.155,1.277-0.366V201.072z"/>
	<path d="M383.431,200.826c-0.871,0.414-1.695,0.621-2.473,0.621c-0.59,0-1.117-0.146-1.582-0.439s-0.837-0.712-1.116-1.257
		s-0.419-1.128-0.419-1.749c0-0.598,0.133-1.172,0.398-1.723s0.637-0.979,1.113-1.286s1.008-0.46,1.594-0.46
		c0.777,0,1.401,0.277,1.872,0.832s0.706,1.41,0.706,2.566v0.234h-4.512c0,0.453,0.095,0.867,0.284,1.242s0.438,0.656,0.747,0.844
		s0.66,0.281,1.055,0.281c0.703,0,1.48-0.234,2.332-0.703V200.826z M379.078,197.352h3.264v-0.158c0-0.535-0.131-0.961-0.393-1.277
		s-0.611-0.475-1.049-0.475c-0.441,0-0.823,0.161-1.146,0.483S379.207,196.723,379.078,197.352z"/>
	<path d="M384.697,202.168v-0.908h6.363v0.908H384.697z"/>
	<path d="M397.863,200.996c-0.512,0.215-0.883,0.343-1.113,0.384s-0.453,0.062-0.668,0.062c-0.457,0-0.875-0.088-1.254-0.264
		s-0.665-0.436-0.858-0.779s-0.29-0.875-0.29-1.594v-2.637h-1.635v-0.908h1.635v-2.637h1.09v2.637h2.912v0.908h-2.912v2.619
		c0,0.527,0.062,0.899,0.188,1.116s0.292,0.376,0.501,0.478s0.456,0.152,0.741,0.152c0.527,0,1.082-0.166,1.664-0.498V200.996z"/>
</g>
<g>
	<path d="M289.757,231.565v6.545h-1.09v-1.436c-0.352,0.539-0.742,0.943-1.172,1.213s-0.859,0.404-1.289,0.404
		c-0.383,0-0.733-0.103-1.052-0.308s-0.54-0.475-0.665-0.809s-0.188-0.985-0.188-1.954v-3.656h1.09v3.791
		c0,0.629,0.03,1.044,0.091,1.245s0.172,0.366,0.334,0.495s0.337,0.193,0.524,0.193c0.383,0,0.794-0.181,1.233-0.542
		s0.804-0.817,1.093-1.368v-3.814H289.757z"/>
	<path d="M293.408,238.11v-5.637h-1.816v-0.908h2.906v5.637h1.822v0.908H293.408z M293.226,229.204c0-0.246,0.084-0.43,0.252-0.551
		s0.326-0.182,0.475-0.182c0.152,0,0.312,0.061,0.48,0.182s0.252,0.305,0.252,0.551c0,0.242-0.084,0.424-0.252,0.545
		s-0.328,0.182-0.48,0.182c-0.148,0-0.307-0.061-0.475-0.182S293.226,229.446,293.226,229.204z"/>
	<path d="M298.775,238.11v-6.545h1.09v1.43c0.312-0.504,0.689-0.898,1.131-1.184s0.883-0.428,1.324-0.428
		c0.387,0,0.738,0.103,1.055,0.308s0.538,0.474,0.665,0.806s0.19,0.984,0.19,1.957v3.656h-1.09v-3.791
		c0-0.629-0.03-1.044-0.091-1.245s-0.172-0.366-0.334-0.495s-0.339-0.193-0.53-0.193c-0.383,0-0.794,0.182-1.233,0.545
		s-0.802,0.818-1.087,1.365v3.814H298.775z"/>
	<path d="M311.449,237.847c-0.512,0.215-0.883,0.343-1.113,0.384s-0.453,0.062-0.668,0.062c-0.457,0-0.875-0.088-1.254-0.264
		s-0.665-0.436-0.858-0.779s-0.29-0.875-0.29-1.594v-2.637h-1.635v-0.908h1.635v-2.637h1.09v2.637h2.912v0.908h-2.912v2.619
		c0,0.527,0.062,0.899,0.188,1.116s0.292,0.376,0.501,0.478s0.456,0.152,0.741,0.152c0.527,0,1.082-0.166,1.664-0.498V237.847z"/>
	<path d="M314.958,233.206l-0.199-0.146c-0.277-0.195-0.549-0.483-0.815-0.864s-0.398-0.8-0.398-1.257
		c0-0.605,0.238-1.122,0.715-1.55s1.082-0.642,1.816-0.642c0.449,0,0.854,0.081,1.213,0.243s0.637,0.401,0.832,0.718
		s0.293,0.662,0.293,1.037c0,0.258-0.045,0.507-0.134,0.747s-0.223,0.479-0.4,0.715s-0.528,0.569-1.054,0.999l0.492,0.393
		c0.572,0.469,0.957,0.873,1.155,1.213c0.199,0.34,0.298,0.721,0.298,1.143c0,0.656-0.238,1.226-0.715,1.708
		s-1.191,0.724-2.145,0.724c-0.957,0-1.674-0.226-2.15-0.677s-0.715-1.011-0.715-1.679
		C313.048,235.034,313.685,234.093,314.958,233.206z M315.781,233.786c-1.033,0.793-1.549,1.535-1.549,2.227
		c0,0.41,0.17,0.756,0.51,1.037s0.742,0.422,1.207,0.422c0.426,0,0.807-0.135,1.143-0.404s0.504-0.605,0.504-1.008
		c0-0.395-0.204-0.795-0.611-1.201c-0.408-0.406-0.691-0.672-0.852-0.797L315.781,233.786z M316.077,232.649
		c0.551-0.418,0.896-0.768,1.034-1.049s0.208-0.543,0.208-0.785c0-0.293-0.129-0.56-0.387-0.8s-0.59-0.36-0.996-0.36
		c-0.438,0-0.771,0.131-0.999,0.393s-0.343,0.533-0.343,0.814c0,0.273,0.096,0.531,0.287,0.773s0.498,0.514,0.92,0.814
		L316.077,232.649z"/>
	<path d="M319.886,239.019v-0.908h6.363v0.908H319.886z"/>
	<path d="M333.052,237.847c-0.512,0.215-0.883,0.343-1.113,0.384s-0.453,0.062-0.668,0.062c-0.457,0-0.875-0.088-1.254-0.264
		s-0.665-0.436-0.858-0.779s-0.29-0.875-0.29-1.594v-2.637h-1.635v-0.908h1.635v-2.637h1.09v2.637h2.912v0.908h-2.912v2.619
		c0,0.527,0.062,0.899,0.188,1.116s0.292,0.376,0.501,0.478s0.456,0.152,0.741,0.152c0.527,0,1.082-0.166,1.664-0.498V237.847z"/>
</g>
</svg>
