<?xml version="1.0" encoding="utf-8"?>
<!-- Generator: Adobe Illustrator 26.1.0, SVG Export Plug-In . SVG Version: 6.00 Build 0)  -->
<svg version="1.1" id="Layer_1" xmlns="http://www.w3.org/2000/svg" xmlns:xlink="http://www.w3.org/1999/xlink" x="0px" y="0px"
	 viewBox="0 0 352 106" style="enable-background:new 0 0 352 106;" xml:space="preserve">
<style type="text/css">
	.st0{fill:#808080;}
	.st1{font-family:'ArialMT';}
	.st2{font-size:3.96px;}
	.st3{fill:none;stroke:#0DAB76;stroke-width:0.432;stroke-linecap:round;stroke-miterlimit:11.3386;}
	.st4{fill:#0DAB76;}
	.st5{font-size:5.544px;}
	.st6{fill:none;stroke:#C90D0C;stroke-width:0.432;stroke-linecap:round;stroke-miterlimit:11.3386;}
	.st7{fill:none;stroke:#C90D0C;stroke-width:0.72;stroke-linecap:round;stroke-miterlimit:11.3386;}
	.st8{fill:#C90D0C;}
	.st9{font-size:4.752px;}
	.st10{fill:none;stroke:#C90D0C;stroke-width:1.152;stroke-linecap:round;stroke-miterlimit:11.3386;}
	.st11{fill:none;stroke:#C90D0C;stroke-width:1.728;stroke-linecap:round;stroke-miterlimit:11.3386;}
	.st12{fill:none;stroke:#C90D0C;stroke-width:1.44;stroke-miterlimit:11.3386;}
	.st13{fill:none;stroke:#C90D0C;stroke-width:0.504;stroke-linecap:round;stroke-miterlimit:11.3386;}
	.st14{fill:none;stroke:#C90D0C;stroke-width:3.6;stroke-miterlimit:11.3386;}
	.st15{fill:none;stroke:#C90D0C;stroke-width:0.288;stroke-linecap:round;stroke-miterlimit:11.3386;}
	.st16{fill:none;stroke:#C90D0C;stroke-width:0.576;stroke-linecap:round;stroke-miterlimit:11.3386;}
	.st17{fill:none;stroke:#C90D0C;stroke-width:0.36;stroke-miterlimit:11.3386;}
	.st18{fill:none;stroke:#C90D0C;stroke-width:1.152;stroke-miterlimit:11.3386;}
	.st19{fill:none;stroke:#C90D0C;stroke-width:0.36;stroke-linecap:round;stroke-miterlimit:11.3386;}
	.st20{font-size:3.168px;}
</style>
<desc>generated by eagle2svg 1.2, developed by http://www.nicai-systems.de</desc>
<g id="surface0">
	<text transform="matrix(6.123234e-17 -1 1 6.123234e-17 -133.4834 216.9853)" class="st0 st1 st5">Up chip deguggingJTAG</text>
	<text transform="matrix(6.123234e-17 -1 1 6.123234e-17 335.2354 311.9511)" class="st0 st1 st5">PoolController</text>
	<text transform="matrix(1 0 0 1 320.1162 71.404)" class="st0 st1 st2">bypass</text>
	<g>
		<line class="st3" x1="251" y1="23.9" x2="251" y2="38.3"/>
		<line class="st3" x1="-123.4" y1="160.7" x2="-123.4" y2="182.3"/>
		<line class="st3" x1="-123.4" y1="182.3" x2="-109" y2="182.3"/>
		<line class="st3" x1="294.2" y1="23.9" x2="294.2" y2="31.1"/>
		<line class="st3" x1="315.8" y1="31.1" x2="315.8" y2="38.3"/>
		<line class="st3" x1="315.8" y1="31.1" x2="294.2" y2="31.1"/>
		<circle class="st4" cx="294.2" cy="31.1" r="1.4"/>
	</g>
	<g>
		<line class="st3" x1="35" y1="38.3" x2="6.2" y2="38.3"/>
		<text transform="matrix(1 0 0 1 6.1963 38.2848)" class="st0 st1 st5">15V</text>
		<line class="st3" x1="287" y1="247.1" x2="287" y2="283.1"/>
		<line class="st3" x1="287" y1="283.1" x2="290.6" y2="283.1"/>
		<text transform="matrix(1 0 0 1 286.9961 247.0856)" class="st0 st1 st5">15V</text>
	</g>
	<g>
		<line class="st3" x1="207.8" y1="290.3" x2="215" y2="290.3"/>
		<line class="st3" x1="215" y1="290.3" x2="290.6" y2="290.3"/>
		<line class="st3" x1="215" y1="261.5" x2="215" y2="290.3"/>
		<circle class="st4" cx="215" cy="290.3" r="1.4"/>
		<text transform="matrix(1 0 0 1 229.3965 290.2848)" class="st0 st1 st5">A</text>
	</g>
	<g>
		<line class="st3" x1="207.8" y1="275.9" x2="272.6" y2="275.9"/>
		<line class="st3" x1="272.6" y1="275.9" x2="272.6" y2="297.5"/>
		<line class="st3" x1="272.6" y1="297.5" x2="290.6" y2="297.5"/>
		<line class="st3" x1="272.6" y1="261.5" x2="272.6" y2="275.9"/>
		<circle class="st4" cx="272.6" cy="275.9" r="1.4"/>
		<text transform="matrix(1 0 0 1 229.3965 275.8844)" class="st0 st1 st5">B</text>
	</g>
	<g>
		<line class="st3" x1="99.8" y1="81.5" x2="99.8" y2="74.3"/>
		<line class="st3" x1="56.6" y1="81.5" x2="56.6" y2="74.3"/>
		<line class="st3" x1="135.8" y1="74.3" x2="135.8" y2="81.5"/>
		<line class="st3" x1="-109" y1="189.5" x2="-123.4" y2="189.5"/>
		<line class="st3" x1="-123.4" y1="189.5" x2="-123.4" y2="196.7"/>
		<line class="st3" x1="-123.4" y1="196.7" x2="-123.4" y2="203.9"/>
		<line class="st3" x1="-123.4" y1="203.9" x2="-123.4" y2="211.1"/>
		<line class="st3" x1="-109" y1="196.7" x2="-123.4" y2="196.7"/>
		<line class="st3" x1="-109" y1="203.9" x2="-123.4" y2="203.9"/>
		<line class="st3" x1="-109" y1="211.1" x2="-123.4" y2="211.1"/>
		<line class="st3" x1="-123.4" y1="211.1" x2="-123.4" y2="225.5"/>
		<circle class="st4" cx="-123.4" cy="196.7" r="1.4"/>
		<circle class="st4" cx="-123.4" cy="203.9" r="1.4"/>
		<circle class="st4" cx="-123.4" cy="211.1" r="1.4"/>
		<line class="st3" x1="287" y1="319.1" x2="287" y2="304.7"/>
		<line class="st3" x1="287" y1="304.7" x2="290.6" y2="304.7"/>
		<line class="st3" x1="251" y1="67.1" x2="251" y2="81.5"/>
		<line class="st3" x1="294.2" y1="81.5" x2="294.2" y2="74.3"/>
		<line class="st3" x1="315.8" y1="74.3" x2="315.8" y2="59.9"/>
		<line class="st3" x1="315.8" y1="74.3" x2="294.2" y2="74.3"/>
		<circle class="st4" cx="294.2" cy="74.3" r="1.4"/>
		<line class="st3" x1="85.4" y1="247.1" x2="99.8" y2="247.1"/>
		<line class="st3" x1="99.8" y1="247.1" x2="99.8" y2="254.3"/>
		<line class="st3" x1="85.4" y1="239.9" x2="99.8" y2="239.9"/>
		<line class="st3" x1="99.8" y1="239.9" x2="99.8" y2="247.1"/>
		<line class="st3" x1="85.4" y1="232.7" x2="99.8" y2="232.7"/>
		<line class="st3" x1="99.8" y1="232.7" x2="99.8" y2="239.9"/>
		<circle class="st4" cx="99.8" cy="247.1" r="1.4"/>
		<circle class="st4" cx="99.8" cy="239.9" r="1.4"/>
	</g>
	<g>
		<line class="st3" x1="-73" y1="211.1" x2="-22.6" y2="211.1"/>
		<text transform="matrix(1 0 0 1 -65.8037 211.0856)" class="st0 st1 st5">JTAG_!RST</text>
	</g>
	<g>
		<line class="st3" x1="-73" y1="189.5" x2="-22.6" y2="189.5"/>
		<text transform="matrix(1 0 0 1 -65.8037 189.484)" class="st0 st1 st5">JTAG_CK</text>
	</g>
	<g>
		<line class="st3" x1="-73" y1="203.9" x2="-22.6" y2="203.9"/>
		<text transform="matrix(1 0 0 1 -65.8037 203.8844)" class="st0 st1 st5">JTAG_DI</text>
	</g>
	<g>
		<line class="st3" x1="-73" y1="196.7" x2="-22.6" y2="196.7"/>
		<text transform="matrix(1 0 0 1 -65.8037 196.6852)" class="st0 st1 st5">JTAG_DO</text>
	</g>
	<g>
		<line class="st3" x1="-73" y1="182.3" x2="-22.6" y2="182.3"/>
		<text transform="matrix(1 0 0 1 -65.8037 182.2848)" class="st0 st1 st5">JTAG_MS</text>
	</g>
	<g>
		<line class="st3" x1="85.4" y1="297.5" x2="128.6" y2="297.5"/>
		<line class="st3" x1="128.6" y1="297.5" x2="128.6" y2="290.3"/>
		<line class="st3" x1="128.6" y1="290.3" x2="128.6" y2="275.9"/>
		<line class="st3" x1="128.6" y1="275.9" x2="135.8" y2="275.9"/>
		<line class="st3" x1="135.8" y1="290.3" x2="128.6" y2="290.3"/>
		<circle class="st4" cx="128.6" cy="290.3" r="1.4"/>
		<text transform="matrix(1 0 0 1 92.5967 297.485)" class="st0 st1 st5">RTS</text>
	</g>
	<g>
		<line class="st3" x1="85.4" y1="283.1" x2="114.2" y2="283.1"/>
		<line class="st3" x1="114.2" y1="283.1" x2="114.2" y2="261.5"/>
		<line class="st3" x1="114.2" y1="261.5" x2="135.8" y2="261.5"/>
		<text transform="matrix(1 0 0 1 92.5967 283.0846)" class="st0 st1 st5">RX2</text>
	</g>
	<g>
		<line class="st3" x1="85.4" y1="290.3" x2="114.2" y2="290.3"/>
		<line class="st3" x1="114.2" y1="290.3" x2="114.2" y2="304.7"/>
		<line class="st3" x1="114.2" y1="304.7" x2="135.8" y2="304.7"/>
		<text transform="matrix(1 0 0 1 92.5967 290.2848)" class="st0 st1 st5">TX</text>
	</g>
	<g>
		<line class="st3" x1="49.4" y1="38.3" x2="56.6" y2="38.3"/>
		<line class="st3" x1="56.6" y1="38.3" x2="63.8" y2="38.3"/>
		<line class="st3" x1="56.6" y1="52.7" x2="56.6" y2="38.3"/>
		<circle class="st4" cx="56.6" cy="38.3" r="1.4"/>
	</g>
	<g>
		<line class="st3" x1="135.8" y1="52.7" x2="135.8" y2="38.3"/>
		<line class="st3" x1="135.8" y1="38.3" x2="164.6" y2="38.3"/>
		<circle class="st4" cx="135.8" cy="38.3" r="1.4"/>
	</g>
	<g>
		<line class="st6" x1="-123.4" y1="160.7" x2="-123.4" y2="153.5"/>
		<line class="st7" x1="-119.8" y1="158.9" x2="-123.4" y2="153.5"/>
		<line class="st7" x1="-123.4" y1="153.5" x2="-127" y2="158.9"/>
		<text transform="matrix(1 0 0 1 -123.4033 149.8844)" class="st0 st1 st5">3V3</text>
	</g>
	<g>
		<line class="st6" x1="294.2" y1="23.9" x2="294.2" y2="16.7"/>
		<line class="st7" x1="297.8" y1="22.1" x2="294.2" y2="16.7"/>
		<line class="st7" x1="294.2" y1="16.7" x2="290.6" y2="22.1"/>
		<text transform="matrix(1 0 0 1 294.1963 13.0856)" class="st0 st1 st5">3V3</text>
	</g>
	<g>
		<line class="st6" x1="251" y1="23.9" x2="251" y2="16.7"/>
		<line class="st7" x1="254.6" y1="22.1" x2="251" y2="16.7"/>
		<line class="st7" x1="251" y1="16.7" x2="247.4" y2="22.1"/>
		<text transform="matrix(1 0 0 1 250.9961 13.0856)" class="st0 st1 st5">3V3</text>
	</g>
	<g>
		<rect x="50.8" y="64.2" class="st8" width="11.5" height="1.4"/>
		<rect x="50.8" y="61.3" class="st8" width="11.5" height="1.4"/>
		<line class="st6" x1="56.6" y1="52.7" x2="56.6" y2="59.9"/>
		<line class="st6" x1="56.6" y1="74.3" x2="56.6" y2="67.1"/>
		<line class="st6" x1="56.6" y1="59.9" x2="56.6" y2="61.3"/>
		<line class="st6" x1="56.6" y1="67.1" x2="56.6" y2="65.6"/>
		<text transform="matrix(1 0 0 1 60.916 58.8044)" class="st0 st1 st5">C1</text>
		<text transform="matrix(1 0 0 1 60.916 73.2048)" class="st0 st1 st5">10uF mlcc 25V</text>
	</g>
	<g>
		<rect x="130" y="64.2" class="st8" width="11.5" height="1.4"/>
		<rect x="130" y="61.3" class="st8" width="11.5" height="1.4"/>
		<line class="st6" x1="135.8" y1="52.7" x2="135.8" y2="59.9"/>
		<line class="st6" x1="135.8" y1="74.3" x2="135.8" y2="67.1"/>
		<line class="st6" x1="135.8" y1="59.9" x2="135.8" y2="61.3"/>
		<line class="st6" x1="135.8" y1="67.1" x2="135.8" y2="65.6"/>
		<text transform="matrix(1 0 0 1 140.1162 58.8044)" class="st0 st1 st5">C2</text>
		<text transform="matrix(1 0 0 1 140.1162 73.2048)" class="st0 st1 st5">10uF mlcc</text>
	</g>
	<g>
		<rect x="310" y="49.8" class="st8" width="11.5" height="1.4"/>
		<rect x="310" y="46.9" class="st8" width="11.5" height="1.4"/>
		<line class="st6" x1="315.8" y1="38.3" x2="315.8" y2="45.5"/>
		<line class="st6" x1="315.8" y1="59.9" x2="315.8" y2="52.7"/>
		<line class="st6" x1="315.8" y1="45.5" x2="315.8" y2="46.9"/>
		<line class="st6" x1="315.8" y1="52.7" x2="315.8" y2="51.2"/>
		<text transform="matrix(1 0 0 1 320.1162 44.404)" class="st0 st1 st5">C3</text>
		<text transform="matrix(1 0 0 1 320.1162 58.8044)" class="st0 st1 st5">0.1uF cer.</text>
	</g>
	<g>
		<line class="st6" x1="35" y1="38.3" x2="42.2" y2="38.3"/>
		<line class="st6" x1="49.4" y1="38.3" x2="42.2" y2="38.3"/>
		<line class="st7" x1="38.6" y1="41.9" x2="45.8" y2="38.3"/>
		<line class="st7" x1="45.8" y1="38.3" x2="38.6" y2="34.7"/>
		<line class="st7" x1="47.6" y1="34.7" x2="45.8" y2="34.7"/>
		<line class="st7" x1="45.8" y1="34.7" x2="45.8" y2="38.3"/>
		<line class="st7" x1="38.6" y1="34.7" x2="38.6" y2="41.9"/>
		<line class="st7" x1="45.8" y1="38.3" x2="45.8" y2="41.9"/>
		<line class="st7" x1="47.6" y1="34.7" x2="47.6" y2="35.4"/>
		<line class="st7" x1="45.8" y1="41.9" x2="44" y2="41.9"/>
		<line class="st7" x1="44" y1="41.2" x2="44" y2="41.9"/>
		<text transform="matrix(1 0 0 1 42.1963 32.8844)" class="st0 st1 st5">D2</text>
		<text transform="matrix(1 0 0 1 42.1963 48.7243)" class="st0 st1 st5">1N5818</text>
	</g>
	<g>
		<line class="st6" x1="99.8" y1="74.3" x2="99.8" y2="52.7"/>
		<text transform="matrix(6.123234e-17 -1 1 6.123234e-17 98.7881 61.9508)" class="st0 st1 st9">2</text>
		<line class="st6" x1="63.8" y1="38.3" x2="78.2" y2="38.3"/>
		<text transform="matrix(1 0 0 1 84.8203 40.445)" class="st0 st1 st9">VIN</text>
		<text transform="matrix(1 0 0 1 68.9297 37.277)" class="st0 st1 st9">1</text>
		<line class="st6" x1="135.8" y1="38.3" x2="121.4" y2="38.3"/>
		<text transform="matrix(1 0 0 1 101.5723 40.445)" class="st0 st1 st9">VOUT</text>
		<text transform="matrix(1 0 0 1 128.0205 37.277)" class="st0 st1 st9">3</text>
		<line class="st10" x1="78.2" y1="23.9" x2="121.4" y2="23.9"/>
		<line class="st10" x1="121.4" y1="23.9" x2="121.4" y2="52.7"/>
		<line class="st10" x1="121.4" y1="52.7" x2="78.2" y2="52.7"/>
		<line class="st10" x1="78.2" y1="52.7" x2="78.2" y2="23.9"/>
		<text transform="matrix(1 0 0 1 99.7969 30.0055)" class="st8 st1 st2">DC/DC</text>
		<text transform="matrix(1 0 0 1 92.5967 49.0856)" class="st0 st1 st9">GND</text>
		<text transform="matrix(1 0 0 1 78.1963 14.5251)" class="st0 st1 st5">DC1</text>
		<text transform="matrix(1 0 0 1 78.1963 21.0055)" class="st0 st1 st5">R-78E5.0-0.5</text>
	</g>
	<g>
		<line class="st6" x1="99.8" y1="254.3" x2="99.8" y2="261.5"/>
		<line class="st7" x1="94.4" y1="261.5" x2="105.2" y2="261.5"/>
		<text transform="matrix(1 0 0 1 99.7969 268.6852)" class="st0 st1 st5">GND</text>
	</g>
	<g>
		<line class="st6" x1="56.6" y1="81.5" x2="56.6" y2="88.7"/>
		<line class="st7" x1="62" y1="88.7" x2="51.2" y2="88.7"/>
		<text transform="matrix(1 0 0 1 51.4766 95.8844)" class="st0 st1 st5">GND</text>
	</g>
	<g>
		<line class="st6" x1="135.8" y1="81.5" x2="135.8" y2="88.7"/>
		<line class="st7" x1="141.2" y1="88.7" x2="130.4" y2="88.7"/>
		<text transform="matrix(1 0 0 1 130.6768 95.8844)" class="st0 st1 st5">GND</text>
	</g>
	<g>
		<line class="st6" x1="99.8" y1="81.5" x2="99.8" y2="88.7"/>
		<line class="st7" x1="105.2" y1="88.7" x2="94.4" y2="88.7"/>
		<text transform="matrix(1 0 0 1 94.6768 95.8844)" class="st0 st1 st5">GND</text>
	</g>
	<g>
		<line class="st6" x1="-123.4" y1="225.5" x2="-123.4" y2="232.7"/>
		<line class="st7" x1="-128.8" y1="232.7" x2="-118" y2="232.7"/>
		<text transform="matrix(1 0 0 1 -123.4033 239.8844)" class="st0 st1 st5">GND</text>
	</g>
	<g>
		<line class="st6" x1="287" y1="319.1" x2="287" y2="326.3"/>
		<line class="st7" x1="281.6" y1="326.3" x2="292.4" y2="326.3"/>
		<text transform="matrix(1 0 0 1 286.9961 333.485)" class="st0 st1 st5">GND</text>
	</g>
	<g>
		<line class="st6" x1="251" y1="81.5" x2="251" y2="88.7"/>
		<line class="st7" x1="245.6" y1="88.7" x2="256.4" y2="88.7"/>
		<text transform="matrix(1 0 0 1 250.9961 95.8844)" class="st0 st1 st5">GND</text>
	</g>
	<g>
		<line class="st6" x1="294.2" y1="81.5" x2="294.2" y2="88.7"/>
		<line class="st7" x1="288.8" y1="88.7" x2="299.6" y2="88.7"/>
		<text transform="matrix(1 0 0 1 294.1963 95.8844)" class="st0 st1 st5">GND</text>
	</g>
	<g>
		<line class="st6" x1="290.6" y1="283.1" x2="305" y2="283.1"/>
		<text transform="matrix(1 0 0 1 311.6201 285.2448)" class="st0 st1 st9">15V</text>
		<text transform="matrix(1 0 0 1 295.7295 282.0768)" class="st0 st1 st9">1</text>
		<line class="st6" x1="290.6" y1="290.3" x2="305" y2="290.3"/>
		<text transform="matrix(1 0 0 1 311.6201 292.445)" class="st0 st1 st9">A</text>
		<text transform="matrix(1 0 0 1 295.7295 289.277)" class="st0 st1 st9">2</text>
		<line class="st6" x1="290.6" y1="297.5" x2="305" y2="297.5"/>
		<text transform="matrix(1 0 0 1 311.6201 299.6452)" class="st0 st1 st9">B</text>
		<text transform="matrix(1 0 0 1 295.7295 296.4772)" class="st0 st1 st9">3</text>
		<line class="st6" x1="290.6" y1="304.7" x2="305" y2="304.7"/>
		<text transform="matrix(1 0 0 1 311.6201 306.8444)" class="st0 st1 st9">GND</text>
		<text transform="matrix(1 0 0 1 295.7295 303.6764)" class="st0 st1 st9">4</text>
		<line class="st10" x1="326.6" y1="311.9" x2="301.4" y2="311.9"/>
		<line class="st11" x1="305" y1="283.1" x2="308.6" y2="283.1"/>
		<line class="st11" x1="305" y1="290.3" x2="308.6" y2="290.3"/>
		<line class="st11" x1="308.6" y1="297.5" x2="305" y2="297.5"/>
		<line class="st10" x1="301.4" y1="275.9" x2="301.4" y2="311.9"/>
		<line class="st10" x1="326.6" y1="311.9" x2="326.6" y2="275.9"/>
		<line class="st10" x1="301.4" y1="275.9" x2="326.6" y2="275.9"/>
		<line class="st11" x1="308.6" y1="304.7" x2="305" y2="304.7"/>
		<text transform="matrix(1 0 0 1 301.3965 319.0846)" class="st0 st1 st5">RS485-TERM-SPTAF</text>
		<text transform="matrix(1 0 0 1 301.3965 274.445)" class="st0 st1 st5">J2</text>
	</g>
	<g>
		<circle class="st12" cx="-87.4" cy="182.3" r="0.9"/>
		<circle class="st12" cx="-94.6" cy="189.5" r="0.9"/>
		<circle class="st12" cx="-87.4" cy="189.5" r="0.9"/>
		<circle class="st12" cx="-87.4" cy="196.7" r="0.9"/>
		<circle class="st12" cx="-94.6" cy="196.7" r="0.9"/>
		<circle class="st12" cx="-94.6" cy="203.9" r="0.9"/>
		<circle class="st12" cx="-87.4" cy="203.9" r="0.9"/>
		<circle class="st12" cx="-87.4" cy="211.1" r="0.9"/>
		<circle class="st12" cx="-94.6" cy="211.1" r="0.9"/>
		<rect x="-96.2" y="180.7" class="st8" width="3.2" height="3.2"/>
		<line class="st6" x1="-109" y1="182.3" x2="-101.8" y2="182.3"/>
		<text transform="matrix(1 0 0 1 -105.4541 181.277)" class="st0 st1 st9">1</text>
		<line class="st6" x1="-109" y1="189.5" x2="-101.8" y2="189.5"/>
		<text transform="matrix(1 0 0 1 -105.4541 188.4762)" class="st0 st1 st9">3</text>
		<line class="st6" x1="-109" y1="196.7" x2="-101.8" y2="196.7"/>
		<text transform="matrix(1 0 0 1 -105.4541 195.6774)" class="st0 st1 st9">5</text>
		<line class="st6" x1="-109" y1="203.9" x2="-101.8" y2="203.9"/>
		<text transform="matrix(1 0 0 1 -105.4541 202.8766)" class="st0 st1 st9">7</text>
		<line class="st6" x1="-109" y1="211.1" x2="-101.8" y2="211.1"/>
		<text transform="matrix(1 0 0 1 -105.4541 210.0758)" class="st0 st1 st9">9</text>
		<line class="st6" x1="-73" y1="211.1" x2="-80.2" y2="211.1"/>
		<text transform="matrix(1 0 0 1 -79.1953 210.0758)" class="st0 st1 st9">10</text>
		<line class="st6" x1="-73" y1="189.5" x2="-80.2" y2="189.5"/>
		<text transform="matrix(1 0 0 1 -79.1953 188.4762)" class="st0 st1 st9">4</text>
		<line class="st6" x1="-73" y1="203.9" x2="-80.2" y2="203.9"/>
		<text transform="matrix(1 0 0 1 -79.1953 202.8766)" class="st0 st1 st9">8</text>
		<line class="st6" x1="-73" y1="196.7" x2="-80.2" y2="196.7"/>
		<text transform="matrix(1 0 0 1 -79.1953 195.6774)" class="st0 st1 st9">6</text>
		<line class="st6" x1="-73" y1="182.3" x2="-80.2" y2="182.3"/>
		<text transform="matrix(1 0 0 1 -79.1953 181.277)" class="st0 st1 st9">2</text>
		<line class="st10" x1="-101.8" y1="167.9" x2="-80.2" y2="167.9"/>
		<line class="st10" x1="-80.2" y1="225.5" x2="-80.2" y2="211.1"/>
		<line class="st10" x1="-80.2" y1="211.1" x2="-80.2" y2="203.9"/>
		<line class="st10" x1="-80.2" y1="203.9" x2="-80.2" y2="196.7"/>
		<line class="st10" x1="-80.2" y1="196.7" x2="-80.2" y2="189.5"/>
		<line class="st10" x1="-80.2" y1="189.5" x2="-80.2" y2="182.3"/>
		<line class="st10" x1="-80.2" y1="182.3" x2="-80.2" y2="167.9"/>
		<line class="st10" x1="-80.2" y1="225.5" x2="-101.8" y2="225.5"/>
		<line class="st10" x1="-101.8" y1="167.9" x2="-101.8" y2="182.3"/>
		<line class="st10" x1="-101.8" y1="182.3" x2="-101.8" y2="189.5"/>
		<line class="st10" x1="-101.8" y1="189.5" x2="-101.8" y2="193.1"/>
		<line class="st10" x1="-101.8" y1="200.3" x2="-101.8" y2="203.9"/>
		<line class="st10" x1="-101.8" y1="203.9" x2="-101.8" y2="211.1"/>
		<line class="st10" x1="-101.8" y1="211.1" x2="-101.8" y2="225.5"/>
		<line class="st13" x1="-101.8" y1="182.3" x2="-94.6" y2="182.3"/>
		<line class="st13" x1="-101.8" y1="189.5" x2="-94.6" y2="189.5"/>
		<line class="st13" x1="-101.8" y1="203.9" x2="-94.6" y2="203.9"/>
		<line class="st13" x1="-101.8" y1="211.1" x2="-94.6" y2="211.1"/>
		<line class="st13" x1="-87.4" y1="211.1" x2="-80.2" y2="211.1"/>
		<line class="st13" x1="-87.4" y1="203.9" x2="-80.2" y2="203.9"/>
		<line class="st13" x1="-87.4" y1="196.7" x2="-80.2" y2="196.7"/>
		<line class="st13" x1="-87.4" y1="189.5" x2="-80.2" y2="189.5"/>
		<line class="st13" x1="-87.4" y1="182.3" x2="-80.2" y2="182.3"/>
		<line class="st13" x1="-101.8" y1="196.7" x2="-94.6" y2="196.7"/>
		<text transform="matrix(1 0 0 1 -101.8037 164.2848)" class="st0 st1 st5">J6</text>
		<text transform="matrix(1 0 0 1 -101.8037 232.6852)" class="st0 st1 st5">ESP-JTAG-2X05</text>
	</g>
	<g>
		<line class="st6" x1="-22.6" y1="211.1" x2="-8.2" y2="211.1"/>
		<text transform="matrix(1 0 0 1 -1.5791 213.2438)" class="st0 st1 st9">!RST/!JTAG_!RST</text>
		<text transform="matrix(1 0 0 1 -21.4287 210.0758)" class="st0 st1 st9">RS</text>
		<line class="st6" x1="85.4" y1="232.7" x2="71" y2="232.7"/>
		<text transform="matrix(1 0 0 1 57.7666 234.8454)" class="st0 st1 st9">I34</text>
		<text transform="matrix(1 0 0 1 77.6201 231.6774)" class="st0 st1 st9">34</text>
		<line class="st6" x1="85.4" y1="182.3" x2="71" y2="182.3"/>
		<text transform="matrix(1 0 0 1 56.7129 184.445)" class="st0 st1 st9">IO0</text>
		<text transform="matrix(1 0 0 1 77.6201 181.277)" class="st0 st1 st9">0</text>
		<line class="st6" x1="85.4" y1="189.5" x2="71" y2="189.5"/>
		<text transform="matrix(1 0 0 1 56.7129 191.6442)" class="st0 st1 st9">IO2</text>
		<text transform="matrix(1 0 0 1 77.6201 188.4762)" class="st0 st1 st9">2</text>
		<line class="st6" x1="85.4" y1="196.7" x2="71" y2="196.7"/>
		<text transform="matrix(1 0 0 1 56.7129 198.8454)" class="st0 st1 st9">IO4</text>
		<text transform="matrix(1 0 0 1 77.6201 195.6774)" class="st0 st1 st9">4</text>
		<line class="st6" x1="-22.6" y1="254.3" x2="-8.2" y2="254.3"/>
		<text transform="matrix(1 0 0 1 -1.5791 256.445)" class="st0 st1 st9">IO5/VSPI_CS/LED</text>
		<text transform="matrix(1 0 0 1 -17.4707 253.277)" class="st0 st1 st9">5</text>
		<line class="st6" x1="-22.6" y1="203.9" x2="-8.2" y2="203.9"/>
		<text transform="matrix(1 0 0 1 -1.5791 206.0446)" class="st0 st1 st9">IO12/JTAG_DI</text>
		<text transform="matrix(1 0 0 1 -20.1133 202.8766)" class="st0 st1 st9">12</text>
		<line class="st6" x1="-22.6" y1="189.5" x2="-8.2" y2="189.5"/>
		<text transform="matrix(1 0 0 1 -1.5791 191.6442)" class="st0 st1 st9">IO13/JTAG_CK</text>
		<text transform="matrix(1 0 0 1 -20.1133 188.4762)" class="st0 st1 st9">13</text>
		<line class="st6" x1="-22.6" y1="182.3" x2="-8.2" y2="182.3"/>
		<text transform="matrix(1 0 0 1 -1.5791 184.445)" class="st0 st1 st9">IO14/JTAG_MS</text>
		<text transform="matrix(1 0 0 1 -20.1133 181.277)" class="st0 st1 st9">14</text>
		<line class="st6" x1="-22.6" y1="196.7" x2="-8.2" y2="196.7"/>
		<text transform="matrix(1 0 0 1 -1.5791 198.8454)" class="st0 st1 st9">IO15/JTAG_DO</text>
		<text transform="matrix(1 0 0 1 -20.1133 195.6774)" class="st0 st1 st9">15</text>
		<line class="st6" x1="85.4" y1="203.9" x2="71" y2="203.9"/>
		<text transform="matrix(1 0 0 1 54.0703 206.0446)" class="st0 st1 st9">IO16</text>
		<text transform="matrix(1 0 0 1 77.6201 202.8766)" class="st0 st1 st9">16</text>
		<line class="st6" x1="85.4" y1="211.1" x2="71" y2="211.1"/>
		<text transform="matrix(1 0 0 1 54.0703 213.2438)" class="st0 st1 st9">IO17</text>
		<text transform="matrix(1 0 0 1 77.6201 210.0758)" class="st0 st1 st9">17</text>
		<line class="st6" x1="-22.6" y1="247.1" x2="-8.2" y2="247.1"/>
		<text transform="matrix(1 0 0 1 -1.5791 249.2448)" class="st0 st1 st9">IO18/VSPI_CLK</text>
		<text transform="matrix(1 0 0 1 -20.1133 246.0758)" class="st0 st1 st9">18</text>
		<line class="st6" x1="-22.6" y1="239.9" x2="-8.2" y2="239.9"/>
		<text transform="matrix(1 0 0 1 -1.5791 242.0446)" class="st0 st1 st9">IO19/VSPI_MISO</text>
		<text transform="matrix(1 0 0 1 -20.1133 238.8766)" class="st0 st1 st9">19</text>
		<line class="st6" x1="-22.6" y1="268.7" x2="-8.2" y2="268.7"/>
		<text transform="matrix(1 0 0 1 -1.5791 270.8444)" class="st0 st1 st9">IO21/I2C_SDA</text>
		<text transform="matrix(1 0 0 1 -20.1133 267.6764)" class="st0 st1 st9">21</text>
		<line class="st6" x1="-22.6" y1="275.9" x2="-8.2" y2="275.9"/>
		<text transform="matrix(1 0 0 1 -1.5791 278.0446)" class="st0 st1 st9">IO22/I2C_SCL</text>
		<text transform="matrix(1 0 0 1 -20.1133 274.8766)" class="st0 st1 st9">22</text>
		<line class="st6" x1="-22.6" y1="232.7" x2="-8.2" y2="232.7"/>
		<text transform="matrix(1 0 0 1 -1.5791 234.8454)" class="st0 st1 st9">IO23/VSPI_MOSI</text>
		<text transform="matrix(1 0 0 1 -20.1133 231.6774)" class="st0 st1 st9">23</text>
		<line class="st6" x1="85.4" y1="218.3" x2="71" y2="218.3"/>
		<text transform="matrix(1 0 0 1 54.0703 220.445)" class="st0 st1 st9">IO32</text>
		<text transform="matrix(1 0 0 1 77.6201 217.277)" class="st0 st1 st9">32</text>
		<line class="st6" x1="85.4" y1="225.5" x2="71" y2="225.5"/>
		<text transform="matrix(1 0 0 1 54.0703 227.6442)" class="st0 st1 st9">IO33</text>
		<text transform="matrix(1 0 0 1 77.6201 224.4762)" class="st0 st1 st9">33</text>
		<line class="st6" x1="85.4" y1="297.5" x2="71" y2="297.5"/>
		<text transform="matrix(1 0 0 1 40.6895 299.6452)" class="st0 st1 st9">RTS2/IO27</text>
		<text transform="matrix(1 0 0 1 77.6201 296.4772)" class="st0 st1 st9">27</text>
		<line class="st6" x1="85.4" y1="261.5" x2="71" y2="261.5"/>
		<text transform="matrix(1 0 0 1 46.1484 263.6452)" class="st0 st1 st9">RX0/IO3</text>
		<text transform="matrix(1 0 0 1 77.6201 260.4772)" class="st0 st1 st9">RX</text>
		<line class="st6" x1="85.4" y1="283.1" x2="71" y2="283.1"/>
		<text transform="matrix(1 0 0 1 43.5059 285.2448)" class="st0 st1 st9">RX2/IO25</text>
		<text transform="matrix(1 0 0 1 77.6201 282.0768)" class="st0 st1 st9">25</text>
		<line class="st6" x1="85.4" y1="268.7" x2="71" y2="268.7"/>
		<text transform="matrix(1 0 0 1 46.6777 270.8444)" class="st0 st1 st9">TX0/IO1</text>
		<text transform="matrix(1 0 0 1 77.6201 267.6764)" class="st0 st1 st9">TX</text>
		<line class="st6" x1="85.4" y1="290.3" x2="71" y2="290.3"/>
		<text transform="matrix(1 0 0 1 44.0352 292.445)" class="st0 st1 st9">TX2/IO26</text>
		<text transform="matrix(1 0 0 1 77.6201 289.277)" class="st0 st1 st9">26</text>
		<line class="st6" x1="85.4" y1="247.1" x2="71" y2="247.1"/>
		<text transform="matrix(1 0 0 1 49.8447 249.2448)" class="st0 st1 st9">VN/I39</text>
		<text transform="matrix(1 0 0 1 77.6201 246.0758)" class="st0 st1 st9">VN</text>
		<line class="st6" x1="85.4" y1="239.9" x2="71" y2="239.9"/>
		<text transform="matrix(1 0 0 1 50.1074 242.0446)" class="st0 st1 st9">VP/I36</text>
		<text transform="matrix(1 0 0 1 77.6201 238.8766)" class="st0 st1 st9">VP</text>
		<line class="st7" x1="13.4" y1="304.7" x2="71" y2="304.7"/>
		<line class="st7" x1="71" y1="304.7" x2="71" y2="175.1"/>
		<line class="st7" x1="71" y1="175.1" x2="-8.2" y2="175.1"/>
		<line class="st7" x1="-8.2" y1="175.1" x2="-8.2" y2="283.1"/>
		<line class="st7" x1="-8.2" y1="283.1" x2="-8.2" y2="304.7"/>
		<line class="st7" x1="13.4" y1="283.1" x2="-8.2" y2="283.1"/>
		<line class="st7" x1="13.4" y1="304.7" x2="-8.2" y2="304.7"/>
		<line class="st7" x1="13.4" y1="283.1" x2="13.4" y2="304.7"/>
		<line class="st11" x1="9.1" y1="290.3" x2="12.7" y2="290.3"/>
		<line class="st11" x1="9.1" y1="297.5" x2="12.7" y2="297.5"/>
		<line class="st11" x1="9.1" y1="293.9" x2="12.7" y2="293.9"/>
		<line class="st11" x1="9.1" y1="286.7" x2="12.7" y2="286.7"/>
		<line class="st11" x1="9.1" y1="301.1" x2="12.7" y2="301.1"/>
		<text transform="matrix(6.123234e-17 -1 1 6.123234e-17 4.0361 301.0836)" class="st8 st1 st5">USB</text>
		<text transform="matrix(1 0 0 1 -8.2031 333.485)" class="st8 st1 st2">I2C pins don&apos;t have pull-up resistorsUSB Serial uses IO3 for RX0, and IO1 for TX0Read the BAT voltage from IO35 and double it</text>
		<text transform="matrix(1 0 0 1 -8.2031 171.484)" class="st0 st1 st5">PCB1</text>
		<text transform="matrix(1 0 0 1 -8.2031 311.8844)" class="st0 st1 st5">LOLIN-D32</text>
	</g>
	<g>
		<line class="st6" x1="251" y1="38.3" x2="236.6" y2="38.3"/>
		<text transform="matrix(1 0 0 1 221.5176 40.445)" class="st0 st1 st9">3V3</text>
		<text transform="matrix(1 0 0 1 243.2207 37.277)" class="st0 st1 st9">3V3</text>
		<line class="st6" x1="164.6" y1="38.3" x2="179" y2="38.3"/>
		<text transform="matrix(1 0 0 1 185.6201 40.445)" class="st0 st1 st9">BAT</text>
		<text transform="matrix(1 0 0 1 163.4834 37.277)" class="st0 st1 st9">BAT</text>
		<line class="st6" x1="164.6" y1="45.5" x2="179" y2="45.5"/>
		<text transform="matrix(1 0 0 1 185.6201 47.6442)" class="st0 st1 st9">EN</text>
		<text transform="matrix(1 0 0 1 165.7715 44.4762)" class="st0 st1 st9">EN</text>
		<line class="st6" x1="251" y1="67.1" x2="236.6" y2="67.1"/>
		<text transform="matrix(1 0 0 1 219.4131 69.2438)" class="st0 st1 st9">GND</text>
		<text transform="matrix(1 0 0 1 243.2207 66.0758)" class="st0 st1 st9">GND*3</text>
		<line class="st6" x1="251" y1="52.7" x2="236.6" y2="52.7"/>
		<text transform="matrix(1 0 0 1 220.2012 54.8454)" class="st0 st1 st9">USB</text>
		<text transform="matrix(1 0 0 1 243.2207 51.6774)" class="st0 st1 st9">USB_5V</text>
		<line class="st7" x1="179" y1="74.3" x2="200.6" y2="74.3"/>
		<line class="st7" x1="200.6" y1="74.3" x2="236.6" y2="74.3"/>
		<line class="st7" x1="236.6" y1="74.3" x2="236.6" y2="31.1"/>
		<line class="st7" x1="236.6" y1="31.1" x2="179" y2="31.1"/>
		<line class="st7" x1="179" y1="31.1" x2="179" y2="52.7"/>
		<line class="st7" x1="179" y1="52.7" x2="179" y2="74.3"/>
		<line class="st7" x1="200.6" y1="52.7" x2="179" y2="52.7"/>
		<line class="st11" x1="196.3" y1="67.1" x2="199.9" y2="67.1"/>
		<line class="st11" x1="196.3" y1="59.9" x2="199.9" y2="59.9"/>
		<line class="st7" x1="200.6" y1="52.7" x2="200.6" y2="74.3"/>
		<text transform="matrix(6.123234e-17 -1 1 6.123234e-17 191.2354 69.9645)" class="st8 st1 st5">BAT</text>
		<text transform="matrix(1 0 0 1 178.9961 27.484)" class="st0 st1 st5">PCB1</text>
		<text transform="matrix(1 0 0 1 178.9961 81.484)" class="st0 st1 st5">LOLIN-D32</text>
	</g>
	<g>
		<line class="st6" x1="272.6" y1="261.5" x2="265.4" y2="261.5"/>
		<line class="st6" x1="243.8" y1="261.5" x2="251" y2="261.5"/>
		<line class="st7" x1="265.4" y1="264" x2="251" y2="264"/>
		<line class="st7" x1="251" y1="259" x2="265.4" y2="259"/>
		<line class="st7" x1="251" y1="264" x2="251" y2="259"/>
		<line class="st7" x1="265.4" y1="264" x2="265.4" y2="259"/>
		<text transform="matrix(1 0 0 1 261.9092 257.237)" class="st0 st1 st5">R1</text>
		<text transform="matrix(1 0 0 1 241.5684 270.8444)" class="st0 st1 st5">120&amp; 1/4W</text>
	</g>
	<g>
		<line class="st6" x1="243.8" y1="261.5" x2="236.6" y2="261.5"/>
		<text transform="matrix(1 0 0 1 237.6045 260.4772)" class="st0 st1 st9">1</text>
		<line class="st6" x1="215" y1="261.5" x2="222.2" y2="261.5"/>
		<text transform="matrix(1 0 0 1 218.5459 260.4772)" class="st0 st1 st9">2</text>
		<path class="st14" d="M228.3,259.7c-1,0-1.8,0.8-1.8,1.8c0,1,0.8,1.8,1.8,1.8c0,0,0,0,0,0"/>
		<path class="st14" d="M230.5,263.3c1,0,1.8-0.8,1.8-1.8c0-1-0.8-1.8-1.8-1.8c0,0,0,0,0,0"/>
		<line class="st6" x1="222.2" y1="261.5" x2="224.7" y2="261.5"/>
		<line class="st6" x1="236.6" y1="261.5" x2="234.1" y2="261.5"/>
		<text transform="matrix(1 0 0 1 227.043 254.2848)" class="st0 st1 st5">SJ1</text>
		<text transform="matrix(1 0 0 1 223.0449 247.8044)" class="st0 st1 st5">OPEN</text>
	</g>
	<g>
		<line class="st15" x1="215" y1="470.3" x2="373.4" y2="470.3"/>
		<line class="st15" x1="503" y1="412.7" x2="373.4" y2="412.7"/>
		<line class="st15" x1="503" y1="412.7" x2="503" y2="427.1"/>
		<line class="st15" x1="503" y1="427.1" x2="503" y2="441.5"/>
		<line class="st15" x1="503" y1="441.5" x2="503" y2="455.9"/>
		<line class="st15" x1="373.4" y1="455.9" x2="373.4" y2="470.3"/>
		<line class="st15" x1="373.4" y1="470.3" x2="503" y2="470.3"/>
		<line class="st15" x1="373.4" y1="412.7" x2="373.4" y2="427.1"/>
		<line class="st15" x1="373.4" y1="427.1" x2="373.4" y2="441.5"/>
		<line class="st15" x1="373.4" y1="441.5" x2="373.4" y2="455.9"/>
		<line class="st15" x1="373.4" y1="455.9" x2="503" y2="455.9"/>
		<line class="st15" x1="503" y1="455.9" x2="503" y2="470.3"/>
		<line class="st15" x1="373.4" y1="441.5" x2="503" y2="441.5"/>
		<line class="st15" x1="373.4" y1="427.1" x2="503" y2="427.1"/>
		<line class="st15" x1="373.4" y1="412.7" x2="215" y2="412.7"/>
		<line class="st15" x1="215" y1="412.7" x2="215" y2="470.3"/>
		<path class="st16" d="M381.7,460.9l-1.1-1.1 M380.6,459.8h-2.2 M378.4,459.8l-1.1,1.1 M377.3,460.9v1.1 M377.3,462l1.1,1.1
			 M378.4,463.1h2.2 M380.6,463.1l1.1,1.1 M381.7,464.2v1.1 M381.7,465.3l-1.1,1.1 M380.6,466.4h-2.2 M378.4,466.4l-1.1-1.1
			 M383.9,459.8v6.6 M383.9,463.1l1.1-1.1 M385,462h2.2 M387.2,462l1.1,1.1 M388.3,463.1v3.3 M393.9,466.4h-2.2 M391.6,466.4
			l-1.1-1.1 M390.5,465.3v-2.2 M390.5,463.1l1.1-1.1 M391.6,462h2.2 M393.9,462l1.1,1.1 M395,463.1v1.1 M395,464.2h-4.4
			 M400.5,466.4h-2.2 M398.3,466.4l-1.1-1.1 M397.2,465.3v-2.2 M397.2,463.1l1.1-1.1 M398.3,462h2.2 M400.5,462l1.1,1.1
			 M401.6,463.1v1.1 M401.6,464.2h-4.4 M404.9,460.9v4.4 M404.9,465.3l1.1,1.1 M403.8,462h2.2 M408.2,462h1.1 M409.3,462v1.1
			 M409.3,463.1h-1.1 M408.2,463.1V462 M408.2,465.3h1.1 M409.3,465.3v1.1 M409.3,466.4h-1.1 M408.2,466.4v-1.1"/>
		<path class="st16" d="M377.3,446.5l1.1-1.1 M378.4,445.4h2.2 M380.6,445.4l1.1,1.1 M381.7,446.5v1.1 M381.7,447.6l-1.1,1.1
			 M380.6,448.7h-1.1 M380.6,448.7l1.1,1.1 M381.7,449.8v1.1 M381.7,450.9l-1.1,1.1 M380.6,452h-2.2 M378.4,452l-1.1-1.1 M383.9,452
			l4.4-6.6 M393.9,452v-6.6 M393.9,445.4l-3.3,3.3 M390.5,448.7h4.4 M397.2,452l4.4-6.6 M408.2,452h-4.4 M403.8,452l4.4-4.4
			 M408.2,447.6v-1.1 M408.2,446.5l-1.1-1.1 M407.1,445.4h-2.2 M404.9,445.4l-1.1,1.1 M410.4,450.9v-4.4 M410.4,446.5l1.1-1.1
			 M411.5,445.4h2.2 M413.7,445.4l1.1,1.1 M414.9,446.5v4.4 M414.9,450.9l-1.1,1.1 M413.7,452h-2.2 M411.5,452l-1.1-1.1
			 M410.4,450.9l4.4-4.4 M421.5,452h-4.4 M417.1,452l4.4-4.4 M421.5,447.6v-1.1 M421.5,446.5l-1.1-1.1 M420.4,445.4h-2.2
			 M418.2,445.4l-1.1,1.1 M428.1,452h-4.4 M423.7,452l4.4-4.4 M428.1,447.6v-1.1 M428.1,446.5l-1.1-1.1 M427,445.4h-2.2
			 M424.8,445.4l-1.1,1.1 M441.4,445.4l-2.2,1.1 M439.2,446.5l-2.2,2.2 M437,448.7v2.2 M437,450.9l1.1,1.1 M438.1,452h2.2
			 M440.3,452l1.1-1.1 M441.4,450.9v-1.1 M441.4,449.8l-1.1-1.1 M440.3,448.7H437 M443.6,447.6h1.1 M444.7,447.6v1.1 M444.7,448.7
			h-1.1 M443.6,448.7v-1.1 M443.6,450.9h1.1 M444.7,450.9v1.1 M444.7,452h-1.1 M443.6,452v-1.1 M451.3,445.4h-4.4 M446.9,445.4v3.3
			 M446.9,448.7l2.2-1.1 M449.1,447.6h1.1 M450.2,447.6l1.1,1.1 M451.3,448.7v2.2 M451.3,450.9l-1.1,1.1 M450.2,452H448 M448,452
			l-1.1-1.1 M457.9,445.4h-4.4 M453.5,445.4v3.3 M453.5,448.7l2.2-1.1 M455.7,447.6h1.1 M456.8,447.6l1.1,1.1 M457.9,448.7v2.2
			 M457.9,450.9l-1.1,1.1 M456.8,452h-2.2 M454.6,452l-1.1-1.1 M466.8,452v-6.6 M466.8,445.4h3.3 M470.1,445.4l1.1,1.1 M471.2,446.5
			v2.2 M471.2,448.7l-1.1,1.1 M470.1,449.8h-3.3 M473.4,452v-6.6 M473.4,445.4l2.2,2.2 M475.6,447.6l2.2-2.2 M477.8,445.4v6.6"/>
		<path class="st16" d="M416.9,462l2.2-2.2 M419.1,459.8v6.6 M416.9,466.4h4.4 M423.5,466.4l4.4-6.6 M430.1,462l2.2-2.2
			 M432.4,459.8v6.6 M430.1,466.4h4.4"/>
		<path class="st16" d="M377.3,437.6V431 M377.3,431h3.3 M380.6,431l1.1,1.1 M381.7,432.1v2.2 M381.7,434.3l-1.1,1.1 M380.6,435.4
			h-3.3 M385,437.6h2.2 M387.2,437.6l1.1-1.1 M388.3,436.5v-2.2 M388.3,434.3l-1.1-1.1 M387.2,433.2H385 M385,433.2l-1.1,1.1
			 M383.9,434.3v2.2 M383.9,436.5l1.1,1.1 M391.6,437.6h2.2 M393.9,437.6l1.1-1.1 M395,436.5v-2.2 M395,434.3l-1.1-1.1 M393.9,433.2
			h-2.2 M391.6,433.2l-1.1,1.1 M390.5,434.3v2.2 M390.5,436.5l1.1,1.1 M397.2,431h1.1 M398.3,431v6.6 M397.2,437.6h2.2 M408.2,437.6
			h2.2 M409.3,437.6V431 M408.2,431h2.2 M412.6,437.6v-4.4 M412.6,433.2h3.3 M416,433.2l1.1,1.1 M417.1,434.3v3.3 M420.4,432.1v4.4
			 M420.4,436.5l1.1,1.1 M419.3,433.2h2.2 M427,437.6h-2.2 M424.8,437.6l-1.1-1.1 M423.7,436.5v-2.2 M423.7,434.3l1.1-1.1
			 M424.8,433.2h2.2 M427,433.2l1.1,1.1 M428.1,434.3v1.1 M428.1,435.4h-4.4 M430.3,437.6v-4.4 M430.3,435.4l2.2-2.2 M432.5,433.2
			h1.1 M437,437.6v-5.5 M437,432.1l1.1-1.1 M435.8,434.3h2.2 M441.4,433.2h2.2 M443.6,433.2l1.1,1.1 M444.7,434.3v3.3 M444.7,437.6
			h-3.3 M441.4,437.6l-1.1-1.1 M440.3,436.5l1.1-1.1 M441.4,435.4h3.3 M451.3,433.2H448 M448,433.2l-1.1,1.1 M446.9,434.3v2.2
			 M446.9,436.5l1.1,1.1 M448,437.6h3.3 M456.8,437.6h-2.2 M454.6,437.6l-1.1-1.1 M453.5,436.5v-2.2 M453.5,434.3l1.1-1.1
			 M454.6,433.2h2.2 M456.8,433.2l1.1,1.1 M457.9,434.3v1.1 M457.9,435.4h-4.4"/>
		<text transform="matrix(1 0 0 1 222.1963 466.6852)" class="st8 st1" style="font-size:7.92px;">https://coertvonk.com/</text>
		<text transform="matrix(1 0 0 1 222.1963 423.485)" class="st8 st1 st5">WiFi Pool Interface</text>
		<path class="st16" d="M381.7,417.7l-1.1-1.1 M380.6,416.6h-2.2 M378.4,416.6l-1.1,1.1 M377.3,417.7v4.4 M377.3,422.1l1.1,1.1
			 M378.4,423.2h2.2 M380.6,423.2l1.1-1.1 M385,423.2h2.2 M387.2,423.2l1.1-1.1 M388.3,422.1v-2.2 M388.3,419.9l-1.1-1.1
			 M387.2,418.8H385 M385,418.8l-1.1,1.1 M383.9,419.9v2.2 M383.9,422.1l1.1,1.1 M393.9,423.2h-2.2 M391.6,423.2l-1.1-1.1
			 M390.5,422.1v-2.2 M390.5,419.9l1.1-1.1 M391.6,418.8h2.2 M393.9,418.8l1.1,1.1 M395,419.9v1.1 M395,421h-4.4 M397.2,423.2v-4.4
			 M397.2,421l2.2-2.2 M399.4,418.8h1.1 M403.8,417.7v4.4 M403.8,422.1l1.1,1.1 M402.7,418.8h2.2 M413.7,416.6v4.4 M413.7,421
			l2.2,2.2 M416,423.2l2.2-2.2 M418.2,421v-4.4 M421.5,423.2h2.2 M423.7,423.2l1.1-1.1 M424.8,422.1v-2.2 M424.8,419.9l-1.1-1.1
			 M423.7,418.8h-2.2 M421.5,418.8l-1.1,1.1 M420.4,419.9v2.2 M420.4,422.1l1.1,1.1 M427,423.2v-4.4 M427,418.8h3.3 M430.3,418.8
			l1.1,1.1 M431.4,419.9v3.3 M433.6,423.2v-6.6 M437,423.2l-3.3-2.2 M433.6,421l3.3-2.2"/>
		<text transform="matrix(1 0 0 1 499.3965 437.8844)" class="st8 st1" style="font-size:7.92px;">1.0</text>
	</g>
	<g>
		<circle class="st17" cx="168.2" cy="269.8" r="1.8"/>
		<circle class="st17" cx="177.2" cy="266.9" r="1.8"/>
		<circle class="st17" cx="172.9" cy="299.3" r="1.8"/>
		<circle class="st18" cx="182.6" cy="275.9" r="0.7"/>
		<circle class="st18" cx="191.6" cy="290.3" r="0.7"/>
		<line class="st6" x1="207.8" y1="290.3" x2="200.6" y2="290.3"/>
		<text transform="matrix(1 0 0 1 201.6045 289.277)" class="st0 st1 st9">6</text>
		<line class="st6" x1="207.8" y1="275.9" x2="200.6" y2="275.9"/>
		<text transform="matrix(1 0 0 1 201.6045 274.8766)" class="st0 st1 st9">7</text>
		<line class="st6" x1="135.8" y1="290.3" x2="143" y2="290.3"/>
		<text transform="matrix(1 0 0 1 149.6201 292.445)" class="st0 st1 st9">DE</text>
		<text transform="matrix(1 0 0 1 139.3457 289.277)" class="st0 st1 st9">3</text>
		<line class="st6" x1="135.8" y1="304.7" x2="143" y2="304.7"/>
		<text transform="matrix(1 0 0 1 149.6201 306.8444)" class="st0 st1 st9">DI</text>
		<text transform="matrix(1 0 0 1 139.3457 303.6764)" class="st0 st1 st9">4</text>
		<line class="st6" x1="135.8" y1="275.9" x2="143" y2="275.9"/>
		<text transform="matrix(1 0 0 1 149.6201 278.0446)" class="st0 st1 st9">RE/</text>
		<text transform="matrix(1 0 0 1 139.3457 274.8766)" class="st0 st1 st9">2</text>
		<line class="st6" x1="135.8" y1="261.5" x2="143" y2="261.5"/>
		<text transform="matrix(1 0 0 1 149.6201 263.6452)" class="st0 st1 st9">RO</text>
		<text transform="matrix(1 0 0 1 139.3457 260.4772)" class="st0 st1 st9">1</text>
		<line class="st7" x1="143" y1="247.1" x2="200.6" y2="247.1"/>
		<line class="st7" x1="200.6" y1="247.1" x2="200.6" y2="275.9"/>
		<line class="st7" x1="200.6" y1="275.9" x2="200.6" y2="290.3"/>
		<line class="st7" x1="200.6" y1="290.3" x2="200.6" y2="319.1"/>
		<line class="st7" x1="200.6" y1="319.1" x2="143" y2="319.1"/>
		<line class="st7" x1="143" y1="319.1" x2="143" y2="304.7"/>
		<line class="st7" x1="143" y1="304.7" x2="143" y2="290.3"/>
		<line class="st7" x1="143" y1="290.3" x2="143" y2="275.9"/>
		<line class="st7" x1="143" y1="275.9" x2="143" y2="261.5"/>
		<line class="st7" x1="143" y1="261.5" x2="143" y2="247.1"/>
		<line class="st19" x1="175.4" y1="250.7" x2="175.4" y2="256.1"/>
		<line class="st19" x1="175.4" y1="256.1" x2="175.4" y2="272.3"/>
		<line class="st19" x1="175.4" y1="272.3" x2="159.2" y2="261.5"/>
		<line class="st19" x1="159.2" y1="261.5" x2="175.4" y2="250.7"/>
		<line class="st19" x1="159.2" y1="315.5" x2="159.2" y2="304.7"/>
		<line class="st19" x1="159.2" y1="304.7" x2="159.2" y2="293.9"/>
		<line class="st19" x1="159.2" y1="293.9" x2="179" y2="304.7"/>
		<line class="st19" x1="179" y1="304.7" x2="159.2" y2="315.5"/>
		<line class="st19" x1="162.4" y1="275.9" x2="168.2" y2="275.9"/>
		<line class="st19" x1="168.2" y1="275.9" x2="168.2" y2="271.6"/>
		<line class="st19" x1="157.4" y1="290.3" x2="166.4" y2="290.3"/>
		<line class="st19" x1="166.4" y1="290.3" x2="166.4" y2="297.8"/>
		<line class="st19" x1="191.6" y1="309" x2="191.6" y2="290.3"/>
		<line class="st19" x1="191.6" y1="290.3" x2="191.6" y2="256.1"/>
		<line class="st19" x1="175.4" y1="256.1" x2="191.6" y2="256.1"/>
		<line class="st19" x1="174.7" y1="299.3" x2="182.6" y2="299.3"/>
		<line class="st19" x1="182.6" y1="299.3" x2="182.6" y2="275.9"/>
		<line class="st19" x1="182.6" y1="275.9" x2="182.6" y2="266.9"/>
		<line class="st19" x1="182.6" y1="266.9" x2="179" y2="266.9"/>
		<line class="st19" x1="200.6" y1="275.9" x2="182.6" y2="275.9"/>
		<line class="st19" x1="200.6" y1="290.3" x2="191.6" y2="290.3"/>
		<line class="st19" x1="143" y1="261.5" x2="148" y2="261.5"/>
		<line class="st19" x1="157.8" y1="261.5" x2="159.2" y2="261.5"/>
		<line class="st19" x1="143" y1="275.9" x2="148" y2="275.9"/>
		<line class="st19" x1="143" y1="304.7" x2="147.7" y2="304.7"/>
		<line class="st19" x1="156.7" y1="304.7" x2="159.2" y2="304.7"/>
		<line class="st19" x1="143" y1="290.3" x2="147.7" y2="290.3"/>
		<line class="st19" x1="171.8" y1="309" x2="191.6" y2="309"/>
		<text transform="matrix(1 0 0 1 193.3965 297.485)" class="st0 st1 st5">A</text>
		<text transform="matrix(1 0 0 1 193.3965 272.2848)" class="st0 st1 st5">B</text>
		<text transform="matrix(1 0 0 1 142.9961 243.484)" class="st0 st1 st5">U1</text>
		<text transform="matrix(1 0 0 1 142.9961 326.2848)" class="st0 st1 st5">MAX3485CSA+</text>
	</g>
	<g>
		<line class="st6" x1="294.2" y1="74.3" x2="294.2" y2="59.9"/>
		<text transform="matrix(6.123234e-17 -1 1 6.123234e-17 293.1875 69.152)" class="st0 st1 st9">5</text>
		<line class="st6" x1="294.2" y1="31.1" x2="294.2" y2="45.5"/>
		<text transform="matrix(6.123234e-17 -1 1 6.123234e-17 293.1875 38.861)" class="st0 st1 st9">8</text>
		<text transform="matrix(6.123234e-17 -1 1 6.123234e-17 298.5156 59.8844)" class="st0 st1 st20">GND</text>
		<text transform="matrix(6.123234e-17 -1 1 6.123234e-17 298.5156 45.484)" class="st0 st1 st20">3V3</text>
		<text transform="matrix(1 0 0 1 294.1963 54.8454)" class="st0 st1 st5">U1</text>
	</g>
</g>
</svg>
