<?xml version="1.0" encoding="utf-8"?>
<!-- Generator: Adobe Illustrator 26.1.0, SVG Export Plug-In . SVG Version: 6.00 Build 0)  -->
<svg version="1.1" id="Layer_1" xmlns="http://www.w3.org/2000/svg" xmlns:xlink="http://www.w3.org/1999/xlink" x="0px" y="0px"
	 viewBox="0 0 502.7 204.5" style="enable-background:new 0 0 502.7 204.5;" xml:space="preserve">
<style type="text/css">
	.st0{fill:#808080;}
	.st1{font-family:'ArialMT';}
	.st2{font-size:5.544px;}
	.st3{fill:none;stroke:#0DAB76;stroke-width:0.432;stroke-linecap:round;stroke-miterlimit:11.3386;}
	.st4{fill:#0DAB76;}
	.st5{fill:none;stroke:#C90D0C;stroke-width:0.432;stroke-linecap:round;stroke-miterlimit:11.3386;}
	.st6{fill:none;stroke:#C90D0C;stroke-width:0.72;stroke-linecap:round;stroke-miterlimit:11.3386;}
	.st7{fill:#C90D0C;}
	.st8{fill:none;stroke:#C90D0C;stroke-width:1.152;stroke-linecap:round;stroke-miterlimit:11.3386;}
	.st9{font-size:4.752px;}
	.st10{fill:none;stroke:#C90D0C;stroke-width:1.728;stroke-linecap:round;stroke-miterlimit:11.3386;}
	.st11{fill:none;stroke:#C90D0C;stroke-width:1.44;stroke-miterlimit:11.3386;}
	.st12{fill:none;stroke:#C90D0C;stroke-width:0.504;stroke-linecap:round;stroke-miterlimit:11.3386;}
	.st13{font-size:3.96px;}
	.st14{fill:none;stroke:#C90D0C;stroke-width:3.6;stroke-miterlimit:11.3386;}
	.st15{fill:none;stroke:#C90D0C;stroke-width:0.288;stroke-linecap:round;stroke-miterlimit:11.3386;}
	.st16{fill:none;stroke:#C90D0C;stroke-width:0.576;stroke-linecap:round;stroke-miterlimit:11.3386;}
	.st17{fill:none;stroke:#C90D0C;stroke-width:0.36;stroke-miterlimit:11.3386;}
	.st18{fill:none;stroke:#C90D0C;stroke-width:1.152;stroke-miterlimit:11.3386;}
	.st19{fill:none;stroke:#C90D0C;stroke-width:0.36;stroke-linecap:round;stroke-miterlimit:11.3386;}
</style>
<desc>generated by eagle2svg 1.2, developed by http://www.nicai-systems.de</desc>
<g id="surface0">
	<text transform="matrix(6.123234e-17 -1 1 6.123234e-17 11.4135 79.1693)" class="st0 st1 st2">Up chip deguggingJTAG</text>
	<text transform="matrix(6.123234e-17 -1 1 6.123234e-17 480.1322 174.1352)" class="st0 st1 st2">PoolController</text>
	<text transform="matrix(1 0 0 1 465.0131 -66.412)" class="st0 st1 st13">bypass</text>
	<g>
		<line class="st3" x1="395.9" y1="-113.9" x2="395.9" y2="-99.5"/>
		<line class="st3" x1="21.5" y1="22.9" x2="21.5" y2="44.5"/>
		<line class="st3" x1="21.5" y1="44.5" x2="35.9" y2="44.5"/>
		<line class="st3" x1="439.1" y1="-113.9" x2="439.1" y2="-106.7"/>
		<line class="st3" x1="460.7" y1="-106.7" x2="460.7" y2="-99.5"/>
		<line class="st3" x1="460.7" y1="-106.7" x2="439.1" y2="-106.7"/>
		<circle class="st4" cx="439.1" cy="-106.7" r="1.4"/>
	</g>
	<g>
		<line class="st3" x1="179.9" y1="-99.5" x2="151.1" y2="-99.5"/>
		<text transform="matrix(1 0 0 1 151.0932 -99.5311)" class="st0 st1 st2">15V</text>
		<line class="st3" x1="431.9" y1="109.3" x2="431.9" y2="145.3"/>
		<line class="st3" x1="431.9" y1="145.3" x2="435.5" y2="145.3"/>
		<text transform="matrix(1 0 0 1 431.893 109.2697)" class="st0 st1 st2">15V</text>
	</g>
	<g>
		<line class="st3" x1="352.7" y1="152.5" x2="359.9" y2="152.5"/>
		<line class="st3" x1="359.9" y1="152.5" x2="435.5" y2="152.5"/>
		<line class="st3" x1="359.9" y1="123.7" x2="359.9" y2="152.5"/>
		<circle class="st4" cx="359.9" cy="152.5" r="1.4"/>
		<text transform="matrix(1 0 0 1 374.2934 152.4689)" class="st0 st1 st2">A</text>
	</g>
	<g>
		<line class="st3" x1="352.7" y1="138.1" x2="417.5" y2="138.1"/>
		<line class="st3" x1="417.5" y1="138.1" x2="417.5" y2="159.7"/>
		<line class="st3" x1="417.5" y1="159.7" x2="435.5" y2="159.7"/>
		<line class="st3" x1="417.5" y1="123.7" x2="417.5" y2="138.1"/>
		<circle class="st4" cx="417.5" cy="138.1" r="1.4"/>
		<text transform="matrix(1 0 0 1 374.2934 138.0685)" class="st0 st1 st2">B</text>
	</g>
	<g>
		<line class="st3" x1="244.7" y1="-56.3" x2="244.7" y2="-63.5"/>
		<line class="st3" x1="201.5" y1="-56.3" x2="201.5" y2="-63.5"/>
		<line class="st3" x1="280.7" y1="-63.5" x2="280.7" y2="-56.3"/>
		<line class="st3" x1="35.9" y1="51.7" x2="21.5" y2="51.7"/>
		<line class="st3" x1="21.5" y1="51.7" x2="21.5" y2="58.9"/>
		<line class="st3" x1="21.5" y1="58.9" x2="21.5" y2="66.1"/>
		<line class="st3" x1="21.5" y1="66.1" x2="21.5" y2="73.3"/>
		<line class="st3" x1="35.9" y1="58.9" x2="21.5" y2="58.9"/>
		<line class="st3" x1="35.9" y1="66.1" x2="21.5" y2="66.1"/>
		<line class="st3" x1="35.9" y1="73.3" x2="21.5" y2="73.3"/>
		<line class="st3" x1="21.5" y1="73.3" x2="21.5" y2="87.7"/>
		<circle class="st4" cx="21.5" cy="58.9" r="1.4"/>
		<circle class="st4" cx="21.5" cy="66.1" r="1.4"/>
		<circle class="st4" cx="21.5" cy="73.3" r="1.4"/>
		<line class="st3" x1="431.9" y1="181.3" x2="431.9" y2="166.9"/>
		<line class="st3" x1="431.9" y1="166.9" x2="435.5" y2="166.9"/>
		<line class="st3" x1="395.9" y1="-70.7" x2="395.9" y2="-56.3"/>
		<line class="st3" x1="439.1" y1="-56.3" x2="439.1" y2="-63.5"/>
		<line class="st3" x1="460.7" y1="-63.5" x2="460.7" y2="-77.9"/>
		<line class="st3" x1="460.7" y1="-63.5" x2="439.1" y2="-63.5"/>
		<circle class="st4" cx="439.1" cy="-63.5" r="1.4"/>
		<line class="st3" x1="230.3" y1="109.3" x2="244.7" y2="109.3"/>
		<line class="st3" x1="244.7" y1="109.3" x2="244.7" y2="116.5"/>
		<line class="st3" x1="230.3" y1="102.1" x2="244.7" y2="102.1"/>
		<line class="st3" x1="244.7" y1="102.1" x2="244.7" y2="109.3"/>
		<line class="st3" x1="230.3" y1="94.9" x2="244.7" y2="94.9"/>
		<line class="st3" x1="244.7" y1="94.9" x2="244.7" y2="102.1"/>
		<circle class="st4" cx="244.7" cy="109.3" r="1.4"/>
		<circle class="st4" cx="244.7" cy="102.1" r="1.4"/>
	</g>
	<g>
		<line class="st3" x1="71.9" y1="73.3" x2="122.3" y2="73.3"/>
		<text transform="matrix(1 0 0 1 79.0932 73.2697)" class="st0 st1 st2">JTAG_!RST</text>
	</g>
	<g>
		<line class="st3" x1="71.9" y1="51.7" x2="122.3" y2="51.7"/>
		<text transform="matrix(1 0 0 1 79.0932 51.6681)" class="st0 st1 st2">JTAG_CK</text>
	</g>
	<g>
		<line class="st3" x1="71.9" y1="66.1" x2="122.3" y2="66.1"/>
		<text transform="matrix(1 0 0 1 79.0932 66.0685)" class="st0 st1 st2">JTAG_DI</text>
	</g>
	<g>
		<line class="st3" x1="71.9" y1="58.9" x2="122.3" y2="58.9"/>
		<text transform="matrix(1 0 0 1 79.0932 58.8693)" class="st0 st1 st2">JTAG_DO</text>
	</g>
	<g>
		<line class="st3" x1="71.9" y1="44.5" x2="122.3" y2="44.5"/>
		<text transform="matrix(1 0 0 1 79.0932 44.4689)" class="st0 st1 st2">JTAG_MS</text>
	</g>
	<g>
		<line class="st3" x1="230.3" y1="159.7" x2="273.5" y2="159.7"/>
		<line class="st3" x1="273.5" y1="159.7" x2="273.5" y2="152.5"/>
		<line class="st3" x1="273.5" y1="152.5" x2="273.5" y2="138.1"/>
		<line class="st3" x1="273.5" y1="138.1" x2="280.7" y2="138.1"/>
		<line class="st3" x1="280.7" y1="152.5" x2="273.5" y2="152.5"/>
		<circle class="st4" cx="273.5" cy="152.5" r="1.4"/>
		<text transform="matrix(1 0 0 1 237.4936 159.6691)" class="st0 st1 st2">RTS</text>
	</g>
	<g>
		<line class="st3" x1="230.3" y1="145.3" x2="259.1" y2="145.3"/>
		<line class="st3" x1="259.1" y1="145.3" x2="259.1" y2="123.7"/>
		<line class="st3" x1="259.1" y1="123.7" x2="280.7" y2="123.7"/>
		<text transform="matrix(1 0 0 1 237.4936 145.2687)" class="st0 st1 st2">RX2</text>
	</g>
	<g>
		<line class="st3" x1="230.3" y1="152.5" x2="259.1" y2="152.5"/>
		<line class="st3" x1="259.1" y1="152.5" x2="259.1" y2="166.9"/>
		<line class="st3" x1="259.1" y1="166.9" x2="280.7" y2="166.9"/>
		<text transform="matrix(1 0 0 1 237.4936 152.4689)" class="st0 st1 st2">TX</text>
	</g>
	<g>
		<line class="st3" x1="194.3" y1="-99.5" x2="201.5" y2="-99.5"/>
		<line class="st3" x1="201.5" y1="-99.5" x2="208.7" y2="-99.5"/>
		<line class="st3" x1="201.5" y1="-85.1" x2="201.5" y2="-99.5"/>
		<circle class="st4" cx="201.5" cy="-99.5" r="1.4"/>
	</g>
	<g>
		<line class="st3" x1="280.7" y1="-85.1" x2="280.7" y2="-99.5"/>
		<line class="st3" x1="280.7" y1="-99.5" x2="309.5" y2="-99.5"/>
		<circle class="st4" cx="280.7" cy="-99.5" r="1.4"/>
	</g>
	<g>
		<line class="st5" x1="21.5" y1="22.9" x2="21.5" y2="15.7"/>
		<line class="st6" x1="25.1" y1="21.1" x2="21.5" y2="15.7"/>
		<line class="st6" x1="21.5" y1="15.7" x2="17.9" y2="21.1"/>
		<text transform="matrix(1 0 0 1 21.4936 12.0685)" class="st0 st1 st2">3V3</text>
	</g>
	<g>
		<line class="st5" x1="439.1" y1="-113.9" x2="439.1" y2="-121.1"/>
		<line class="st6" x1="442.7" y1="-115.7" x2="439.1" y2="-121.1"/>
		<line class="st6" x1="439.1" y1="-121.1" x2="435.5" y2="-115.7"/>
		<text transform="matrix(1 0 0 1 439.0932 -124.7303)" class="st0 st1 st2">3V3</text>
	</g>
	<g>
		<line class="st5" x1="395.9" y1="-113.9" x2="395.9" y2="-121.1"/>
		<line class="st6" x1="399.5" y1="-115.7" x2="395.9" y2="-121.1"/>
		<line class="st6" x1="395.9" y1="-121.1" x2="392.3" y2="-115.7"/>
		<text transform="matrix(1 0 0 1 395.893 -124.7303)" class="st0 st1 st2">3V3</text>
	</g>
	<g>
		<rect x="195.7" y="-73.6" class="st7" width="11.5" height="1.4"/>
		<rect x="195.7" y="-76.5" class="st7" width="11.5" height="1.4"/>
		<line class="st5" x1="201.5" y1="-85.1" x2="201.5" y2="-77.9"/>
		<line class="st5" x1="201.5" y1="-63.5" x2="201.5" y2="-70.7"/>
		<line class="st5" x1="201.5" y1="-77.9" x2="201.5" y2="-76.5"/>
		<line class="st5" x1="201.5" y1="-70.7" x2="201.5" y2="-72.2"/>
		<text transform="matrix(1 0 0 1 205.8129 -79.0116)" class="st0 st1 st2">C1</text>
		<text transform="matrix(1 0 0 1 205.8129 -64.6112)" class="st0 st1 st2">10uF mlcc 25V</text>
	</g>
	<g>
		<rect x="274.9" y="-73.6" class="st7" width="11.5" height="1.4"/>
		<rect x="274.9" y="-76.5" class="st7" width="11.5" height="1.4"/>
		<line class="st5" x1="280.7" y1="-85.1" x2="280.7" y2="-77.9"/>
		<line class="st5" x1="280.7" y1="-63.5" x2="280.7" y2="-70.7"/>
		<line class="st5" x1="280.7" y1="-77.9" x2="280.7" y2="-76.5"/>
		<line class="st5" x1="280.7" y1="-70.7" x2="280.7" y2="-72.2"/>
		<text transform="matrix(1 0 0 1 285.0131 -79.0116)" class="st0 st1 st2">C2</text>
		<text transform="matrix(1 0 0 1 285.0131 -64.6112)" class="st0 st1 st2">10uF mlcc</text>
	</g>
	<g>
		<rect x="454.9" y="-88" class="st7" width="11.5" height="1.4"/>
		<rect x="454.9" y="-90.9" class="st7" width="11.5" height="1.4"/>
		<line class="st5" x1="460.7" y1="-99.5" x2="460.7" y2="-92.3"/>
		<line class="st5" x1="460.7" y1="-77.9" x2="460.7" y2="-85.1"/>
		<line class="st5" x1="460.7" y1="-92.3" x2="460.7" y2="-90.9"/>
		<line class="st5" x1="460.7" y1="-85.1" x2="460.7" y2="-86.6"/>
		<text transform="matrix(1 0 0 1 465.0131 -93.412)" class="st0 st1 st2">C3</text>
		<text transform="matrix(1 0 0 1 465.0131 -79.0116)" class="st0 st1 st2">0.1uF cer.</text>
	</g>
	<g>
		<line class="st5" x1="179.9" y1="-99.5" x2="187.1" y2="-99.5"/>
		<line class="st5" x1="194.3" y1="-99.5" x2="187.1" y2="-99.5"/>
		<line class="st6" x1="183.5" y1="-95.9" x2="190.7" y2="-99.5"/>
		<line class="st6" x1="190.7" y1="-99.5" x2="183.5" y2="-103.1"/>
		<line class="st6" x1="192.5" y1="-103.1" x2="190.7" y2="-103.1"/>
		<line class="st6" x1="190.7" y1="-103.1" x2="190.7" y2="-99.5"/>
		<line class="st6" x1="183.5" y1="-103.1" x2="183.5" y2="-95.9"/>
		<line class="st6" x1="190.7" y1="-99.5" x2="190.7" y2="-95.9"/>
		<line class="st6" x1="192.5" y1="-103.1" x2="192.5" y2="-102.4"/>
		<line class="st6" x1="190.7" y1="-95.9" x2="188.9" y2="-95.9"/>
		<line class="st6" x1="188.9" y1="-96.7" x2="188.9" y2="-95.9"/>
		<text transform="matrix(1 0 0 1 187.0932 -104.9315)" class="st0 st1 st2">D2</text>
		<text transform="matrix(1 0 0 1 187.0932 -89.0917)" class="st0 st1 st2">1N5818</text>
	</g>
	<g>
		<line class="st5" x1="244.7" y1="-63.5" x2="244.7" y2="-85.1"/>
		<text transform="matrix(6.123234e-17 -1 1 6.123234e-17 243.685 -75.8651)" class="st0 st1 st9">2</text>
		<line class="st5" x1="208.7" y1="-99.5" x2="223.1" y2="-99.5"/>
		<text transform="matrix(1 0 0 1 229.7172 -97.371)" class="st0 st1 st9">VIN</text>
		<text transform="matrix(1 0 0 1 213.8266 -100.5389)" class="st0 st1 st9">1</text>
		<line class="st5" x1="280.7" y1="-99.5" x2="266.3" y2="-99.5"/>
		<text transform="matrix(1 0 0 1 246.4692 -97.371)" class="st0 st1 st9">VOUT</text>
		<text transform="matrix(1 0 0 1 272.9174 -100.5389)" class="st0 st1 st9">3</text>
		<line class="st8" x1="223.1" y1="-113.9" x2="266.3" y2="-113.9"/>
		<line class="st8" x1="266.3" y1="-113.9" x2="266.3" y2="-85.1"/>
		<line class="st8" x1="266.3" y1="-85.1" x2="223.1" y2="-85.1"/>
		<line class="st8" x1="223.1" y1="-85.1" x2="223.1" y2="-113.9"/>
		<text transform="matrix(1 0 0 1 244.6938 -107.8104)" class="st7 st1 st13">DC/DC</text>
		<text transform="matrix(1 0 0 1 237.4936 -88.7303)" class="st0 st1 st9">GND</text>
		<text transform="matrix(1 0 0 1 223.0932 -123.2909)" class="st0 st1 st2">DC1</text>
		<text transform="matrix(1 0 0 1 223.0932 -116.8104)" class="st0 st1 st2">R-78E5.0-0.5</text>
	</g>
	<g>
		<line class="st5" x1="244.7" y1="116.5" x2="244.7" y2="123.7"/>
		<line class="st6" x1="239.3" y1="123.7" x2="250.1" y2="123.7"/>
		<text transform="matrix(1 0 0 1 244.6938 130.8693)" class="st0 st1 st2">GND</text>
	</g>
	<g>
		<line class="st5" x1="201.5" y1="-56.3" x2="201.5" y2="-49.1"/>
		<line class="st6" x1="206.9" y1="-49.1" x2="196.1" y2="-49.1"/>
		<text transform="matrix(1 0 0 1 196.3735 -41.9315)" class="st0 st1 st2">GND</text>
	</g>
	<g>
		<line class="st5" x1="280.7" y1="-56.3" x2="280.7" y2="-49.1"/>
		<line class="st6" x1="286.1" y1="-49.1" x2="275.3" y2="-49.1"/>
		<text transform="matrix(1 0 0 1 275.5736 -41.9315)" class="st0 st1 st2">GND</text>
	</g>
	<g>
		<line class="st5" x1="244.7" y1="-56.3" x2="244.7" y2="-49.1"/>
		<line class="st6" x1="250.1" y1="-49.1" x2="239.3" y2="-49.1"/>
		<text transform="matrix(1 0 0 1 239.5737 -41.9315)" class="st0 st1 st2">GND</text>
	</g>
	<g>
		<line class="st5" x1="21.5" y1="87.7" x2="21.5" y2="94.9"/>
		<line class="st6" x1="16.1" y1="94.9" x2="26.9" y2="94.9"/>
		<text transform="matrix(1 0 0 1 21.4936 102.0685)" class="st0 st1 st2">GND</text>
	</g>
	<g>
		<line class="st5" x1="431.9" y1="181.3" x2="431.9" y2="188.5"/>
		<line class="st6" x1="426.5" y1="188.5" x2="437.3" y2="188.5"/>
		<text transform="matrix(1 0 0 1 431.893 195.6691)" class="st0 st1 st2">GND</text>
	</g>
	<g>
		<line class="st5" x1="395.9" y1="-56.3" x2="395.9" y2="-49.1"/>
		<line class="st6" x1="390.5" y1="-49.1" x2="401.3" y2="-49.1"/>
		<text transform="matrix(1 0 0 1 395.893 -41.9315)" class="st0 st1 st2">GND</text>
	</g>
	<g>
		<line class="st5" x1="439.1" y1="-56.3" x2="439.1" y2="-49.1"/>
		<line class="st6" x1="433.7" y1="-49.1" x2="444.5" y2="-49.1"/>
		<text transform="matrix(1 0 0 1 439.0932 -41.9315)" class="st0 st1 st2">GND</text>
	</g>
	<g>
		<line class="st5" x1="435.5" y1="145.3" x2="449.9" y2="145.3"/>
		<text transform="matrix(1 0 0 1 456.517 147.4288)" class="st0 st1 st9">15V</text>
		<text transform="matrix(1 0 0 1 440.6264 144.2609)" class="st0 st1 st9">1</text>
		<line class="st5" x1="435.5" y1="152.5" x2="449.9" y2="152.5"/>
		<text transform="matrix(1 0 0 1 456.517 154.629)" class="st0 st1 st9">A</text>
		<text transform="matrix(1 0 0 1 440.6264 151.4611)" class="st0 st1 st9">2</text>
		<line class="st5" x1="435.5" y1="159.7" x2="449.9" y2="159.7"/>
		<text transform="matrix(1 0 0 1 456.517 161.8292)" class="st0 st1 st9">B</text>
		<text transform="matrix(1 0 0 1 440.6264 158.6613)" class="st0 st1 st9">3</text>
		<line class="st5" x1="435.5" y1="166.9" x2="449.9" y2="166.9"/>
		<text transform="matrix(1 0 0 1 456.517 169.0284)" class="st0 st1 st9">GND</text>
		<text transform="matrix(1 0 0 1 440.6264 165.8605)" class="st0 st1 st9">4</text>
		<line class="st8" x1="471.5" y1="174.1" x2="446.3" y2="174.1"/>
		<line class="st10" x1="449.9" y1="145.3" x2="453.5" y2="145.3"/>
		<line class="st10" x1="449.9" y1="152.5" x2="453.5" y2="152.5"/>
		<line class="st10" x1="453.5" y1="159.7" x2="449.9" y2="159.7"/>
		<line class="st8" x1="446.3" y1="138.1" x2="446.3" y2="174.1"/>
		<line class="st8" x1="471.5" y1="174.1" x2="471.5" y2="138.1"/>
		<line class="st8" x1="446.3" y1="138.1" x2="471.5" y2="138.1"/>
		<line class="st10" x1="453.5" y1="166.9" x2="449.9" y2="166.9"/>
		<text transform="matrix(1 0 0 1 446.2934 181.2687)" class="st0 st1 st2">RS485-TERM-SPTAF</text>
		<text transform="matrix(1 0 0 1 446.2934 136.629)" class="st0 st1 st2">J2</text>
	</g>
	<g>
		<circle class="st11" cx="57.5" cy="44.5" r="0.9"/>
		<circle class="st11" cx="50.3" cy="51.7" r="0.9"/>
		<circle class="st11" cx="57.5" cy="51.7" r="0.9"/>
		<circle class="st11" cx="57.5" cy="58.9" r="0.9"/>
		<circle class="st11" cx="50.3" cy="58.9" r="0.9"/>
		<circle class="st11" cx="50.3" cy="66.1" r="0.9"/>
		<circle class="st11" cx="57.5" cy="66.1" r="0.9"/>
		<circle class="st11" cx="57.5" cy="73.3" r="0.9"/>
		<circle class="st11" cx="50.3" cy="73.3" r="0.9"/>
		<rect x="48.7" y="42.9" class="st7" width="3.2" height="3.2"/>
		<line class="st5" x1="35.9" y1="44.5" x2="43.1" y2="44.5"/>
		<text transform="matrix(1 0 0 1 39.4428 43.4611)" class="st0 st1 st9">1</text>
		<line class="st5" x1="35.9" y1="51.7" x2="43.1" y2="51.7"/>
		<text transform="matrix(1 0 0 1 39.4428 50.6603)" class="st0 st1 st9">3</text>
		<line class="st5" x1="35.9" y1="58.9" x2="43.1" y2="58.9"/>
		<text transform="matrix(1 0 0 1 39.4428 57.8615)" class="st0 st1 st9">5</text>
		<line class="st5" x1="35.9" y1="66.1" x2="43.1" y2="66.1"/>
		<text transform="matrix(1 0 0 1 39.4428 65.0607)" class="st0 st1 st9">7</text>
		<line class="st5" x1="35.9" y1="73.3" x2="43.1" y2="73.3"/>
		<text transform="matrix(1 0 0 1 39.4428 72.2599)" class="st0 st1 st9">9</text>
		<line class="st5" x1="71.9" y1="73.3" x2="64.7" y2="73.3"/>
		<text transform="matrix(1 0 0 1 65.7016 72.2599)" class="st0 st1 st9">10</text>
		<line class="st5" x1="71.9" y1="51.7" x2="64.7" y2="51.7"/>
		<text transform="matrix(1 0 0 1 65.7016 50.6603)" class="st0 st1 st9">4</text>
		<line class="st5" x1="71.9" y1="66.1" x2="64.7" y2="66.1"/>
		<text transform="matrix(1 0 0 1 65.7016 65.0607)" class="st0 st1 st9">8</text>
		<line class="st5" x1="71.9" y1="58.9" x2="64.7" y2="58.9"/>
		<text transform="matrix(1 0 0 1 65.7016 57.8615)" class="st0 st1 st9">6</text>
		<line class="st5" x1="71.9" y1="44.5" x2="64.7" y2="44.5"/>
		<text transform="matrix(1 0 0 1 65.7016 43.4611)" class="st0 st1 st9">2</text>
		<line class="st8" x1="43.1" y1="30.1" x2="64.7" y2="30.1"/>
		<line class="st8" x1="64.7" y1="87.7" x2="64.7" y2="73.3"/>
		<line class="st8" x1="64.7" y1="73.3" x2="64.7" y2="66.1"/>
		<line class="st8" x1="64.7" y1="66.1" x2="64.7" y2="58.9"/>
		<line class="st8" x1="64.7" y1="58.9" x2="64.7" y2="51.7"/>
		<line class="st8" x1="64.7" y1="51.7" x2="64.7" y2="44.5"/>
		<line class="st8" x1="64.7" y1="44.5" x2="64.7" y2="30.1"/>
		<line class="st8" x1="64.7" y1="87.7" x2="43.1" y2="87.7"/>
		<line class="st8" x1="43.1" y1="30.1" x2="43.1" y2="44.5"/>
		<line class="st8" x1="43.1" y1="44.5" x2="43.1" y2="51.7"/>
		<line class="st8" x1="43.1" y1="51.7" x2="43.1" y2="55.3"/>
		<line class="st8" x1="43.1" y1="62.5" x2="43.1" y2="66.1"/>
		<line class="st8" x1="43.1" y1="66.1" x2="43.1" y2="73.3"/>
		<line class="st8" x1="43.1" y1="73.3" x2="43.1" y2="87.7"/>
		<line class="st12" x1="43.1" y1="44.5" x2="50.3" y2="44.5"/>
		<line class="st12" x1="43.1" y1="51.7" x2="50.3" y2="51.7"/>
		<line class="st12" x1="43.1" y1="66.1" x2="50.3" y2="66.1"/>
		<line class="st12" x1="43.1" y1="73.3" x2="50.3" y2="73.3"/>
		<line class="st12" x1="57.5" y1="73.3" x2="64.7" y2="73.3"/>
		<line class="st12" x1="57.5" y1="66.1" x2="64.7" y2="66.1"/>
		<line class="st12" x1="57.5" y1="58.9" x2="64.7" y2="58.9"/>
		<line class="st12" x1="57.5" y1="51.7" x2="64.7" y2="51.7"/>
		<line class="st12" x1="57.5" y1="44.5" x2="64.7" y2="44.5"/>
		<line class="st12" x1="43.1" y1="58.9" x2="50.3" y2="58.9"/>
		<text transform="matrix(1 0 0 1 43.0932 26.4689)" class="st0 st1 st2">J6</text>
		<text transform="matrix(1 0 0 1 43.0932 94.8693)" class="st0 st1 st2">ESP-JTAG-2X05</text>
	</g>
	<g>
		<line class="st5" x1="122.3" y1="73.3" x2="136.7" y2="73.3"/>
		<text transform="matrix(1 0 0 1 143.3178 75.4279)" class="st0 st1 st9">!RST/!JTAG_!RST</text>
		<text transform="matrix(1 0 0 1 123.4682 72.2599)" class="st0 st1 st9">RS</text>
		<line class="st5" x1="230.3" y1="94.9" x2="215.9" y2="94.9"/>
		<text transform="matrix(1 0 0 1 202.6635 97.0294)" class="st0 st1 st9">I34</text>
		<text transform="matrix(1 0 0 1 222.517 93.8615)" class="st0 st1 st9">34</text>
		<line class="st5" x1="230.3" y1="44.5" x2="215.9" y2="44.5"/>
		<text transform="matrix(1 0 0 1 201.6098 46.629)" class="st0 st1 st9">IO0</text>
		<text transform="matrix(1 0 0 1 222.517 43.4611)" class="st0 st1 st9">0</text>
		<line class="st5" x1="230.3" y1="51.7" x2="215.9" y2="51.7"/>
		<text transform="matrix(1 0 0 1 201.6098 53.8283)" class="st0 st1 st9">IO2</text>
		<text transform="matrix(1 0 0 1 222.517 50.6603)" class="st0 st1 st9">2</text>
		<line class="st5" x1="230.3" y1="58.9" x2="215.9" y2="58.9"/>
		<text transform="matrix(1 0 0 1 201.6098 61.0294)" class="st0 st1 st9">IO4</text>
		<text transform="matrix(1 0 0 1 222.517 57.8615)" class="st0 st1 st9">4</text>
		<line class="st5" x1="122.3" y1="116.5" x2="136.7" y2="116.5"/>
		<text transform="matrix(1 0 0 1 143.3178 118.629)" class="st0 st1 st9">IO5/VSPI_CS/LED</text>
		<text transform="matrix(1 0 0 1 127.4262 115.4611)" class="st0 st1 st9">5</text>
		<line class="st5" x1="122.3" y1="66.1" x2="136.7" y2="66.1"/>
		<text transform="matrix(1 0 0 1 143.3178 68.2286)" class="st0 st1 st9">IO12/JTAG_DI</text>
		<text transform="matrix(1 0 0 1 124.7836 65.0607)" class="st0 st1 st9">12</text>
		<line class="st5" x1="122.3" y1="51.7" x2="136.7" y2="51.7"/>
		<text transform="matrix(1 0 0 1 143.3178 53.8283)" class="st0 st1 st9">IO13/JTAG_CK</text>
		<text transform="matrix(1 0 0 1 124.7836 50.6603)" class="st0 st1 st9">13</text>
		<line class="st5" x1="122.3" y1="44.5" x2="136.7" y2="44.5"/>
		<text transform="matrix(1 0 0 1 143.3178 46.629)" class="st0 st1 st9">IO14/JTAG_MS</text>
		<text transform="matrix(1 0 0 1 124.7836 43.4611)" class="st0 st1 st9">14</text>
		<line class="st5" x1="122.3" y1="58.9" x2="136.7" y2="58.9"/>
		<text transform="matrix(1 0 0 1 143.3178 61.0294)" class="st0 st1 st9">IO15/JTAG_DO</text>
		<text transform="matrix(1 0 0 1 124.7836 57.8615)" class="st0 st1 st9">15</text>
		<line class="st5" x1="230.3" y1="66.1" x2="215.9" y2="66.1"/>
		<text transform="matrix(1 0 0 1 198.9672 68.2286)" class="st0 st1 st9">IO16</text>
		<text transform="matrix(1 0 0 1 222.517 65.0607)" class="st0 st1 st9">16</text>
		<line class="st5" x1="230.3" y1="73.3" x2="215.9" y2="73.3"/>
		<text transform="matrix(1 0 0 1 198.9672 75.4279)" class="st0 st1 st9">IO17</text>
		<text transform="matrix(1 0 0 1 222.517 72.2599)" class="st0 st1 st9">17</text>
		<line class="st5" x1="122.3" y1="109.3" x2="136.7" y2="109.3"/>
		<text transform="matrix(1 0 0 1 143.3178 111.4288)" class="st0 st1 st9">IO18/VSPI_CLK</text>
		<text transform="matrix(1 0 0 1 124.7836 108.2599)" class="st0 st1 st9">18</text>
		<line class="st5" x1="122.3" y1="102.1" x2="136.7" y2="102.1"/>
		<text transform="matrix(1 0 0 1 143.3178 104.2286)" class="st0 st1 st9">IO19/VSPI_MISO</text>
		<text transform="matrix(1 0 0 1 124.7836 101.0607)" class="st0 st1 st9">19</text>
		<line class="st5" x1="122.3" y1="130.9" x2="136.7" y2="130.9"/>
		<text transform="matrix(1 0 0 1 143.3178 133.0284)" class="st0 st1 st9">IO21/I2C_SDA</text>
		<text transform="matrix(1 0 0 1 124.7836 129.8605)" class="st0 st1 st9">21</text>
		<line class="st5" x1="122.3" y1="138.1" x2="136.7" y2="138.1"/>
		<text transform="matrix(1 0 0 1 143.3178 140.2286)" class="st0 st1 st9">IO22/I2C_SCL</text>
		<text transform="matrix(1 0 0 1 124.7836 137.0607)" class="st0 st1 st9">22</text>
		<line class="st5" x1="122.3" y1="94.9" x2="136.7" y2="94.9"/>
		<text transform="matrix(1 0 0 1 143.3178 97.0294)" class="st0 st1 st9">IO23/VSPI_MOSI</text>
		<text transform="matrix(1 0 0 1 124.7836 93.8615)" class="st0 st1 st9">23</text>
		<line class="st5" x1="230.3" y1="80.5" x2="215.9" y2="80.5"/>
		<text transform="matrix(1 0 0 1 198.9672 82.629)" class="st0 st1 st9">IO32</text>
		<text transform="matrix(1 0 0 1 222.517 79.4611)" class="st0 st1 st9">32</text>
		<line class="st5" x1="230.3" y1="87.7" x2="215.9" y2="87.7"/>
		<text transform="matrix(1 0 0 1 198.9672 89.8282)" class="st0 st1 st9">IO33</text>
		<text transform="matrix(1 0 0 1 222.517 86.6603)" class="st0 st1 st9">33</text>
		<line class="st5" x1="230.3" y1="159.7" x2="215.9" y2="159.7"/>
		<text transform="matrix(1 0 0 1 185.5863 161.8292)" class="st0 st1 st9">RTS2/IO27</text>
		<text transform="matrix(1 0 0 1 222.517 158.6613)" class="st0 st1 st9">27</text>
		<line class="st5" x1="230.3" y1="123.7" x2="215.9" y2="123.7"/>
		<text transform="matrix(1 0 0 1 191.0453 125.8292)" class="st0 st1 st9">RX0/IO3</text>
		<text transform="matrix(1 0 0 1 222.517 122.6613)" class="st0 st1 st9">RX</text>
		<line class="st5" x1="230.3" y1="145.3" x2="215.9" y2="145.3"/>
		<text transform="matrix(1 0 0 1 188.4028 147.4288)" class="st0 st1 st9">RX2/IO25</text>
		<text transform="matrix(1 0 0 1 222.517 144.2609)" class="st0 st1 st9">25</text>
		<line class="st5" x1="230.3" y1="130.9" x2="215.9" y2="130.9"/>
		<text transform="matrix(1 0 0 1 191.5746 133.0284)" class="st0 st1 st9">TX0/IO1</text>
		<text transform="matrix(1 0 0 1 222.517 129.8605)" class="st0 st1 st9">TX</text>
		<line class="st5" x1="230.3" y1="152.5" x2="215.9" y2="152.5"/>
		<text transform="matrix(1 0 0 1 188.9321 154.629)" class="st0 st1 st9">TX2/IO26</text>
		<text transform="matrix(1 0 0 1 222.517 151.4611)" class="st0 st1 st9">26</text>
		<line class="st5" x1="230.3" y1="109.3" x2="215.9" y2="109.3"/>
		<text transform="matrix(1 0 0 1 194.7416 111.4288)" class="st0 st1 st9">VN/I39</text>
		<text transform="matrix(1 0 0 1 222.517 108.2599)" class="st0 st1 st9">VN</text>
		<line class="st5" x1="230.3" y1="102.1" x2="215.9" y2="102.1"/>
		<text transform="matrix(1 0 0 1 195.0043 104.2286)" class="st0 st1 st9">VP/I36</text>
		<text transform="matrix(1 0 0 1 222.517 101.0607)" class="st0 st1 st9">VP</text>
		<line class="st6" x1="158.3" y1="166.9" x2="215.9" y2="166.9"/>
		<line class="st6" x1="215.9" y1="166.9" x2="215.9" y2="37.3"/>
		<line class="st6" x1="215.9" y1="37.3" x2="136.7" y2="37.3"/>
		<line class="st6" x1="136.7" y1="37.3" x2="136.7" y2="145.3"/>
		<line class="st6" x1="136.7" y1="145.3" x2="136.7" y2="166.9"/>
		<line class="st6" x1="158.3" y1="145.3" x2="136.7" y2="145.3"/>
		<line class="st6" x1="158.3" y1="166.9" x2="136.7" y2="166.9"/>
		<line class="st6" x1="158.3" y1="145.3" x2="158.3" y2="166.9"/>
		<line class="st10" x1="154" y1="152.5" x2="157.6" y2="152.5"/>
		<line class="st10" x1="154" y1="159.7" x2="157.6" y2="159.7"/>
		<line class="st10" x1="154" y1="156.1" x2="157.6" y2="156.1"/>
		<line class="st10" x1="154" y1="148.9" x2="157.6" y2="148.9"/>
		<line class="st10" x1="154" y1="163.3" x2="157.6" y2="163.3"/>
		<text transform="matrix(6.123234e-17 -1 1 6.123234e-17 148.933 163.2677)" class="st7 st1 st2">USB</text>
		<text transform="matrix(1 0 0 1 136.6938 195.6691)" class="st7 st1 st13">I2C pins don&apos;t have pull-up resistorsUSB Serial uses IO3 for RX0, and IO1 for TX0Read the BAT voltage from IO35 and double it</text>
		<text transform="matrix(1 0 0 1 136.6938 33.6681)" class="st0 st1 st2">PCB1</text>
		<text transform="matrix(1 0 0 1 136.6938 174.0685)" class="st0 st1 st2">LOLIN-D32</text>
	</g>
	<g>
		<line class="st5" x1="395.9" y1="-99.5" x2="381.5" y2="-99.5"/>
		<text transform="matrix(1 0 0 1 366.4145 -97.371)" class="st0 st1 st9">3V3</text>
		<text transform="matrix(1 0 0 1 388.1176 -100.5389)" class="st0 st1 st9">3V3</text>
		<line class="st5" x1="309.5" y1="-99.5" x2="323.9" y2="-99.5"/>
		<text transform="matrix(1 0 0 1 330.517 -97.371)" class="st0 st1 st9">BAT</text>
		<text transform="matrix(1 0 0 1 308.3803 -100.5389)" class="st0 st1 st9">BAT</text>
		<line class="st5" x1="309.5" y1="-92.3" x2="323.9" y2="-92.3"/>
		<text transform="matrix(1 0 0 1 330.517 -90.1718)" class="st0 st1 st9">EN</text>
		<text transform="matrix(1 0 0 1 310.6684 -93.3397)" class="st0 st1 st9">EN</text>
		<line class="st5" x1="395.9" y1="-70.7" x2="381.5" y2="-70.7"/>
		<text transform="matrix(1 0 0 1 364.31 -68.5721)" class="st0 st1 st9">GND</text>
		<text transform="matrix(1 0 0 1 388.1176 -71.7401)" class="st0 st1 st9">GND*3</text>
		<line class="st5" x1="395.9" y1="-85.1" x2="381.5" y2="-85.1"/>
		<text transform="matrix(1 0 0 1 365.0981 -82.9706)" class="st0 st1 st9">USB</text>
		<text transform="matrix(1 0 0 1 388.1176 -86.1385)" class="st0 st1 st9">USB_5V</text>
		<line class="st6" x1="323.9" y1="-63.5" x2="345.5" y2="-63.5"/>
		<line class="st6" x1="345.5" y1="-63.5" x2="381.5" y2="-63.5"/>
		<line class="st6" x1="381.5" y1="-63.5" x2="381.5" y2="-106.7"/>
		<line class="st6" x1="381.5" y1="-106.7" x2="323.9" y2="-106.7"/>
		<line class="st6" x1="323.9" y1="-106.7" x2="323.9" y2="-85.1"/>
		<line class="st6" x1="323.9" y1="-85.1" x2="323.9" y2="-63.5"/>
		<line class="st6" x1="345.5" y1="-85.1" x2="323.9" y2="-85.1"/>
		<line class="st10" x1="341.2" y1="-70.7" x2="344.8" y2="-70.7"/>
		<line class="st10" x1="341.2" y1="-77.9" x2="344.8" y2="-77.9"/>
		<line class="st6" x1="345.5" y1="-85.1" x2="345.5" y2="-63.5"/>
		<text transform="matrix(6.123234e-17 -1 1 6.123234e-17 336.1322 -67.8514)" class="st7 st1 st2">BAT</text>
		<text transform="matrix(1 0 0 1 323.893 -110.3319)" class="st0 st1 st2">PCB1</text>
		<text transform="matrix(1 0 0 1 323.893 -56.3319)" class="st0 st1 st2">LOLIN-D32</text>
	</g>
	<g>
		<line class="st5" x1="417.5" y1="123.7" x2="410.3" y2="123.7"/>
		<line class="st5" x1="388.7" y1="123.7" x2="395.9" y2="123.7"/>
		<line class="st6" x1="410.3" y1="126.2" x2="395.9" y2="126.2"/>
		<line class="st6" x1="395.9" y1="121.1" x2="410.3" y2="121.1"/>
		<line class="st6" x1="395.9" y1="126.2" x2="395.9" y2="121.1"/>
		<line class="st6" x1="410.3" y1="126.2" x2="410.3" y2="121.1"/>
		<text transform="matrix(1 0 0 1 406.8061 119.421)" class="st0 st1 st2">R1</text>
		<text transform="matrix(1 0 0 1 386.4652 133.0284)" class="st0 st1 st2">120&amp; 1/4W</text>
	</g>
	<g>
		<line class="st5" x1="388.7" y1="123.7" x2="381.5" y2="123.7"/>
		<text transform="matrix(1 0 0 1 382.5014 122.6613)" class="st0 st1 st9">1</text>
		<line class="st5" x1="359.9" y1="123.7" x2="367.1" y2="123.7"/>
		<text transform="matrix(1 0 0 1 363.4428 122.6613)" class="st0 st1 st9">2</text>
		<path class="st14" d="M373.2,121.9c-1,0-1.8,0.8-1.8,1.8c0,1,0.8,1.8,1.8,1.8c0,0,0,0,0,0"/>
		<path class="st14" d="M375.4,125.5c1,0,1.8-0.8,1.8-1.8c0-1-0.8-1.8-1.8-1.8c0,0,0,0,0,0"/>
		<line class="st5" x1="367.1" y1="123.7" x2="369.6" y2="123.7"/>
		<line class="st5" x1="381.5" y1="123.7" x2="379" y2="123.7"/>
		<text transform="matrix(1 0 0 1 371.9398 116.4689)" class="st0 st1 st2">SJ1</text>
		<text transform="matrix(1 0 0 1 367.9418 109.9884)" class="st0 st1 st2">OPEN</text>
	</g>
	<g>
		<line class="st15" x1="359.9" y1="332.5" x2="518.3" y2="332.5"/>
		<line class="st15" x1="647.9" y1="274.9" x2="518.3" y2="274.9"/>
		<line class="st15" x1="647.9" y1="274.9" x2="647.9" y2="289.3"/>
		<line class="st15" x1="647.9" y1="289.3" x2="647.9" y2="303.7"/>
		<line class="st15" x1="647.9" y1="303.7" x2="647.9" y2="318.1"/>
		<line class="st15" x1="518.3" y1="318.1" x2="518.3" y2="332.5"/>
		<line class="st15" x1="518.3" y1="332.5" x2="647.9" y2="332.5"/>
		<line class="st15" x1="518.3" y1="274.9" x2="518.3" y2="289.3"/>
		<line class="st15" x1="518.3" y1="289.3" x2="518.3" y2="303.7"/>
		<line class="st15" x1="518.3" y1="303.7" x2="518.3" y2="318.1"/>
		<line class="st15" x1="518.3" y1="318.1" x2="647.9" y2="318.1"/>
		<line class="st15" x1="647.9" y1="318.1" x2="647.9" y2="332.5"/>
		<line class="st15" x1="518.3" y1="303.7" x2="647.9" y2="303.7"/>
		<line class="st15" x1="518.3" y1="289.3" x2="647.9" y2="289.3"/>
		<line class="st15" x1="518.3" y1="274.9" x2="359.9" y2="274.9"/>
		<line class="st15" x1="359.9" y1="274.9" x2="359.9" y2="332.5"/>
		<path class="st16" d="M526.6,323.1l-1.1-1.1 M525.5,322h-2.2 M523.3,322l-1.1,1.1 M522.2,323.1v1.1 M522.2,324.2l1.1,1.1
			 M523.3,325.3h2.2 M525.5,325.3l1.1,1.1 M526.6,326.4v1.1 M526.6,327.5l-1.1,1.1 M525.5,328.6h-2.2 M523.3,328.6l-1.1-1.1
			 M528.8,322v6.6 M528.8,325.3l1.1-1.1 M529.9,324.2h2.2 M532.1,324.2l1.1,1.1 M533.2,325.3v3.3 M538.8,328.6h-2.2 M536.5,328.6
			l-1.1-1.1 M535.4,327.5v-2.2 M535.4,325.3l1.1-1.1 M536.5,324.2h2.2 M538.8,324.2l1.1,1.1 M539.9,325.3v1.1 M539.9,326.4h-4.4
			 M545.4,328.6h-2.2 M543.2,328.6l-1.1-1.1 M542.1,327.5v-2.2 M542.1,325.3l1.1-1.1 M543.2,324.2h2.2 M545.4,324.2l1.1,1.1
			 M546.5,325.3v1.1 M546.5,326.4h-4.4 M549.8,323.1v4.4 M549.8,327.5l1.1,1.1 M548.7,324.2h2.2 M553.1,324.2h1.1 M554.2,324.2v1.1
			 M554.2,325.3h-1.1 M553.1,325.3v-1.1 M553.1,327.5h1.1 M554.2,327.5v1.1 M554.2,328.6h-1.1 M553.1,328.6v-1.1"/>
		<path class="st16" d="M522.2,308.7l1.1-1.1 M523.3,307.6h2.2 M525.5,307.6l1.1,1.1 M526.6,308.7v1.1 M526.6,309.8l-1.1,1.1
			 M525.5,310.9h-1.1 M525.5,310.9l1.1,1.1 M526.6,312v1.1 M526.6,313.1l-1.1,1.1 M525.5,314.2h-2.2 M523.3,314.2l-1.1-1.1
			 M528.8,314.2l4.4-6.6 M538.8,314.2v-6.6 M538.8,307.6l-3.3,3.3 M535.4,310.9h4.4 M542.1,314.2l4.4-6.6 M553.1,314.2h-4.4
			 M548.7,314.2l4.4-4.4 M553.1,309.8v-1.1 M553.1,308.7l-1.1-1.1 M552,307.6h-2.2 M549.8,307.6l-1.1,1.1 M555.3,313.1v-4.4
			 M555.3,308.7l1.1-1.1 M556.4,307.6h2.2 M558.6,307.6l1.1,1.1 M559.7,308.7v4.4 M559.7,313.1l-1.1,1.1 M558.6,314.2h-2.2
			 M556.4,314.2l-1.1-1.1 M555.3,313.1l4.4-4.4 M566.4,314.2H562 M562,314.2l4.4-4.4 M566.4,309.8v-1.1 M566.4,308.7l-1.1-1.1
			 M565.3,307.6h-2.2 M563.1,307.6l-1.1,1.1 M573,314.2h-4.4 M568.6,314.2l4.4-4.4 M573,309.8v-1.1 M573,308.7l-1.1-1.1
			 M571.9,307.6h-2.2 M569.7,307.6l-1.1,1.1 M586.3,307.6l-2.2,1.1 M584.1,308.7l-2.2,2.2 M581.8,310.9v2.2 M581.8,313.1l1.1,1.1
			 M583,314.2h2.2 M585.2,314.2l1.1-1.1 M586.3,313.1V312 M586.3,312l-1.1-1.1 M585.2,310.9h-3.3 M588.5,309.8h1.1 M589.6,309.8v1.1
			 M589.6,310.9h-1.1 M588.5,310.9v-1.1 M588.5,313.1h1.1 M589.6,313.1v1.1 M589.6,314.2h-1.1 M588.5,314.2v-1.1 M596.2,307.6h-4.4
			 M591.8,307.6v3.3 M591.8,310.9l2.2-1.1 M594,309.8h1.1 M595.1,309.8l1.1,1.1 M596.2,310.9v2.2 M596.2,313.1l-1.1,1.1
			 M595.1,314.2h-2.2 M592.9,314.2l-1.1-1.1 M602.8,307.6h-4.4 M598.4,307.6v3.3 M598.4,310.9l2.2-1.1 M600.6,309.8h1.1
			 M601.7,309.8l1.1,1.1 M602.8,310.9v2.2 M602.8,313.1l-1.1,1.1 M601.7,314.2h-2.2 M599.5,314.2l-1.1-1.1 M611.7,314.2v-6.6
			 M611.7,307.6h3.3 M615,307.6l1.1,1.1 M616.1,308.7v2.2 M616.1,310.9L615,312 M615,312h-3.3 M618.3,314.2v-6.6 M618.3,307.6
			l2.2,2.2 M620.5,309.8l2.2-2.2 M622.7,307.6v6.6"/>
		<path class="st16" d="M561.8,324.2l2.2-2.2 M564,322v6.6 M561.8,328.6h4.4 M568.4,328.6l4.4-6.6 M575,324.2l2.2-2.2 M577.2,322
			v6.6 M575,328.6h4.4"/>
		<path class="st16" d="M522.2,299.8v-6.6 M522.2,293.2h3.3 M525.5,293.2l1.1,1.1 M526.6,294.3v2.2 M526.6,296.5l-1.1,1.1
			 M525.5,297.6h-3.3 M529.9,299.8h2.2 M532.1,299.8l1.1-1.1 M533.2,298.7v-2.2 M533.2,296.5l-1.1-1.1 M532.1,295.4h-2.2
			 M529.9,295.4l-1.1,1.1 M528.8,296.5v2.2 M528.8,298.7l1.1,1.1 M536.5,299.8h2.2 M538.8,299.8l1.1-1.1 M539.9,298.7v-2.2
			 M539.9,296.5l-1.1-1.1 M538.8,295.4h-2.2 M536.5,295.4l-1.1,1.1 M535.4,296.5v2.2 M535.4,298.7l1.1,1.1 M542.1,293.2h1.1
			 M543.2,293.2v6.6 M542.1,299.8h2.2 M553.1,299.8h2.2 M554.2,299.8v-6.6 M553.1,293.2h2.2 M557.5,299.8v-4.4 M557.5,295.4h3.3
			 M560.9,295.4l1.1,1.1 M562,296.5v3.3 M565.3,294.3v4.4 M565.3,298.7l1.1,1.1 M564.2,295.4h2.2 M571.9,299.8h-2.2 M569.7,299.8
			l-1.1-1.1 M568.6,298.7v-2.2 M568.6,296.5l1.1-1.1 M569.7,295.4h2.2 M571.9,295.4l1.1,1.1 M573,296.5v1.1 M573,297.6h-4.4
			 M575.2,299.8v-4.4 M575.2,297.6l2.2-2.2 M577.4,295.4h1.1 M581.8,299.8v-5.5 M581.8,294.3l1.1-1.1 M580.7,296.5h2.2 M586.3,295.4
			h2.2 M588.5,295.4l1.1,1.1 M589.6,296.5v3.3 M589.6,299.8h-3.3 M586.3,299.8l-1.1-1.1 M585.2,298.7l1.1-1.1 M586.3,297.6h3.3
			 M596.2,295.4h-3.3 M592.9,295.4l-1.1,1.1 M591.8,296.5v2.2 M591.8,298.7l1.1,1.1 M592.9,299.8h3.3 M601.7,299.8h-2.2
			 M599.5,299.8l-1.1-1.1 M598.4,298.7v-2.2 M598.4,296.5l1.1-1.1 M599.5,295.4h2.2 M601.7,295.4l1.1,1.1 M602.8,296.5v1.1
			 M602.8,297.6h-4.4"/>
		<text transform="matrix(1 0 0 1 367.0932 328.8693)" class="st7 st1" style="font-size:7.92px;">https://coertvonk.com/</text>
		<text transform="matrix(1 0 0 1 367.0932 285.6691)" class="st7 st1 st2">WiFi Pool Interface</text>
		<path class="st16" d="M526.6,279.9l-1.1-1.1 M525.5,278.8h-2.2 M523.3,278.8l-1.1,1.1 M522.2,279.9v4.4 M522.2,284.3l1.1,1.1
			 M523.3,285.4h2.2 M525.5,285.4l1.1-1.1 M529.9,285.4h2.2 M532.1,285.4l1.1-1.1 M533.2,284.3v-2.2 M533.2,282.1l-1.1-1.1
			 M532.1,281h-2.2 M529.9,281l-1.1,1.1 M528.8,282.1v2.2 M528.8,284.3l1.1,1.1 M538.8,285.4h-2.2 M536.5,285.4l-1.1-1.1
			 M535.4,284.3v-2.2 M535.4,282.1l1.1-1.1 M536.5,281h2.2 M538.8,281l1.1,1.1 M539.9,282.1v1.1 M539.9,283.2h-4.4 M542.1,285.4V281
			 M542.1,283.2l2.2-2.2 M544.3,281h1.1 M548.7,279.9v4.4 M548.7,284.3l1.1,1.1 M547.6,281h2.2 M558.6,278.8v4.4 M558.6,283.2
			l2.2,2.2 M560.9,285.4l2.2-2.2 M563.1,283.2v-4.4 M566.4,285.4h2.2 M568.6,285.4l1.1-1.1 M569.7,284.3v-2.2 M569.7,282.1l-1.1-1.1
			 M568.6,281h-2.2 M566.4,281l-1.1,1.1 M565.3,282.1v2.2 M565.3,284.3l1.1,1.1 M571.9,285.4V281 M571.9,281h3.3 M575.2,281l1.1,1.1
			 M576.3,282.1v3.3 M578.5,285.4v-6.6 M581.8,285.4l-3.3-2.2 M578.5,283.2l3.3-2.2"/>
		<text transform="matrix(1 0 0 1 644.2934 300.0685)" class="st7 st1" style="font-size:7.92px;">1.0</text>
	</g>
	<g>
		<circle class="st17" cx="313.1" cy="131.9" r="1.8"/>
		<circle class="st17" cx="322.1" cy="129.1" r="1.8"/>
		<circle class="st17" cx="317.8" cy="161.5" r="1.8"/>
		<circle class="st18" cx="327.5" cy="138.1" r="0.7"/>
		<circle class="st18" cx="336.5" cy="152.5" r="0.7"/>
		<line class="st5" x1="352.7" y1="152.5" x2="345.5" y2="152.5"/>
		<text transform="matrix(1 0 0 1 346.5014 151.4611)" class="st0 st1 st9">6</text>
		<line class="st5" x1="352.7" y1="138.1" x2="345.5" y2="138.1"/>
		<text transform="matrix(1 0 0 1 346.5014 137.0607)" class="st0 st1 st9">7</text>
		<line class="st5" x1="280.7" y1="152.5" x2="287.9" y2="152.5"/>
		<text transform="matrix(1 0 0 1 294.517 154.629)" class="st0 st1 st9">DE</text>
		<text transform="matrix(1 0 0 1 284.2426 151.4611)" class="st0 st1 st9">3</text>
		<line class="st5" x1="280.7" y1="166.9" x2="287.9" y2="166.9"/>
		<text transform="matrix(1 0 0 1 294.517 169.0284)" class="st0 st1 st9">DI</text>
		<text transform="matrix(1 0 0 1 284.2426 165.8605)" class="st0 st1 st9">4</text>
		<line class="st5" x1="280.7" y1="138.1" x2="287.9" y2="138.1"/>
		<text transform="matrix(1 0 0 1 294.517 140.2286)" class="st0 st1 st9">RE/</text>
		<text transform="matrix(1 0 0 1 284.2426 137.0607)" class="st0 st1 st9">2</text>
		<line class="st5" x1="280.7" y1="123.7" x2="287.9" y2="123.7"/>
		<text transform="matrix(1 0 0 1 294.517 125.8292)" class="st0 st1 st9">RO</text>
		<text transform="matrix(1 0 0 1 284.2426 122.6613)" class="st0 st1 st9">1</text>
		<line class="st6" x1="287.9" y1="109.3" x2="345.5" y2="109.3"/>
		<line class="st6" x1="345.5" y1="109.3" x2="345.5" y2="138.1"/>
		<line class="st6" x1="345.5" y1="138.1" x2="345.5" y2="152.5"/>
		<line class="st6" x1="345.5" y1="152.5" x2="345.5" y2="181.3"/>
		<line class="st6" x1="345.5" y1="181.3" x2="287.9" y2="181.3"/>
		<line class="st6" x1="287.9" y1="181.3" x2="287.9" y2="166.9"/>
		<line class="st6" x1="287.9" y1="166.9" x2="287.9" y2="152.5"/>
		<line class="st6" x1="287.9" y1="152.5" x2="287.9" y2="138.1"/>
		<line class="st6" x1="287.9" y1="138.1" x2="287.9" y2="123.7"/>
		<line class="st6" x1="287.9" y1="123.7" x2="287.9" y2="109.3"/>
		<line class="st19" x1="320.3" y1="112.9" x2="320.3" y2="118.3"/>
		<line class="st19" x1="320.3" y1="118.3" x2="320.3" y2="134.5"/>
		<line class="st19" x1="320.3" y1="134.5" x2="304.1" y2="123.7"/>
		<line class="st19" x1="304.1" y1="123.7" x2="320.3" y2="112.9"/>
		<line class="st19" x1="304.1" y1="177.7" x2="304.1" y2="166.9"/>
		<line class="st19" x1="304.1" y1="166.9" x2="304.1" y2="156.1"/>
		<line class="st19" x1="304.1" y1="156.1" x2="323.9" y2="166.9"/>
		<line class="st19" x1="323.9" y1="166.9" x2="304.1" y2="177.7"/>
		<line class="st19" x1="307.3" y1="138.1" x2="313.1" y2="138.1"/>
		<line class="st19" x1="313.1" y1="138.1" x2="313.1" y2="133.7"/>
		<line class="st19" x1="302.3" y1="152.5" x2="311.3" y2="152.5"/>
		<line class="st19" x1="311.3" y1="152.5" x2="311.3" y2="160"/>
		<line class="st19" x1="336.5" y1="171.2" x2="336.5" y2="152.5"/>
		<line class="st19" x1="336.5" y1="152.5" x2="336.5" y2="118.3"/>
		<line class="st19" x1="320.3" y1="118.3" x2="336.5" y2="118.3"/>
		<line class="st19" x1="319.6" y1="161.5" x2="327.5" y2="161.5"/>
		<line class="st19" x1="327.5" y1="161.5" x2="327.5" y2="138.1"/>
		<line class="st19" x1="327.5" y1="138.1" x2="327.5" y2="129.1"/>
		<line class="st19" x1="327.5" y1="129.1" x2="323.9" y2="129.1"/>
		<line class="st19" x1="345.5" y1="138.1" x2="327.5" y2="138.1"/>
		<line class="st19" x1="345.5" y1="152.5" x2="336.5" y2="152.5"/>
		<line class="st19" x1="287.9" y1="123.7" x2="292.9" y2="123.7"/>
		<line class="st19" x1="302.7" y1="123.7" x2="304.1" y2="123.7"/>
		<line class="st19" x1="287.9" y1="138.1" x2="292.9" y2="138.1"/>
		<line class="st19" x1="287.9" y1="166.9" x2="292.6" y2="166.9"/>
		<line class="st19" x1="301.6" y1="166.9" x2="304.1" y2="166.9"/>
		<line class="st19" x1="287.9" y1="152.5" x2="292.6" y2="152.5"/>
		<line class="st19" x1="316.7" y1="171.2" x2="336.5" y2="171.2"/>
		<text transform="matrix(1 0 0 1 338.2934 159.6691)" class="st0 st1 st2">A</text>
		<text transform="matrix(1 0 0 1 338.2934 134.4689)" class="st0 st1 st2">B</text>
		<text transform="matrix(1 0 0 1 287.893 105.6681)" class="st0 st1 st2">U1</text>
		<text transform="matrix(1 0 0 1 287.893 188.4689)" class="st0 st1 st2">MAX3485CSA+</text>
	</g>
	<g>
		<line class="st5" x1="439.1" y1="-63.5" x2="439.1" y2="-77.9"/>
		<text transform="matrix(6.123234e-17 -1 1 6.123234e-17 438.0844 -68.6639)" class="st0 st1 st9">5</text>
		<line class="st5" x1="439.1" y1="-106.7" x2="439.1" y2="-92.3"/>
		<text transform="matrix(6.123234e-17 -1 1 6.123234e-17 438.0844 -98.955)" class="st0 st1 st9">8</text>
		<text transform="matrix(6.123234e-17 -1 1 6.123234e-17 443.4125 -77.9315)" class="st0 st1" style="font-size:3.168px;">GND</text>
		<text transform="matrix(6.123234e-17 -1 1 6.123234e-17 443.4125 -92.3319)" class="st0 st1" style="font-size:3.168px;">3V3</text>
		<text transform="matrix(1 0 0 1 439.0932 -82.9706)" class="st0 st1 st2">U1</text>
	</g>
</g>
</svg>
