<?xml version="1.0" encoding="utf-8"?>
<!-- Generator: Adobe Illustrator 26.1.0, SVG Export Plug-In . SVG Version: 6.00 Build 0)  -->
<svg version="1.1" id="r2" xmlns="http://www.w3.org/2000/svg" xmlns:xlink="http://www.w3.org/1999/xlink" x="0px" y="0px"
	 viewBox="0 0 531 248.2" style="enable-background:new 0 0 531 248.2;" xml:space="preserve">
<style type="text/css">
	.st0{fill:none;stroke:#C90D0C;stroke-width:0.288;stroke-linecap:round;stroke-miterlimit:11.3386;}
	.st1{fill:none;stroke:#C90D0C;stroke-width:0.576;stroke-linecap:round;stroke-miterlimit:11.3386;}
	.st2{enable-background:new    ;}
	.st3{fill:#808080;}
	.st4{font-family:'ArialMT';}
	.st5{font-size:5.544px;}
	.st6{fill:none;stroke:#0DAB76;stroke-width:0.432;stroke-linecap:round;stroke-miterlimit:11.3386;}
	.st7{fill:#0DAB76;}
	.st8{fill:none;stroke:#C90D0C;stroke-width:0.432;stroke-linecap:round;stroke-miterlimit:11.3386;}
	.st9{fill:none;stroke:#C90D0C;stroke-width:0.72;stroke-linecap:round;stroke-miterlimit:11.3386;}
	.st10{font-size:4.752px;}
	.st11{fill:none;stroke:#C90D0C;stroke-width:1.152;stroke-linecap:round;stroke-miterlimit:11.3386;}
	.st12{fill:none;stroke:#C90D0C;stroke-width:1.728;stroke-linecap:round;stroke-miterlimit:11.3386;}
	.st13{fill:none;stroke:#C90D0C;stroke-width:1.44;stroke-miterlimit:11.3386;}
	.st14{fill:#C90D0C;}
	.st15{fill:none;stroke:#C90D0C;stroke-width:0.504;stroke-linecap:round;stroke-miterlimit:11.3386;}
	.st16{font-size:3.96px;}
	.st17{fill:none;stroke:#C90D0C;stroke-width:3.6;stroke-miterlimit:11.3386;}
	.st18{font-size:5.6168px;}
	.st19{font-size:5.6166px;}
	.st20{fill:none;stroke:#C90D0C;stroke-width:0.36;stroke-miterlimit:11.3386;}
	.st21{fill:none;stroke:#C90D0C;stroke-width:1.152;stroke-miterlimit:11.3386;}
	.st22{fill:none;stroke:#C90D0C;stroke-width:0.36;stroke-linecap:round;stroke-miterlimit:11.3386;}
</style>
<g id="Border">
	<line class="st0" x1="359.9" y1="329.4" x2="518.3" y2="329.4"/>
	<line class="st0" x1="647.9" y1="271.8" x2="518.3" y2="271.8"/>
	<line class="st0" x1="647.9" y1="271.8" x2="647.9" y2="286.2"/>
	<line class="st0" x1="647.9" y1="286.2" x2="647.9" y2="300.6"/>
	<line class="st0" x1="647.9" y1="300.6" x2="647.9" y2="315"/>
	<line class="st0" x1="518.3" y1="315" x2="518.3" y2="329.4"/>
	<line class="st0" x1="518.3" y1="329.4" x2="647.9" y2="329.4"/>
	<line class="st0" x1="518.3" y1="271.8" x2="518.3" y2="286.2"/>
	<line class="st0" x1="518.3" y1="286.2" x2="518.3" y2="300.6"/>
	<line class="st0" x1="518.3" y1="300.6" x2="518.3" y2="315"/>
	<line class="st0" x1="518.3" y1="315" x2="647.9" y2="315"/>
	<line class="st0" x1="647.9" y1="315" x2="647.9" y2="329.4"/>
	<line class="st0" x1="518.3" y1="300.6" x2="647.9" y2="300.6"/>
	<line class="st0" x1="518.3" y1="286.2" x2="647.9" y2="286.2"/>
	<line class="st0" x1="518.3" y1="271.8" x2="359.9" y2="271.8"/>
	<line class="st0" x1="359.9" y1="271.8" x2="359.9" y2="329.4"/>
	<path class="st1" d="M526.6,320l-1.1-1.1 M525.5,318.9h-2.2 M523.3,318.9l-1.1,1.1 M522.2,320v1.1 M522.2,321.1l1.1,1.1
		 M523.3,322.2h2.2 M525.5,322.2l1.1,1.1 M526.6,323.3v1.1 M526.6,324.4l-1.1,1.1 M525.5,325.5h-2.2 M523.3,325.5l-1.1-1.1
		 M528.8,318.9v6.6 M528.8,322.2l1.1-1.1 M529.9,321.1h2.2 M532.1,321.1l1.1,1.1 M533.2,322.2v3.3 M538.8,325.5h-2.2 M536.5,325.5
		l-1.1-1.1 M535.4,324.4v-2.2 M535.4,322.2l1.1-1.1 M536.5,321.1h2.2 M538.8,321.1l1.1,1.1 M539.9,322.2v1.1 M539.9,323.3h-4.4
		 M545.4,325.5h-2.2 M543.2,325.5l-1.1-1.1 M542.1,324.4v-2.2 M542.1,322.2l1.1-1.1 M543.2,321.1h2.2 M545.4,321.1l1.1,1.1
		 M546.5,322.2v1.1 M546.5,323.3h-4.4 M549.8,320v4.4 M549.8,324.4l1.1,1.1 M548.7,321.1h2.2 M553.1,321.1h1.1 M554.2,321.1v1.1
		 M554.2,322.2h-1.1 M553.1,322.2v-1.1 M553.1,324.4h1.1 M554.2,324.4v1.1 M554.2,325.5h-1.1 M553.1,325.5v-1.1"/>
	<path class="st1" d="M525.5,311.1v-6.6 M525.5,304.5l-3.3,3.3 M522.2,307.8h4.4 M528.8,311.1l4.4-6.6 M535.4,304.5h4.4
		 M539.9,304.5v1.1 M539.9,305.6l-4.4,4.4 M535.4,310v1.1 M542.1,311.1l4.4-6.6 M553.1,311.1h-4.4 M548.7,311.1l4.4-4.4
		 M553.1,306.7v-1.1 M553.1,305.6l-1.1-1.1 M552,304.5h-2.2 M549.8,304.5l-1.1,1.1 M555.3,310v-4.4 M555.3,305.6l1.1-1.1
		 M556.4,304.5h2.2 M558.6,304.5l1.1,1.1 M559.7,305.6v4.4 M559.7,310l-1.1,1.1 M558.6,311.1h-2.2 M556.4,311.1l-1.1-1.1 M555.3,310
		l4.4-4.4 M566.4,311.1H562 M562,311.1l4.4-4.4 M566.4,306.7v-1.1 M566.4,305.6l-1.1-1.1 M565.3,304.5h-2.2 M563.1,304.5l-1.1,1.1
		 M573,311.1h-4.4 M568.6,311.1l4.4-4.4 M573,306.7v-1.1 M573,305.6l-1.1-1.1 M571.9,304.5h-2.2 M569.7,304.5l-1.1,1.1 M581.8,310
		l1.1,1.1 M583,311.1h2.2 M585.2,311.1l1.1-1.1 M586.3,310v-4.4 M586.3,305.6l-1.1-1.1 M585.2,304.5H583 M583,304.5l-1.1,1.1
		 M581.8,305.6v1.1 M581.8,306.7l1.1,1.1 M583,307.8h3.3 M588.5,306.7h1.1 M589.6,306.7v1.1 M589.6,307.8h-1.1 M588.5,307.8v-1.1
		 M588.5,310h1.1 M589.6,310v1.1 M589.6,311.1h-1.1 M588.5,311.1V310 M595.1,311.1v-6.6 M595.1,304.5l-3.3,3.3 M591.8,307.8h4.4
		 M602.8,311.1h-4.4 M598.4,311.1l4.4-4.4 M602.8,306.7v-1.1 M602.8,305.6l-1.1-1.1 M601.7,304.5h-2.2 M599.5,304.5l-1.1,1.1
		 M611.7,311.1v-6.6 M611.7,304.5h3.3 M615,304.5l1.1,1.1 M616.1,305.6v2.2 M616.1,307.8l-1.1,1.1 M615,308.9h-3.3 M618.3,311.1
		v-6.6 M618.3,304.5l2.2,2.2 M620.5,306.7l2.2-2.2 M622.7,304.5v6.6"/>
	<path class="st1" d="M561.8,321.1l2.2-2.2 M564,318.9v6.6 M561.8,325.5h4.4 M568.4,325.5l4.4-6.6 M575,321.1l2.2-2.2 M577.2,318.9
		v6.6 M575,325.5h4.4"/>
	<path class="st1" d="M525.5,290.1h-2.2 M523.3,290.1l-1.1,1.1 M522.2,291.2v4.4 M522.2,295.6l1.1,1.1 M523.3,296.7h2.2
		 M525.5,296.7l1.1-1.1 M526.6,295.6v-4.4 M526.6,291.2l-1.1-1.1 M528.8,296.7v-6.6 M528.8,290.1h3.3 M532.1,290.1l1.1,1.1
		 M533.2,291.2v2.2 M533.2,293.4l-1.1,1.1 M532.1,294.5h-3.3 M535.4,296.7v-6.6 M535.4,290.1l4.4,6.6 M539.9,296.7v-6.6
		 M542.1,298.9v-6.6 M542.1,292.3h3.3 M545.4,292.3l1.1,1.1 M546.5,293.4v2.2 M546.5,295.6l-1.1,1.1 M545.4,296.7h-3.3 M549.8,296.7
		h2.2 M552,296.7l1.1-1.1 M553.1,295.6v-2.2 M553.1,293.4l-1.1-1.1 M552,292.3h-2.2 M549.8,292.3l-1.1,1.1 M548.7,293.4v2.2
		 M548.7,295.6l1.1,1.1 M556.4,296.7h2.2 M558.6,296.7l1.1-1.1 M559.7,295.6v-2.2 M559.7,293.4l-1.1-1.1 M558.6,292.3h-2.2
		 M556.4,292.3l-1.1,1.1 M555.3,293.4v2.2 M555.3,295.6l1.1,1.1 M562,290.1h1.1 M563.1,290.1v6.6 M562,296.7h2.2 M573,296.7v-4.4
		 M573,294.5l2.2-2.2 M575.2,292.3h1.1 M583,296.7h-4.4 M578.5,296.7l4.4-4.4 M583,292.3v-1.1 M583,291.2l-1.1-1.1 M581.8,290.1
		h-2.2 M579.6,290.1l-1.1,1.1"/>
	<text transform="matrix(1 0 0 1 367.0932 325.7773)" class="st14 st4" style="font-size:7.92px;">https://github.com/cvonk/OPNpool</text>
	<text transform="matrix(1 0 0 1 367.0932 282.5771)" class="st14 st4 st5">OPNpool a Wi-Fi Pool Interface</text>
	<path class="st1" d="M526.6,276.8l-1.1-1.1 M525.5,275.7h-2.2 M523.3,275.7l-1.1,1.1 M522.2,276.8v4.4 M522.2,281.2l1.1,1.1
		 M523.3,282.3h2.2 M525.5,282.3l1.1-1.1 M529.9,282.3h2.2 M532.1,282.3l1.1-1.1 M533.2,281.2V279 M533.2,279l-1.1-1.1 M532.1,277.9
		h-2.2 M529.9,277.9l-1.1,1.1 M528.8,279v2.2 M528.8,281.2l1.1,1.1 M538.8,282.3h-2.2 M536.5,282.3l-1.1-1.1 M535.4,281.2V279
		 M535.4,279l1.1-1.1 M536.5,277.9h2.2 M538.8,277.9l1.1,1.1 M539.9,279v1.1 M539.9,280.1h-4.4 M542.1,282.3v-4.4 M542.1,280.1
		l2.2-2.2 M544.3,277.9h1.1 M548.7,276.8v4.4 M548.7,281.2l1.1,1.1 M547.6,277.9h2.2 M558.6,275.7v4.4 M558.6,280.1l2.2,2.2
		 M560.9,282.3l2.2-2.2 M563.1,280.1v-4.4 M566.4,282.3h2.2 M568.6,282.3l1.1-1.1 M569.7,281.2V279 M569.7,279l-1.1-1.1
		 M568.6,277.9h-2.2 M566.4,277.9l-1.1,1.1 M565.3,279v2.2 M565.3,281.2l1.1,1.1 M571.9,282.3v-4.4 M571.9,277.9h3.3 M575.2,277.9
		l1.1,1.1 M576.3,279v3.3 M578.5,282.3v-6.6 M581.8,282.3l-3.3-2.2 M578.5,280.1l3.3-2.2"/>
</g>
<g id="Logic">
	<text transform="matrix(6.123234e-17 -1 1 6.123234e-17 8.5362 77.9954)" class="st2"><tspan x="0" y="0" class="st3 st4 st5">Up chip degugging </tspan><tspan x="16" y="6.7" class="st3 st4 st5">JTAG</tspan></text>
	<text transform="matrix(6.123234e-17 -1 1 6.123234e-17 523.3325 171.7638)" class="st3 st4 st5">PoolController</text>
	<text transform="matrix(1 0 0 1 233.6049 171.6972)" class="st3 st4 st5">Green</text>
	<text transform="matrix(1 0 0 1 268.685 171.6972)" class="st3 st4 st5">Amber</text>
	<line class="st6" x1="21.5" y1="19.8" x2="21.5" y2="41.4"/>
	<line class="st6" x1="21.5" y1="41.4" x2="35.9" y2="41.4"/>
	<line class="st6" x1="475.1" y1="106.2" x2="475.1" y2="142.2"/>
	<line class="st6" x1="475.1" y1="142.2" x2="478.7" y2="142.2"/>
	<text transform="matrix(1 0 0 1 475.0932 106.1776)" class="st3 st4 st5">15V</text>
	<g>
		<line class="st6" x1="395.9" y1="149.4" x2="403.1" y2="149.4"/>
		<line class="st6" x1="403.1" y1="149.4" x2="478.7" y2="149.4"/>
		<line class="st6" x1="403.1" y1="120.6" x2="403.1" y2="149.4"/>
		<circle class="st7" cx="403.1" cy="149.4" r="1.4"/>
		<text transform="matrix(1 0 0 1 417.4936 149.3768)" class="st3 st4 st5">A</text>
	</g>
	<g>
		<line class="st6" x1="395.9" y1="135" x2="460.7" y2="135"/>
		<line class="st6" x1="460.7" y1="135" x2="460.7" y2="156.6"/>
		<line class="st6" x1="460.7" y1="156.6" x2="478.7" y2="156.6"/>
		<line class="st6" x1="460.7" y1="120.6" x2="460.7" y2="135"/>
		<circle class="st7" cx="460.7" cy="135" r="1.4"/>
		<text transform="matrix(1 0 0 1 417.4936 134.9765)" class="st3 st4 st5">B</text>
	</g>
	<line class="st6" x1="35.9" y1="48.6" x2="21.5" y2="48.6"/>
	<line class="st6" x1="21.5" y1="48.6" x2="21.5" y2="55.8"/>
	<line class="st6" x1="21.5" y1="55.8" x2="21.5" y2="63"/>
	<line class="st6" x1="21.5" y1="63" x2="21.5" y2="70.2"/>
	<line class="st6" x1="35.9" y1="55.8" x2="21.5" y2="55.8"/>
	<line class="st6" x1="35.9" y1="63" x2="21.5" y2="63"/>
	<line class="st6" x1="35.9" y1="70.2" x2="21.5" y2="70.2"/>
	<line class="st6" x1="21.5" y1="70.2" x2="21.5" y2="84.6"/>
	<circle class="st7" cx="21.5" cy="55.8" r="1.4"/>
	<circle class="st7" cx="21.5" cy="63" r="1.4"/>
	<circle class="st7" cx="21.5" cy="70.2" r="1.4"/>
	<line class="st6" x1="475.1" y1="178.2" x2="475.1" y2="163.8"/>
	<line class="st6" x1="475.1" y1="163.8" x2="478.7" y2="163.8"/>
	<line class="st6" x1="230.3" y1="106.2" x2="244.7" y2="106.2"/>
	<line class="st6" x1="244.7" y1="106.2" x2="244.7" y2="113.4"/>
	<line class="st6" x1="230.3" y1="99" x2="244.7" y2="99"/>
	<line class="st6" x1="244.7" y1="99" x2="244.7" y2="106.2"/>
	<line class="st6" x1="230.3" y1="91.8" x2="244.7" y2="91.8"/>
	<line class="st6" x1="244.7" y1="91.8" x2="244.7" y2="99"/>
	<circle class="st7" cx="244.7" cy="106.2" r="1.4"/>
	<circle class="st7" cx="244.7" cy="99" r="1.4"/>
	<line class="st6" x1="295.1" y1="221.4" x2="295.1" y2="228.6"/>
	<line class="st6" x1="259.1" y1="221.4" x2="259.1" y2="228.6"/>
	<line class="st6" x1="280.7" y1="41.4" x2="295.1" y2="41.4"/>
	<line class="st6" x1="295.1" y1="41.4" x2="295.1" y2="48.6"/>
	<line class="st6" x1="295.1" y1="48.6" x2="295.1" y2="55.8"/>
	<line class="st6" x1="280.7" y1="48.6" x2="295.1" y2="48.6"/>
	<circle class="st7" cx="295.1" cy="48.6" r="1.4"/>
	<g>
		<line class="st6" x1="71.9" y1="70.2" x2="122.3" y2="70.2"/>
		<text transform="matrix(1 0 0 1 79.0932 70.1776)" class="st3 st4 st5">JTAG_!RST</text>
	</g>
	<g>
		<line class="st6" x1="71.9" y1="48.6" x2="122.3" y2="48.6"/>
		<text transform="matrix(1 0 0 1 79.0932 48.5761)" class="st3 st4 st5">JTAG_CK</text>
	</g>
	<g>
		<line class="st6" x1="71.9" y1="63" x2="122.3" y2="63"/>
		<text transform="matrix(1 0 0 1 79.0932 62.9765)" class="st3 st4 st5">JTAG_DI</text>
	</g>
	<g>
		<line class="st6" x1="71.9" y1="55.8" x2="122.3" y2="55.8"/>
		<text transform="matrix(1 0 0 1 79.0932 55.7772)" class="st3 st4 st5">JTAG_DO</text>
	</g>
	<g>
		<line class="st6" x1="71.9" y1="41.4" x2="122.3" y2="41.4"/>
		<text transform="matrix(1 0 0 1 79.0932 41.3769)" class="st3 st4 st5">JTAG_MS</text>
	</g>
	<g>
		<line class="st6" x1="230.3" y1="41.4" x2="237.5" y2="41.4"/>
		<line class="st6" x1="237.5" y1="41.4" x2="244.7" y2="41.4"/>
		<line class="st6" x1="237.5" y1="41.4" x2="237.5" y2="48.6"/>
		<line class="st6" x1="237.5" y1="48.6" x2="244.7" y2="48.6"/>
		<circle class="st7" cx="237.5" cy="41.4" r="1.4"/>
	</g>
	<g>
		<line class="st6" x1="230.3" y1="156.6" x2="316.7" y2="156.6"/>
		<line class="st6" x1="316.7" y1="156.6" x2="316.7" y2="149.4"/>
		<line class="st6" x1="316.7" y1="149.4" x2="316.7" y2="135"/>
		<line class="st6" x1="316.7" y1="135" x2="323.9" y2="135"/>
		<line class="st6" x1="323.9" y1="149.4" x2="316.7" y2="149.4"/>
		<circle class="st7" cx="316.7" cy="149.4" r="1.4"/>
		<text transform="matrix(1 0 0 1 237.4936 156.577)" class="st3 st4 st5">RTS</text>
	</g>
	<g>
		<line class="st6" x1="230.3" y1="142.2" x2="259.1" y2="142.2"/>
		<line class="st6" x1="259.1" y1="142.2" x2="259.1" y2="120.6"/>
		<line class="st6" x1="259.1" y1="120.6" x2="323.9" y2="120.6"/>
		<line class="st6" x1="259.1" y1="142.2" x2="259.1" y2="171"/>
		<circle class="st7" cx="259.1" cy="142.2" r="1.4"/>
		<text transform="matrix(1 0 0 1 237.4936 142.1767)" class="st3 st4 st5">RX2</text>
	</g>
	<g>
		<line class="st6" x1="230.3" y1="149.4" x2="295.1" y2="149.4"/>
		<line class="st6" x1="295.1" y1="149.4" x2="295.1" y2="163.8"/>
		<line class="st6" x1="295.1" y1="163.8" x2="295.1" y2="171"/>
		<line class="st6" x1="323.9" y1="163.8" x2="295.1" y2="163.8"/>
		<circle class="st7" cx="295.1" cy="163.8" r="1.4"/>
		<text transform="matrix(1 0 0 1 237.4936 149.3768)" class="st3 st4 st5">TX</text>
	</g>
	<g>
		<line class="st8" x1="21.5" y1="19.8" x2="21.5" y2="12.6"/>
		<line class="st9" x1="25.1" y1="18" x2="21.5" y2="12.6"/>
		<line class="st9" x1="21.5" y1="12.6" x2="17.9" y2="18"/>
		<text transform="matrix(1 0 0 1 21.4936 8.9765)" class="st3 st4 st5">3V3</text>
	</g>
	<g>
		<line class="st8" x1="244.7" y1="113.4" x2="244.7" y2="120.6"/>
		<line class="st9" x1="239.3" y1="120.6" x2="250.1" y2="120.6"/>
		<text transform="matrix(1 0 0 1 244.6938 127.7772)" class="st3 st4 st5">GND</text>
	</g>
	<g>
		<line class="st8" x1="295.1" y1="228.6" x2="295.1" y2="235.8"/>
		<line class="st9" x1="300.5" y1="235.8" x2="289.7" y2="235.8"/>
		<text transform="matrix(1 0 0 1 289.974 242.9765)" class="st3 st4 st5">GND</text>
	</g>
	<g>
		<line class="st8" x1="259.1" y1="228.6" x2="259.1" y2="235.8"/>
		<line class="st9" x1="264.5" y1="235.8" x2="253.7" y2="235.8"/>
		<text transform="matrix(1 0 0 1 253.974 242.9765)" class="st3 st4 st5">GND</text>
	</g>
	<g>
		<line class="st8" x1="295.1" y1="55.8" x2="295.1" y2="63"/>
		<line class="st9" x1="300.5" y1="63" x2="289.7" y2="63"/>
		<text transform="matrix(1 0 0 1 289.974 70.1776)" class="st3 st4 st5">GND</text>
	</g>
	<g>
		<line class="st8" x1="21.5" y1="84.6" x2="21.5" y2="91.8"/>
		<line class="st9" x1="16.1" y1="91.8" x2="26.9" y2="91.8"/>
		<text transform="matrix(1 0 0 1 21.4936 98.9765)" class="st3 st4 st5">GND</text>
	</g>
	<g>
		<line class="st8" x1="475.1" y1="178.2" x2="475.1" y2="185.4"/>
		<line class="st9" x1="469.7" y1="185.4" x2="480.5" y2="185.4"/>
		<text transform="matrix(1 0 0 1 475.0932 192.577)" class="st3 st4 st5">GND</text>
	</g>
	<g>
		<line class="st8" x1="478.7" y1="142.2" x2="493.1" y2="142.2"/>
		<text transform="matrix(1 0 0 1 499.7172 144.3368)" class="st3 st4 st10">15V</text>
		<text transform="matrix(1 0 0 1 483.8266 141.1688)" class="st3 st4 st10">1</text>
		<line class="st8" x1="478.7" y1="149.4" x2="493.1" y2="149.4"/>
		<text transform="matrix(1 0 0 1 499.7172 151.537)" class="st3 st4 st10">A</text>
		<text transform="matrix(1 0 0 1 483.8266 148.369)" class="st3 st4 st10">2</text>
		<line class="st8" x1="478.7" y1="156.6" x2="493.1" y2="156.6"/>
		<text transform="matrix(1 0 0 1 499.7172 158.7372)" class="st3 st4 st10">B</text>
		<text transform="matrix(1 0 0 1 483.8266 155.5692)" class="st3 st4 st10">3</text>
		<line class="st8" x1="478.7" y1="163.8" x2="493.1" y2="163.8"/>
		<text transform="matrix(1 0 0 1 499.7172 165.9364)" class="st3 st4 st10">GND</text>
		<text transform="matrix(1 0 0 1 483.8266 162.7684)" class="st3 st4 st10">4</text>
		<line class="st11" x1="514.7" y1="171" x2="489.5" y2="171"/>
		<line class="st12" x1="493.1" y1="142.2" x2="496.7" y2="142.2"/>
		<line class="st12" x1="493.1" y1="149.4" x2="496.7" y2="149.4"/>
		<line class="st12" x1="496.7" y1="156.6" x2="493.1" y2="156.6"/>
		<line class="st11" x1="489.5" y1="135" x2="489.5" y2="171"/>
		<line class="st11" x1="514.7" y1="171" x2="514.7" y2="135"/>
		<line class="st11" x1="489.5" y1="135" x2="514.7" y2="135"/>
		<line class="st12" x1="496.7" y1="163.8" x2="493.1" y2="163.8"/>
		<text transform="matrix(1 0 0 1 489.4936 178.1767)" class="st3 st4 st5">RS485-TERM</text>
		<text transform="matrix(1 0 0 1 489.4936 133.537)" class="st3 st4 st5">J2</text>
	</g>
	<g>
		<circle class="st13" cx="57.5" cy="41.4" r="0.9"/>
		<circle class="st13" cx="50.3" cy="48.6" r="0.9"/>
		<circle class="st13" cx="57.5" cy="48.6" r="0.9"/>
		<circle class="st13" cx="57.5" cy="55.8" r="0.9"/>
		<circle class="st13" cx="50.3" cy="55.8" r="0.9"/>
		<circle class="st13" cx="50.3" cy="63" r="0.9"/>
		<circle class="st13" cx="57.5" cy="63" r="0.9"/>
		<circle class="st13" cx="57.5" cy="70.2" r="0.9"/>
		<circle class="st13" cx="50.3" cy="70.2" r="0.9"/>
		<rect x="48.7" y="39.8" class="st14" width="3.2" height="3.2"/>
		<line class="st8" x1="35.9" y1="41.4" x2="43.1" y2="41.4"/>
		<text transform="matrix(1 0 0 1 39.4428 40.369)" class="st3 st4 st10">1</text>
		<line class="st8" x1="35.9" y1="48.6" x2="43.1" y2="48.6"/>
		<text transform="matrix(1 0 0 1 39.4428 47.5683)" class="st3 st4 st10">3</text>
		<line class="st8" x1="35.9" y1="55.8" x2="43.1" y2="55.8"/>
		<text transform="matrix(1 0 0 1 39.4428 54.7694)" class="st3 st4 st10">5</text>
		<line class="st8" x1="35.9" y1="63" x2="43.1" y2="63"/>
		<text transform="matrix(1 0 0 1 39.4428 61.9686)" class="st3 st4 st10">7</text>
		<line class="st8" x1="35.9" y1="70.2" x2="43.1" y2="70.2"/>
		<text transform="matrix(1 0 0 1 39.4428 69.1679)" class="st3 st4 st10">9</text>
		<line class="st8" x1="71.9" y1="70.2" x2="64.7" y2="70.2"/>
		<text transform="matrix(1 0 0 1 65.7016 69.1679)" class="st3 st4 st10">10</text>
		<line class="st8" x1="71.9" y1="48.6" x2="64.7" y2="48.6"/>
		<text transform="matrix(1 0 0 1 65.7016 47.5683)" class="st3 st4 st10">4</text>
		<line class="st8" x1="71.9" y1="63" x2="64.7" y2="63"/>
		<text transform="matrix(1 0 0 1 65.7016 61.9686)" class="st3 st4 st10">8</text>
		<line class="st8" x1="71.9" y1="55.8" x2="64.7" y2="55.8"/>
		<text transform="matrix(1 0 0 1 65.7016 54.7694)" class="st3 st4 st10">6</text>
		<line class="st8" x1="71.9" y1="41.4" x2="64.7" y2="41.4"/>
		<text transform="matrix(1 0 0 1 65.7016 40.369)" class="st3 st4 st10">2</text>
		<line class="st11" x1="43.1" y1="27" x2="64.7" y2="27"/>
		<line class="st11" x1="64.7" y1="84.6" x2="64.7" y2="70.2"/>
		<line class="st11" x1="64.7" y1="70.2" x2="64.7" y2="63"/>
		<line class="st11" x1="64.7" y1="63" x2="64.7" y2="55.8"/>
		<line class="st11" x1="64.7" y1="55.8" x2="64.7" y2="48.6"/>
		<line class="st11" x1="64.7" y1="48.6" x2="64.7" y2="41.4"/>
		<line class="st11" x1="64.7" y1="41.4" x2="64.7" y2="27"/>
		<line class="st11" x1="64.7" y1="84.6" x2="43.1" y2="84.6"/>
		<line class="st11" x1="43.1" y1="27" x2="43.1" y2="41.4"/>
		<line class="st11" x1="43.1" y1="41.4" x2="43.1" y2="48.6"/>
		<line class="st11" x1="43.1" y1="48.6" x2="43.1" y2="52.2"/>
		<line class="st11" x1="43.1" y1="59.4" x2="43.1" y2="63"/>
		<line class="st11" x1="43.1" y1="63" x2="43.1" y2="70.2"/>
		<line class="st11" x1="43.1" y1="70.2" x2="43.1" y2="84.6"/>
		<line class="st15" x1="43.1" y1="41.4" x2="50.3" y2="41.4"/>
		<line class="st15" x1="43.1" y1="48.6" x2="50.3" y2="48.6"/>
		<line class="st15" x1="43.1" y1="63" x2="50.3" y2="63"/>
		<line class="st15" x1="43.1" y1="70.2" x2="50.3" y2="70.2"/>
		<line class="st15" x1="57.5" y1="70.2" x2="64.7" y2="70.2"/>
		<line class="st15" x1="57.5" y1="63" x2="64.7" y2="63"/>
		<line class="st15" x1="57.5" y1="55.8" x2="64.7" y2="55.8"/>
		<line class="st15" x1="57.5" y1="48.6" x2="64.7" y2="48.6"/>
		<line class="st15" x1="57.5" y1="41.4" x2="64.7" y2="41.4"/>
		<line class="st15" x1="43.1" y1="55.8" x2="50.3" y2="55.8"/>
		<text transform="matrix(1 0 0 1 43.0932 23.3769)" class="st3 st4 st5">J3</text>
		<text transform="matrix(1 0 0 1 43.0932 91.7772)" class="st3 st4 st5">ESP-JTAG</text>
	</g>
	<g>
		<polygon class="st14" points="249.4,184.3 250.5,181.8 251.9,183.2 		"/>
		<polygon class="st14" points="249.7,187.5 250.8,185 252.3,186.5 		"/>
		<line class="st8" x1="259.1" y1="171" x2="259.1" y2="178.2"/>
		<line class="st8" x1="259.1" y1="192.6" x2="259.1" y2="185.4"/>
		<line class="st9" x1="262.7" y1="178.2" x2="259.1" y2="185.4"/>
		<line class="st9" x1="259.1" y1="185.4" x2="255.5" y2="178.2"/>
		<line class="st9" x1="262.7" y1="185.4" x2="259.1" y2="185.4"/>
		<line class="st9" x1="259.1" y1="185.4" x2="255.5" y2="185.4"/>
		<line class="st9" x1="262.7" y1="178.2" x2="259.1" y2="178.2"/>
		<line class="st9" x1="259.1" y1="178.2" x2="255.5" y2="178.2"/>
		<line class="st8" x1="253.3" y1="180.3" x2="249.4" y2="184.3"/>
		<line class="st8" x1="253.7" y1="183.6" x2="249.7" y2="187.5"/>
		<text transform="matrix(6.123234e-17 -1 1 6.123234e-17 269.1732 191.1366)" class="st3 st4 st5">LED1</text>
		<text transform="matrix(6.123234e-17 -1 1 6.123234e-17 275.2924 191.1366)" class="st3 st4 st5">RX</text>
	</g>
	<g>
		<polygon class="st14" points="285.4,184.3 286.5,181.8 287.9,183.2 		"/>
		<polygon class="st14" points="285.7,187.5 286.8,185 288.3,186.5 		"/>
		<line class="st8" x1="295.1" y1="171" x2="295.1" y2="178.2"/>
		<line class="st8" x1="295.1" y1="192.6" x2="295.1" y2="185.4"/>
		<line class="st9" x1="298.7" y1="178.2" x2="295.1" y2="185.4"/>
		<line class="st9" x1="295.1" y1="185.4" x2="291.5" y2="178.2"/>
		<line class="st9" x1="298.7" y1="185.4" x2="295.1" y2="185.4"/>
		<line class="st9" x1="295.1" y1="185.4" x2="291.5" y2="185.4"/>
		<line class="st9" x1="298.7" y1="178.2" x2="295.1" y2="178.2"/>
		<line class="st9" x1="295.1" y1="178.2" x2="291.5" y2="178.2"/>
		<line class="st8" x1="289.3" y1="180.3" x2="285.4" y2="184.3"/>
		<line class="st8" x1="289.7" y1="183.6" x2="285.7" y2="187.5"/>
		<text transform="matrix(6.123234e-17 -1 1 6.123234e-17 305.1732 191.1366)" class="st3 st4 st5">LED2</text>
		<text transform="matrix(6.123234e-17 -1 1 6.123234e-17 311.2924 191.1366)" class="st3 st4 st5">TX</text>
	</g>
	<g>
		<line class="st8" x1="122.3" y1="70.2" x2="136.7" y2="70.2"/>
		<text transform="matrix(1 0 0 1 143.3178 72.3358)" class="st3 st4 st10">!RST/!JTAG_!RST</text>
		<text transform="matrix(1 0 0 1 123.4682 69.1679)" class="st3 st4 st10">RS</text>
		<line class="st8" x1="230.3" y1="91.8" x2="215.9" y2="91.8"/>
		<text transform="matrix(1 0 0 1 202.6635 93.9374)" class="st3 st4 st10">I34</text>
		<text transform="matrix(1 0 0 1 222.517 90.7694)" class="st3 st4 st10">34</text>
		<line class="st8" x1="230.3" y1="41.4" x2="215.9" y2="41.4"/>
		<text transform="matrix(1 0 0 1 201.6098 43.537)" class="st3 st4 st10">IO0</text>
		<text transform="matrix(1 0 0 1 222.517 40.369)" class="st3 st4 st10">0</text>
		<line class="st8" x1="230.3" y1="48.6" x2="215.9" y2="48.6"/>
		<text transform="matrix(1 0 0 1 201.6098 50.7362)" class="st3 st4 st10">IO2</text>
		<text transform="matrix(1 0 0 1 222.517 47.5683)" class="st3 st4 st10">2</text>
		<line class="st8" x1="230.3" y1="55.8" x2="215.9" y2="55.8"/>
		<text transform="matrix(1 0 0 1 201.6098 57.9374)" class="st3 st4 st10">IO4</text>
		<text transform="matrix(1 0 0 1 222.517 54.7694)" class="st3 st4 st10">4</text>
		<line class="st8" x1="122.3" y1="113.4" x2="136.7" y2="113.4"/>
		<text transform="matrix(1 0 0 1 143.3178 115.537)" class="st3 st4 st10">IO5/VSPI_CS/LED</text>
		<text transform="matrix(1 0 0 1 127.4262 112.369)" class="st3 st4 st10">5</text>
		<line class="st8" x1="122.3" y1="63" x2="136.7" y2="63"/>
		<text transform="matrix(1 0 0 1 143.3178 65.1366)" class="st3 st4 st10">IO12/JTAG_DI</text>
		<text transform="matrix(1 0 0 1 124.7836 61.9686)" class="st3 st4 st10">12</text>
		<line class="st8" x1="122.3" y1="48.6" x2="136.7" y2="48.6"/>
		<text transform="matrix(1 0 0 1 143.3178 50.7362)" class="st3 st4 st10">IO13/JTAG_CK</text>
		<text transform="matrix(1 0 0 1 124.7836 47.5683)" class="st3 st4 st10">13</text>
		<line class="st8" x1="122.3" y1="41.4" x2="136.7" y2="41.4"/>
		<text transform="matrix(1 0 0 1 143.3178 43.537)" class="st3 st4 st10">IO14/JTAG_MS</text>
		<text transform="matrix(1 0 0 1 124.7836 40.369)" class="st3 st4 st10">14</text>
		<line class="st8" x1="122.3" y1="55.8" x2="136.7" y2="55.8"/>
		<text transform="matrix(1 0 0 1 143.3178 57.9374)" class="st3 st4 st10">IO15/JTAG_DO</text>
		<text transform="matrix(1 0 0 1 124.7836 54.7694)" class="st3 st4 st10">15</text>
		<line class="st8" x1="230.3" y1="63" x2="215.9" y2="63"/>
		<text transform="matrix(1 0 0 1 198.9672 65.1366)" class="st3 st4 st10">IO16</text>
		<text transform="matrix(1 0 0 1 222.517 61.9686)" class="st3 st4 st10">16</text>
		<line class="st8" x1="230.3" y1="70.2" x2="215.9" y2="70.2"/>
		<text transform="matrix(1 0 0 1 198.9672 72.3358)" class="st3 st4 st10">IO17</text>
		<text transform="matrix(1 0 0 1 222.517 69.1679)" class="st3 st4 st10">17</text>
		<line class="st8" x1="122.3" y1="106.2" x2="136.7" y2="106.2"/>
		<text transform="matrix(1 0 0 1 143.3178 108.3368)" class="st3 st4 st10">IO18/VSPI_CLK</text>
		<text transform="matrix(1 0 0 1 124.7836 105.1679)" class="st3 st4 st10">18</text>
		<line class="st8" x1="122.3" y1="99" x2="136.7" y2="99"/>
		<text transform="matrix(1 0 0 1 143.3178 101.1366)" class="st3 st4 st10">IO19/VSPI_MISO</text>
		<text transform="matrix(1 0 0 1 124.7836 97.9687)" class="st3 st4 st10">19</text>
		<line class="st8" x1="122.3" y1="127.8" x2="136.7" y2="127.8"/>
		<text transform="matrix(1 0 0 1 143.3178 129.9364)" class="st3 st4 st10">IO21/I2C_SDA</text>
		<text transform="matrix(1 0 0 1 124.7836 126.7685)" class="st3 st4 st10">21</text>
		<line class="st8" x1="122.3" y1="135" x2="136.7" y2="135"/>
		<text transform="matrix(1 0 0 1 143.3178 137.1366)" class="st3 st4 st10">IO22/I2C_SCL</text>
		<text transform="matrix(1 0 0 1 124.7836 133.9686)" class="st3 st4 st10">22</text>
		<line class="st8" x1="122.3" y1="91.8" x2="136.7" y2="91.8"/>
		<text transform="matrix(1 0 0 1 143.3178 93.9374)" class="st3 st4 st10">IO23/VSPI_MOSI</text>
		<text transform="matrix(1 0 0 1 124.7836 90.7694)" class="st3 st4 st10">23</text>
		<line class="st8" x1="230.3" y1="77.4" x2="215.9" y2="77.4"/>
		<text transform="matrix(1 0 0 1 198.9672 79.537)" class="st3 st4 st10">IO32</text>
		<text transform="matrix(1 0 0 1 222.517 76.369)" class="st3 st4 st10">32</text>
		<line class="st8" x1="230.3" y1="84.6" x2="215.9" y2="84.6"/>
		<text transform="matrix(1 0 0 1 198.9672 86.7362)" class="st3 st4 st10">IO33</text>
		<text transform="matrix(1 0 0 1 222.517 83.5683)" class="st3 st4 st10">33</text>
		<line class="st8" x1="230.3" y1="156.6" x2="215.9" y2="156.6"/>
		<text transform="matrix(1 0 0 1 185.5863 158.7372)" class="st3 st4 st10">RTS2/IO27</text>
		<text transform="matrix(1 0 0 1 222.517 155.5692)" class="st3 st4 st10">27</text>
		<line class="st8" x1="230.3" y1="120.6" x2="215.9" y2="120.6"/>
		<text transform="matrix(1 0 0 1 191.0453 122.7372)" class="st3 st4 st10">RX0/IO3</text>
		<text transform="matrix(1 0 0 1 222.517 119.5692)" class="st3 st4 st10">RX</text>
		<line class="st8" x1="230.3" y1="142.2" x2="215.9" y2="142.2"/>
		<text transform="matrix(1 0 0 1 188.4028 144.3368)" class="st3 st4 st10">RX2/IO25</text>
		<text transform="matrix(1 0 0 1 222.517 141.1688)" class="st3 st4 st10">25</text>
		<line class="st8" x1="230.3" y1="127.8" x2="215.9" y2="127.8"/>
		<text transform="matrix(1 0 0 1 191.5746 129.9364)" class="st3 st4 st10">TX0/IO1</text>
		<text transform="matrix(1 0 0 1 222.517 126.7685)" class="st3 st4 st10">TX</text>
		<line class="st8" x1="230.3" y1="149.4" x2="215.9" y2="149.4"/>
		<text transform="matrix(1 0 0 1 188.9321 151.537)" class="st3 st4 st10">TX2/IO26</text>
		<text transform="matrix(1 0 0 1 222.517 148.369)" class="st3 st4 st10">26</text>
		<line class="st8" x1="230.3" y1="106.2" x2="215.9" y2="106.2"/>
		<text transform="matrix(1 0 0 1 194.7416 108.3368)" class="st3 st4 st10">VN/I39</text>
		<text transform="matrix(1 0 0 1 222.517 105.1679)" class="st3 st4 st10">VN</text>
		<line class="st8" x1="230.3" y1="99" x2="215.9" y2="99"/>
		<text transform="matrix(1 0 0 1 195.0043 101.1366)" class="st3 st4 st10">VP/I36</text>
		<text transform="matrix(1 0 0 1 222.517 97.9687)" class="st3 st4 st10">VP</text>
		<line class="st9" x1="158.3" y1="163.8" x2="215.9" y2="163.8"/>
		<line class="st9" x1="215.9" y1="163.8" x2="215.9" y2="34.2"/>
		<line class="st9" x1="215.9" y1="34.2" x2="136.7" y2="34.2"/>
		<line class="st9" x1="136.7" y1="34.2" x2="136.7" y2="142.2"/>
		<line class="st9" x1="136.7" y1="142.2" x2="136.7" y2="163.8"/>
		<line class="st9" x1="158.3" y1="142.2" x2="136.7" y2="142.2"/>
		<line class="st9" x1="158.3" y1="163.8" x2="136.7" y2="163.8"/>
		<line class="st9" x1="158.3" y1="142.2" x2="158.3" y2="163.8"/>
		<line class="st12" x1="154" y1="149.4" x2="157.6" y2="149.4"/>
		<line class="st12" x1="154" y1="156.6" x2="157.6" y2="156.6"/>
		<line class="st12" x1="154" y1="153" x2="157.6" y2="153"/>
		<line class="st12" x1="154" y1="145.8" x2="157.6" y2="145.8"/>
		<line class="st12" x1="154" y1="160.2" x2="157.6" y2="160.2"/>
		<text transform="matrix(6.123234e-17 -1 1 6.123234e-17 148.933 160.1757)" class="st14 st4 st5">USB</text>
		<text transform="matrix(1 0 0 1 136.6938 178.1767)" class="st2"><tspan x="0" y="0" class="st14 st4 st16">I2C pins don&apos;t have pull-up resistors </tspan><tspan x="0" y="4.8" class="st14 st4 st16">USB Serial uses IO3 for RX0, and IO1 for TX0 </tspan><tspan x="0" y="9.5" class="st14 st4 st16">Read the BAT voltage from IO35 and double it</tspan></text>
		<text transform="matrix(1 0 0 1 136.6938 30.5761)" class="st3 st4 st5">PCB1</text>
		<text transform="matrix(1 0 0 1 136.6938 170.9765)" class="st3 st4 st5">LOLIN-D32</text>
	</g>
	<g>
		<line class="st8" x1="259.1" y1="221.4" x2="259.1" y2="214.2"/>
		<line class="st8" x1="259.1" y1="192.6" x2="259.1" y2="199.8"/>
		<line class="st9" x1="256.6" y1="214.2" x2="256.6" y2="199.8"/>
		<line class="st9" x1="261.6" y1="199.8" x2="261.6" y2="214.2"/>
		<line class="st9" x1="256.6" y1="199.8" x2="261.6" y2="199.8"/>
		<line class="st9" x1="256.6" y1="214.2" x2="261.6" y2="214.2"/>
		<text transform="matrix(6.123234e-17 -1 1 6.123234e-17 268.3803 217.7772)" class="st3 st4 st5">R1</text>
		<text transform="matrix(6.123234e-17 -1 1 6.123234e-17 276.3725 217.7772)" class="st3 st4 st5">68&amp;</text>
	</g>
	<g>
		<line class="st8" x1="295.1" y1="221.4" x2="295.1" y2="214.2"/>
		<line class="st8" x1="295.1" y1="192.6" x2="295.1" y2="199.8"/>
		<line class="st9" x1="292.6" y1="214.2" x2="292.6" y2="199.8"/>
		<line class="st9" x1="297.6" y1="199.8" x2="297.6" y2="214.2"/>
		<line class="st9" x1="292.6" y1="199.8" x2="297.6" y2="199.8"/>
		<line class="st9" x1="292.6" y1="214.2" x2="297.6" y2="214.2"/>
		<text transform="matrix(6.123234e-17 -1 1 6.123234e-17 304.3803 217.7772)" class="st3 st4 st5">R2</text>
		<text transform="matrix(6.123234e-17 -1 1 6.123234e-17 312.3725 217.7772)" class="st3 st4 st5">68&amp;</text>
	</g>
	<g>
		<line class="st8" x1="460.7" y1="120.6" x2="453.5" y2="120.6"/>
		<line class="st8" x1="431.9" y1="120.6" x2="439.1" y2="120.6"/>
		<line class="st9" x1="453.5" y1="123.1" x2="439.1" y2="123.1"/>
		<line class="st9" x1="439.1" y1="118.1" x2="453.5" y2="118.1"/>
		<line class="st9" x1="439.1" y1="123.1" x2="439.1" y2="118.1"/>
		<line class="st9" x1="453.5" y1="123.1" x2="453.5" y2="118.1"/>
		<text transform="matrix(1 0 0 1 450.0063 116.329)" class="st3 st4 st5">R3</text>
		<text transform="matrix(1 0 0 1 444.1459 129.9364)" class="st3 st4 st5">120&amp;</text>
	</g>
	<g>
		<line class="st8" x1="431.9" y1="120.6" x2="424.7" y2="120.6"/>
		<text transform="matrix(1 0 0 1 425.7016 119.5692)" class="st3 st4 st10">1</text>
		<line class="st8" x1="403.1" y1="120.6" x2="410.3" y2="120.6"/>
		<text transform="matrix(1 0 0 1 406.643 119.5692)" class="st3 st4 st10">2</text>
		<path class="st17" d="M416.4,118.8c-1,0-1.8,0.8-1.8,1.8c0,1,0.8,1.8,1.8,1.8c0,0,0,0,0,0"/>
		<path class="st17" d="M418.6,122.4c1,0,1.8-0.8,1.8-1.8c0-1-0.8-1.8-1.8-1.8c0,0,0,0,0,0"/>
		<line class="st8" x1="410.3" y1="120.6" x2="412.8" y2="120.6"/>
		<line class="st8" x1="424.7" y1="120.6" x2="422.2" y2="120.6"/>
		<text transform="matrix(1 0 0 1 415.14 113.3769)" class="st3 st4 st5">SJ1</text>
		<text transform="matrix(1 0 0 1 411.142 106.8964)" class="st3 st4 st5">OPEN</text>
	</g>
	<g>
		<line class="st8" x1="244.7" y1="41.4" x2="251.9" y2="41.4"/>
		<text transform="matrix(1 0 0 1 248.2426 40.369)" class="st3 st4 st10">1</text>
		<line class="st8" x1="244.7" y1="48.6" x2="251.9" y2="48.6"/>
		<text transform="matrix(1 0 0 1 248.2426 47.5683)" class="st3 st4 st10">2</text>
		<line class="st8" x1="280.7" y1="48.6" x2="273.5" y2="48.6"/>
		<text transform="matrix(1 0 0 1 274.5014 47.5683)" class="st3 st4 st10">3</text>
		<line class="st8" x1="280.7" y1="41.4" x2="273.5" y2="41.4"/>
		<text transform="matrix(1 0 0 1 274.5014 40.369)" class="st3 st4 st10">4</text>
		<line class="st9" x1="251.9" y1="41.4" x2="251.9" y2="48.6"/>
		<line class="st9" x1="273.5" y1="41.4" x2="273.5" y2="48.6"/>
		<line class="st9" x1="251.9" y1="41.4" x2="255.5" y2="41.4"/>
		<line class="st9" x1="269.9" y1="41.4" x2="273.5" y2="41.4"/>
		<line class="st9" x1="255.5" y1="41.4" x2="269.9" y2="37.8"/>
		<text transform="matrix(1 0 0 1 251.8881 55.7655)" class="st3 st4 st18">SW1</text>
		<text transform="matrix(1 0 0 1 251.8881 34.1874)" class="st3 st4 st19">Factory (5 sec)</text>
	</g>
	<g>
		<circle class="st20" cx="356.3" cy="128.9" r="1.8"/>
		<circle class="st20" cx="365.3" cy="126" r="1.8"/>
		<circle class="st20" cx="361" cy="158.4" r="1.8"/>
		<circle class="st21" cx="370.7" cy="135" r="0.7"/>
		<circle class="st21" cx="379.7" cy="149.4" r="0.7"/>
		<line class="st8" x1="395.9" y1="149.4" x2="388.7" y2="149.4"/>
		<text transform="matrix(1 0 0 1 389.7016 148.369)" class="st3 st4 st10">6</text>
		<line class="st8" x1="395.9" y1="135" x2="388.7" y2="135"/>
		<text transform="matrix(1 0 0 1 389.7016 133.9686)" class="st3 st4 st10">7</text>
		<line class="st8" x1="323.9" y1="149.4" x2="331.1" y2="149.4"/>
		<text transform="matrix(1 0 0 1 337.7172 151.537)" class="st3 st4 st10">DE</text>
		<text transform="matrix(1 0 0 1 327.4428 148.369)" class="st3 st4 st10">3</text>
		<line class="st8" x1="323.9" y1="163.8" x2="331.1" y2="163.8"/>
		<text transform="matrix(1 0 0 1 337.7172 165.9364)" class="st3 st4 st10">DI</text>
		<text transform="matrix(1 0 0 1 327.4428 162.7684)" class="st3 st4 st10">4</text>
		<line class="st8" x1="323.9" y1="135" x2="331.1" y2="135"/>
		<text transform="matrix(1 0 0 1 337.7172 137.1366)" class="st3 st4 st10">RE/</text>
		<text transform="matrix(1 0 0 1 327.4428 133.9686)" class="st3 st4 st10">2</text>
		<line class="st8" x1="323.9" y1="120.6" x2="331.1" y2="120.6"/>
		<text transform="matrix(1 0 0 1 337.7172 122.7372)" class="st3 st4 st10">RO</text>
		<text transform="matrix(1 0 0 1 327.4428 119.5692)" class="st3 st4 st10">1</text>
		<line class="st9" x1="331.1" y1="106.2" x2="388.7" y2="106.2"/>
		<line class="st9" x1="388.7" y1="106.2" x2="388.7" y2="135"/>
		<line class="st9" x1="388.7" y1="135" x2="388.7" y2="149.4"/>
		<line class="st9" x1="388.7" y1="149.4" x2="388.7" y2="178.2"/>
		<line class="st9" x1="388.7" y1="178.2" x2="331.1" y2="178.2"/>
		<line class="st9" x1="331.1" y1="178.2" x2="331.1" y2="163.8"/>
		<line class="st9" x1="331.1" y1="163.8" x2="331.1" y2="149.4"/>
		<line class="st9" x1="331.1" y1="149.4" x2="331.1" y2="135"/>
		<line class="st9" x1="331.1" y1="135" x2="331.1" y2="120.6"/>
		<line class="st9" x1="331.1" y1="120.6" x2="331.1" y2="106.2"/>
		<line class="st22" x1="363.5" y1="109.8" x2="363.5" y2="115.2"/>
		<line class="st22" x1="363.5" y1="115.2" x2="363.5" y2="131.4"/>
		<line class="st22" x1="363.5" y1="131.4" x2="347.3" y2="120.6"/>
		<line class="st22" x1="347.3" y1="120.6" x2="363.5" y2="109.8"/>
		<line class="st22" x1="347.3" y1="174.6" x2="347.3" y2="163.8"/>
		<line class="st22" x1="347.3" y1="163.8" x2="347.3" y2="153"/>
		<line class="st22" x1="347.3" y1="153" x2="367.1" y2="163.8"/>
		<line class="st22" x1="367.1" y1="163.8" x2="347.3" y2="174.6"/>
		<line class="st22" x1="350.5" y1="135" x2="356.3" y2="135"/>
		<line class="st22" x1="356.3" y1="135" x2="356.3" y2="130.7"/>
		<line class="st22" x1="345.5" y1="149.4" x2="354.5" y2="149.4"/>
		<line class="st22" x1="354.5" y1="149.4" x2="354.5" y2="156.9"/>
		<line class="st22" x1="379.7" y1="168.1" x2="379.7" y2="149.4"/>
		<line class="st22" x1="379.7" y1="149.4" x2="379.7" y2="115.2"/>
		<line class="st22" x1="363.5" y1="115.2" x2="379.7" y2="115.2"/>
		<line class="st22" x1="362.8" y1="158.4" x2="370.7" y2="158.4"/>
		<line class="st22" x1="370.7" y1="158.4" x2="370.7" y2="135"/>
		<line class="st22" x1="370.7" y1="135" x2="370.7" y2="126"/>
		<line class="st22" x1="370.7" y1="126" x2="367.1" y2="126"/>
		<line class="st22" x1="388.7" y1="135" x2="370.7" y2="135"/>
		<line class="st22" x1="388.7" y1="149.4" x2="379.7" y2="149.4"/>
		<line class="st22" x1="331.1" y1="120.6" x2="336.1" y2="120.6"/>
		<line class="st22" x1="345.9" y1="120.6" x2="347.3" y2="120.6"/>
		<line class="st22" x1="331.1" y1="135" x2="336.1" y2="135"/>
		<line class="st22" x1="331.1" y1="163.8" x2="335.8" y2="163.8"/>
		<line class="st22" x1="344.8" y1="163.8" x2="347.3" y2="163.8"/>
		<line class="st22" x1="331.1" y1="149.4" x2="335.8" y2="149.4"/>
		<line class="st22" x1="359.9" y1="168.1" x2="379.7" y2="168.1"/>
		<text transform="matrix(1 0 0 1 381.4936 156.577)" class="st3 st4 st5">A</text>
		<text transform="matrix(1 0 0 1 381.4936 131.3768)" class="st3 st4 st5">B</text>
		<text transform="matrix(1 0 0 1 331.0932 102.5761)" class="st3 st4 st5">U1</text>
		<text transform="matrix(1 0 0 1 331.0932 185.3768)" class="st3 st4 st5">MAX3485CSA+</text>
	</g>
</g>
<g id="Power">
	<text transform="matrix(1 0 0 1 465.0131 -69.504)" class="st3 st4 st16">bypass</text>
	<line class="st6" x1="395.9" y1="-117" x2="395.9" y2="-102.6"/>
	<line class="st6" x1="439.1" y1="-117" x2="439.1" y2="-109.8"/>
	<line class="st6" x1="460.7" y1="-109.8" x2="460.7" y2="-102.6"/>
	<line class="st6" x1="460.7" y1="-109.8" x2="439.1" y2="-109.8"/>
	<circle class="st7" cx="439.1" cy="-109.8" r="1.4"/>
	<line class="st6" x1="179.9" y1="-102.6" x2="151.1" y2="-102.6"/>
	<text transform="matrix(1 0 0 1 151.0932 -102.6231)" class="st3 st4 st5">15V</text>
	<line class="st6" x1="244.7" y1="-59.4" x2="244.7" y2="-66.6"/>
	<line class="st6" x1="201.5" y1="-59.4" x2="201.5" y2="-66.6"/>
	<line class="st6" x1="280.7" y1="-66.6" x2="280.7" y2="-59.4"/>
	<line class="st6" x1="395.9" y1="-73.8" x2="395.9" y2="-59.4"/>
	<line class="st6" x1="439.1" y1="-59.4" x2="439.1" y2="-66.6"/>
	<line class="st6" x1="460.7" y1="-66.6" x2="460.7" y2="-81"/>
	<line class="st6" x1="460.7" y1="-66.6" x2="439.1" y2="-66.6"/>
	<circle class="st7" cx="439.1" cy="-66.6" r="1.4"/>
	<g>
		<line class="st6" x1="194.3" y1="-102.6" x2="201.5" y2="-102.6"/>
		<line class="st6" x1="201.5" y1="-102.6" x2="208.7" y2="-102.6"/>
		<line class="st6" x1="201.5" y1="-88.2" x2="201.5" y2="-102.6"/>
		<circle class="st7" cx="201.5" cy="-102.6" r="1.4"/>
	</g>
	<g>
		<line class="st6" x1="280.7" y1="-88.2" x2="280.7" y2="-102.6"/>
		<line class="st6" x1="280.7" y1="-102.6" x2="309.5" y2="-102.6"/>
		<circle class="st7" cx="280.7" cy="-102.6" r="1.4"/>
	</g>
	<g>
		<line class="st8" x1="439.1" y1="-117" x2="439.1" y2="-124.2"/>
		<line class="st9" x1="442.7" y1="-118.8" x2="439.1" y2="-124.2"/>
		<line class="st9" x1="439.1" y1="-124.2" x2="435.5" y2="-118.8"/>
		<text transform="matrix(1 0 0 1 439.0932 -127.8224)" class="st3 st4 st5">3V3</text>
	</g>
	<line class="st8" x1="395.9" y1="-117" x2="395.9" y2="-124.2"/>
	<line class="st9" x1="399.5" y1="-118.8" x2="395.9" y2="-124.2"/>
	<line class="st9" x1="395.9" y1="-124.2" x2="392.3" y2="-118.8"/>
	<text transform="matrix(1 0 0 1 395.893 -127.8224)" class="st3 st4 st5">3V3</text>
	<g>
		<rect x="195.7" y="-76.7" class="st14" width="11.5" height="1.4"/>
		<rect x="195.7" y="-79.6" class="st14" width="11.5" height="1.4"/>
		<line class="st8" x1="201.5" y1="-88.2" x2="201.5" y2="-81"/>
		<line class="st8" x1="201.5" y1="-66.6" x2="201.5" y2="-73.8"/>
		<line class="st8" x1="201.5" y1="-81" x2="201.5" y2="-79.6"/>
		<line class="st8" x1="201.5" y1="-73.8" x2="201.5" y2="-75.3"/>
		<text transform="matrix(1 0 0 1 205.8129 -82.1036)" class="st3 st4 st5">C1</text>
		<text transform="matrix(1 0 0 1 205.8129 -67.7032)" class="st3 st4 st5">10uF mlcc 25V</text>
	</g>
	<g>
		<rect x="274.9" y="-76.7" class="st14" width="11.5" height="1.4"/>
		<rect x="274.9" y="-79.6" class="st14" width="11.5" height="1.4"/>
		<line class="st8" x1="280.7" y1="-88.2" x2="280.7" y2="-81"/>
		<line class="st8" x1="280.7" y1="-66.6" x2="280.7" y2="-73.8"/>
		<line class="st8" x1="280.7" y1="-81" x2="280.7" y2="-79.6"/>
		<line class="st8" x1="280.7" y1="-73.8" x2="280.7" y2="-75.3"/>
		<text transform="matrix(1 0 0 1 285.0131 -82.1036)" class="st3 st4 st5">C2</text>
		<text transform="matrix(1 0 0 1 285.0131 -67.7032)" class="st3 st4 st5">10uF mlcc</text>
	</g>
	<g>
		<rect x="454.9" y="-91.1" class="st14" width="11.5" height="1.4"/>
		<rect x="454.9" y="-94" class="st14" width="11.5" height="1.4"/>
		<line class="st8" x1="460.7" y1="-102.6" x2="460.7" y2="-95.4"/>
		<line class="st8" x1="460.7" y1="-81" x2="460.7" y2="-88.2"/>
		<line class="st8" x1="460.7" y1="-95.4" x2="460.7" y2="-94"/>
		<line class="st8" x1="460.7" y1="-88.2" x2="460.7" y2="-89.7"/>
		<text transform="matrix(1 0 0 1 465.0131 -96.504)" class="st3 st4 st5">C3</text>
		<text transform="matrix(1 0 0 1 465.0131 -82.1036)" class="st3 st4 st5">0.1uF cer.</text>
	</g>
	<line class="st8" x1="179.9" y1="-102.6" x2="187.1" y2="-102.6"/>
	<line class="st8" x1="194.3" y1="-102.6" x2="187.1" y2="-102.6"/>
	<line class="st9" x1="183.5" y1="-99" x2="190.7" y2="-102.6"/>
	<line class="st9" x1="190.7" y1="-102.6" x2="183.5" y2="-106.2"/>
	<line class="st9" x1="192.5" y1="-106.2" x2="190.7" y2="-106.2"/>
	<line class="st9" x1="190.7" y1="-106.2" x2="190.7" y2="-102.6"/>
	<line class="st9" x1="183.5" y1="-106.2" x2="183.5" y2="-99"/>
	<line class="st9" x1="190.7" y1="-102.6" x2="190.7" y2="-99"/>
	<line class="st9" x1="192.5" y1="-106.2" x2="192.5" y2="-105.5"/>
	<line class="st9" x1="190.7" y1="-99" x2="188.9" y2="-99"/>
	<line class="st9" x1="188.9" y1="-99.7" x2="188.9" y2="-99"/>
	<text transform="matrix(1 0 0 1 187.0932 -108.0235)" class="st3 st4 st5">D2</text>
	<text transform="matrix(1 0 0 1 187.0932 -92.1837)" class="st3 st4 st5">1N5818</text>
	<g>
		<line class="st8" x1="244.7" y1="-66.6" x2="244.7" y2="-88.2"/>
		<text transform="matrix(6.123234e-17 -1 1 6.123234e-17 243.685 -78.9571)" class="st3 st4 st10">2</text>
		<line class="st8" x1="208.7" y1="-102.6" x2="223.1" y2="-102.6"/>
		<text transform="matrix(1 0 0 1 229.7172 -100.463)" class="st3 st4 st10">VIN</text>
		<text transform="matrix(1 0 0 1 213.8266 -103.631)" class="st3 st4 st10">1</text>
		<line class="st8" x1="280.7" y1="-102.6" x2="266.3" y2="-102.6"/>
		<text transform="matrix(1 0 0 1 246.4692 -100.463)" class="st3 st4 st10">VOUT</text>
		<text transform="matrix(1 0 0 1 272.9174 -103.631)" class="st3 st4 st10">3</text>
		<line class="st11" x1="223.1" y1="-117" x2="266.3" y2="-117"/>
		<line class="st11" x1="266.3" y1="-117" x2="266.3" y2="-88.2"/>
		<line class="st11" x1="266.3" y1="-88.2" x2="223.1" y2="-88.2"/>
		<line class="st11" x1="223.1" y1="-88.2" x2="223.1" y2="-117"/>
		<text transform="matrix(1 0 0 1 244.6938 -110.9024)" class="st14 st4 st16">DC/DC</text>
		<text transform="matrix(1 0 0 1 237.4936 -91.8224)" class="st3 st4 st10">GND</text>
		<text transform="matrix(1 0 0 1 223.0932 -126.3829)" class="st3 st4 st5">DC1</text>
		<text transform="matrix(1 0 0 1 223.0932 -119.9024)" class="st3 st4 st5">R-78E5.0-0.5</text>
	</g>
	<g>
		<line class="st8" x1="201.5" y1="-59.4" x2="201.5" y2="-52.2"/>
		<line class="st9" x1="206.9" y1="-52.2" x2="196.1" y2="-52.2"/>
		<text transform="matrix(1 0 0 1 196.3735 -45.0235)" class="st3 st4 st5">GND</text>
	</g>
	<g>
		<line class="st8" x1="280.7" y1="-59.4" x2="280.7" y2="-52.2"/>
		<line class="st9" x1="286.1" y1="-52.2" x2="275.3" y2="-52.2"/>
		<text transform="matrix(1 0 0 1 275.5736 -45.0235)" class="st3 st4 st5">GND</text>
	</g>
	<g>
		<line class="st8" x1="244.7" y1="-59.4" x2="244.7" y2="-52.2"/>
		<line class="st9" x1="250.1" y1="-52.2" x2="239.3" y2="-52.2"/>
		<text transform="matrix(1 0 0 1 239.5737 -45.0235)" class="st3 st4 st5">GND</text>
	</g>
	<line class="st8" x1="395.9" y1="-59.4" x2="395.9" y2="-52.2"/>
	<line class="st9" x1="390.5" y1="-52.2" x2="401.3" y2="-52.2"/>
	<text transform="matrix(1 0 0 1 395.893 -45.0235)" class="st3 st4 st5">GND</text>
	<line class="st8" x1="439.1" y1="-59.4" x2="439.1" y2="-52.2"/>
	<line class="st9" x1="433.7" y1="-52.2" x2="444.5" y2="-52.2"/>
	<text transform="matrix(1 0 0 1 439.0932 -45.0235)" class="st3 st4 st5">GND</text>
	<g>
		<line class="st8" x1="395.9" y1="-102.6" x2="381.5" y2="-102.6"/>
		<text transform="matrix(1 0 0 1 366.4145 -100.463)" class="st3 st4 st10">3V3</text>
		<text transform="matrix(1 0 0 1 388.1176 -103.631)" class="st3 st4 st10">3V3</text>
		<line class="st8" x1="309.5" y1="-102.6" x2="323.9" y2="-102.6"/>
		<text transform="matrix(1 0 0 1 330.517 -100.463)" class="st3 st4 st10">BAT</text>
		<text transform="matrix(1 0 0 1 308.3803 -103.631)" class="st3 st4 st10">BAT</text>
		<line class="st8" x1="309.5" y1="-95.4" x2="323.9" y2="-95.4"/>
		<text transform="matrix(1 0 0 1 330.517 -93.2638)" class="st3 st4 st10">EN</text>
		<text transform="matrix(1 0 0 1 310.6684 -96.4317)" class="st3 st4 st10">EN</text>
		<line class="st8" x1="395.9" y1="-73.8" x2="381.5" y2="-73.8"/>
		<text transform="matrix(1 0 0 1 364.31 -71.6642)" class="st3 st4 st10">GND</text>
		<text transform="matrix(1 0 0 1 388.1176 -74.8321)" class="st3 st4 st10">GND*3</text>
		<line class="st8" x1="395.9" y1="-88.2" x2="381.5" y2="-88.2"/>
		<text transform="matrix(1 0 0 1 365.0981 -86.0626)" class="st3 st4 st10">USB</text>
		<text transform="matrix(1 0 0 1 388.1176 -89.2306)" class="st3 st4 st10">USB_5V</text>
		<line class="st9" x1="323.9" y1="-66.6" x2="345.5" y2="-66.6"/>
		<line class="st9" x1="345.5" y1="-66.6" x2="381.5" y2="-66.6"/>
		<line class="st9" x1="381.5" y1="-66.6" x2="381.5" y2="-109.8"/>
		<line class="st9" x1="381.5" y1="-109.8" x2="323.9" y2="-109.8"/>
		<line class="st9" x1="323.9" y1="-109.8" x2="323.9" y2="-88.2"/>
		<line class="st9" x1="323.9" y1="-88.2" x2="323.9" y2="-66.6"/>
		<line class="st9" x1="345.5" y1="-88.2" x2="323.9" y2="-88.2"/>
		<line class="st12" x1="341.2" y1="-73.8" x2="344.8" y2="-73.8"/>
		<line class="st12" x1="341.2" y1="-81" x2="344.8" y2="-81"/>
		<line class="st9" x1="345.5" y1="-88.2" x2="345.5" y2="-66.6"/>
		<text transform="matrix(6.123234e-17 -1 1 6.123234e-17 336.1322 -70.9435)" class="st14 st4 st5">BAT</text>
		<text transform="matrix(1 0 0 1 323.893 -113.4239)" class="st3 st4 st5">PCB1</text>
		<text transform="matrix(1 0 0 1 323.893 -59.4239)" class="st3 st4 st5">LOLIN-D32</text>
	</g>
	<g>
		<line class="st8" x1="439.1" y1="-66.6" x2="439.1" y2="-81"/>
		<text transform="matrix(6.123234e-17 -1 1 6.123234e-17 438.0844 -71.756)" class="st3 st4 st10">5</text>
		<line class="st8" x1="439.1" y1="-109.8" x2="439.1" y2="-95.4"/>
		<text transform="matrix(6.123234e-17 -1 1 6.123234e-17 438.0844 -102.047)" class="st3 st4 st10">8</text>
		<text transform="matrix(6.123234e-17 -1 1 6.123234e-17 443.4125 -81.0235)" class="st3 st4" style="font-size:3.168px;">GND</text>
		<text transform="matrix(6.123234e-17 -1 1 6.123234e-17 443.4125 -95.4239)" class="st3 st4" style="font-size:3.168px;">3V3</text>
		<text transform="matrix(1 0 0 1 439.0932 -86.0626)" class="st3 st4 st5">U1</text>
	</g>
</g>
</svg>
